%TF.GenerationSoftware,KiCad,Pcbnew,10.0.6*%
%TF.CreationDate,2026-09-26T23:15:02+10:00*%
%TF.ProjectId,aioair-v2,61696f61-6972-42d7-9632-2e6b69636164,v1.0.0*%
%TF.SameCoordinates,Original*%
%TF.FileFunction,Copper,L2,Inr*%
%TF.FilePolarity,Positive*%
%FSLAX46Y46*%
G04 Gerber Fmt 4.6, Leading zero omitted, Abs format (unit mm)*
G04 Created by KiCad (PCBNEW 10.0.6) date 2026-09-26 23:15:02*
%MOMM*%
%LPD*%
G01*
G04 APERTURE LIST*
G04 Aperture macros list*
%AMRoundRect*
0 Rectangle with rounded corners*
0 $1 Rounding radius*
0 $2 $3 $4 $5 $6 $7 $8 $9 X,Y pos of 4 corners*
0 Add a 4 corners polygon primitive as box body*
4,1,4,$2,$3,$4,$5,$6,$7,$8,$9,$2,$3,0*
0 Add four circle primitives for the rounded corners*
1,1,$1+$1,$2,$3*
1,1,$1+$1,$4,$5*
1,1,$1+$1,$6,$7*
1,1,$1+$1,$8,$9*
0 Add four rect primitives between the rounded corners*
20,1,$1+$1,$2,$3,$4,$5,0*
20,1,$1+$1,$4,$5,$6,$7,0*
20,1,$1+$1,$6,$7,$8,$9,0*
20,1,$1+$1,$8,$9,$2,$3,0*%
G04 Aperture macros list end*
%TA.AperFunction,ComponentPad*%
%ADD10C,2.600000*%
%TD*%
%TA.AperFunction,ComponentPad*%
%ADD11RoundRect,0.300000X-0.700000X-1.200000X0.700000X-1.200000X0.700000X1.200000X-0.700000X1.200000X0*%
%TD*%
%TA.AperFunction,ComponentPad*%
%ADD12O,2.000000X3.000000*%
%TD*%
%TA.AperFunction,ComponentPad*%
%ADD13RoundRect,0.300000X0.700000X1.200000X-0.700000X1.200000X-0.700000X-1.200000X0.700000X-1.200000X0*%
%TD*%
%TA.AperFunction,ComponentPad*%
%ADD14R,1.700000X1.700000*%
%TD*%
%TA.AperFunction,ComponentPad*%
%ADD15O,1.700000X1.700000*%
%TD*%
%TA.AperFunction,ComponentPad*%
%ADD16R,1.400000X1.400000*%
%TD*%
%TA.AperFunction,ComponentPad*%
%ADD17O,1.400000X1.400000*%
%TD*%
%TA.AperFunction,ViaPad*%
%ADD18C,0.600000*%
%TD*%
%TA.AperFunction,Conductor*%
%ADD19C,1.000000*%
%TD*%
%TA.AperFunction,Conductor*%
%ADD20C,0.250000*%
%TD*%
G04 APERTURE END LIST*
D10*
%TO.N,N/C*%
%TO.C,REF\u002A\u002A*%
X28000000Y-53000000D03*
%TD*%
D11*
%TO.N,GND*%
%TO.C,U4*%
X24440000Y-67300000D03*
X32060000Y-67300000D03*
D12*
%TO.N,+5V*%
X26980000Y-67300000D03*
X29520000Y-67300000D03*
%TD*%
D13*
%TO.N,GND*%
%TO.C,U7*%
X39200000Y-59800000D03*
X36660000Y-59800000D03*
D12*
%TO.N,+5V*%
X34120000Y-59800000D03*
X31580000Y-59800000D03*
%TD*%
D14*
%TO.N,/TXD*%
%TO.C,U3*%
X16190000Y-26477500D03*
D15*
%TO.N,/RXD*%
X16190000Y-23937500D03*
%TO.N,GND*%
X16190000Y-21397500D03*
%TO.N,+5V*%
X16190000Y-18857500D03*
%TD*%
D16*
%TO.N,+3V3*%
%TO.C,CN4*%
X39645000Y-46012500D03*
D17*
%TO.N,GND*%
X37645000Y-46012500D03*
X35645000Y-46012500D03*
%TO.N,/SDA*%
X33645000Y-46012500D03*
%TO.N,/SCL*%
X31645000Y-46012500D03*
%TD*%
D14*
%TO.N,GND*%
%TO.C,U5*%
X16200000Y-48310000D03*
D15*
%TO.N,+3V3*%
X16200000Y-45770000D03*
%TO.N,/BL*%
X16200000Y-43230000D03*
%TO.N,/D{slash}C*%
X16200000Y-40690000D03*
%TD*%
D16*
%TO.N,+5V*%
%TO.C,CN3*%
X24232500Y-48427500D03*
D17*
%TO.N,GND*%
X24232500Y-46427500D03*
%TO.N,/SEL*%
X24232500Y-44427500D03*
%TO.N,/RX2*%
X24232500Y-42427500D03*
%TO.N,/TX2*%
X24232500Y-40427500D03*
%TD*%
D14*
%TO.N,/MOSI*%
%TO.C,U6*%
X16200000Y-37500000D03*
D15*
%TO.N,/MISO*%
X16200000Y-34960000D03*
%TO.N,/SCK*%
X16200000Y-32420000D03*
%TO.N,/CS*%
X16200000Y-29880000D03*
%TD*%
D16*
%TO.N,+3V3*%
%TO.C,CN1*%
X39775000Y-52465000D03*
D17*
%TO.N,GND*%
X37775000Y-52465000D03*
%TO.N,/SDA*%
X35775000Y-52465000D03*
%TO.N,/SCL*%
X33775000Y-52465000D03*
%TD*%
D16*
%TO.N,+3V3*%
%TO.C,CN2*%
X39645000Y-39922500D03*
D17*
%TO.N,GND*%
X37645000Y-39922500D03*
X35645000Y-39922500D03*
%TO.N,/SDA*%
X33645000Y-39922500D03*
%TO.N,/SCL*%
X31645000Y-39922500D03*
%TD*%
D18*
%TO.N,*%
X28700000Y-64150000D03*
X28700000Y-64650000D03*
X30700000Y-64150000D03*
X27700000Y-64650000D03*
X29200000Y-64150000D03*
X26200000Y-64150000D03*
X31700000Y-64150000D03*
X29700000Y-64150000D03*
X29700000Y-64650000D03*
X26700000Y-64150000D03*
X26700000Y-64650000D03*
X31200000Y-64150000D03*
X27200000Y-64650000D03*
X30700000Y-64650000D03*
X28200000Y-64150000D03*
X29200000Y-64650000D03*
X24700000Y-64650000D03*
X25200000Y-64150000D03*
X30200000Y-64650000D03*
X27700000Y-64150000D03*
X28200000Y-64650000D03*
X29700000Y-64650000D03*
X31700000Y-64650000D03*
X31200000Y-64650000D03*
X25700000Y-64650000D03*
X25200000Y-64650000D03*
X27200000Y-64150000D03*
X26200000Y-64650000D03*
X25700000Y-64150000D03*
X24700000Y-64150000D03*
X29700000Y-64150000D03*
X30200000Y-64150000D03*
%TO.N,GND*%
X36200000Y-33935000D03*
X18050000Y-21450000D03*
X21700000Y-55635000D03*
X41400000Y-38631084D03*
X20500000Y-49235000D03*
X35400000Y-33935000D03*
X39800000Y-37835000D03*
X42200000Y-37035000D03*
X42200000Y-38631084D03*
X36300000Y-43731084D03*
X15900000Y-58135000D03*
X25700000Y-54835000D03*
X36200000Y-32435000D03*
X18900000Y-49235000D03*
X32700000Y-41935000D03*
X41100000Y-58135000D03*
X19700000Y-49235000D03*
X16700000Y-58135000D03*
X32700000Y-47935000D03*
X22600000Y-55635000D03*
X41900000Y-60538916D03*
X36900000Y-49035000D03*
X37200000Y-56431084D03*
X28800000Y-23135000D03*
X24900000Y-27935000D03*
X37700000Y-33235000D03*
X36200000Y-33235000D03*
X41100000Y-61335000D03*
X32700000Y-37935000D03*
X41900000Y-58135000D03*
X27000000Y-55635000D03*
X41400000Y-26135000D03*
X37700000Y-32435000D03*
X42200000Y-26135000D03*
X28800000Y-37035000D03*
X22600000Y-54838916D03*
X41900000Y-61335000D03*
X35400000Y-32435000D03*
X17500000Y-61935000D03*
X15200000Y-59538916D03*
X14400000Y-58135000D03*
X15900000Y-61935000D03*
X27900000Y-40500000D03*
X15200000Y-61935000D03*
X16100000Y-50035000D03*
X36900000Y-32435000D03*
X41900000Y-59731084D03*
X36300000Y-42935000D03*
X34700000Y-50935000D03*
X36900000Y-33235000D03*
X14400000Y-61135000D03*
X37200000Y-55635000D03*
X40600000Y-37835000D03*
X32700000Y-34935000D03*
X16900000Y-50035000D03*
X36900000Y-49831084D03*
X18050000Y-20650000D03*
X36100000Y-48235000D03*
X14400000Y-58835000D03*
X28800000Y-33135000D03*
X37200000Y-54835000D03*
X32700000Y-43935000D03*
X41900000Y-58931084D03*
X15300000Y-50035000D03*
X41100000Y-59731084D03*
X16600000Y-15300000D03*
X39000000Y-37835000D03*
X15200000Y-60338916D03*
X30600000Y-31235000D03*
X41100000Y-60538916D03*
X14400000Y-61935000D03*
X23900000Y-54835000D03*
X14400000Y-59538916D03*
X32700000Y-42935000D03*
X42200000Y-25435000D03*
X37100000Y-43731084D03*
X37400000Y-37835000D03*
X18050000Y-22250000D03*
X15200000Y-58135000D03*
X36400000Y-54835000D03*
X18100000Y-49235000D03*
X36100000Y-49035000D03*
X36300000Y-42135000D03*
X18300000Y-61935000D03*
X27000000Y-54838916D03*
X17850000Y-25600000D03*
X12800000Y-15300000D03*
X32500000Y-33335000D03*
X21700000Y-54838916D03*
X35400000Y-33235000D03*
X41100000Y-58931084D03*
X41400000Y-37035000D03*
X15200000Y-58835000D03*
X21300000Y-49235000D03*
X36900000Y-48235000D03*
X41400000Y-37835000D03*
X41400000Y-25435000D03*
X14400000Y-60338916D03*
X37100000Y-42935000D03*
X38200000Y-37835000D03*
X36400000Y-56431084D03*
X36100000Y-49831084D03*
X15200000Y-61135000D03*
X36400000Y-55635000D03*
X42200000Y-37835000D03*
X37100000Y-42135000D03*
X16700000Y-61935000D03*
%TO.N,+3V3*%
X24300000Y-52600000D03*
X40900000Y-55935000D03*
X37600000Y-34535000D03*
X40800000Y-43235000D03*
X40900000Y-54335000D03*
X20700000Y-45435000D03*
X41600000Y-42435000D03*
X40700000Y-47835000D03*
X18303916Y-44635000D03*
X23500000Y-53335000D03*
X23500000Y-14835000D03*
X40700000Y-48635000D03*
X40700000Y-50231084D03*
X21900000Y-53335000D03*
X41500000Y-49435000D03*
X24300000Y-51900000D03*
X23500000Y-52600000D03*
X24300000Y-53335000D03*
X40800000Y-42435000D03*
X19103916Y-45435000D03*
X22700000Y-51900000D03*
X41600000Y-41635000D03*
X20700000Y-44635000D03*
X21900000Y-52600000D03*
X41500000Y-50231084D03*
X41600000Y-43235000D03*
X21900000Y-14835000D03*
X19903916Y-45435000D03*
X41500000Y-48635000D03*
X22700000Y-53335000D03*
X38400000Y-35335000D03*
X19903916Y-44635000D03*
X23500000Y-51200000D03*
X40900000Y-55135000D03*
X22700000Y-52600000D03*
X18303916Y-45435000D03*
X41500000Y-47835000D03*
X41700000Y-55935000D03*
X22700000Y-51200000D03*
X40800000Y-44031084D03*
X37600000Y-35335000D03*
X23500000Y-51900000D03*
X41700000Y-54335000D03*
X19103916Y-44635000D03*
X38400000Y-36931084D03*
X37600000Y-36135000D03*
X42200000Y-33135000D03*
X21900000Y-51200000D03*
X41400000Y-33135000D03*
X40700000Y-49435000D03*
X21200000Y-53335000D03*
X24300000Y-51200000D03*
X41700000Y-55135000D03*
X38400000Y-36135000D03*
X21900000Y-51900000D03*
X22700000Y-14835000D03*
X40900000Y-56731084D03*
X38400000Y-34535000D03*
X40800000Y-41635000D03*
X41700000Y-56731084D03*
X41600000Y-44031084D03*
X21200000Y-52635000D03*
X37600000Y-36931084D03*
%TO.N,+5V*%
X29500000Y-49335000D03*
X24000000Y-59435000D03*
X23200000Y-58735000D03*
X24000000Y-60135000D03*
X25600000Y-60835000D03*
X24800000Y-60135000D03*
X24800000Y-60835000D03*
X25600000Y-58735000D03*
X24800000Y-59435000D03*
X27400000Y-50135000D03*
X23200000Y-60835000D03*
X24000000Y-58735000D03*
X28100000Y-49335000D03*
X26400000Y-59435000D03*
X28800000Y-50135000D03*
X25600000Y-59435000D03*
X26400000Y-58735000D03*
X23200000Y-59435000D03*
X24800000Y-58735000D03*
X29500000Y-50135000D03*
X24000000Y-60835000D03*
X25600000Y-60135000D03*
X28100000Y-50135000D03*
X28800000Y-49335000D03*
X23200000Y-60135000D03*
X27400000Y-49335000D03*
X26400000Y-60135000D03*
X26400000Y-60835000D03*
%TO.N,/BL*%
X34800000Y-21500000D03*
%TO.N,/D{slash}C*%
X19750000Y-18550000D03*
%TO.N,/RX2*%
X27550000Y-19550000D03*
%TO.N,/TX2*%
X27050000Y-21550000D03*
%TO.N,/CS*%
X19600000Y-22000000D03*
%TO.N,/SCK*%
X20050000Y-23350000D03*
%TO.N,/MISO*%
X20800000Y-24900000D03*
%TD*%
%TO.N,/BL*%
D19*
X34800000Y-21500000D02*
X25492893Y-30807107D01*
X18055786Y-43230000D02*
X16200000Y-43230000D01*
X25200000Y-31514214D02*
X25200000Y-36085786D01*
X24907107Y-36792893D02*
X18762893Y-42937107D01*
X25200000Y-36085786D02*
G75*
G02*
X24907114Y-36792900I-1000000J-14D01*
G01*
X25492893Y-30807107D02*
G75*
G03*
X25200010Y-31514214I707107J-707093D01*
G01*
X18762893Y-42937107D02*
G75*
G02*
X18055786Y-43229990I-707093J707107D01*
G01*
%TO.N,/D{slash}C*%
D20*
X19750000Y-18550000D02*
X19092893Y-19207107D01*
X18507107Y-40192893D02*
X18302893Y-40397107D01*
X18800000Y-19914214D02*
X18800000Y-39485786D01*
X17595786Y-40690000D02*
X16200000Y-40690000D01*
X19092893Y-19207107D02*
G75*
G03*
X18800010Y-19914214I707107J-707093D01*
G01*
X18800000Y-39485786D02*
G75*
G02*
X18507114Y-40192900I-1000000J-14D01*
G01*
X17595786Y-40690000D02*
G75*
G03*
X18302900Y-40397114I14J1000000D01*
G01*
%TD*%
%TA.AperFunction,Conductor*%
%TO.N,GND*%
G36*
X23161395Y-65305833D02*
G01*
X23172849Y-65309555D01*
X23227349Y-65349149D01*
X23248168Y-65413217D01*
X23232104Y-65470176D01*
X23228794Y-65475577D01*
X23212933Y-65495696D01*
X23110577Y-65598051D01*
X23014663Y-65750697D01*
X23014637Y-65750752D01*
X23014414Y-65751405D01*
X22955124Y-65920851D01*
X22954223Y-65928847D01*
X22940000Y-66055078D01*
X22940000Y-67049999D01*
X22940001Y-67050000D01*
X23950825Y-67050000D01*
X24014894Y-67070817D01*
X24054490Y-67125317D01*
X24056111Y-67187211D01*
X24040000Y-67247339D01*
X24040000Y-67352660D01*
X24056111Y-67412789D01*
X24052585Y-67480063D01*
X24010190Y-67532415D01*
X23950825Y-67550000D01*
X22940001Y-67550000D01*
X22940000Y-67550001D01*
X22940000Y-68544921D01*
X22947857Y-68614651D01*
X22955124Y-68679147D01*
X23014414Y-68848593D01*
X23014638Y-68849250D01*
X23014660Y-68849296D01*
X23014661Y-68849297D01*
X23014662Y-68849300D01*
X23110577Y-69001947D01*
X23238052Y-69129422D01*
X23390699Y-69225337D01*
X23390702Y-69225338D01*
X23390706Y-69225339D01*
X23390747Y-69225359D01*
X23391406Y-69225584D01*
X23560853Y-69284875D01*
X23560854Y-69284875D01*
X23560858Y-69284876D01*
X23695074Y-69300000D01*
X23695079Y-69300000D01*
X24189999Y-69300000D01*
X24190000Y-69299999D01*
X24190000Y-67789174D01*
X24210817Y-67725105D01*
X24265317Y-67685509D01*
X24327207Y-67683888D01*
X24387339Y-67700000D01*
X24492659Y-67700000D01*
X24492661Y-67700000D01*
X24552791Y-67683888D01*
X24620061Y-67687413D01*
X24672415Y-67729808D01*
X24690000Y-67789174D01*
X24690000Y-69299999D01*
X24690001Y-69300000D01*
X25184921Y-69300000D01*
X25184926Y-69300000D01*
X25319140Y-69284876D01*
X25319140Y-69284875D01*
X25319146Y-69284875D01*
X25488682Y-69225552D01*
X25489255Y-69225357D01*
X25489288Y-69225340D01*
X25489297Y-69225338D01*
X25489300Y-69225337D01*
X25641947Y-69129422D01*
X25769422Y-69001947D01*
X25865336Y-68849301D01*
X25904856Y-68736356D01*
X25921006Y-68706340D01*
X25928612Y-68696351D01*
X25983980Y-68657986D01*
X26051326Y-68659491D01*
X26058140Y-68661876D01*
X26099206Y-68687681D01*
X26143195Y-68731669D01*
X26165354Y-68753828D01*
X26231799Y-68802102D01*
X26231800Y-68802104D01*
X26296759Y-68849300D01*
X26324590Y-68869521D01*
X26324602Y-68869528D01*
X26405204Y-68910596D01*
X26499975Y-68958884D01*
X26597354Y-68990524D01*
X26679414Y-69017187D01*
X26679781Y-69017338D01*
X26686956Y-69019639D01*
X26687095Y-69019683D01*
X26687170Y-69019708D01*
X26687171Y-69019708D01*
X26687174Y-69019709D01*
X26881583Y-69050500D01*
X26881584Y-69050500D01*
X27078416Y-69050500D01*
X27078417Y-69050500D01*
X27272826Y-69019709D01*
X27460025Y-68958884D01*
X27635405Y-68869524D01*
X27794646Y-68753828D01*
X27933828Y-68614646D01*
X28049524Y-68455405D01*
X28138884Y-68280025D01*
X28138885Y-68280022D01*
X28140999Y-68273515D01*
X28156474Y-68243138D01*
X28161815Y-68235787D01*
X28216309Y-68196190D01*
X28283675Y-68196186D01*
X28338178Y-68235779D01*
X28338182Y-68235784D01*
X28343517Y-68243127D01*
X28358998Y-68273510D01*
X28361112Y-68280018D01*
X28361114Y-68280023D01*
X28361116Y-68280026D01*
X28450471Y-68455397D01*
X28450478Y-68455409D01*
X28547029Y-68588299D01*
X28547030Y-68588300D01*
X28547029Y-68588300D01*
X28566164Y-68614637D01*
X28566176Y-68614651D01*
X28637027Y-68685501D01*
X28705354Y-68753828D01*
X28771799Y-68802102D01*
X28771800Y-68802104D01*
X28836759Y-68849300D01*
X28864590Y-68869521D01*
X28864602Y-68869528D01*
X28945204Y-68910596D01*
X29039975Y-68958884D01*
X29137354Y-68990524D01*
X29219414Y-69017187D01*
X29219781Y-69017338D01*
X29226956Y-69019639D01*
X29227095Y-69019683D01*
X29227170Y-69019708D01*
X29227171Y-69019708D01*
X29227174Y-69019709D01*
X29421583Y-69050500D01*
X29421584Y-69050500D01*
X29618416Y-69050500D01*
X29618417Y-69050500D01*
X29812826Y-69019709D01*
X30000025Y-68958884D01*
X30175405Y-68869524D01*
X30334646Y-68753828D01*
X30397279Y-68691193D01*
X30424861Y-68671153D01*
X30436044Y-68665455D01*
X30502577Y-68654918D01*
X30562600Y-68685501D01*
X30562608Y-68685509D01*
X30567700Y-68690602D01*
X30593501Y-68731669D01*
X30634393Y-68848532D01*
X30634639Y-68849251D01*
X30634660Y-68849296D01*
X30634661Y-68849297D01*
X30634662Y-68849300D01*
X30730577Y-69001947D01*
X30858052Y-69129422D01*
X31010699Y-69225337D01*
X31010702Y-69225338D01*
X31010706Y-69225339D01*
X31010747Y-69225359D01*
X31011406Y-69225584D01*
X31180853Y-69284875D01*
X31180854Y-69284875D01*
X31180858Y-69284876D01*
X31315074Y-69300000D01*
X31315079Y-69300000D01*
X31809999Y-69300000D01*
X31810000Y-69299999D01*
X31810000Y-67789174D01*
X31830817Y-67725105D01*
X31885317Y-67685509D01*
X31947207Y-67683888D01*
X32007339Y-67700000D01*
X32112659Y-67700000D01*
X32112661Y-67700000D01*
X32172791Y-67683888D01*
X32240061Y-67687413D01*
X32292415Y-67729808D01*
X32310000Y-67789174D01*
X32310000Y-69299999D01*
X32310001Y-69300000D01*
X32804921Y-69300000D01*
X32804926Y-69300000D01*
X32939140Y-69284876D01*
X32939140Y-69284875D01*
X32939146Y-69284875D01*
X33108682Y-69225552D01*
X33109255Y-69225357D01*
X33109288Y-69225340D01*
X33109297Y-69225338D01*
X33109300Y-69225337D01*
X33261947Y-69129422D01*
X33389422Y-69001947D01*
X33485337Y-68849300D01*
X33485338Y-68849297D01*
X33485340Y-68849288D01*
X33485357Y-68849255D01*
X33485584Y-68848593D01*
X33544875Y-68679146D01*
X33544893Y-68678988D01*
X33560000Y-68544925D01*
X33560000Y-67550001D01*
X33559999Y-67550000D01*
X32549175Y-67550000D01*
X32485106Y-67529183D01*
X32445510Y-67474683D01*
X32443889Y-67412789D01*
X32460000Y-67352660D01*
X32460000Y-67247339D01*
X32443889Y-67187211D01*
X32447415Y-67119937D01*
X32489810Y-67067585D01*
X32549175Y-67050000D01*
X33559999Y-67050000D01*
X33560000Y-67049999D01*
X33560000Y-66055073D01*
X33544876Y-65920858D01*
X33544875Y-65920854D01*
X33542650Y-65914496D01*
X33485584Y-65751405D01*
X33485359Y-65750747D01*
X33485339Y-65750706D01*
X33485338Y-65750702D01*
X33485337Y-65750699D01*
X33389422Y-65598052D01*
X33340870Y-65549500D01*
X33290151Y-65498780D01*
X33270106Y-65471190D01*
X33264640Y-65460462D01*
X33254102Y-65393925D01*
X33284686Y-65333902D01*
X33336321Y-65304989D01*
X33342488Y-65303508D01*
X33367919Y-65300500D01*
X34690813Y-65300500D01*
X34696911Y-65300671D01*
X34703015Y-65301013D01*
X34709095Y-65301524D01*
X34792874Y-65310963D01*
X34804917Y-65313011D01*
X34816780Y-65315719D01*
X34828519Y-65319101D01*
X34899361Y-65343890D01*
X34910643Y-65348563D01*
X34921608Y-65353844D01*
X34932303Y-65359755D01*
X34995845Y-65399681D01*
X35005809Y-65406750D01*
X35015324Y-65414337D01*
X35024444Y-65422486D01*
X35077512Y-65475554D01*
X35085661Y-65484674D01*
X35093248Y-65494189D01*
X35100317Y-65504153D01*
X35140243Y-65567695D01*
X35146154Y-65578390D01*
X35151432Y-65589349D01*
X35156111Y-65600644D01*
X35180896Y-65671474D01*
X35184280Y-65683221D01*
X35186988Y-65695086D01*
X35189036Y-65707136D01*
X35198472Y-65790881D01*
X35198985Y-65796966D01*
X35199328Y-65803066D01*
X35199500Y-65809185D01*
X35199500Y-76790813D01*
X35199328Y-76796932D01*
X35198985Y-76803032D01*
X35198472Y-76809117D01*
X35189036Y-76892862D01*
X35186988Y-76904912D01*
X35184280Y-76916777D01*
X35180896Y-76928524D01*
X35156111Y-76999354D01*
X35151432Y-77010649D01*
X35146154Y-77021608D01*
X35140243Y-77032303D01*
X35100317Y-77095845D01*
X35093248Y-77105809D01*
X35085661Y-77115324D01*
X35077512Y-77124444D01*
X35024444Y-77177512D01*
X35015324Y-77185661D01*
X35005809Y-77193248D01*
X34995845Y-77200317D01*
X34932303Y-77240243D01*
X34921608Y-77246154D01*
X34910649Y-77251432D01*
X34899353Y-77256111D01*
X34828516Y-77280898D01*
X34816773Y-77284282D01*
X34804923Y-77286987D01*
X34792871Y-77289034D01*
X34719631Y-77297287D01*
X34719622Y-77297288D01*
X34709107Y-77298472D01*
X34703032Y-77298985D01*
X34696934Y-77299328D01*
X34690813Y-77299500D01*
X21709185Y-77299500D01*
X21703066Y-77299328D01*
X21696966Y-77298985D01*
X21690881Y-77298472D01*
X21607136Y-77289036D01*
X21595086Y-77286988D01*
X21583221Y-77284280D01*
X21571474Y-77280896D01*
X21500644Y-77256111D01*
X21489349Y-77251432D01*
X21478390Y-77246154D01*
X21467695Y-77240243D01*
X21404153Y-77200317D01*
X21394189Y-77193248D01*
X21384674Y-77185661D01*
X21375554Y-77177512D01*
X21322486Y-77124444D01*
X21314337Y-77115324D01*
X21306750Y-77105809D01*
X21299681Y-77095845D01*
X21259755Y-77032303D01*
X21253844Y-77021608D01*
X21248566Y-77010649D01*
X21243890Y-76999361D01*
X21219101Y-76928519D01*
X21215719Y-76916780D01*
X21213011Y-76904917D01*
X21210963Y-76892871D01*
X21201525Y-76809097D01*
X21201013Y-76803014D01*
X21200671Y-76796910D01*
X21200500Y-76790812D01*
X21200500Y-71837521D01*
X24759500Y-71837521D01*
X24759500Y-71837523D01*
X24759500Y-71837525D01*
X24759500Y-71982475D01*
X24797016Y-72122485D01*
X24869491Y-72248015D01*
X24971985Y-72350509D01*
X25097515Y-72422984D01*
X25237525Y-72460500D01*
X25237527Y-72460500D01*
X25382473Y-72460500D01*
X25382475Y-72460500D01*
X25522485Y-72422984D01*
X25648015Y-72350509D01*
X25750509Y-72248015D01*
X25822984Y-72122485D01*
X25860500Y-71982475D01*
X25860500Y-71837525D01*
X25860499Y-71837521D01*
X30539500Y-71837521D01*
X30539500Y-71837523D01*
X30539500Y-71837525D01*
X30539500Y-71982475D01*
X30577016Y-72122485D01*
X30649491Y-72248015D01*
X30751985Y-72350509D01*
X30877515Y-72422984D01*
X31017525Y-72460500D01*
X31017527Y-72460500D01*
X31162473Y-72460500D01*
X31162475Y-72460500D01*
X31302485Y-72422984D01*
X31428015Y-72350509D01*
X31530509Y-72248015D01*
X31602984Y-72122485D01*
X31640500Y-71982475D01*
X31640500Y-71837525D01*
X31602984Y-71697515D01*
X31530509Y-71571985D01*
X31428015Y-71469491D01*
X31428008Y-71469487D01*
X31302485Y-71397016D01*
X31162477Y-71359500D01*
X31162476Y-71359500D01*
X31162475Y-71359500D01*
X31017525Y-71359500D01*
X31017523Y-71359500D01*
X31017521Y-71359500D01*
X30877513Y-71397016D01*
X30751989Y-71469487D01*
X30649487Y-71571989D01*
X30577016Y-71697513D01*
X30539500Y-71837521D01*
X25860499Y-71837521D01*
X25822984Y-71697515D01*
X25750509Y-71571985D01*
X25648015Y-71469491D01*
X25648008Y-71469487D01*
X25522485Y-71397016D01*
X25382477Y-71359500D01*
X25382476Y-71359500D01*
X25382475Y-71359500D01*
X25237525Y-71359500D01*
X25237523Y-71359500D01*
X25237521Y-71359500D01*
X25097513Y-71397016D01*
X24971989Y-71469487D01*
X24869487Y-71571989D01*
X24797016Y-71697513D01*
X24759500Y-71837521D01*
X21200500Y-71837521D01*
X21200500Y-65809186D01*
X21200671Y-65803088D01*
X21201013Y-65796984D01*
X21201524Y-65790904D01*
X21210963Y-65707124D01*
X21213011Y-65695081D01*
X21215719Y-65683218D01*
X21219103Y-65671473D01*
X21229727Y-65641114D01*
X21241718Y-65606844D01*
X21243890Y-65600635D01*
X21248563Y-65589356D01*
X21253848Y-65578381D01*
X21259742Y-65567715D01*
X21299696Y-65504128D01*
X21306746Y-65494193D01*
X21314340Y-65484670D01*
X21322472Y-65475568D01*
X21375568Y-65422472D01*
X21384674Y-65414337D01*
X21394193Y-65406746D01*
X21404128Y-65399696D01*
X21467715Y-65359742D01*
X21478381Y-65353848D01*
X21489358Y-65348562D01*
X21500632Y-65343891D01*
X21571486Y-65319098D01*
X21583216Y-65315718D01*
X21595086Y-65313009D01*
X21607122Y-65310963D01*
X21652716Y-65305827D01*
X21690906Y-65301524D01*
X21696985Y-65301013D01*
X21703092Y-65300671D01*
X21709187Y-65300500D01*
X23127718Y-65300500D01*
X23161395Y-65305833D01*
G37*
%TD.AperFunction*%
%TD*%
%TA.AperFunction,Conductor*%
%TO.N,+3V3*%
G36*
X41504043Y-12500765D02*
G01*
X41752895Y-12517075D01*
X41768953Y-12519190D01*
X41976105Y-12560395D01*
X42009535Y-12567045D01*
X42025202Y-12571243D01*
X42194947Y-12628863D01*
X42257481Y-12650091D01*
X42272458Y-12656294D01*
X42481799Y-12759529D01*
X42492460Y-12764787D01*
X42506506Y-12772897D01*
X42710460Y-12909174D01*
X42723329Y-12919048D01*
X42907749Y-13080781D01*
X42919218Y-13092250D01*
X43080951Y-13276670D01*
X43090825Y-13289539D01*
X43227102Y-13493493D01*
X43235212Y-13507539D01*
X43343702Y-13727534D01*
X43349909Y-13742520D01*
X43428756Y-13974797D01*
X43432954Y-13990464D01*
X43480807Y-14231035D01*
X43482925Y-14247116D01*
X43499235Y-14495956D01*
X43499500Y-14504066D01*
X43499500Y-61495933D01*
X43499235Y-61504043D01*
X43482925Y-61752883D01*
X43480807Y-61768964D01*
X43432954Y-62009535D01*
X43428756Y-62025202D01*
X43349909Y-62257479D01*
X43343702Y-62272465D01*
X43235212Y-62492460D01*
X43227102Y-62506506D01*
X43090825Y-62710460D01*
X43080951Y-62723329D01*
X42919218Y-62907749D01*
X42907749Y-62919218D01*
X42723329Y-63080951D01*
X42710460Y-63090825D01*
X42506506Y-63227102D01*
X42492460Y-63235212D01*
X42272465Y-63343702D01*
X42257479Y-63349909D01*
X42025202Y-63428756D01*
X42009535Y-63432954D01*
X41768964Y-63480807D01*
X41752883Y-63482925D01*
X41504043Y-63499235D01*
X41495933Y-63499500D01*
X32204935Y-63499500D01*
X32137896Y-63479815D01*
X32136090Y-63478633D01*
X32079179Y-63440606D01*
X32079172Y-63440602D01*
X31933501Y-63380264D01*
X31933489Y-63380261D01*
X31778845Y-63349500D01*
X31778842Y-63349500D01*
X31621158Y-63349500D01*
X31621155Y-63349500D01*
X31474191Y-63378733D01*
X31425809Y-63378733D01*
X31278845Y-63349500D01*
X31278842Y-63349500D01*
X31121158Y-63349500D01*
X31121155Y-63349500D01*
X30974191Y-63378733D01*
X30925809Y-63378733D01*
X30778845Y-63349500D01*
X30778842Y-63349500D01*
X30621158Y-63349500D01*
X30621155Y-63349500D01*
X30474191Y-63378733D01*
X30425809Y-63378733D01*
X30278845Y-63349500D01*
X30278842Y-63349500D01*
X30121158Y-63349500D01*
X30121155Y-63349500D01*
X29974191Y-63378733D01*
X29925809Y-63378733D01*
X29778845Y-63349500D01*
X29778842Y-63349500D01*
X29621158Y-63349500D01*
X29621155Y-63349500D01*
X29474191Y-63378733D01*
X29425809Y-63378733D01*
X29278845Y-63349500D01*
X29278842Y-63349500D01*
X29121158Y-63349500D01*
X29121155Y-63349500D01*
X28974191Y-63378733D01*
X28925809Y-63378733D01*
X28778845Y-63349500D01*
X28778842Y-63349500D01*
X28621158Y-63349500D01*
X28621155Y-63349500D01*
X28474191Y-63378733D01*
X28425809Y-63378733D01*
X28278845Y-63349500D01*
X28278842Y-63349500D01*
X28121158Y-63349500D01*
X28121155Y-63349500D01*
X27974191Y-63378733D01*
X27925809Y-63378733D01*
X27778845Y-63349500D01*
X27778842Y-63349500D01*
X27621158Y-63349500D01*
X27621155Y-63349500D01*
X27474191Y-63378733D01*
X27425809Y-63378733D01*
X27278845Y-63349500D01*
X27278842Y-63349500D01*
X27121158Y-63349500D01*
X27121155Y-63349500D01*
X26974191Y-63378733D01*
X26925809Y-63378733D01*
X26778845Y-63349500D01*
X26778842Y-63349500D01*
X26621158Y-63349500D01*
X26621155Y-63349500D01*
X26474191Y-63378733D01*
X26425809Y-63378733D01*
X26278845Y-63349500D01*
X26278842Y-63349500D01*
X26121158Y-63349500D01*
X26121155Y-63349500D01*
X25974191Y-63378733D01*
X25925809Y-63378733D01*
X25778845Y-63349500D01*
X25778842Y-63349500D01*
X25621158Y-63349500D01*
X25621155Y-63349500D01*
X25474191Y-63378733D01*
X25425809Y-63378733D01*
X25278845Y-63349500D01*
X25278842Y-63349500D01*
X25121158Y-63349500D01*
X25121155Y-63349500D01*
X24974191Y-63378733D01*
X24925809Y-63378733D01*
X24778845Y-63349500D01*
X24778842Y-63349500D01*
X24621158Y-63349500D01*
X24621155Y-63349500D01*
X24466510Y-63380261D01*
X24466498Y-63380264D01*
X24320827Y-63440602D01*
X24320820Y-63440606D01*
X24291928Y-63459911D01*
X24263955Y-63478602D01*
X24197279Y-63499480D01*
X24195065Y-63499500D01*
X14504067Y-63499500D01*
X14495957Y-63499235D01*
X14247116Y-63482925D01*
X14231035Y-63480807D01*
X13990464Y-63432954D01*
X13974797Y-63428756D01*
X13742520Y-63349909D01*
X13727534Y-63343702D01*
X13507539Y-63235212D01*
X13493493Y-63227102D01*
X13289539Y-63090825D01*
X13276670Y-63080951D01*
X13092250Y-62919218D01*
X13080781Y-62907749D01*
X12919048Y-62723329D01*
X12909174Y-62710460D01*
X12772897Y-62506506D01*
X12764787Y-62492460D01*
X12741524Y-62445288D01*
X12656294Y-62272458D01*
X12650090Y-62257479D01*
X12571243Y-62025202D01*
X12567045Y-62009535D01*
X12556553Y-61956789D01*
X12519190Y-61768953D01*
X12517075Y-61752895D01*
X12500765Y-61504043D01*
X12500500Y-61495933D01*
X12500500Y-58056153D01*
X13599500Y-58056153D01*
X13599500Y-58213846D01*
X13630260Y-58368488D01*
X13630262Y-58368493D01*
X13630263Y-58368497D01*
X13658865Y-58437549D01*
X13666333Y-58507018D01*
X13658865Y-58532451D01*
X13630262Y-58601506D01*
X13630260Y-58601511D01*
X13599500Y-58756153D01*
X13599500Y-58913846D01*
X13630260Y-59068488D01*
X13630262Y-59068493D01*
X13630263Y-59068497D01*
X13659676Y-59139507D01*
X13667144Y-59208976D01*
X13659676Y-59234405D01*
X13630263Y-59305419D01*
X13630262Y-59305422D01*
X13630260Y-59305427D01*
X13599500Y-59460069D01*
X13599500Y-59617762D01*
X13630261Y-59772405D01*
X13630264Y-59772417D01*
X13679574Y-59891464D01*
X13687043Y-59960934D01*
X13679574Y-59986368D01*
X13630264Y-60105414D01*
X13630261Y-60105426D01*
X13599500Y-60260069D01*
X13599500Y-60417762D01*
X13630261Y-60572405D01*
X13630264Y-60572417D01*
X13678763Y-60689506D01*
X13686232Y-60758976D01*
X13678763Y-60784410D01*
X13630264Y-60901498D01*
X13630261Y-60901510D01*
X13599500Y-61056153D01*
X13599500Y-61213846D01*
X13630261Y-61368489D01*
X13630264Y-61368501D01*
X13679574Y-61487548D01*
X13687043Y-61557018D01*
X13679574Y-61582452D01*
X13630264Y-61701498D01*
X13630261Y-61701510D01*
X13599500Y-61856153D01*
X13599500Y-62013846D01*
X13630261Y-62168489D01*
X13630264Y-62168501D01*
X13690602Y-62314172D01*
X13690609Y-62314185D01*
X13778210Y-62445288D01*
X13778213Y-62445292D01*
X13889707Y-62556786D01*
X13889711Y-62556789D01*
X14020814Y-62644390D01*
X14020827Y-62644397D01*
X14166498Y-62704735D01*
X14166503Y-62704737D01*
X14259971Y-62723329D01*
X14321153Y-62735499D01*
X14321156Y-62735500D01*
X14321158Y-62735500D01*
X14478844Y-62735500D01*
X14478845Y-62735499D01*
X14633497Y-62704737D01*
X14752548Y-62655425D01*
X14822017Y-62647956D01*
X14847453Y-62655425D01*
X14966503Y-62704737D01*
X15059971Y-62723329D01*
X15121153Y-62735499D01*
X15121156Y-62735500D01*
X15121158Y-62735500D01*
X15278844Y-62735500D01*
X15278845Y-62735499D01*
X15433497Y-62704737D01*
X15502549Y-62676134D01*
X15572016Y-62668666D01*
X15597447Y-62676133D01*
X15666503Y-62704737D01*
X15759971Y-62723329D01*
X15821153Y-62735499D01*
X15821156Y-62735500D01*
X15821158Y-62735500D01*
X15978844Y-62735500D01*
X15978845Y-62735499D01*
X16133497Y-62704737D01*
X16252548Y-62655425D01*
X16322017Y-62647956D01*
X16347453Y-62655425D01*
X16466503Y-62704737D01*
X16559971Y-62723329D01*
X16621153Y-62735499D01*
X16621156Y-62735500D01*
X16621158Y-62735500D01*
X16778844Y-62735500D01*
X16778845Y-62735499D01*
X16933497Y-62704737D01*
X17052548Y-62655425D01*
X17122017Y-62647956D01*
X17147453Y-62655425D01*
X17266503Y-62704737D01*
X17359971Y-62723329D01*
X17421153Y-62735499D01*
X17421156Y-62735500D01*
X17421158Y-62735500D01*
X17578844Y-62735500D01*
X17578845Y-62735499D01*
X17733497Y-62704737D01*
X17852548Y-62655425D01*
X17922017Y-62647956D01*
X17947453Y-62655425D01*
X18066503Y-62704737D01*
X18159971Y-62723329D01*
X18221153Y-62735499D01*
X18221156Y-62735500D01*
X18221158Y-62735500D01*
X18378844Y-62735500D01*
X18378845Y-62735499D01*
X18533497Y-62704737D01*
X18679179Y-62644394D01*
X18810289Y-62556789D01*
X18921789Y-62445289D01*
X19009394Y-62314179D01*
X19069737Y-62168497D01*
X19100500Y-62013842D01*
X19100500Y-61856158D01*
X19100500Y-61856155D01*
X19100499Y-61856153D01*
X19086419Y-61785368D01*
X19069737Y-61701503D01*
X19042398Y-61635500D01*
X19009397Y-61555827D01*
X19009390Y-61555814D01*
X18921789Y-61424711D01*
X18921786Y-61424707D01*
X18810292Y-61313213D01*
X18810288Y-61313210D01*
X18679185Y-61225609D01*
X18679172Y-61225602D01*
X18533501Y-61165264D01*
X18533489Y-61165261D01*
X18378845Y-61134500D01*
X18378842Y-61134500D01*
X18221158Y-61134500D01*
X18221155Y-61134500D01*
X18066510Y-61165261D01*
X18066498Y-61165264D01*
X17947452Y-61214574D01*
X17877982Y-61222043D01*
X17852548Y-61214574D01*
X17733501Y-61165264D01*
X17733489Y-61165261D01*
X17578845Y-61134500D01*
X17578842Y-61134500D01*
X17421158Y-61134500D01*
X17421155Y-61134500D01*
X17266510Y-61165261D01*
X17266498Y-61165264D01*
X17147452Y-61214574D01*
X17077982Y-61222043D01*
X17052548Y-61214574D01*
X16933501Y-61165264D01*
X16933489Y-61165261D01*
X16778845Y-61134500D01*
X16778842Y-61134500D01*
X16621158Y-61134500D01*
X16621155Y-61134500D01*
X16466510Y-61165261D01*
X16466498Y-61165264D01*
X16347452Y-61214574D01*
X16277982Y-61222043D01*
X16252548Y-61214574D01*
X16133501Y-61165264D01*
X16133492Y-61165261D01*
X16098878Y-61158376D01*
X16036967Y-61125990D01*
X16002394Y-61065273D01*
X16001454Y-61060951D01*
X15969738Y-60901508D01*
X15969737Y-60901507D01*
X15969737Y-60901503D01*
X15921235Y-60784410D01*
X15913767Y-60714941D01*
X15921236Y-60689505D01*
X15937033Y-60651368D01*
X15969737Y-60572413D01*
X16000500Y-60417758D01*
X16000500Y-60260074D01*
X16000500Y-60260071D01*
X16000499Y-60260069D01*
X15969737Y-60105419D01*
X15920425Y-59986368D01*
X15912956Y-59916899D01*
X15920425Y-59891464D01*
X15969735Y-59772417D01*
X15969737Y-59772413D01*
X16000500Y-59617758D01*
X16000500Y-59460074D01*
X16000500Y-59460071D01*
X16000499Y-59460069D01*
X15984281Y-59378536D01*
X15969737Y-59305419D01*
X15940323Y-59234409D01*
X15932855Y-59164940D01*
X15940321Y-59139512D01*
X15969737Y-59068497D01*
X15980742Y-59013167D01*
X16013125Y-58951258D01*
X16073841Y-58916683D01*
X16078118Y-58915752D01*
X16133497Y-58904737D01*
X16252547Y-58855424D01*
X16322016Y-58847956D01*
X16347451Y-58855425D01*
X16466498Y-58904735D01*
X16466503Y-58904737D01*
X16603090Y-58931906D01*
X16621153Y-58935499D01*
X16621156Y-58935500D01*
X16621158Y-58935500D01*
X16778844Y-58935500D01*
X16778845Y-58935499D01*
X16933497Y-58904737D01*
X17079179Y-58844394D01*
X17210289Y-58756789D01*
X17310925Y-58656153D01*
X22399500Y-58656153D01*
X22399500Y-58813846D01*
X22430260Y-58968488D01*
X22430262Y-58968493D01*
X22430263Y-58968497D01*
X22447424Y-59009928D01*
X22458865Y-59037549D01*
X22466333Y-59107018D01*
X22458865Y-59132447D01*
X22436288Y-59186958D01*
X22430262Y-59201506D01*
X22430260Y-59201511D01*
X22399500Y-59356153D01*
X22399500Y-59513846D01*
X22430260Y-59668488D01*
X22430262Y-59668493D01*
X22430263Y-59668497D01*
X22458864Y-59737547D01*
X22458865Y-59737549D01*
X22466333Y-59807018D01*
X22458865Y-59832447D01*
X22430263Y-59901503D01*
X22430262Y-59901506D01*
X22430260Y-59901511D01*
X22399500Y-60056153D01*
X22399500Y-60213846D01*
X22430260Y-60368488D01*
X22430262Y-60368493D01*
X22430263Y-60368497D01*
X22450808Y-60418097D01*
X22458865Y-60437549D01*
X22466333Y-60507018D01*
X22458865Y-60532447D01*
X22430263Y-60601503D01*
X22430262Y-60601506D01*
X22430260Y-60601511D01*
X22399500Y-60756153D01*
X22399500Y-60913846D01*
X22430261Y-61068489D01*
X22430264Y-61068501D01*
X22490602Y-61214172D01*
X22490609Y-61214185D01*
X22578210Y-61345288D01*
X22578213Y-61345292D01*
X22689707Y-61456786D01*
X22689711Y-61456789D01*
X22820814Y-61544390D01*
X22820827Y-61544397D01*
X22966498Y-61604735D01*
X22966503Y-61604737D01*
X23092578Y-61629815D01*
X23121153Y-61635499D01*
X23121156Y-61635500D01*
X23121158Y-61635500D01*
X23278844Y-61635500D01*
X23278845Y-61635499D01*
X23433497Y-61604737D01*
X23551592Y-61555821D01*
X23552548Y-61555425D01*
X23622017Y-61547956D01*
X23647452Y-61555425D01*
X23714853Y-61583343D01*
X23766503Y-61604737D01*
X23892578Y-61629815D01*
X23921153Y-61635499D01*
X23921156Y-61635500D01*
X23921158Y-61635500D01*
X24078844Y-61635500D01*
X24078845Y-61635499D01*
X24233497Y-61604737D01*
X24351592Y-61555821D01*
X24352548Y-61555425D01*
X24422017Y-61547956D01*
X24447452Y-61555425D01*
X24514853Y-61583343D01*
X24566503Y-61604737D01*
X24692578Y-61629815D01*
X24721153Y-61635499D01*
X24721156Y-61635500D01*
X24721158Y-61635500D01*
X24878844Y-61635500D01*
X24878845Y-61635499D01*
X25033497Y-61604737D01*
X25151592Y-61555821D01*
X25152548Y-61555425D01*
X25222017Y-61547956D01*
X25247452Y-61555425D01*
X25314853Y-61583343D01*
X25366503Y-61604737D01*
X25492578Y-61629815D01*
X25521153Y-61635499D01*
X25521156Y-61635500D01*
X25521158Y-61635500D01*
X25678844Y-61635500D01*
X25678845Y-61635499D01*
X25833497Y-61604737D01*
X25951592Y-61555821D01*
X25952548Y-61555425D01*
X26022017Y-61547956D01*
X26047452Y-61555425D01*
X26114853Y-61583343D01*
X26166503Y-61604737D01*
X26292578Y-61629815D01*
X26321153Y-61635499D01*
X26321156Y-61635500D01*
X26321158Y-61635500D01*
X26478844Y-61635500D01*
X26478845Y-61635499D01*
X26633497Y-61604737D01*
X26751592Y-61555821D01*
X26779172Y-61544397D01*
X26779172Y-61544396D01*
X26779179Y-61544394D01*
X26910289Y-61456789D01*
X27021789Y-61345289D01*
X27109394Y-61214179D01*
X27169737Y-61068497D01*
X27200500Y-60913842D01*
X27200500Y-60756158D01*
X27200500Y-60756155D01*
X27200499Y-60756153D01*
X27172971Y-60617762D01*
X27169737Y-60601503D01*
X27141134Y-60532450D01*
X27133666Y-60462984D01*
X27141133Y-60437552D01*
X27169737Y-60368497D01*
X27200500Y-60213842D01*
X27200500Y-60056158D01*
X27200500Y-60056155D01*
X27200499Y-60056153D01*
X27182282Y-59964573D01*
X27169737Y-59901503D01*
X27141134Y-59832450D01*
X27133666Y-59762984D01*
X27141133Y-59737552D01*
X27169737Y-59668497D01*
X27200500Y-59513842D01*
X27200500Y-59356158D01*
X27200500Y-59356155D01*
X27200499Y-59356153D01*
X27171778Y-59211760D01*
X27171776Y-59211756D01*
X27169737Y-59201503D01*
X27161618Y-59181902D01*
X30079500Y-59181902D01*
X30079500Y-60418097D01*
X30116446Y-60651368D01*
X30189433Y-60875996D01*
X30281231Y-61056158D01*
X30296657Y-61086433D01*
X30435483Y-61277510D01*
X30602490Y-61444517D01*
X30793567Y-61583343D01*
X30892991Y-61634002D01*
X31004003Y-61690566D01*
X31004005Y-61690566D01*
X31004008Y-61690568D01*
X31111293Y-61725427D01*
X31228631Y-61763553D01*
X31461903Y-61800500D01*
X31461908Y-61800500D01*
X31698097Y-61800500D01*
X31931368Y-61763553D01*
X31941783Y-61760169D01*
X32155992Y-61690568D01*
X32366433Y-61583343D01*
X32557510Y-61444517D01*
X32724517Y-61277510D01*
X32749682Y-61242872D01*
X32805011Y-61200207D01*
X32874625Y-61194228D01*
X32936420Y-61226833D01*
X32950315Y-61242870D01*
X32975483Y-61277510D01*
X33142490Y-61444517D01*
X33333567Y-61583343D01*
X33432991Y-61634002D01*
X33544003Y-61690566D01*
X33544005Y-61690566D01*
X33544008Y-61690568D01*
X33651293Y-61725427D01*
X33768631Y-61763553D01*
X34001903Y-61800500D01*
X34001908Y-61800500D01*
X34238097Y-61800500D01*
X34471368Y-61763553D01*
X34481783Y-61760169D01*
X34695992Y-61690568D01*
X34906433Y-61583343D01*
X35097510Y-61444517D01*
X35108166Y-61433861D01*
X35169488Y-61400374D01*
X35239179Y-61405356D01*
X35295114Y-61447225D01*
X35300838Y-61455559D01*
X35330184Y-61502262D01*
X35457738Y-61629816D01*
X35494713Y-61653049D01*
X35609901Y-61725427D01*
X35610478Y-61725789D01*
X35733865Y-61768964D01*
X35780745Y-61785368D01*
X35780750Y-61785369D01*
X35871246Y-61795565D01*
X35915040Y-61800499D01*
X35915043Y-61800500D01*
X35915046Y-61800500D01*
X37404957Y-61800500D01*
X37404958Y-61800499D01*
X37472104Y-61792934D01*
X37539249Y-61785369D01*
X37539252Y-61785368D01*
X37539255Y-61785368D01*
X37709522Y-61725789D01*
X37862262Y-61629816D01*
X37862262Y-61629815D01*
X37864028Y-61628706D01*
X37931264Y-61609706D01*
X37995972Y-61628706D01*
X37997737Y-61629815D01*
X37997738Y-61629816D01*
X38150478Y-61725789D01*
X38320739Y-61785366D01*
X38320745Y-61785368D01*
X38320750Y-61785369D01*
X38411246Y-61795565D01*
X38455040Y-61800499D01*
X38455043Y-61800500D01*
X38455046Y-61800500D01*
X39944957Y-61800500D01*
X39944958Y-61800499D01*
X40012104Y-61792934D01*
X40079249Y-61785369D01*
X40079251Y-61785368D01*
X40079255Y-61785368D01*
X40079258Y-61785366D01*
X40079262Y-61785366D01*
X40128660Y-61768080D01*
X40249522Y-61725789D01*
X40252255Y-61724071D01*
X40254272Y-61723501D01*
X40255795Y-61722768D01*
X40255923Y-61723034D01*
X40319485Y-61705066D01*
X40386322Y-61725427D01*
X40421335Y-61760169D01*
X40478210Y-61845288D01*
X40478213Y-61845292D01*
X40589707Y-61956786D01*
X40589711Y-61956789D01*
X40720814Y-62044390D01*
X40720827Y-62044397D01*
X40866498Y-62104735D01*
X40866503Y-62104737D01*
X41021153Y-62135499D01*
X41021156Y-62135500D01*
X41021158Y-62135500D01*
X41178844Y-62135500D01*
X41178845Y-62135499D01*
X41333497Y-62104737D01*
X41452548Y-62055425D01*
X41522017Y-62047956D01*
X41547453Y-62055425D01*
X41666503Y-62104737D01*
X41821153Y-62135499D01*
X41821156Y-62135500D01*
X41821158Y-62135500D01*
X41978844Y-62135500D01*
X41978845Y-62135499D01*
X42133497Y-62104737D01*
X42279179Y-62044394D01*
X42410289Y-61956789D01*
X42521789Y-61845289D01*
X42609394Y-61714179D01*
X42669737Y-61568497D01*
X42700500Y-61413842D01*
X42700500Y-61256158D01*
X42700500Y-61256155D01*
X42700499Y-61256153D01*
X42692148Y-61214172D01*
X42669737Y-61101503D01*
X42621235Y-60984410D01*
X42613767Y-60914941D01*
X42621236Y-60889505D01*
X42669737Y-60772413D01*
X42700500Y-60617758D01*
X42700500Y-60460074D01*
X42700500Y-60460071D01*
X42700499Y-60460069D01*
X42692149Y-60418092D01*
X42669737Y-60305419D01*
X42650955Y-60260074D01*
X42618803Y-60182452D01*
X42611334Y-60112983D01*
X42618803Y-60087548D01*
X42638177Y-60040772D01*
X42669737Y-59964581D01*
X42700500Y-59809926D01*
X42700500Y-59652242D01*
X42700500Y-59652239D01*
X42700499Y-59652237D01*
X42672971Y-59513846D01*
X42669737Y-59497587D01*
X42654199Y-59460074D01*
X42620425Y-59378536D01*
X42612956Y-59309067D01*
X42620425Y-59283632D01*
X42640813Y-59234410D01*
X42669737Y-59164581D01*
X42700500Y-59009926D01*
X42700500Y-58852242D01*
X42700500Y-58852239D01*
X42700499Y-58852237D01*
X42699647Y-58847956D01*
X42669737Y-58697587D01*
X42621235Y-58580494D01*
X42613767Y-58511025D01*
X42621236Y-58485589D01*
X42621480Y-58485000D01*
X42669737Y-58368497D01*
X42700500Y-58213842D01*
X42700500Y-58056158D01*
X42700500Y-58056155D01*
X42700499Y-58056153D01*
X42692228Y-58014574D01*
X42669737Y-57901503D01*
X42669735Y-57901498D01*
X42609397Y-57755827D01*
X42609390Y-57755814D01*
X42521789Y-57624711D01*
X42521786Y-57624707D01*
X42410292Y-57513213D01*
X42410288Y-57513210D01*
X42279185Y-57425609D01*
X42279172Y-57425602D01*
X42133501Y-57365264D01*
X42133489Y-57365261D01*
X41978845Y-57334500D01*
X41978842Y-57334500D01*
X41821158Y-57334500D01*
X41821155Y-57334500D01*
X41666510Y-57365261D01*
X41666498Y-57365264D01*
X41547452Y-57414574D01*
X41477982Y-57422043D01*
X41452548Y-57414574D01*
X41333501Y-57365264D01*
X41333489Y-57365261D01*
X41178845Y-57334500D01*
X41178842Y-57334500D01*
X41021158Y-57334500D01*
X41021155Y-57334500D01*
X40866510Y-57365261D01*
X40866498Y-57365264D01*
X40720827Y-57425602D01*
X40720814Y-57425609D01*
X40589711Y-57513210D01*
X40589707Y-57513213D01*
X40478213Y-57624707D01*
X40478210Y-57624711D01*
X40390609Y-57755814D01*
X40390603Y-57755826D01*
X40374776Y-57794035D01*
X40330934Y-57848437D01*
X40264640Y-57870501D01*
X40219262Y-57863622D01*
X40079257Y-57814632D01*
X40079249Y-57814630D01*
X39944960Y-57799500D01*
X39944954Y-57799500D01*
X38455046Y-57799500D01*
X38455039Y-57799500D01*
X38320750Y-57814630D01*
X38320745Y-57814631D01*
X38150476Y-57874211D01*
X37995972Y-57971293D01*
X37928735Y-57990293D01*
X37864028Y-57971293D01*
X37709523Y-57874211D01*
X37539254Y-57814631D01*
X37539249Y-57814630D01*
X37404960Y-57799500D01*
X37404954Y-57799500D01*
X35915046Y-57799500D01*
X35915039Y-57799500D01*
X35780750Y-57814630D01*
X35780745Y-57814631D01*
X35610476Y-57874211D01*
X35457737Y-57970184D01*
X35330184Y-58097737D01*
X35330180Y-58097742D01*
X35300841Y-58144434D01*
X35248506Y-58190724D01*
X35179452Y-58201371D01*
X35115604Y-58172995D01*
X35108168Y-58166141D01*
X35097512Y-58155485D01*
X35097510Y-58155483D01*
X34906433Y-58016657D01*
X34854691Y-57990293D01*
X34695996Y-57909433D01*
X34471368Y-57836446D01*
X34238097Y-57799500D01*
X34238092Y-57799500D01*
X34001908Y-57799500D01*
X34001903Y-57799500D01*
X33768631Y-57836446D01*
X33544003Y-57909433D01*
X33333566Y-58016657D01*
X33224550Y-58095862D01*
X33142490Y-58155483D01*
X33142488Y-58155485D01*
X33142487Y-58155485D01*
X32975484Y-58322488D01*
X32975483Y-58322490D01*
X32951267Y-58355821D01*
X32950318Y-58357127D01*
X32894987Y-58399792D01*
X32825374Y-58405771D01*
X32763579Y-58373165D01*
X32749682Y-58357127D01*
X32724517Y-58322490D01*
X32557510Y-58155483D01*
X32366433Y-58016657D01*
X32314691Y-57990293D01*
X32155996Y-57909433D01*
X31931368Y-57836446D01*
X31698097Y-57799500D01*
X31698092Y-57799500D01*
X31461908Y-57799500D01*
X31461903Y-57799500D01*
X31228631Y-57836446D01*
X31004003Y-57909433D01*
X30793566Y-58016657D01*
X30684550Y-58095862D01*
X30602490Y-58155483D01*
X30602488Y-58155485D01*
X30602487Y-58155485D01*
X30435485Y-58322487D01*
X30435485Y-58322488D01*
X30435483Y-58322490D01*
X30379320Y-58399792D01*
X30296657Y-58513566D01*
X30189433Y-58724003D01*
X30116446Y-58948631D01*
X30079500Y-59181902D01*
X27161618Y-59181902D01*
X27140570Y-59131088D01*
X27140048Y-59129738D01*
X27137250Y-59096326D01*
X27133666Y-59062984D01*
X27134283Y-59060881D01*
X27134219Y-59060112D01*
X27134869Y-59058886D01*
X27141133Y-59037552D01*
X27169737Y-58968497D01*
X27200500Y-58813842D01*
X27200500Y-58656158D01*
X27200500Y-58656155D01*
X27200499Y-58656153D01*
X27185585Y-58581175D01*
X27169737Y-58501503D01*
X27130084Y-58405771D01*
X27109397Y-58355827D01*
X27109390Y-58355814D01*
X27021789Y-58224711D01*
X27021786Y-58224707D01*
X26910292Y-58113213D01*
X26910288Y-58113210D01*
X26779185Y-58025609D01*
X26779172Y-58025602D01*
X26633501Y-57965264D01*
X26633489Y-57965261D01*
X26478845Y-57934500D01*
X26478842Y-57934500D01*
X26321158Y-57934500D01*
X26321155Y-57934500D01*
X26166510Y-57965261D01*
X26166498Y-57965264D01*
X26047452Y-58014574D01*
X25977982Y-58022043D01*
X25952548Y-58014574D01*
X25833501Y-57965264D01*
X25833489Y-57965261D01*
X25678845Y-57934500D01*
X25678842Y-57934500D01*
X25521158Y-57934500D01*
X25521155Y-57934500D01*
X25366510Y-57965261D01*
X25366498Y-57965264D01*
X25247452Y-58014574D01*
X25177982Y-58022043D01*
X25152548Y-58014574D01*
X25033501Y-57965264D01*
X25033489Y-57965261D01*
X24878845Y-57934500D01*
X24878842Y-57934500D01*
X24721158Y-57934500D01*
X24721155Y-57934500D01*
X24566510Y-57965261D01*
X24566498Y-57965264D01*
X24447452Y-58014574D01*
X24377982Y-58022043D01*
X24352548Y-58014574D01*
X24233501Y-57965264D01*
X24233489Y-57965261D01*
X24078845Y-57934500D01*
X24078842Y-57934500D01*
X23921158Y-57934500D01*
X23921155Y-57934500D01*
X23766510Y-57965261D01*
X23766498Y-57965264D01*
X23647452Y-58014574D01*
X23577982Y-58022043D01*
X23552548Y-58014574D01*
X23433501Y-57965264D01*
X23433489Y-57965261D01*
X23278845Y-57934500D01*
X23278842Y-57934500D01*
X23121158Y-57934500D01*
X23121155Y-57934500D01*
X22966510Y-57965261D01*
X22966498Y-57965264D01*
X22820827Y-58025602D01*
X22820814Y-58025609D01*
X22689711Y-58113210D01*
X22689707Y-58113213D01*
X22578213Y-58224707D01*
X22578210Y-58224711D01*
X22490609Y-58355814D01*
X22490602Y-58355827D01*
X22430264Y-58501498D01*
X22430261Y-58501510D01*
X22399500Y-58656153D01*
X17310925Y-58656153D01*
X17321789Y-58645289D01*
X17409394Y-58514179D01*
X17409648Y-58513567D01*
X17441135Y-58437549D01*
X17469737Y-58368497D01*
X17500500Y-58213842D01*
X17500500Y-58056158D01*
X17500500Y-58056155D01*
X17500499Y-58056153D01*
X17492228Y-58014574D01*
X17469737Y-57901503D01*
X17469735Y-57901498D01*
X17409397Y-57755827D01*
X17409390Y-57755814D01*
X17321789Y-57624711D01*
X17321786Y-57624707D01*
X17210292Y-57513213D01*
X17210288Y-57513210D01*
X17079185Y-57425609D01*
X17079172Y-57425602D01*
X16933501Y-57365264D01*
X16933489Y-57365261D01*
X16778845Y-57334500D01*
X16778842Y-57334500D01*
X16621158Y-57334500D01*
X16621155Y-57334500D01*
X16466510Y-57365261D01*
X16466498Y-57365264D01*
X16347452Y-57414574D01*
X16277982Y-57422043D01*
X16252548Y-57414574D01*
X16133501Y-57365264D01*
X16133489Y-57365261D01*
X15978845Y-57334500D01*
X15978842Y-57334500D01*
X15821158Y-57334500D01*
X15821155Y-57334500D01*
X15666511Y-57365260D01*
X15666506Y-57365262D01*
X15666504Y-57365262D01*
X15666503Y-57365263D01*
X15597449Y-57393865D01*
X15527982Y-57401333D01*
X15502552Y-57393865D01*
X15433497Y-57365263D01*
X15433493Y-57365262D01*
X15433488Y-57365260D01*
X15278845Y-57334500D01*
X15278842Y-57334500D01*
X15121158Y-57334500D01*
X15121155Y-57334500D01*
X14966510Y-57365261D01*
X14966498Y-57365264D01*
X14847452Y-57414574D01*
X14777982Y-57422043D01*
X14752548Y-57414574D01*
X14633501Y-57365264D01*
X14633489Y-57365261D01*
X14478845Y-57334500D01*
X14478842Y-57334500D01*
X14321158Y-57334500D01*
X14321155Y-57334500D01*
X14166510Y-57365261D01*
X14166498Y-57365264D01*
X14020827Y-57425602D01*
X14020814Y-57425609D01*
X13889711Y-57513210D01*
X13889707Y-57513213D01*
X13778213Y-57624707D01*
X13778210Y-57624711D01*
X13690609Y-57755814D01*
X13690602Y-57755827D01*
X13630264Y-57901498D01*
X13630261Y-57901510D01*
X13599500Y-58056153D01*
X12500500Y-58056153D01*
X12500500Y-54760069D01*
X20899500Y-54760069D01*
X20899500Y-54917762D01*
X20930261Y-55072405D01*
X20930264Y-55072417D01*
X20978763Y-55189506D01*
X20986232Y-55258976D01*
X20978763Y-55284410D01*
X20930264Y-55401498D01*
X20930261Y-55401510D01*
X20899500Y-55556153D01*
X20899500Y-55713846D01*
X20930261Y-55868489D01*
X20930264Y-55868501D01*
X20990602Y-56014172D01*
X20990609Y-56014185D01*
X21078210Y-56145288D01*
X21078213Y-56145292D01*
X21189707Y-56256786D01*
X21189711Y-56256789D01*
X21320814Y-56344390D01*
X21320827Y-56344397D01*
X21466498Y-56404735D01*
X21466503Y-56404737D01*
X21621153Y-56435499D01*
X21621156Y-56435500D01*
X21621158Y-56435500D01*
X21778844Y-56435500D01*
X21778845Y-56435499D01*
X21933497Y-56404737D01*
X22079179Y-56344394D01*
X22081110Y-56343103D01*
X22082276Y-56342737D01*
X22084546Y-56341525D01*
X22084776Y-56341955D01*
X22147786Y-56322226D01*
X22215166Y-56340710D01*
X22218850Y-56343077D01*
X22220821Y-56344394D01*
X22220824Y-56344395D01*
X22220827Y-56344397D01*
X22366498Y-56404735D01*
X22366503Y-56404737D01*
X22521153Y-56435499D01*
X22521156Y-56435500D01*
X22521158Y-56435500D01*
X22678844Y-56435500D01*
X22678845Y-56435499D01*
X22833497Y-56404737D01*
X22979179Y-56344394D01*
X23110289Y-56256789D01*
X23221789Y-56145289D01*
X23309394Y-56014179D01*
X23310701Y-56011025D01*
X23369735Y-55868501D01*
X23369737Y-55868497D01*
X23400500Y-55713842D01*
X23400500Y-55680134D01*
X23420185Y-55613095D01*
X23472989Y-55567340D01*
X23542147Y-55557396D01*
X23571950Y-55565572D01*
X23666503Y-55604737D01*
X23821153Y-55635499D01*
X23821156Y-55635500D01*
X23821158Y-55635500D01*
X23978844Y-55635500D01*
X23978845Y-55635499D01*
X24133497Y-55604737D01*
X24279179Y-55544394D01*
X24410289Y-55456789D01*
X24521789Y-55345289D01*
X24609394Y-55214179D01*
X24669737Y-55068497D01*
X24678383Y-55025033D01*
X24710768Y-54963122D01*
X24771483Y-54928548D01*
X24841253Y-54932287D01*
X24897925Y-54973154D01*
X24921617Y-55025033D01*
X24930261Y-55068489D01*
X24930264Y-55068501D01*
X24990602Y-55214172D01*
X24990609Y-55214185D01*
X25078210Y-55345288D01*
X25078213Y-55345292D01*
X25189707Y-55456786D01*
X25189711Y-55456789D01*
X25320814Y-55544390D01*
X25320827Y-55544397D01*
X25429425Y-55589379D01*
X25466503Y-55604737D01*
X25621153Y-55635499D01*
X25621156Y-55635500D01*
X25621158Y-55635500D01*
X25778844Y-55635500D01*
X25778845Y-55635499D01*
X25933497Y-55604737D01*
X26028048Y-55565572D01*
X26097517Y-55558104D01*
X26159996Y-55589379D01*
X26195648Y-55649468D01*
X26199500Y-55680134D01*
X26199500Y-55713846D01*
X26230261Y-55868489D01*
X26230264Y-55868501D01*
X26290602Y-56014172D01*
X26290609Y-56014185D01*
X26378210Y-56145288D01*
X26378213Y-56145292D01*
X26489707Y-56256786D01*
X26489711Y-56256789D01*
X26620814Y-56344390D01*
X26620827Y-56344397D01*
X26766498Y-56404735D01*
X26766503Y-56404737D01*
X26921153Y-56435499D01*
X26921156Y-56435500D01*
X26921158Y-56435500D01*
X27078844Y-56435500D01*
X27078845Y-56435499D01*
X27233497Y-56404737D01*
X27379179Y-56344394D01*
X27510289Y-56256789D01*
X27621789Y-56145289D01*
X27709394Y-56014179D01*
X27710701Y-56011025D01*
X27769735Y-55868501D01*
X27769737Y-55868497D01*
X27800500Y-55713842D01*
X27800500Y-55556158D01*
X27800500Y-55556155D01*
X27800499Y-55556153D01*
X27780734Y-55456789D01*
X27769737Y-55401503D01*
X27721235Y-55284410D01*
X27713767Y-55214941D01*
X27721236Y-55189505D01*
X27722047Y-55187548D01*
X27769737Y-55072413D01*
X27800500Y-54917758D01*
X27800500Y-54917751D01*
X27801033Y-54912348D01*
X27827193Y-54847560D01*
X27884226Y-54807200D01*
X27924436Y-54800500D01*
X28118004Y-54800500D01*
X28118011Y-54800500D01*
X28352014Y-54769693D01*
X28402546Y-54756153D01*
X35599500Y-54756153D01*
X35599500Y-54913846D01*
X35630261Y-55068489D01*
X35630264Y-55068501D01*
X35679574Y-55187548D01*
X35687043Y-55257018D01*
X35679574Y-55282452D01*
X35630264Y-55401498D01*
X35630261Y-55401510D01*
X35599500Y-55556153D01*
X35599500Y-55713846D01*
X35630261Y-55868489D01*
X35630264Y-55868501D01*
X35678763Y-55985590D01*
X35686232Y-56055060D01*
X35678763Y-56080494D01*
X35630264Y-56197582D01*
X35630261Y-56197594D01*
X35599500Y-56352237D01*
X35599500Y-56509930D01*
X35630261Y-56664573D01*
X35630264Y-56664585D01*
X35690602Y-56810256D01*
X35690609Y-56810269D01*
X35778210Y-56941372D01*
X35778213Y-56941376D01*
X35889707Y-57052870D01*
X35889711Y-57052873D01*
X36020814Y-57140474D01*
X36020827Y-57140481D01*
X36166498Y-57200819D01*
X36166503Y-57200821D01*
X36321153Y-57231583D01*
X36321156Y-57231584D01*
X36321158Y-57231584D01*
X36478844Y-57231584D01*
X36478845Y-57231583D01*
X36633497Y-57200821D01*
X36752548Y-57151509D01*
X36822017Y-57144040D01*
X36847453Y-57151509D01*
X36966503Y-57200821D01*
X37121153Y-57231583D01*
X37121156Y-57231584D01*
X37121158Y-57231584D01*
X37278844Y-57231584D01*
X37278845Y-57231583D01*
X37433497Y-57200821D01*
X37579179Y-57140478D01*
X37710289Y-57052873D01*
X37821789Y-56941373D01*
X37909394Y-56810263D01*
X37969737Y-56664581D01*
X38000500Y-56509926D01*
X38000500Y-56352242D01*
X38000500Y-56352239D01*
X38000499Y-56352237D01*
X37969737Y-56197587D01*
X37921235Y-56080494D01*
X37913767Y-56011025D01*
X37921236Y-55985589D01*
X37969737Y-55868497D01*
X38000500Y-55713842D01*
X38000500Y-55556158D01*
X38000500Y-55556155D01*
X38000499Y-55556153D01*
X37980734Y-55456789D01*
X37969737Y-55401503D01*
X37920425Y-55282452D01*
X37912956Y-55212983D01*
X37920425Y-55187548D01*
X37969735Y-55068501D01*
X37969737Y-55068497D01*
X38000500Y-54913842D01*
X38000500Y-54756158D01*
X38000500Y-54756155D01*
X38000499Y-54756153D01*
X37991041Y-54708605D01*
X37969737Y-54601503D01*
X37969735Y-54601498D01*
X37909397Y-54455827D01*
X37909390Y-54455814D01*
X37821789Y-54324711D01*
X37821786Y-54324707D01*
X37710292Y-54213213D01*
X37710288Y-54213210D01*
X37579185Y-54125609D01*
X37579172Y-54125602D01*
X37433501Y-54065264D01*
X37433489Y-54065261D01*
X37278845Y-54034500D01*
X37278842Y-54034500D01*
X37121158Y-54034500D01*
X37121155Y-54034500D01*
X36966510Y-54065261D01*
X36966498Y-54065264D01*
X36847452Y-54114574D01*
X36777982Y-54122043D01*
X36752548Y-54114574D01*
X36633501Y-54065264D01*
X36633489Y-54065261D01*
X36478845Y-54034500D01*
X36478842Y-54034500D01*
X36321158Y-54034500D01*
X36321155Y-54034500D01*
X36166510Y-54065261D01*
X36166498Y-54065264D01*
X36020827Y-54125602D01*
X36020814Y-54125609D01*
X35889711Y-54213210D01*
X35889707Y-54213213D01*
X35778213Y-54324707D01*
X35778210Y-54324711D01*
X35690609Y-54455814D01*
X35690602Y-54455827D01*
X35630264Y-54601498D01*
X35630261Y-54601510D01*
X35599500Y-54756153D01*
X28402546Y-54756153D01*
X28579993Y-54708606D01*
X28784478Y-54623904D01*
X28798040Y-54618288D01*
X28798043Y-54618286D01*
X28798049Y-54618284D01*
X29002450Y-54500273D01*
X29189699Y-54356592D01*
X29356592Y-54189699D01*
X29500273Y-54002450D01*
X29618284Y-53798049D01*
X29708606Y-53579993D01*
X29769693Y-53352014D01*
X29800500Y-53118011D01*
X29800500Y-52881989D01*
X29769693Y-52647986D01*
X29708606Y-52420007D01*
X29688105Y-52370513D01*
X32574500Y-52370513D01*
X32574500Y-52559486D01*
X32604059Y-52746118D01*
X32662454Y-52925836D01*
X32748240Y-53094199D01*
X32859310Y-53247073D01*
X32992927Y-53380690D01*
X33145801Y-53491760D01*
X33225347Y-53532290D01*
X33314163Y-53577545D01*
X33314165Y-53577545D01*
X33314168Y-53577547D01*
X33408969Y-53608350D01*
X33493881Y-53635940D01*
X33680514Y-53665500D01*
X33680519Y-53665500D01*
X33869486Y-53665500D01*
X34056118Y-53635940D01*
X34235832Y-53577547D01*
X34404199Y-53491760D01*
X34557073Y-53380690D01*
X34687319Y-53250444D01*
X34748642Y-53216959D01*
X34818334Y-53221943D01*
X34862681Y-53250444D01*
X34992927Y-53380690D01*
X35145801Y-53491760D01*
X35225347Y-53532290D01*
X35314163Y-53577545D01*
X35314165Y-53577545D01*
X35314168Y-53577547D01*
X35408969Y-53608350D01*
X35493881Y-53635940D01*
X35680514Y-53665500D01*
X35680519Y-53665500D01*
X35869486Y-53665500D01*
X36056118Y-53635940D01*
X36235832Y-53577547D01*
X36404199Y-53491760D01*
X36557073Y-53380690D01*
X36687319Y-53250444D01*
X36748642Y-53216959D01*
X36818334Y-53221943D01*
X36862681Y-53250444D01*
X36992927Y-53380690D01*
X37145801Y-53491760D01*
X37225347Y-53532290D01*
X37314163Y-53577545D01*
X37314165Y-53577545D01*
X37314168Y-53577547D01*
X37408969Y-53608350D01*
X37493881Y-53635940D01*
X37680514Y-53665500D01*
X37680519Y-53665500D01*
X37869486Y-53665500D01*
X38056118Y-53635940D01*
X38235832Y-53577547D01*
X38404199Y-53491760D01*
X38493681Y-53426746D01*
X38559484Y-53403267D01*
X38627538Y-53419092D01*
X38665831Y-53452753D01*
X38717812Y-53522190D01*
X38832906Y-53608350D01*
X38832913Y-53608354D01*
X38967620Y-53658596D01*
X38967627Y-53658598D01*
X39027155Y-53664999D01*
X39027172Y-53665000D01*
X39525000Y-53665000D01*
X39525000Y-52791202D01*
X39617711Y-52844729D01*
X39721352Y-52872500D01*
X39828648Y-52872500D01*
X39932289Y-52844729D01*
X40025000Y-52791202D01*
X40025000Y-53665000D01*
X40522828Y-53665000D01*
X40522844Y-53664999D01*
X40582372Y-53658598D01*
X40582379Y-53658596D01*
X40717086Y-53608354D01*
X40717093Y-53608350D01*
X40832187Y-53522190D01*
X40832190Y-53522187D01*
X40918350Y-53407093D01*
X40918354Y-53407086D01*
X40968596Y-53272379D01*
X40968598Y-53272372D01*
X40974999Y-53212844D01*
X40975000Y-53212827D01*
X40975000Y-52715000D01*
X40101203Y-52715000D01*
X40154729Y-52622289D01*
X40182500Y-52518648D01*
X40182500Y-52411352D01*
X40154729Y-52307711D01*
X40101203Y-52215000D01*
X40975000Y-52215000D01*
X40975000Y-51717172D01*
X40974999Y-51717155D01*
X40968598Y-51657627D01*
X40968596Y-51657620D01*
X40918354Y-51522913D01*
X40918350Y-51522906D01*
X40832190Y-51407812D01*
X40832187Y-51407809D01*
X40717093Y-51321649D01*
X40717086Y-51321645D01*
X40582379Y-51271403D01*
X40582372Y-51271401D01*
X40522844Y-51265000D01*
X40025000Y-51265000D01*
X40025000Y-52138797D01*
X39932289Y-52085271D01*
X39828648Y-52057500D01*
X39721352Y-52057500D01*
X39617711Y-52085271D01*
X39525000Y-52138797D01*
X39525000Y-51265000D01*
X39027155Y-51265000D01*
X38967627Y-51271401D01*
X38967620Y-51271403D01*
X38832913Y-51321645D01*
X38832906Y-51321649D01*
X38717812Y-51407809D01*
X38665831Y-51477246D01*
X38609897Y-51519117D01*
X38540205Y-51524100D01*
X38493681Y-51503253D01*
X38404199Y-51438240D01*
X38235836Y-51352454D01*
X38056118Y-51294059D01*
X37869486Y-51264500D01*
X37869481Y-51264500D01*
X37680519Y-51264500D01*
X37680514Y-51264500D01*
X37493881Y-51294059D01*
X37314163Y-51352454D01*
X37145800Y-51438240D01*
X37092114Y-51477246D01*
X36992927Y-51549310D01*
X36992925Y-51549312D01*
X36992924Y-51549312D01*
X36862681Y-51679556D01*
X36801358Y-51713041D01*
X36731666Y-51708057D01*
X36687319Y-51679556D01*
X36557075Y-51549312D01*
X36557073Y-51549310D01*
X36404199Y-51438240D01*
X36235836Y-51352454D01*
X36056118Y-51294059D01*
X35869486Y-51264500D01*
X35869481Y-51264500D01*
X35680519Y-51264500D01*
X35618887Y-51274261D01*
X35549594Y-51265305D01*
X35496142Y-51220308D01*
X35475503Y-51153557D01*
X35477873Y-51127595D01*
X35500500Y-51013844D01*
X35500500Y-50856155D01*
X35500499Y-50856153D01*
X35480734Y-50756789D01*
X35469737Y-50701503D01*
X35437858Y-50624541D01*
X35430390Y-50555073D01*
X35461665Y-50492594D01*
X35521754Y-50456942D01*
X35591579Y-50459436D01*
X35621311Y-50473988D01*
X35720814Y-50540474D01*
X35720827Y-50540481D01*
X35866498Y-50600819D01*
X35866503Y-50600821D01*
X35985761Y-50624543D01*
X36021153Y-50631583D01*
X36021156Y-50631584D01*
X36021158Y-50631584D01*
X36178844Y-50631584D01*
X36178845Y-50631583D01*
X36333497Y-50600821D01*
X36442123Y-50555827D01*
X36452548Y-50551509D01*
X36522017Y-50544040D01*
X36547452Y-50551509D01*
X36557877Y-50555827D01*
X36666503Y-50600821D01*
X36785761Y-50624543D01*
X36821153Y-50631583D01*
X36821156Y-50631584D01*
X36821158Y-50631584D01*
X36978844Y-50631584D01*
X36978845Y-50631583D01*
X37133497Y-50600821D01*
X37279179Y-50540478D01*
X37410289Y-50452873D01*
X37521789Y-50341373D01*
X37609394Y-50210263D01*
X37669737Y-50064581D01*
X37700500Y-49909926D01*
X37700500Y-49752242D01*
X37700500Y-49752239D01*
X37700499Y-49752237D01*
X37687631Y-49687548D01*
X37669737Y-49597587D01*
X37621235Y-49480494D01*
X37613767Y-49411025D01*
X37621236Y-49385589D01*
X37669737Y-49268497D01*
X37700500Y-49113842D01*
X37700500Y-48956158D01*
X37700500Y-48956155D01*
X37700499Y-48956153D01*
X37680543Y-48855827D01*
X37669737Y-48801503D01*
X37642398Y-48735500D01*
X37620425Y-48682452D01*
X37612956Y-48612983D01*
X37620425Y-48587548D01*
X37646082Y-48525606D01*
X37669737Y-48468497D01*
X37700500Y-48313842D01*
X37700500Y-48156158D01*
X37700500Y-48156155D01*
X37700499Y-48156153D01*
X37672192Y-48013846D01*
X37669737Y-48001503D01*
X37609534Y-47856158D01*
X37609397Y-47855827D01*
X37609390Y-47855814D01*
X37521789Y-47724711D01*
X37521786Y-47724707D01*
X37410292Y-47613213D01*
X37410288Y-47613210D01*
X37279185Y-47525609D01*
X37279172Y-47525602D01*
X37133501Y-47465264D01*
X37133489Y-47465261D01*
X36978845Y-47434500D01*
X36978842Y-47434500D01*
X36821158Y-47434500D01*
X36821155Y-47434500D01*
X36666510Y-47465261D01*
X36666498Y-47465264D01*
X36547452Y-47514574D01*
X36477982Y-47522043D01*
X36452548Y-47514574D01*
X36333501Y-47465264D01*
X36333489Y-47465261D01*
X36178845Y-47434500D01*
X36178842Y-47434500D01*
X36021158Y-47434500D01*
X36021155Y-47434500D01*
X35866510Y-47465261D01*
X35866498Y-47465264D01*
X35720827Y-47525602D01*
X35720814Y-47525609D01*
X35589711Y-47613210D01*
X35589707Y-47613213D01*
X35478213Y-47724707D01*
X35478210Y-47724711D01*
X35390609Y-47855814D01*
X35390602Y-47855827D01*
X35330264Y-48001498D01*
X35330261Y-48001510D01*
X35299500Y-48156153D01*
X35299500Y-48313846D01*
X35330261Y-48468489D01*
X35330264Y-48468501D01*
X35379574Y-48587548D01*
X35387043Y-48657018D01*
X35379574Y-48682452D01*
X35330264Y-48801498D01*
X35330261Y-48801510D01*
X35299500Y-48956153D01*
X35299500Y-49113846D01*
X35330261Y-49268489D01*
X35330264Y-49268501D01*
X35378763Y-49385590D01*
X35386232Y-49455060D01*
X35378763Y-49480494D01*
X35330264Y-49597582D01*
X35330261Y-49597594D01*
X35299500Y-49752237D01*
X35299500Y-49909930D01*
X35330261Y-50064573D01*
X35330264Y-50064585D01*
X35362140Y-50141541D01*
X35369609Y-50211010D01*
X35338333Y-50273489D01*
X35278244Y-50309141D01*
X35208419Y-50306647D01*
X35178688Y-50292095D01*
X35079185Y-50225609D01*
X35079172Y-50225602D01*
X34933501Y-50165264D01*
X34933489Y-50165261D01*
X34778845Y-50134500D01*
X34778842Y-50134500D01*
X34621158Y-50134500D01*
X34621155Y-50134500D01*
X34466510Y-50165261D01*
X34466498Y-50165264D01*
X34320827Y-50225602D01*
X34320814Y-50225609D01*
X34189711Y-50313210D01*
X34189707Y-50313213D01*
X34078213Y-50424707D01*
X34078210Y-50424711D01*
X33990609Y-50555814D01*
X33990602Y-50555827D01*
X33930264Y-50701498D01*
X33930261Y-50701510D01*
X33899500Y-50856153D01*
X33899500Y-50856158D01*
X33899500Y-51013842D01*
X33899500Y-51013844D01*
X33899499Y-51013844D01*
X33919882Y-51116308D01*
X33913655Y-51185900D01*
X33870792Y-51241077D01*
X33804903Y-51264322D01*
X33798265Y-51264500D01*
X33680514Y-51264500D01*
X33493881Y-51294059D01*
X33314163Y-51352454D01*
X33145800Y-51438240D01*
X33092114Y-51477246D01*
X32992927Y-51549310D01*
X32992925Y-51549312D01*
X32992924Y-51549312D01*
X32859312Y-51682924D01*
X32859312Y-51682925D01*
X32859310Y-51682927D01*
X32828255Y-51725671D01*
X32748240Y-51835800D01*
X32662454Y-52004163D01*
X32604059Y-52183881D01*
X32574500Y-52370513D01*
X29688105Y-52370513D01*
X29618284Y-52201951D01*
X29618282Y-52201948D01*
X29618280Y-52201943D01*
X29576118Y-52128918D01*
X29500273Y-51997550D01*
X29356592Y-51810301D01*
X29356587Y-51810295D01*
X29189704Y-51643412D01*
X29189697Y-51643406D01*
X29002454Y-51499730D01*
X29002453Y-51499729D01*
X29002450Y-51499727D01*
X28920957Y-51452677D01*
X28798056Y-51381719D01*
X28798045Y-51381714D01*
X28579993Y-51291394D01*
X28482628Y-51265305D01*
X28352014Y-51230307D01*
X28352013Y-51230306D01*
X28352010Y-51230306D01*
X28118020Y-51199501D01*
X28118017Y-51199500D01*
X28118011Y-51199500D01*
X27881989Y-51199500D01*
X27881983Y-51199500D01*
X27881979Y-51199501D01*
X27647989Y-51230306D01*
X27420006Y-51291394D01*
X27201954Y-51381714D01*
X27201943Y-51381719D01*
X26997545Y-51499730D01*
X26810302Y-51643406D01*
X26810295Y-51643412D01*
X26643412Y-51810295D01*
X26643406Y-51810302D01*
X26499730Y-51997545D01*
X26381719Y-52201943D01*
X26381714Y-52201954D01*
X26291394Y-52420006D01*
X26230306Y-52647989D01*
X26199501Y-52881979D01*
X26199500Y-52881995D01*
X26199500Y-53118004D01*
X26199501Y-53118020D01*
X26230306Y-53352010D01*
X26291394Y-53579993D01*
X26381714Y-53798045D01*
X26381719Y-53798056D01*
X26499726Y-54002449D01*
X26524631Y-54034906D01*
X26549825Y-54100075D01*
X26535786Y-54168520D01*
X26495153Y-54213489D01*
X26489716Y-54217122D01*
X26489707Y-54217129D01*
X26439639Y-54267198D01*
X26378316Y-54300683D01*
X26308624Y-54295699D01*
X26264277Y-54267198D01*
X26210292Y-54213213D01*
X26210288Y-54213210D01*
X26079185Y-54125609D01*
X26079172Y-54125602D01*
X25933501Y-54065264D01*
X25933489Y-54065261D01*
X25778845Y-54034500D01*
X25778842Y-54034500D01*
X25621158Y-54034500D01*
X25621155Y-54034500D01*
X25466510Y-54065261D01*
X25466498Y-54065264D01*
X25320827Y-54125602D01*
X25320814Y-54125609D01*
X25189711Y-54213210D01*
X25189707Y-54213213D01*
X25078213Y-54324707D01*
X25078210Y-54324711D01*
X24990609Y-54455814D01*
X24990602Y-54455827D01*
X24930264Y-54601498D01*
X24930261Y-54601508D01*
X24921617Y-54644967D01*
X24889232Y-54706878D01*
X24828516Y-54741452D01*
X24758747Y-54737712D01*
X24702075Y-54696845D01*
X24678383Y-54644967D01*
X24669738Y-54601508D01*
X24669737Y-54601507D01*
X24669737Y-54601503D01*
X24669735Y-54601498D01*
X24609397Y-54455827D01*
X24609390Y-54455814D01*
X24521789Y-54324711D01*
X24521786Y-54324707D01*
X24410292Y-54213213D01*
X24410288Y-54213210D01*
X24279185Y-54125609D01*
X24279172Y-54125602D01*
X24133501Y-54065264D01*
X24133489Y-54065261D01*
X23978845Y-54034500D01*
X23978842Y-54034500D01*
X23821158Y-54034500D01*
X23821155Y-54034500D01*
X23666510Y-54065261D01*
X23666498Y-54065264D01*
X23520827Y-54125602D01*
X23520814Y-54125609D01*
X23389711Y-54213210D01*
X23389707Y-54213213D01*
X23335723Y-54267198D01*
X23274400Y-54300683D01*
X23204708Y-54295699D01*
X23160361Y-54267198D01*
X23110292Y-54217129D01*
X23110288Y-54217126D01*
X22979185Y-54129525D01*
X22979172Y-54129518D01*
X22833501Y-54069180D01*
X22833489Y-54069177D01*
X22678845Y-54038416D01*
X22678842Y-54038416D01*
X22521158Y-54038416D01*
X22521155Y-54038416D01*
X22366510Y-54069177D01*
X22366498Y-54069180D01*
X22220822Y-54129520D01*
X22220820Y-54129521D01*
X22218885Y-54130815D01*
X22217717Y-54131180D01*
X22215451Y-54132392D01*
X22215221Y-54131961D01*
X22152206Y-54151689D01*
X22084827Y-54133201D01*
X22081115Y-54130815D01*
X22079179Y-54129521D01*
X22079177Y-54129520D01*
X21933501Y-54069180D01*
X21933489Y-54069177D01*
X21778845Y-54038416D01*
X21778842Y-54038416D01*
X21621158Y-54038416D01*
X21621155Y-54038416D01*
X21466510Y-54069177D01*
X21466498Y-54069180D01*
X21320827Y-54129518D01*
X21320814Y-54129525D01*
X21189711Y-54217126D01*
X21189707Y-54217129D01*
X21078213Y-54328623D01*
X21078210Y-54328627D01*
X20990609Y-54459730D01*
X20990602Y-54459743D01*
X20930264Y-54605414D01*
X20930261Y-54605426D01*
X20899500Y-54760069D01*
X12500500Y-54760069D01*
X12500500Y-49956153D01*
X14499500Y-49956153D01*
X14499500Y-50113846D01*
X14530261Y-50268489D01*
X14530264Y-50268501D01*
X14590602Y-50414172D01*
X14590609Y-50414185D01*
X14678210Y-50545288D01*
X14678213Y-50545292D01*
X14789707Y-50656786D01*
X14789711Y-50656789D01*
X14920814Y-50744390D01*
X14920827Y-50744397D01*
X15066498Y-50804735D01*
X15066503Y-50804737D01*
X15221153Y-50835499D01*
X15221156Y-50835500D01*
X15221158Y-50835500D01*
X15378844Y-50835500D01*
X15378845Y-50835499D01*
X15533497Y-50804737D01*
X15652548Y-50755425D01*
X15722017Y-50747956D01*
X15747453Y-50755425D01*
X15866503Y-50804737D01*
X16021153Y-50835499D01*
X16021156Y-50835500D01*
X16021158Y-50835500D01*
X16178844Y-50835500D01*
X16178845Y-50835499D01*
X16333497Y-50804737D01*
X16452548Y-50755425D01*
X16522017Y-50747956D01*
X16547453Y-50755425D01*
X16666503Y-50804737D01*
X16821153Y-50835499D01*
X16821156Y-50835500D01*
X16821158Y-50835500D01*
X16978844Y-50835500D01*
X16978845Y-50835499D01*
X17133497Y-50804737D01*
X17279179Y-50744394D01*
X17410289Y-50656789D01*
X17521789Y-50545289D01*
X17609394Y-50414179D01*
X17669737Y-50268497D01*
X17700500Y-50113842D01*
X17700500Y-50113831D01*
X17700942Y-50109347D01*
X17727098Y-50044557D01*
X17784129Y-50004194D01*
X17853929Y-50001071D01*
X17860588Y-50003259D01*
X17860676Y-50002969D01*
X17866492Y-50004732D01*
X17866503Y-50004737D01*
X18021153Y-50035499D01*
X18021156Y-50035500D01*
X18021158Y-50035500D01*
X18178844Y-50035500D01*
X18178845Y-50035499D01*
X18333497Y-50004737D01*
X18452548Y-49955425D01*
X18522017Y-49947956D01*
X18547452Y-49955425D01*
X18662935Y-50003259D01*
X18666503Y-50004737D01*
X18821153Y-50035499D01*
X18821156Y-50035500D01*
X18821158Y-50035500D01*
X18978844Y-50035500D01*
X18978845Y-50035499D01*
X19133497Y-50004737D01*
X19252548Y-49955425D01*
X19322017Y-49947956D01*
X19347452Y-49955425D01*
X19462935Y-50003259D01*
X19466503Y-50004737D01*
X19621153Y-50035499D01*
X19621156Y-50035500D01*
X19621158Y-50035500D01*
X19778844Y-50035500D01*
X19778845Y-50035499D01*
X19933497Y-50004737D01*
X20052548Y-49955425D01*
X20122017Y-49947956D01*
X20147452Y-49955425D01*
X20262935Y-50003259D01*
X20266503Y-50004737D01*
X20421153Y-50035499D01*
X20421156Y-50035500D01*
X20421158Y-50035500D01*
X20578844Y-50035500D01*
X20578845Y-50035499D01*
X20733497Y-50004737D01*
X20852548Y-49955425D01*
X20922017Y-49947956D01*
X20947452Y-49955425D01*
X21062935Y-50003259D01*
X21066503Y-50004737D01*
X21221153Y-50035499D01*
X21221156Y-50035500D01*
X21221158Y-50035500D01*
X21378844Y-50035500D01*
X21378845Y-50035499D01*
X21533497Y-50004737D01*
X21679179Y-49944394D01*
X21810289Y-49856789D01*
X21921789Y-49745289D01*
X22009394Y-49614179D01*
X22069737Y-49468497D01*
X22100500Y-49313842D01*
X22100500Y-49156158D01*
X22100500Y-49156155D01*
X22100499Y-49156153D01*
X22069737Y-49001503D01*
X22050955Y-48956158D01*
X22009397Y-48855827D01*
X22009390Y-48855814D01*
X21921789Y-48724711D01*
X21921786Y-48724707D01*
X21810292Y-48613213D01*
X21810288Y-48613210D01*
X21679185Y-48525609D01*
X21679172Y-48525602D01*
X21533501Y-48465264D01*
X21533489Y-48465261D01*
X21378845Y-48434500D01*
X21378842Y-48434500D01*
X21221158Y-48434500D01*
X21221155Y-48434500D01*
X21066510Y-48465261D01*
X21066498Y-48465264D01*
X20947452Y-48514574D01*
X20877982Y-48522043D01*
X20852548Y-48514574D01*
X20733501Y-48465264D01*
X20733489Y-48465261D01*
X20578845Y-48434500D01*
X20578842Y-48434500D01*
X20421158Y-48434500D01*
X20421155Y-48434500D01*
X20266510Y-48465261D01*
X20266498Y-48465264D01*
X20147452Y-48514574D01*
X20077982Y-48522043D01*
X20052548Y-48514574D01*
X19933501Y-48465264D01*
X19933489Y-48465261D01*
X19778845Y-48434500D01*
X19778842Y-48434500D01*
X19621158Y-48434500D01*
X19621155Y-48434500D01*
X19466510Y-48465261D01*
X19466498Y-48465264D01*
X19347452Y-48514574D01*
X19277982Y-48522043D01*
X19252548Y-48514574D01*
X19133501Y-48465264D01*
X19133489Y-48465261D01*
X18978845Y-48434500D01*
X18978842Y-48434500D01*
X18821158Y-48434500D01*
X18821155Y-48434500D01*
X18666510Y-48465261D01*
X18666498Y-48465264D01*
X18547452Y-48514574D01*
X18477982Y-48522043D01*
X18452548Y-48514574D01*
X18333501Y-48465264D01*
X18333489Y-48465261D01*
X18178845Y-48434500D01*
X18178842Y-48434500D01*
X18021158Y-48434500D01*
X18021155Y-48434500D01*
X17866510Y-48465261D01*
X17866498Y-48465264D01*
X17721951Y-48525137D01*
X17652482Y-48532606D01*
X17590003Y-48501330D01*
X17554351Y-48441241D01*
X17550499Y-48410576D01*
X17550499Y-47412129D01*
X17550498Y-47412123D01*
X17550497Y-47412116D01*
X17544091Y-47352517D01*
X17518425Y-47283704D01*
X17493797Y-47217671D01*
X17493793Y-47217664D01*
X17407547Y-47102455D01*
X17407544Y-47102452D01*
X17292335Y-47016206D01*
X17292328Y-47016202D01*
X17160401Y-46966997D01*
X17104467Y-46925126D01*
X17080050Y-46859662D01*
X17094902Y-46791389D01*
X17116053Y-46763133D01*
X17229728Y-46649458D01*
X17354620Y-46477557D01*
X17451095Y-46288217D01*
X17516757Y-46086129D01*
X17516757Y-46086126D01*
X17527231Y-46020000D01*
X16690748Y-46020000D01*
X16712518Y-45982292D01*
X16750000Y-45842409D01*
X16750000Y-45697591D01*
X16712518Y-45557708D01*
X16690748Y-45520000D01*
X17527231Y-45520000D01*
X17516757Y-45453873D01*
X17516757Y-45453870D01*
X17451095Y-45251782D01*
X17354620Y-45062442D01*
X17229727Y-44890540D01*
X17229723Y-44890535D01*
X17079464Y-44740276D01*
X17079459Y-44740272D01*
X16907555Y-44615377D01*
X16898500Y-44610763D01*
X16847706Y-44562788D01*
X16830912Y-44494966D01*
X16853451Y-44428832D01*
X16898508Y-44389793D01*
X16907816Y-44385051D01*
X16969593Y-44340167D01*
X17083734Y-44257241D01*
X17084364Y-44258108D01*
X17143419Y-44231641D01*
X17160200Y-44230500D01*
X18168134Y-44230500D01*
X18168135Y-44230499D01*
X18282237Y-44217643D01*
X18391395Y-44205345D01*
X18391398Y-44205344D01*
X18391410Y-44205343D01*
X18610468Y-44155344D01*
X18822550Y-44081133D01*
X18822558Y-44081129D01*
X18822561Y-44081128D01*
X19024984Y-43983647D01*
X19024984Y-43983646D01*
X19024990Y-43983644D01*
X19215242Y-43864100D01*
X19390913Y-43724008D01*
X19470353Y-43644567D01*
X19535909Y-43579011D01*
X19535908Y-43579011D01*
X19594477Y-43520442D01*
X19594476Y-43520442D01*
X22820321Y-40294598D01*
X22881642Y-40261115D01*
X22951334Y-40266099D01*
X23007267Y-40307971D01*
X23031684Y-40373435D01*
X23032000Y-40382281D01*
X23032000Y-40521986D01*
X23061559Y-40708618D01*
X23119954Y-40888336D01*
X23194707Y-41035045D01*
X23205740Y-41056699D01*
X23316810Y-41209573D01*
X23316812Y-41209575D01*
X23447056Y-41339819D01*
X23480541Y-41401142D01*
X23475557Y-41470834D01*
X23447056Y-41515181D01*
X23316812Y-41645424D01*
X23316812Y-41645425D01*
X23316810Y-41645427D01*
X23276072Y-41701498D01*
X23205740Y-41798300D01*
X23119954Y-41966663D01*
X23061559Y-42146381D01*
X23032000Y-42333013D01*
X23032000Y-42521986D01*
X23061559Y-42708618D01*
X23119954Y-42888336D01*
X23183903Y-43013842D01*
X23205740Y-43056699D01*
X23316810Y-43209573D01*
X23316812Y-43209575D01*
X23447056Y-43339819D01*
X23480541Y-43401142D01*
X23475557Y-43470834D01*
X23447056Y-43515181D01*
X23316812Y-43645424D01*
X23316812Y-43645425D01*
X23316810Y-43645427D01*
X23311861Y-43652239D01*
X23205740Y-43798300D01*
X23119954Y-43966663D01*
X23061559Y-44146381D01*
X23032000Y-44333013D01*
X23032000Y-44521986D01*
X23061559Y-44708618D01*
X23119954Y-44888336D01*
X23189459Y-45024746D01*
X23205740Y-45056699D01*
X23316810Y-45209573D01*
X23316812Y-45209575D01*
X23447056Y-45339819D01*
X23480541Y-45401142D01*
X23475557Y-45470834D01*
X23447056Y-45515181D01*
X23316812Y-45645424D01*
X23316812Y-45645425D01*
X23316810Y-45645427D01*
X23269110Y-45711079D01*
X23205740Y-45798300D01*
X23119954Y-45966663D01*
X23061559Y-46146381D01*
X23032000Y-46333013D01*
X23032000Y-46521986D01*
X23061559Y-46708618D01*
X23119954Y-46888336D01*
X23162686Y-46972201D01*
X23205740Y-47056699D01*
X23262036Y-47134184D01*
X23270458Y-47145775D01*
X23293938Y-47211582D01*
X23278113Y-47279636D01*
X23244452Y-47317927D01*
X23174952Y-47369955D01*
X23088706Y-47485164D01*
X23088702Y-47485171D01*
X23038408Y-47620017D01*
X23032001Y-47679616D01*
X23032001Y-47679623D01*
X23032000Y-47679635D01*
X23032000Y-49175370D01*
X23032001Y-49175376D01*
X23038408Y-49234983D01*
X23088702Y-49369828D01*
X23088706Y-49369835D01*
X23174952Y-49485044D01*
X23174955Y-49485047D01*
X23290164Y-49571293D01*
X23290171Y-49571297D01*
X23425017Y-49621591D01*
X23425016Y-49621591D01*
X23431944Y-49622335D01*
X23484627Y-49628000D01*
X24980372Y-49627999D01*
X25039983Y-49621591D01*
X25174831Y-49571296D01*
X25290046Y-49485046D01*
X25376296Y-49369831D01*
X25418695Y-49256153D01*
X26599500Y-49256153D01*
X26599500Y-49413846D01*
X26630261Y-49568489D01*
X26630264Y-49568501D01*
X26679574Y-49687548D01*
X26687043Y-49757018D01*
X26679574Y-49782452D01*
X26630264Y-49901498D01*
X26630261Y-49901510D01*
X26599500Y-50056153D01*
X26599500Y-50213846D01*
X26630261Y-50368489D01*
X26630264Y-50368501D01*
X26690602Y-50514172D01*
X26690609Y-50514185D01*
X26778210Y-50645288D01*
X26778213Y-50645292D01*
X26889707Y-50756786D01*
X26889711Y-50756789D01*
X27020814Y-50844390D01*
X27020827Y-50844397D01*
X27166498Y-50904735D01*
X27166503Y-50904737D01*
X27321153Y-50935499D01*
X27321156Y-50935500D01*
X27321158Y-50935500D01*
X27478844Y-50935500D01*
X27478845Y-50935499D01*
X27633497Y-50904737D01*
X27702549Y-50876134D01*
X27772016Y-50868666D01*
X27797447Y-50876133D01*
X27866503Y-50904737D01*
X28021153Y-50935499D01*
X28021156Y-50935500D01*
X28021158Y-50935500D01*
X28178844Y-50935500D01*
X28178845Y-50935499D01*
X28333497Y-50904737D01*
X28402549Y-50876134D01*
X28472016Y-50868666D01*
X28497447Y-50876133D01*
X28566503Y-50904737D01*
X28721153Y-50935499D01*
X28721156Y-50935500D01*
X28721158Y-50935500D01*
X28878844Y-50935500D01*
X28878845Y-50935499D01*
X29033497Y-50904737D01*
X29102549Y-50876134D01*
X29172016Y-50868666D01*
X29197447Y-50876133D01*
X29266503Y-50904737D01*
X29421153Y-50935499D01*
X29421156Y-50935500D01*
X29421158Y-50935500D01*
X29578844Y-50935500D01*
X29578845Y-50935499D01*
X29733497Y-50904737D01*
X29879179Y-50844394D01*
X30010289Y-50756789D01*
X30121789Y-50645289D01*
X30209394Y-50514179D01*
X30269737Y-50368497D01*
X30300500Y-50213842D01*
X30300500Y-50056158D01*
X30300500Y-50056155D01*
X30300499Y-50056153D01*
X30289542Y-50001071D01*
X30269737Y-49901503D01*
X30220425Y-49782452D01*
X30212956Y-49712983D01*
X30220425Y-49687548D01*
X30247745Y-49621591D01*
X30269737Y-49568497D01*
X30300500Y-49413842D01*
X30300500Y-49256158D01*
X30300500Y-49256155D01*
X30300499Y-49256153D01*
X30284431Y-49175373D01*
X30269737Y-49101503D01*
X30209534Y-48956158D01*
X30209397Y-48955827D01*
X30209390Y-48955814D01*
X30121789Y-48824711D01*
X30121786Y-48824707D01*
X30010292Y-48713213D01*
X30010288Y-48713210D01*
X29879185Y-48625609D01*
X29879172Y-48625602D01*
X29733501Y-48565264D01*
X29733489Y-48565261D01*
X29578845Y-48534500D01*
X29578842Y-48534500D01*
X29421158Y-48534500D01*
X29421155Y-48534500D01*
X29266511Y-48565260D01*
X29266506Y-48565262D01*
X29266504Y-48565262D01*
X29266503Y-48565263D01*
X29197449Y-48593865D01*
X29127982Y-48601333D01*
X29102552Y-48593865D01*
X29033497Y-48565263D01*
X29033493Y-48565262D01*
X29033488Y-48565260D01*
X28878845Y-48534500D01*
X28878842Y-48534500D01*
X28721158Y-48534500D01*
X28721155Y-48534500D01*
X28566511Y-48565260D01*
X28566506Y-48565262D01*
X28566504Y-48565262D01*
X28566503Y-48565263D01*
X28497449Y-48593865D01*
X28427982Y-48601333D01*
X28402552Y-48593865D01*
X28333497Y-48565263D01*
X28333493Y-48565262D01*
X28333488Y-48565260D01*
X28178845Y-48534500D01*
X28178842Y-48534500D01*
X28021158Y-48534500D01*
X28021155Y-48534500D01*
X27866511Y-48565260D01*
X27866506Y-48565262D01*
X27866504Y-48565262D01*
X27866503Y-48565263D01*
X27797449Y-48593865D01*
X27727982Y-48601333D01*
X27702552Y-48593865D01*
X27633497Y-48565263D01*
X27633493Y-48565262D01*
X27633488Y-48565260D01*
X27478845Y-48534500D01*
X27478842Y-48534500D01*
X27321158Y-48534500D01*
X27321155Y-48534500D01*
X27166510Y-48565261D01*
X27166498Y-48565264D01*
X27020827Y-48625602D01*
X27020814Y-48625609D01*
X26889711Y-48713210D01*
X26889707Y-48713213D01*
X26778213Y-48824707D01*
X26778210Y-48824711D01*
X26690609Y-48955814D01*
X26690602Y-48955827D01*
X26630264Y-49101498D01*
X26630261Y-49101510D01*
X26599500Y-49256153D01*
X25418695Y-49256153D01*
X25426591Y-49234983D01*
X25433000Y-49175373D01*
X25432999Y-47679628D01*
X25426591Y-47620017D01*
X25424053Y-47613213D01*
X25376297Y-47485171D01*
X25376293Y-47485164D01*
X25290047Y-47369955D01*
X25290044Y-47369952D01*
X25220548Y-47317927D01*
X25178677Y-47261993D01*
X25173693Y-47192302D01*
X25194542Y-47145775D01*
X25202964Y-47134184D01*
X25259260Y-47056699D01*
X25345047Y-46888332D01*
X25403440Y-46708618D01*
X25433000Y-46521986D01*
X25433000Y-46333013D01*
X25403440Y-46146381D01*
X25383862Y-46086129D01*
X25345047Y-45966668D01*
X25345044Y-45966664D01*
X25345044Y-45966661D01*
X25320256Y-45918013D01*
X30444500Y-45918013D01*
X30444500Y-46106986D01*
X30474059Y-46293618D01*
X30532454Y-46473336D01*
X30557243Y-46521986D01*
X30618240Y-46641699D01*
X30729310Y-46794573D01*
X30862927Y-46928190D01*
X31015801Y-47039260D01*
X31095347Y-47079790D01*
X31184163Y-47125045D01*
X31184165Y-47125045D01*
X31184168Y-47125047D01*
X31247962Y-47145775D01*
X31363881Y-47183440D01*
X31550514Y-47213000D01*
X31550519Y-47213000D01*
X31739486Y-47213000D01*
X31872793Y-47191885D01*
X31926118Y-47183440D01*
X32017592Y-47153717D01*
X32087431Y-47151722D01*
X32147264Y-47187802D01*
X32178093Y-47250503D01*
X32170129Y-47319917D01*
X32143591Y-47359330D01*
X32078210Y-47424711D01*
X31990609Y-47555814D01*
X31990602Y-47555827D01*
X31930264Y-47701498D01*
X31930261Y-47701510D01*
X31899500Y-47856153D01*
X31899500Y-48013846D01*
X31930261Y-48168489D01*
X31930264Y-48168501D01*
X31990602Y-48314172D01*
X31990609Y-48314185D01*
X32078210Y-48445288D01*
X32078213Y-48445292D01*
X32189707Y-48556786D01*
X32189711Y-48556789D01*
X32320814Y-48644390D01*
X32320827Y-48644397D01*
X32466498Y-48704735D01*
X32466503Y-48704737D01*
X32621153Y-48735499D01*
X32621156Y-48735500D01*
X32621158Y-48735500D01*
X32778844Y-48735500D01*
X32778845Y-48735499D01*
X32933497Y-48704737D01*
X33079179Y-48644394D01*
X33210289Y-48556789D01*
X33321789Y-48445289D01*
X33409394Y-48314179D01*
X33469737Y-48168497D01*
X33500500Y-48013842D01*
X33500500Y-47856158D01*
X33500500Y-47856155D01*
X33500499Y-47856153D01*
X33474353Y-47724711D01*
X33469737Y-47701503D01*
X33435985Y-47620017D01*
X33409397Y-47555827D01*
X33409390Y-47555814D01*
X33321789Y-47424711D01*
X33321786Y-47424707D01*
X33297047Y-47399968D01*
X33263562Y-47338645D01*
X33268546Y-47268953D01*
X33310418Y-47213020D01*
X33375882Y-47188603D01*
X33404126Y-47189814D01*
X33550514Y-47213000D01*
X33550519Y-47213000D01*
X33739486Y-47213000D01*
X33926118Y-47183440D01*
X34105832Y-47125047D01*
X34274199Y-47039260D01*
X34427073Y-46928190D01*
X34557319Y-46797944D01*
X34618642Y-46764459D01*
X34688334Y-46769443D01*
X34732681Y-46797944D01*
X34862927Y-46928190D01*
X35015801Y-47039260D01*
X35095347Y-47079790D01*
X35184163Y-47125045D01*
X35184165Y-47125045D01*
X35184168Y-47125047D01*
X35247962Y-47145775D01*
X35363881Y-47183440D01*
X35550514Y-47213000D01*
X35550519Y-47213000D01*
X35739486Y-47213000D01*
X35926118Y-47183440D01*
X36105832Y-47125047D01*
X36274199Y-47039260D01*
X36427073Y-46928190D01*
X36557319Y-46797944D01*
X36618642Y-46764459D01*
X36688334Y-46769443D01*
X36732681Y-46797944D01*
X36862927Y-46928190D01*
X37015801Y-47039260D01*
X37095347Y-47079790D01*
X37184163Y-47125045D01*
X37184165Y-47125045D01*
X37184168Y-47125047D01*
X37247962Y-47145775D01*
X37363881Y-47183440D01*
X37550514Y-47213000D01*
X37550519Y-47213000D01*
X37739486Y-47213000D01*
X37926118Y-47183440D01*
X38105832Y-47125047D01*
X38274199Y-47039260D01*
X38363681Y-46974246D01*
X38429484Y-46950767D01*
X38497538Y-46966592D01*
X38535831Y-47000253D01*
X38587812Y-47069690D01*
X38702906Y-47155850D01*
X38702913Y-47155854D01*
X38837620Y-47206096D01*
X38837627Y-47206098D01*
X38897155Y-47212499D01*
X38897172Y-47212500D01*
X39395000Y-47212500D01*
X39395000Y-46387777D01*
X39471306Y-46431833D01*
X39585756Y-46462500D01*
X39704244Y-46462500D01*
X39818694Y-46431833D01*
X39895000Y-46387777D01*
X39895000Y-47212500D01*
X40392828Y-47212500D01*
X40392844Y-47212499D01*
X40452372Y-47206098D01*
X40452379Y-47206096D01*
X40587086Y-47155854D01*
X40587093Y-47155850D01*
X40702187Y-47069690D01*
X40702190Y-47069687D01*
X40788350Y-46954593D01*
X40788354Y-46954586D01*
X40838596Y-46819879D01*
X40838598Y-46819872D01*
X40844999Y-46760344D01*
X40845000Y-46760327D01*
X40845000Y-46262500D01*
X40020278Y-46262500D01*
X40064333Y-46186194D01*
X40095000Y-46071744D01*
X40095000Y-45953256D01*
X40064333Y-45838806D01*
X40020278Y-45762500D01*
X40845000Y-45762500D01*
X40845000Y-45264672D01*
X40844999Y-45264655D01*
X40838598Y-45205127D01*
X40838596Y-45205120D01*
X40788354Y-45070413D01*
X40788350Y-45070406D01*
X40702190Y-44955312D01*
X40702187Y-44955309D01*
X40587093Y-44869149D01*
X40587086Y-44869145D01*
X40452379Y-44818903D01*
X40452372Y-44818901D01*
X40392844Y-44812500D01*
X39895000Y-44812500D01*
X39895000Y-45637222D01*
X39818694Y-45593167D01*
X39704244Y-45562500D01*
X39585756Y-45562500D01*
X39471306Y-45593167D01*
X39395000Y-45637222D01*
X39395000Y-44812500D01*
X38897155Y-44812500D01*
X38837627Y-44818901D01*
X38837620Y-44818903D01*
X38702913Y-44869145D01*
X38702906Y-44869149D01*
X38587812Y-44955309D01*
X38535831Y-45024746D01*
X38479897Y-45066617D01*
X38410205Y-45071600D01*
X38363681Y-45050753D01*
X38274199Y-44985740D01*
X38105836Y-44899954D01*
X37926118Y-44841559D01*
X37739486Y-44812000D01*
X37739481Y-44812000D01*
X37550519Y-44812000D01*
X37550514Y-44812000D01*
X37363881Y-44841559D01*
X37184163Y-44899954D01*
X37015800Y-44985740D01*
X36962114Y-45024746D01*
X36862927Y-45096810D01*
X36862925Y-45096812D01*
X36862924Y-45096812D01*
X36732681Y-45227056D01*
X36671358Y-45260541D01*
X36601666Y-45255557D01*
X36557319Y-45227056D01*
X36427075Y-45096812D01*
X36427073Y-45096810D01*
X36274199Y-44985740D01*
X36105836Y-44899954D01*
X35926118Y-44841559D01*
X35739486Y-44812000D01*
X35739481Y-44812000D01*
X35550519Y-44812000D01*
X35550514Y-44812000D01*
X35363881Y-44841559D01*
X35184163Y-44899954D01*
X35015800Y-44985740D01*
X34962114Y-45024746D01*
X34862927Y-45096810D01*
X34862925Y-45096812D01*
X34862924Y-45096812D01*
X34732681Y-45227056D01*
X34671358Y-45260541D01*
X34601666Y-45255557D01*
X34557319Y-45227056D01*
X34427075Y-45096812D01*
X34427073Y-45096810D01*
X34274199Y-44985740D01*
X34105836Y-44899954D01*
X33926118Y-44841559D01*
X33739486Y-44812000D01*
X33739481Y-44812000D01*
X33550519Y-44812000D01*
X33550514Y-44812000D01*
X33363881Y-44841559D01*
X33184163Y-44899954D01*
X33015800Y-44985740D01*
X32962114Y-45024746D01*
X32862927Y-45096810D01*
X32862925Y-45096812D01*
X32862924Y-45096812D01*
X32732681Y-45227056D01*
X32671358Y-45260541D01*
X32601666Y-45255557D01*
X32557319Y-45227056D01*
X32427075Y-45096812D01*
X32427073Y-45096810D01*
X32274199Y-44985740D01*
X32105836Y-44899954D01*
X31926118Y-44841559D01*
X31739486Y-44812000D01*
X31739481Y-44812000D01*
X31550519Y-44812000D01*
X31550514Y-44812000D01*
X31363881Y-44841559D01*
X31184163Y-44899954D01*
X31015800Y-44985740D01*
X30962114Y-45024746D01*
X30862927Y-45096810D01*
X30862925Y-45096812D01*
X30862924Y-45096812D01*
X30729312Y-45230424D01*
X30729312Y-45230425D01*
X30729310Y-45230427D01*
X30681610Y-45296079D01*
X30618240Y-45383300D01*
X30532454Y-45551663D01*
X30474059Y-45731381D01*
X30444500Y-45918013D01*
X25320256Y-45918013D01*
X25259259Y-45798300D01*
X25148190Y-45645427D01*
X25017944Y-45515181D01*
X24984459Y-45453858D01*
X24989443Y-45384166D01*
X25017944Y-45339819D01*
X25027873Y-45329890D01*
X25148190Y-45209573D01*
X25259260Y-45056699D01*
X25345047Y-44888332D01*
X25403440Y-44708618D01*
X25404055Y-44704735D01*
X25433000Y-44521986D01*
X25433000Y-44333013D01*
X25403440Y-44146381D01*
X25360376Y-44013846D01*
X25345047Y-43966668D01*
X25345045Y-43966665D01*
X25345045Y-43966663D01*
X25292786Y-43864100D01*
X25259260Y-43798301D01*
X25148190Y-43645427D01*
X25017944Y-43515181D01*
X24984459Y-43453858D01*
X24989443Y-43384166D01*
X25017944Y-43339819D01*
X25072174Y-43285589D01*
X25148190Y-43209573D01*
X25259260Y-43056699D01*
X25345047Y-42888332D01*
X25403440Y-42708618D01*
X25404568Y-42701498D01*
X25433000Y-42521986D01*
X25433000Y-42333013D01*
X25403440Y-42146381D01*
X25360376Y-42013846D01*
X25345047Y-41966668D01*
X25345045Y-41966665D01*
X25345045Y-41966663D01*
X25299790Y-41877847D01*
X25259260Y-41798301D01*
X25148190Y-41645427D01*
X25017944Y-41515181D01*
X24984459Y-41453858D01*
X24989443Y-41384166D01*
X25017944Y-41339819D01*
X25071432Y-41286331D01*
X25148190Y-41209573D01*
X25259260Y-41056699D01*
X25345047Y-40888332D01*
X25403440Y-40708618D01*
X25404080Y-40704575D01*
X25433000Y-40521986D01*
X25433000Y-40421153D01*
X27099500Y-40421153D01*
X27099500Y-40578846D01*
X27130261Y-40733489D01*
X27130264Y-40733501D01*
X27190602Y-40879172D01*
X27190609Y-40879185D01*
X27278210Y-41010288D01*
X27278213Y-41010292D01*
X27389707Y-41121786D01*
X27389711Y-41121789D01*
X27520814Y-41209390D01*
X27520827Y-41209397D01*
X27666498Y-41269735D01*
X27666503Y-41269737D01*
X27821153Y-41300499D01*
X27821156Y-41300500D01*
X27821158Y-41300500D01*
X27978844Y-41300500D01*
X27978845Y-41300499D01*
X28133497Y-41269737D01*
X28278742Y-41209575D01*
X28279172Y-41209397D01*
X28279172Y-41209396D01*
X28279179Y-41209394D01*
X28410289Y-41121789D01*
X28521789Y-41010289D01*
X28609394Y-40879179D01*
X28669737Y-40733497D01*
X28700500Y-40578842D01*
X28700500Y-40421158D01*
X28700500Y-40421155D01*
X28700499Y-40421153D01*
X28669737Y-40266503D01*
X28667505Y-40261115D01*
X28609397Y-40120827D01*
X28609390Y-40120814D01*
X28521789Y-39989711D01*
X28521786Y-39989707D01*
X28410292Y-39878213D01*
X28410288Y-39878210D01*
X28335164Y-39828013D01*
X30444500Y-39828013D01*
X30444500Y-40016986D01*
X30474059Y-40203618D01*
X30532454Y-40383336D01*
X30618240Y-40551699D01*
X30729310Y-40704573D01*
X30862927Y-40838190D01*
X31015801Y-40949260D01*
X31095347Y-40989790D01*
X31184163Y-41035045D01*
X31184165Y-41035045D01*
X31184168Y-41035047D01*
X31250806Y-41056699D01*
X31363881Y-41093440D01*
X31550514Y-41123000D01*
X31550519Y-41123000D01*
X31739486Y-41123000D01*
X31926118Y-41093440D01*
X32105832Y-41035047D01*
X32274199Y-40949260D01*
X32427073Y-40838190D01*
X32557319Y-40707944D01*
X32618642Y-40674459D01*
X32688334Y-40679443D01*
X32732681Y-40707944D01*
X32862927Y-40838190D01*
X32998989Y-40937045D01*
X33041653Y-40992374D01*
X33047632Y-41061988D01*
X33015026Y-41123783D01*
X32954187Y-41158140D01*
X32901911Y-41158979D01*
X32778846Y-41134500D01*
X32778842Y-41134500D01*
X32621158Y-41134500D01*
X32621155Y-41134500D01*
X32466510Y-41165261D01*
X32466498Y-41165264D01*
X32320827Y-41225602D01*
X32320814Y-41225609D01*
X32189711Y-41313210D01*
X32189707Y-41313213D01*
X32078213Y-41424707D01*
X32078210Y-41424711D01*
X31990609Y-41555814D01*
X31990602Y-41555827D01*
X31930264Y-41701498D01*
X31930261Y-41701510D01*
X31899500Y-41856153D01*
X31899500Y-42013846D01*
X31930261Y-42168489D01*
X31930264Y-42168501D01*
X31990602Y-42314172D01*
X31990609Y-42314185D01*
X32025304Y-42366109D01*
X32046182Y-42432786D01*
X32027698Y-42500167D01*
X32025304Y-42503891D01*
X31990609Y-42555814D01*
X31990602Y-42555827D01*
X31930264Y-42701498D01*
X31930261Y-42701510D01*
X31899500Y-42856153D01*
X31899500Y-43013846D01*
X31930261Y-43168489D01*
X31930264Y-43168501D01*
X31990602Y-43314172D01*
X31990609Y-43314185D01*
X32025304Y-43366109D01*
X32046182Y-43432786D01*
X32027698Y-43500167D01*
X32025304Y-43503891D01*
X31990609Y-43555814D01*
X31990602Y-43555827D01*
X31930264Y-43701498D01*
X31930261Y-43701510D01*
X31899500Y-43856153D01*
X31899500Y-44013846D01*
X31930261Y-44168489D01*
X31930264Y-44168501D01*
X31990602Y-44314172D01*
X31990609Y-44314185D01*
X32078210Y-44445288D01*
X32078213Y-44445292D01*
X32189707Y-44556786D01*
X32189711Y-44556789D01*
X32320814Y-44644390D01*
X32320827Y-44644397D01*
X32466498Y-44704735D01*
X32466503Y-44704737D01*
X32621153Y-44735499D01*
X32621156Y-44735500D01*
X32621158Y-44735500D01*
X32778844Y-44735500D01*
X32778845Y-44735499D01*
X32933497Y-44704737D01*
X33079179Y-44644394D01*
X33210289Y-44556789D01*
X33321789Y-44445289D01*
X33409394Y-44314179D01*
X33469737Y-44168497D01*
X33500500Y-44013842D01*
X33500500Y-43856158D01*
X33500500Y-43856155D01*
X33500499Y-43856153D01*
X33469737Y-43701503D01*
X33449333Y-43652242D01*
X33409396Y-43555825D01*
X33409394Y-43555822D01*
X33409394Y-43555821D01*
X33374694Y-43503889D01*
X33353816Y-43437215D01*
X33372300Y-43369835D01*
X33374676Y-43366136D01*
X33409394Y-43314179D01*
X33469737Y-43168497D01*
X33500500Y-43013842D01*
X33500500Y-42856158D01*
X33500500Y-42856155D01*
X33500499Y-42856153D01*
X33469738Y-42701510D01*
X33469737Y-42701503D01*
X33409890Y-42557018D01*
X33409396Y-42555825D01*
X33409394Y-42555822D01*
X33409394Y-42555821D01*
X33374694Y-42503889D01*
X33353816Y-42437215D01*
X33372300Y-42369835D01*
X33374676Y-42366136D01*
X33409394Y-42314179D01*
X33469737Y-42168497D01*
X33492083Y-42056158D01*
X33492084Y-42056153D01*
X35499500Y-42056153D01*
X35499500Y-42213846D01*
X35530261Y-42368489D01*
X35530264Y-42368501D01*
X35579574Y-42487548D01*
X35587043Y-42557018D01*
X35579574Y-42582452D01*
X35530264Y-42701498D01*
X35530261Y-42701510D01*
X35499500Y-42856153D01*
X35499500Y-43013846D01*
X35530261Y-43168489D01*
X35530264Y-43168501D01*
X35578763Y-43285590D01*
X35586232Y-43355060D01*
X35578763Y-43380494D01*
X35530264Y-43497582D01*
X35530261Y-43497594D01*
X35499500Y-43652237D01*
X35499500Y-43809930D01*
X35530261Y-43964573D01*
X35530264Y-43964585D01*
X35590602Y-44110256D01*
X35590609Y-44110269D01*
X35678210Y-44241372D01*
X35678213Y-44241376D01*
X35789707Y-44352870D01*
X35789711Y-44352873D01*
X35920814Y-44440474D01*
X35920827Y-44440481D01*
X36066498Y-44500819D01*
X36066503Y-44500821D01*
X36221153Y-44531583D01*
X36221156Y-44531584D01*
X36221158Y-44531584D01*
X36378844Y-44531584D01*
X36378845Y-44531583D01*
X36533497Y-44500821D01*
X36652548Y-44451509D01*
X36722017Y-44444040D01*
X36747452Y-44451509D01*
X36866498Y-44500819D01*
X36866503Y-44500821D01*
X37021153Y-44531583D01*
X37021156Y-44531584D01*
X37021158Y-44531584D01*
X37178844Y-44531584D01*
X37178845Y-44531583D01*
X37333497Y-44500821D01*
X37479179Y-44440478D01*
X37610289Y-44352873D01*
X37721789Y-44241373D01*
X37809394Y-44110263D01*
X37869737Y-43964581D01*
X37900500Y-43809926D01*
X37900500Y-43652242D01*
X37900500Y-43652239D01*
X37900499Y-43652237D01*
X37885933Y-43579011D01*
X37869737Y-43497587D01*
X37821235Y-43380494D01*
X37813767Y-43311025D01*
X37821236Y-43285589D01*
X37869737Y-43168497D01*
X37900500Y-43013842D01*
X37900500Y-42856158D01*
X37900500Y-42856155D01*
X37900499Y-42856153D01*
X37869738Y-42701510D01*
X37869737Y-42701503D01*
X37820425Y-42582452D01*
X37812956Y-42512983D01*
X37820425Y-42487548D01*
X37843108Y-42432786D01*
X37869737Y-42368497D01*
X37900500Y-42213842D01*
X37900500Y-42056158D01*
X37900500Y-42056155D01*
X37900499Y-42056153D01*
X37893807Y-42022512D01*
X37869737Y-41901503D01*
X37850955Y-41856158D01*
X37809397Y-41755827D01*
X37809390Y-41755814D01*
X37721789Y-41624711D01*
X37721786Y-41624707D01*
X37610292Y-41513213D01*
X37610288Y-41513210D01*
X37479185Y-41425609D01*
X37479172Y-41425602D01*
X37333501Y-41365264D01*
X37333489Y-41365261D01*
X37178845Y-41334500D01*
X37178842Y-41334500D01*
X37021158Y-41334500D01*
X37021155Y-41334500D01*
X36866510Y-41365261D01*
X36866498Y-41365264D01*
X36747452Y-41414574D01*
X36677982Y-41422043D01*
X36652548Y-41414574D01*
X36533501Y-41365264D01*
X36533489Y-41365261D01*
X36378845Y-41334500D01*
X36378842Y-41334500D01*
X36221158Y-41334500D01*
X36221155Y-41334500D01*
X36066510Y-41365261D01*
X36066498Y-41365264D01*
X35920827Y-41425602D01*
X35920814Y-41425609D01*
X35789711Y-41513210D01*
X35789707Y-41513213D01*
X35678213Y-41624707D01*
X35678210Y-41624711D01*
X35590609Y-41755814D01*
X35590602Y-41755827D01*
X35530264Y-41901498D01*
X35530261Y-41901510D01*
X35499500Y-42056153D01*
X33492084Y-42056153D01*
X33498107Y-42025875D01*
X33498107Y-42025874D01*
X33500500Y-42013844D01*
X33500500Y-41856155D01*
X33500499Y-41856153D01*
X33480543Y-41755827D01*
X33469737Y-41701503D01*
X33446509Y-41645425D01*
X33409397Y-41555827D01*
X33409390Y-41555814D01*
X33321789Y-41424711D01*
X33321786Y-41424707D01*
X33210292Y-41313213D01*
X33210288Y-41313210D01*
X33170061Y-41286331D01*
X33125256Y-41232719D01*
X33116549Y-41163394D01*
X33146704Y-41100366D01*
X33206147Y-41063647D01*
X33276005Y-41064894D01*
X33277237Y-41065287D01*
X33278982Y-41065854D01*
X33363881Y-41093440D01*
X33550514Y-41123000D01*
X33550519Y-41123000D01*
X33739486Y-41123000D01*
X33926118Y-41093440D01*
X34105832Y-41035047D01*
X34274199Y-40949260D01*
X34427073Y-40838190D01*
X34557319Y-40707944D01*
X34618642Y-40674459D01*
X34688334Y-40679443D01*
X34732681Y-40707944D01*
X34862927Y-40838190D01*
X35015801Y-40949260D01*
X35095347Y-40989790D01*
X35184163Y-41035045D01*
X35184165Y-41035045D01*
X35184168Y-41035047D01*
X35250806Y-41056699D01*
X35363881Y-41093440D01*
X35550514Y-41123000D01*
X35550519Y-41123000D01*
X35739486Y-41123000D01*
X35926118Y-41093440D01*
X36105832Y-41035047D01*
X36274199Y-40949260D01*
X36427073Y-40838190D01*
X36557319Y-40707944D01*
X36618642Y-40674459D01*
X36688334Y-40679443D01*
X36732681Y-40707944D01*
X36862927Y-40838190D01*
X37015801Y-40949260D01*
X37095347Y-40989790D01*
X37184163Y-41035045D01*
X37184165Y-41035045D01*
X37184168Y-41035047D01*
X37250806Y-41056699D01*
X37363881Y-41093440D01*
X37550514Y-41123000D01*
X37550519Y-41123000D01*
X37739486Y-41123000D01*
X37926118Y-41093440D01*
X38105832Y-41035047D01*
X38274199Y-40949260D01*
X38363681Y-40884246D01*
X38429484Y-40860767D01*
X38497538Y-40876592D01*
X38535831Y-40910253D01*
X38587812Y-40979690D01*
X38702906Y-41065850D01*
X38702913Y-41065854D01*
X38837620Y-41116096D01*
X38837627Y-41116098D01*
X38897155Y-41122499D01*
X38897172Y-41122500D01*
X39395000Y-41122500D01*
X39395000Y-40297777D01*
X39471306Y-40341833D01*
X39585756Y-40372500D01*
X39704244Y-40372500D01*
X39818694Y-40341833D01*
X39895000Y-40297777D01*
X39895000Y-41122500D01*
X40392828Y-41122500D01*
X40392844Y-41122499D01*
X40452372Y-41116098D01*
X40452379Y-41116096D01*
X40587086Y-41065854D01*
X40587093Y-41065850D01*
X40702187Y-40979690D01*
X40702190Y-40979687D01*
X40788350Y-40864593D01*
X40788354Y-40864586D01*
X40838596Y-40729879D01*
X40838598Y-40729872D01*
X40844999Y-40670344D01*
X40845000Y-40670327D01*
X40845000Y-40172500D01*
X40020278Y-40172500D01*
X40064333Y-40096194D01*
X40095000Y-39981744D01*
X40095000Y-39863256D01*
X40064333Y-39748806D01*
X40020278Y-39672500D01*
X40845000Y-39672500D01*
X40845000Y-39453229D01*
X40864685Y-39386190D01*
X40917489Y-39340435D01*
X40986647Y-39330491D01*
X41016453Y-39338668D01*
X41020818Y-39340476D01*
X41020821Y-39340478D01*
X41166503Y-39400821D01*
X41321153Y-39431583D01*
X41321156Y-39431584D01*
X41321158Y-39431584D01*
X41478844Y-39431584D01*
X41478845Y-39431583D01*
X41633497Y-39400821D01*
X41752548Y-39351509D01*
X41822017Y-39344040D01*
X41847452Y-39351509D01*
X41931180Y-39386190D01*
X41966503Y-39400821D01*
X42121153Y-39431583D01*
X42121156Y-39431584D01*
X42121158Y-39431584D01*
X42278844Y-39431584D01*
X42278845Y-39431583D01*
X42433497Y-39400821D01*
X42579179Y-39340478D01*
X42710289Y-39252873D01*
X42821789Y-39141373D01*
X42909394Y-39010263D01*
X42910824Y-39006812D01*
X42953649Y-38903421D01*
X42969737Y-38864581D01*
X43000500Y-38709926D01*
X43000500Y-38552242D01*
X43000500Y-38552239D01*
X43000499Y-38552237D01*
X42999647Y-38547956D01*
X42969737Y-38397587D01*
X42921235Y-38280494D01*
X42913767Y-38211025D01*
X42921236Y-38185589D01*
X42928319Y-38168489D01*
X42969737Y-38068497D01*
X43000500Y-37913842D01*
X43000500Y-37756158D01*
X43000500Y-37756155D01*
X43000499Y-37756153D01*
X42980734Y-37656789D01*
X42969737Y-37601503D01*
X42920425Y-37482452D01*
X42912956Y-37412983D01*
X42920425Y-37387548D01*
X42936287Y-37349251D01*
X42969737Y-37268497D01*
X43000500Y-37113842D01*
X43000500Y-36956158D01*
X43000500Y-36956155D01*
X43000499Y-36956153D01*
X42979893Y-36852561D01*
X42969737Y-36801503D01*
X42969735Y-36801498D01*
X42909397Y-36655827D01*
X42909390Y-36655814D01*
X42821789Y-36524711D01*
X42821786Y-36524707D01*
X42710292Y-36413213D01*
X42710288Y-36413210D01*
X42579185Y-36325609D01*
X42579172Y-36325602D01*
X42433501Y-36265264D01*
X42433489Y-36265261D01*
X42278845Y-36234500D01*
X42278842Y-36234500D01*
X42121158Y-36234500D01*
X42121155Y-36234500D01*
X41966510Y-36265261D01*
X41966498Y-36265264D01*
X41847452Y-36314574D01*
X41777982Y-36322043D01*
X41752548Y-36314574D01*
X41633501Y-36265264D01*
X41633489Y-36265261D01*
X41478845Y-36234500D01*
X41478842Y-36234500D01*
X41321158Y-36234500D01*
X41321155Y-36234500D01*
X41166510Y-36265261D01*
X41166498Y-36265264D01*
X41020827Y-36325602D01*
X41020814Y-36325609D01*
X40889711Y-36413210D01*
X40889707Y-36413213D01*
X40778213Y-36524707D01*
X40778210Y-36524711D01*
X40690609Y-36655814D01*
X40690602Y-36655827D01*
X40630264Y-36801498D01*
X40630261Y-36801508D01*
X40602665Y-36940240D01*
X40570280Y-37002151D01*
X40509564Y-37036725D01*
X40505240Y-37037665D01*
X40366508Y-37065261D01*
X40366498Y-37065264D01*
X40247452Y-37114574D01*
X40177982Y-37122043D01*
X40152548Y-37114574D01*
X40033501Y-37065264D01*
X40033489Y-37065261D01*
X39878845Y-37034500D01*
X39878842Y-37034500D01*
X39721158Y-37034500D01*
X39721155Y-37034500D01*
X39566510Y-37065261D01*
X39566498Y-37065264D01*
X39447452Y-37114574D01*
X39377982Y-37122043D01*
X39352548Y-37114574D01*
X39233501Y-37065264D01*
X39233489Y-37065261D01*
X39078845Y-37034500D01*
X39078842Y-37034500D01*
X38921158Y-37034500D01*
X38921155Y-37034500D01*
X38766510Y-37065261D01*
X38766498Y-37065264D01*
X38647452Y-37114574D01*
X38577982Y-37122043D01*
X38552548Y-37114574D01*
X38433501Y-37065264D01*
X38433489Y-37065261D01*
X38278845Y-37034500D01*
X38278842Y-37034500D01*
X38121158Y-37034500D01*
X38121155Y-37034500D01*
X37966510Y-37065261D01*
X37966498Y-37065264D01*
X37847452Y-37114574D01*
X37777982Y-37122043D01*
X37752548Y-37114574D01*
X37633501Y-37065264D01*
X37633489Y-37065261D01*
X37478845Y-37034500D01*
X37478842Y-37034500D01*
X37321158Y-37034500D01*
X37321155Y-37034500D01*
X37166510Y-37065261D01*
X37166498Y-37065264D01*
X37020827Y-37125602D01*
X37020814Y-37125609D01*
X36889711Y-37213210D01*
X36889707Y-37213213D01*
X36778213Y-37324707D01*
X36778210Y-37324711D01*
X36690609Y-37455814D01*
X36690602Y-37455827D01*
X36630264Y-37601498D01*
X36630261Y-37601510D01*
X36599500Y-37756153D01*
X36599500Y-37913846D01*
X36630261Y-38068489D01*
X36630264Y-38068501D01*
X36690602Y-38214172D01*
X36690609Y-38214185D01*
X36778210Y-38345288D01*
X36778213Y-38345292D01*
X36889707Y-38456786D01*
X36889711Y-38456789D01*
X37020814Y-38544390D01*
X37020826Y-38544397D01*
X37120098Y-38585515D01*
X37149901Y-38597860D01*
X37204305Y-38641700D01*
X37226370Y-38707994D01*
X37209091Y-38775694D01*
X37158744Y-38822905D01*
X37015805Y-38895736D01*
X36951608Y-38942379D01*
X36862927Y-39006810D01*
X36862925Y-39006812D01*
X36862924Y-39006812D01*
X36732681Y-39137056D01*
X36671358Y-39170541D01*
X36601666Y-39165557D01*
X36557319Y-39137056D01*
X36427075Y-39006812D01*
X36427073Y-39006810D01*
X36274199Y-38895740D01*
X36274191Y-38895736D01*
X36105836Y-38809954D01*
X35926118Y-38751559D01*
X35739486Y-38722000D01*
X35739481Y-38722000D01*
X35550519Y-38722000D01*
X35550514Y-38722000D01*
X35363881Y-38751559D01*
X35184163Y-38809954D01*
X35015800Y-38895740D01*
X34962114Y-38934746D01*
X34862927Y-39006810D01*
X34862925Y-39006812D01*
X34862924Y-39006812D01*
X34732681Y-39137056D01*
X34671358Y-39170541D01*
X34601666Y-39165557D01*
X34557319Y-39137056D01*
X34427075Y-39006812D01*
X34427073Y-39006810D01*
X34274199Y-38895740D01*
X34274191Y-38895736D01*
X34105836Y-38809954D01*
X33926118Y-38751559D01*
X33739486Y-38722000D01*
X33739481Y-38722000D01*
X33550519Y-38722000D01*
X33550514Y-38722000D01*
X33363880Y-38751560D01*
X33363873Y-38751561D01*
X33339066Y-38759622D01*
X33269225Y-38761617D01*
X33209392Y-38725536D01*
X33178565Y-38662835D01*
X33186530Y-38593421D01*
X33213065Y-38554012D01*
X33321789Y-38445289D01*
X33409394Y-38314179D01*
X33469737Y-38168497D01*
X33500500Y-38013842D01*
X33500500Y-37856158D01*
X33500500Y-37856155D01*
X33500499Y-37856153D01*
X33490271Y-37804735D01*
X33469737Y-37701503D01*
X33428314Y-37601498D01*
X33409397Y-37555827D01*
X33409390Y-37555814D01*
X33321789Y-37424711D01*
X33321786Y-37424707D01*
X33210292Y-37313213D01*
X33210288Y-37313210D01*
X33079185Y-37225609D01*
X33079172Y-37225602D01*
X32933501Y-37165264D01*
X32933489Y-37165261D01*
X32778845Y-37134500D01*
X32778842Y-37134500D01*
X32621158Y-37134500D01*
X32621155Y-37134500D01*
X32466510Y-37165261D01*
X32466498Y-37165264D01*
X32320827Y-37225602D01*
X32320814Y-37225609D01*
X32189711Y-37313210D01*
X32189707Y-37313213D01*
X32078213Y-37424707D01*
X32078210Y-37424711D01*
X31990609Y-37555814D01*
X31990602Y-37555827D01*
X31930264Y-37701498D01*
X31930261Y-37701510D01*
X31899500Y-37856153D01*
X31899500Y-38013846D01*
X31930261Y-38168489D01*
X31930264Y-38168501D01*
X31990602Y-38314172D01*
X31990609Y-38314185D01*
X32078210Y-38445288D01*
X32078213Y-38445292D01*
X32189707Y-38556786D01*
X32189711Y-38556789D01*
X32244534Y-38593421D01*
X32320821Y-38644394D01*
X32466503Y-38704737D01*
X32571066Y-38725536D01*
X32621153Y-38735499D01*
X32621156Y-38735500D01*
X32621158Y-38735500D01*
X32778844Y-38735500D01*
X32854528Y-38720445D01*
X32924120Y-38726672D01*
X32979297Y-38769534D01*
X33002542Y-38835424D01*
X32986475Y-38903421D01*
X32951607Y-38942379D01*
X32862927Y-39006809D01*
X32862924Y-39006812D01*
X32732681Y-39137056D01*
X32671358Y-39170541D01*
X32601666Y-39165557D01*
X32557319Y-39137056D01*
X32427075Y-39006812D01*
X32427073Y-39006810D01*
X32274199Y-38895740D01*
X32274198Y-38895739D01*
X32274196Y-38895738D01*
X32246522Y-38881637D01*
X32238726Y-38874274D01*
X32186966Y-38851115D01*
X32186074Y-38850354D01*
X32181316Y-38848413D01*
X32105839Y-38809955D01*
X31926118Y-38751559D01*
X31739486Y-38722000D01*
X31739481Y-38722000D01*
X31550519Y-38722000D01*
X31550514Y-38722000D01*
X31363881Y-38751559D01*
X31184163Y-38809954D01*
X31015800Y-38895740D01*
X30962114Y-38934746D01*
X30862927Y-39006810D01*
X30862925Y-39006812D01*
X30862924Y-39006812D01*
X30729312Y-39140424D01*
X30729312Y-39140425D01*
X30729310Y-39140427D01*
X30711052Y-39165557D01*
X30618240Y-39293300D01*
X30532454Y-39461663D01*
X30474059Y-39641381D01*
X30444500Y-39828013D01*
X28335164Y-39828013D01*
X28279185Y-39790609D01*
X28279172Y-39790602D01*
X28133501Y-39730264D01*
X28133489Y-39730261D01*
X27978845Y-39699500D01*
X27978842Y-39699500D01*
X27821158Y-39699500D01*
X27821155Y-39699500D01*
X27666510Y-39730261D01*
X27666498Y-39730264D01*
X27520827Y-39790602D01*
X27520814Y-39790609D01*
X27389711Y-39878210D01*
X27389707Y-39878213D01*
X27278213Y-39989707D01*
X27278210Y-39989711D01*
X27190609Y-40120814D01*
X27190602Y-40120827D01*
X27130264Y-40266498D01*
X27130261Y-40266510D01*
X27099500Y-40421153D01*
X25433000Y-40421153D01*
X25433000Y-40333013D01*
X25403440Y-40146381D01*
X25374392Y-40056982D01*
X25345047Y-39966668D01*
X25345045Y-39966665D01*
X25345045Y-39966663D01*
X25265329Y-39810213D01*
X25259260Y-39798301D01*
X25148190Y-39645427D01*
X25014573Y-39511810D01*
X24861699Y-39400740D01*
X24833143Y-39386190D01*
X24693336Y-39314954D01*
X24513618Y-39256559D01*
X24326986Y-39227000D01*
X24326981Y-39227000D01*
X24187282Y-39227000D01*
X24120243Y-39207315D01*
X24074488Y-39154511D01*
X24064544Y-39085353D01*
X24093569Y-39021797D01*
X24099601Y-39015319D01*
X24769629Y-38345292D01*
X25684247Y-37430674D01*
X25684247Y-37430673D01*
X25694008Y-37420913D01*
X25834100Y-37245242D01*
X25953644Y-37054990D01*
X25962440Y-37036725D01*
X26001241Y-36956153D01*
X27999500Y-36956153D01*
X27999500Y-37113846D01*
X28030261Y-37268489D01*
X28030264Y-37268501D01*
X28090602Y-37414172D01*
X28090609Y-37414185D01*
X28178210Y-37545288D01*
X28178213Y-37545292D01*
X28289707Y-37656786D01*
X28289711Y-37656789D01*
X28420814Y-37744390D01*
X28420827Y-37744397D01*
X28566498Y-37804735D01*
X28566503Y-37804737D01*
X28721153Y-37835499D01*
X28721156Y-37835500D01*
X28721158Y-37835500D01*
X28878844Y-37835500D01*
X28878845Y-37835499D01*
X29033497Y-37804737D01*
X29179179Y-37744394D01*
X29310289Y-37656789D01*
X29421789Y-37545289D01*
X29509394Y-37414179D01*
X29569737Y-37268497D01*
X29600500Y-37113842D01*
X29600500Y-36956158D01*
X29600500Y-36956155D01*
X29600499Y-36956153D01*
X29579893Y-36852561D01*
X29569737Y-36801503D01*
X29569735Y-36801498D01*
X29509397Y-36655827D01*
X29509390Y-36655814D01*
X29421789Y-36524711D01*
X29421786Y-36524707D01*
X29310292Y-36413213D01*
X29310288Y-36413210D01*
X29179185Y-36325609D01*
X29179172Y-36325602D01*
X29033501Y-36265264D01*
X29033489Y-36265261D01*
X28878845Y-36234500D01*
X28878842Y-36234500D01*
X28721158Y-36234500D01*
X28721155Y-36234500D01*
X28566510Y-36265261D01*
X28566498Y-36265264D01*
X28420827Y-36325602D01*
X28420814Y-36325609D01*
X28289711Y-36413210D01*
X28289707Y-36413213D01*
X28178213Y-36524707D01*
X28178210Y-36524711D01*
X28090609Y-36655814D01*
X28090602Y-36655827D01*
X28030264Y-36801498D01*
X28030261Y-36801510D01*
X27999500Y-36956153D01*
X26001241Y-36956153D01*
X26030082Y-36896265D01*
X26051128Y-36852561D01*
X26051129Y-36852558D01*
X26051133Y-36852550D01*
X26125344Y-36640468D01*
X26175343Y-36421410D01*
X26200500Y-36198131D01*
X26200500Y-36085785D01*
X26200500Y-35993075D01*
X26200500Y-33056153D01*
X27999500Y-33056153D01*
X27999500Y-33213846D01*
X28030261Y-33368489D01*
X28030264Y-33368501D01*
X28090602Y-33514172D01*
X28090609Y-33514185D01*
X28178210Y-33645288D01*
X28178213Y-33645292D01*
X28289707Y-33756786D01*
X28289711Y-33756789D01*
X28420814Y-33844390D01*
X28420827Y-33844397D01*
X28566498Y-33904735D01*
X28566503Y-33904737D01*
X28692955Y-33929890D01*
X28721153Y-33935499D01*
X28721156Y-33935500D01*
X28721158Y-33935500D01*
X28878844Y-33935500D01*
X28878845Y-33935499D01*
X29033497Y-33904737D01*
X29179179Y-33844394D01*
X29310289Y-33756789D01*
X29421789Y-33645289D01*
X29509394Y-33514179D01*
X29569737Y-33368497D01*
X29592083Y-33256158D01*
X29592084Y-33256153D01*
X31699500Y-33256153D01*
X31699500Y-33413846D01*
X31730261Y-33568489D01*
X31730264Y-33568501D01*
X31790602Y-33714172D01*
X31790609Y-33714185D01*
X31878210Y-33845288D01*
X31878213Y-33845292D01*
X31989707Y-33956786D01*
X31989711Y-33956789D01*
X32120814Y-34044390D01*
X32120821Y-34044394D01*
X32197373Y-34076102D01*
X32251775Y-34119942D01*
X32273841Y-34186236D01*
X32256562Y-34253935D01*
X32218814Y-34293763D01*
X32189712Y-34313209D01*
X32189707Y-34313213D01*
X32078213Y-34424707D01*
X32078210Y-34424711D01*
X31990609Y-34555814D01*
X31990602Y-34555827D01*
X31930264Y-34701498D01*
X31930261Y-34701510D01*
X31899500Y-34856153D01*
X31899500Y-35013846D01*
X31930261Y-35168489D01*
X31930264Y-35168501D01*
X31990602Y-35314172D01*
X31990609Y-35314185D01*
X32078210Y-35445288D01*
X32078213Y-35445292D01*
X32189707Y-35556786D01*
X32189711Y-35556789D01*
X32320814Y-35644390D01*
X32320827Y-35644397D01*
X32466498Y-35704735D01*
X32466503Y-35704737D01*
X32621153Y-35735499D01*
X32621156Y-35735500D01*
X32621158Y-35735500D01*
X32778844Y-35735500D01*
X32778845Y-35735499D01*
X32933497Y-35704737D01*
X33079179Y-35644394D01*
X33210289Y-35556789D01*
X33321789Y-35445289D01*
X33409394Y-35314179D01*
X33469737Y-35168497D01*
X33500500Y-35013842D01*
X33500500Y-34856158D01*
X33500500Y-34856155D01*
X33500499Y-34856153D01*
X33469738Y-34701510D01*
X33469737Y-34701503D01*
X33450651Y-34655425D01*
X33409397Y-34555827D01*
X33409390Y-34555814D01*
X33321789Y-34424711D01*
X33321786Y-34424707D01*
X33210292Y-34313213D01*
X33210288Y-34313210D01*
X33079185Y-34225609D01*
X33079172Y-34225602D01*
X33002627Y-34193897D01*
X32948223Y-34150057D01*
X32926158Y-34083762D01*
X32943437Y-34016063D01*
X32981188Y-33976234D01*
X32990441Y-33970050D01*
X33010289Y-33956789D01*
X33121789Y-33845289D01*
X33209394Y-33714179D01*
X33269737Y-33568497D01*
X33300500Y-33413842D01*
X33300500Y-33256158D01*
X33300500Y-33256155D01*
X33300499Y-33256153D01*
X33294476Y-33225874D01*
X33269737Y-33101503D01*
X33250955Y-33056158D01*
X33209397Y-32955827D01*
X33209390Y-32955814D01*
X33121789Y-32824711D01*
X33121786Y-32824707D01*
X33010292Y-32713213D01*
X33010288Y-32713210D01*
X32879185Y-32625609D01*
X32879172Y-32625602D01*
X32733501Y-32565264D01*
X32733489Y-32565261D01*
X32578845Y-32534500D01*
X32578842Y-32534500D01*
X32421158Y-32534500D01*
X32421155Y-32534500D01*
X32266510Y-32565261D01*
X32266498Y-32565264D01*
X32120827Y-32625602D01*
X32120814Y-32625609D01*
X31989711Y-32713210D01*
X31989707Y-32713213D01*
X31878213Y-32824707D01*
X31878210Y-32824711D01*
X31790609Y-32955814D01*
X31790602Y-32955827D01*
X31730264Y-33101498D01*
X31730261Y-33101510D01*
X31699500Y-33256153D01*
X29592084Y-33256153D01*
X29598107Y-33225875D01*
X29598107Y-33225874D01*
X29600500Y-33213844D01*
X29600500Y-33056155D01*
X29600499Y-33056153D01*
X29580543Y-32955827D01*
X29569737Y-32901503D01*
X29537929Y-32824711D01*
X29509397Y-32755827D01*
X29509390Y-32755814D01*
X29421789Y-32624711D01*
X29421786Y-32624707D01*
X29310292Y-32513213D01*
X29310288Y-32513210D01*
X29220429Y-32453168D01*
X29179185Y-32425609D01*
X29179172Y-32425602D01*
X29033501Y-32365264D01*
X29033489Y-32365261D01*
X28987701Y-32356153D01*
X34599500Y-32356153D01*
X34599500Y-32513846D01*
X34630261Y-32668489D01*
X34630264Y-32668501D01*
X34679574Y-32787548D01*
X34687043Y-32857018D01*
X34679574Y-32882452D01*
X34630264Y-33001498D01*
X34630261Y-33001510D01*
X34599500Y-33156153D01*
X34599500Y-33313846D01*
X34630260Y-33468488D01*
X34630262Y-33468493D01*
X34630263Y-33468497D01*
X34658865Y-33537549D01*
X34666333Y-33607018D01*
X34658865Y-33632447D01*
X34630263Y-33701503D01*
X34630262Y-33701506D01*
X34630260Y-33701511D01*
X34599500Y-33856153D01*
X34599500Y-34013846D01*
X34630261Y-34168489D01*
X34630264Y-34168501D01*
X34690602Y-34314172D01*
X34690609Y-34314185D01*
X34778210Y-34445288D01*
X34778213Y-34445292D01*
X34889707Y-34556786D01*
X34889711Y-34556789D01*
X35020814Y-34644390D01*
X35020827Y-34644397D01*
X35158683Y-34701498D01*
X35166503Y-34704737D01*
X35321153Y-34735499D01*
X35321156Y-34735500D01*
X35321158Y-34735500D01*
X35478844Y-34735500D01*
X35478845Y-34735499D01*
X35633497Y-34704737D01*
X35752548Y-34655425D01*
X35822017Y-34647956D01*
X35847453Y-34655425D01*
X35966503Y-34704737D01*
X36121153Y-34735499D01*
X36121156Y-34735500D01*
X36121158Y-34735500D01*
X36278844Y-34735500D01*
X36278845Y-34735499D01*
X36433497Y-34704737D01*
X36579179Y-34644394D01*
X36710289Y-34556789D01*
X36821789Y-34445289D01*
X36909394Y-34314179D01*
X36969737Y-34168497D01*
X36980742Y-34113167D01*
X37013125Y-34051258D01*
X37073841Y-34016683D01*
X37078118Y-34015752D01*
X37133497Y-34004737D01*
X37252547Y-33955424D01*
X37322016Y-33947956D01*
X37347451Y-33955425D01*
X37466498Y-34004735D01*
X37466503Y-34004737D01*
X37603090Y-34031906D01*
X37621153Y-34035499D01*
X37621156Y-34035500D01*
X37621158Y-34035500D01*
X37778844Y-34035500D01*
X37778845Y-34035499D01*
X37933497Y-34004737D01*
X38079179Y-33944394D01*
X38210289Y-33856789D01*
X38321789Y-33745289D01*
X38409394Y-33614179D01*
X38469737Y-33468497D01*
X38500500Y-33313842D01*
X38500500Y-33156158D01*
X38500500Y-33156155D01*
X38500499Y-33156153D01*
X38489627Y-33101498D01*
X38469737Y-33001503D01*
X38420425Y-32882452D01*
X38412956Y-32812983D01*
X38420425Y-32787548D01*
X38469735Y-32668501D01*
X38469737Y-32668497D01*
X38500500Y-32513842D01*
X38500500Y-32356158D01*
X38500500Y-32356155D01*
X38500499Y-32356153D01*
X38469738Y-32201510D01*
X38469737Y-32201503D01*
X38429250Y-32103757D01*
X38409397Y-32055827D01*
X38409390Y-32055814D01*
X38321789Y-31924711D01*
X38321786Y-31924707D01*
X38210292Y-31813213D01*
X38210288Y-31813210D01*
X38079185Y-31725609D01*
X38079172Y-31725602D01*
X37933501Y-31665264D01*
X37933489Y-31665261D01*
X37778845Y-31634500D01*
X37778842Y-31634500D01*
X37621158Y-31634500D01*
X37621155Y-31634500D01*
X37466510Y-31665261D01*
X37466498Y-31665264D01*
X37347452Y-31714574D01*
X37277982Y-31722043D01*
X37252548Y-31714574D01*
X37133501Y-31665264D01*
X37133489Y-31665261D01*
X36978845Y-31634500D01*
X36978842Y-31634500D01*
X36821158Y-31634500D01*
X36821155Y-31634500D01*
X36666511Y-31665260D01*
X36666506Y-31665262D01*
X36666504Y-31665262D01*
X36666503Y-31665263D01*
X36597449Y-31693865D01*
X36527982Y-31701333D01*
X36502552Y-31693865D01*
X36433497Y-31665263D01*
X36433493Y-31665262D01*
X36433488Y-31665260D01*
X36278845Y-31634500D01*
X36278842Y-31634500D01*
X36121158Y-31634500D01*
X36121155Y-31634500D01*
X35966510Y-31665261D01*
X35966498Y-31665264D01*
X35847452Y-31714574D01*
X35777982Y-31722043D01*
X35752548Y-31714574D01*
X35633501Y-31665264D01*
X35633489Y-31665261D01*
X35478845Y-31634500D01*
X35478842Y-31634500D01*
X35321158Y-31634500D01*
X35321155Y-31634500D01*
X35166510Y-31665261D01*
X35166498Y-31665264D01*
X35020827Y-31725602D01*
X35020814Y-31725609D01*
X34889711Y-31813210D01*
X34889707Y-31813213D01*
X34778213Y-31924707D01*
X34778210Y-31924711D01*
X34690609Y-32055814D01*
X34690602Y-32055827D01*
X34630264Y-32201498D01*
X34630261Y-32201510D01*
X34599500Y-32356153D01*
X28987701Y-32356153D01*
X28878845Y-32334500D01*
X28878842Y-32334500D01*
X28721158Y-32334500D01*
X28721155Y-32334500D01*
X28566510Y-32365261D01*
X28566498Y-32365264D01*
X28420827Y-32425602D01*
X28420814Y-32425609D01*
X28289711Y-32513210D01*
X28289707Y-32513213D01*
X28178213Y-32624707D01*
X28178210Y-32624711D01*
X28090609Y-32755814D01*
X28090602Y-32755827D01*
X28030264Y-32901498D01*
X28030261Y-32901510D01*
X27999500Y-33056153D01*
X26200500Y-33056153D01*
X26200500Y-31565783D01*
X26220185Y-31498744D01*
X26236819Y-31478102D01*
X26246432Y-31468489D01*
X26265908Y-31449013D01*
X26265908Y-31449011D01*
X26272969Y-31441951D01*
X26272974Y-31441944D01*
X26558765Y-31156153D01*
X29799500Y-31156153D01*
X29799500Y-31313846D01*
X29830261Y-31468489D01*
X29830264Y-31468501D01*
X29890602Y-31614172D01*
X29890609Y-31614185D01*
X29978210Y-31745288D01*
X29978213Y-31745292D01*
X30089707Y-31856786D01*
X30089711Y-31856789D01*
X30220814Y-31944390D01*
X30220827Y-31944397D01*
X30366498Y-32004735D01*
X30366503Y-32004737D01*
X30521153Y-32035499D01*
X30521156Y-32035500D01*
X30521158Y-32035500D01*
X30678844Y-32035500D01*
X30678845Y-32035499D01*
X30833497Y-32004737D01*
X30979179Y-31944394D01*
X31110289Y-31856789D01*
X31221789Y-31745289D01*
X31309394Y-31614179D01*
X31369737Y-31468497D01*
X31400500Y-31313842D01*
X31400500Y-31156158D01*
X31400500Y-31156155D01*
X31400499Y-31156153D01*
X31398219Y-31144692D01*
X31369737Y-31001503D01*
X31331879Y-30910104D01*
X31309397Y-30855827D01*
X31309390Y-30855814D01*
X31221789Y-30724711D01*
X31221786Y-30724707D01*
X31110292Y-30613213D01*
X31110288Y-30613210D01*
X30979185Y-30525609D01*
X30979172Y-30525602D01*
X30833501Y-30465264D01*
X30833489Y-30465261D01*
X30678845Y-30434500D01*
X30678842Y-30434500D01*
X30521158Y-30434500D01*
X30521155Y-30434500D01*
X30366510Y-30465261D01*
X30366498Y-30465264D01*
X30220827Y-30525602D01*
X30220814Y-30525609D01*
X30089711Y-30613210D01*
X30089707Y-30613213D01*
X29978213Y-30724707D01*
X29978210Y-30724711D01*
X29890609Y-30855814D01*
X29890602Y-30855827D01*
X29830264Y-31001498D01*
X29830261Y-31001510D01*
X29799500Y-31156153D01*
X26558765Y-31156153D01*
X32358766Y-25356153D01*
X40599500Y-25356153D01*
X40599500Y-25513846D01*
X40630260Y-25668488D01*
X40630262Y-25668493D01*
X40630263Y-25668497D01*
X40643519Y-25700500D01*
X40658865Y-25737549D01*
X40666333Y-25807018D01*
X40658865Y-25832447D01*
X40630263Y-25901503D01*
X40630262Y-25901506D01*
X40630260Y-25901511D01*
X40599500Y-26056153D01*
X40599500Y-26213846D01*
X40630261Y-26368489D01*
X40630264Y-26368501D01*
X40690602Y-26514172D01*
X40690609Y-26514185D01*
X40778210Y-26645288D01*
X40778213Y-26645292D01*
X40889707Y-26756786D01*
X40889711Y-26756789D01*
X41020814Y-26844390D01*
X41020827Y-26844397D01*
X41166498Y-26904735D01*
X41166503Y-26904737D01*
X41321153Y-26935499D01*
X41321156Y-26935500D01*
X41321158Y-26935500D01*
X41478844Y-26935500D01*
X41478845Y-26935499D01*
X41633497Y-26904737D01*
X41752548Y-26855425D01*
X41822017Y-26847956D01*
X41847453Y-26855425D01*
X41966503Y-26904737D01*
X42121153Y-26935499D01*
X42121156Y-26935500D01*
X42121158Y-26935500D01*
X42278844Y-26935500D01*
X42278845Y-26935499D01*
X42433497Y-26904737D01*
X42579179Y-26844394D01*
X42710289Y-26756789D01*
X42821789Y-26645289D01*
X42909394Y-26514179D01*
X42969737Y-26368497D01*
X43000500Y-26213842D01*
X43000500Y-26056158D01*
X43000500Y-26056155D01*
X43000499Y-26056153D01*
X42969737Y-25901503D01*
X42941134Y-25832450D01*
X42933666Y-25762984D01*
X42941133Y-25737552D01*
X42969737Y-25668497D01*
X43000500Y-25513842D01*
X43000500Y-25356158D01*
X43000500Y-25356155D01*
X43000499Y-25356153D01*
X42969738Y-25201510D01*
X42969737Y-25201503D01*
X42962365Y-25183706D01*
X42909397Y-25055827D01*
X42909390Y-25055814D01*
X42821789Y-24924711D01*
X42821786Y-24924707D01*
X42710292Y-24813213D01*
X42710288Y-24813210D01*
X42579185Y-24725609D01*
X42579172Y-24725602D01*
X42433501Y-24665264D01*
X42433489Y-24665261D01*
X42278845Y-24634500D01*
X42278842Y-24634500D01*
X42121158Y-24634500D01*
X42121155Y-24634500D01*
X41966510Y-24665261D01*
X41966498Y-24665264D01*
X41847452Y-24714574D01*
X41777982Y-24722043D01*
X41752548Y-24714574D01*
X41633501Y-24665264D01*
X41633489Y-24665261D01*
X41478845Y-24634500D01*
X41478842Y-24634500D01*
X41321158Y-24634500D01*
X41321155Y-24634500D01*
X41166510Y-24665261D01*
X41166498Y-24665264D01*
X41020827Y-24725602D01*
X41020814Y-24725609D01*
X40889711Y-24813210D01*
X40889707Y-24813213D01*
X40778213Y-24924707D01*
X40778210Y-24924711D01*
X40690609Y-25055814D01*
X40690602Y-25055827D01*
X40630264Y-25201498D01*
X40630261Y-25201510D01*
X40599500Y-25356153D01*
X32358766Y-25356153D01*
X35577139Y-22137781D01*
X35686631Y-21973914D01*
X35762051Y-21791836D01*
X35800500Y-21598540D01*
X35800500Y-21401460D01*
X35800500Y-21401457D01*
X35800499Y-21401455D01*
X35766447Y-21230264D01*
X35762051Y-21208164D01*
X35686631Y-21026086D01*
X35686629Y-21026083D01*
X35686627Y-21026079D01*
X35577139Y-20862219D01*
X35577136Y-20862215D01*
X35437784Y-20722863D01*
X35437780Y-20722860D01*
X35273920Y-20613372D01*
X35273910Y-20613367D01*
X35091836Y-20537949D01*
X35091828Y-20537947D01*
X34898543Y-20499500D01*
X34898540Y-20499500D01*
X34701460Y-20499500D01*
X34701457Y-20499500D01*
X34508171Y-20537947D01*
X34508163Y-20537949D01*
X34326089Y-20613367D01*
X34326079Y-20613372D01*
X34162219Y-20722860D01*
X34162215Y-20722863D01*
X24850990Y-30034089D01*
X24850990Y-30034090D01*
X24785434Y-30099645D01*
X24705988Y-30179091D01*
X24565899Y-30354758D01*
X24446352Y-30545014D01*
X24348870Y-30747438D01*
X24348867Y-30747446D01*
X24274658Y-30959521D01*
X24274654Y-30959533D01*
X24224657Y-31178588D01*
X24224654Y-31178606D01*
X24199500Y-31401864D01*
X24199500Y-36034217D01*
X24179815Y-36101256D01*
X24163181Y-36121898D01*
X18091899Y-42193181D01*
X18030576Y-42226666D01*
X18004218Y-42229500D01*
X17160200Y-42229500D01*
X17093161Y-42209815D01*
X17080634Y-42200506D01*
X16907820Y-42074951D01*
X16907115Y-42074591D01*
X16899054Y-42070485D01*
X16848259Y-42022512D01*
X16831463Y-41954692D01*
X16853999Y-41888556D01*
X16899054Y-41849515D01*
X16907816Y-41845051D01*
X16929789Y-41829086D01*
X17079786Y-41720109D01*
X17079788Y-41720106D01*
X17079792Y-41720104D01*
X17230104Y-41569792D01*
X17230106Y-41569788D01*
X17230109Y-41569786D01*
X17355049Y-41397819D01*
X17362497Y-41383203D01*
X17410473Y-41332408D01*
X17472981Y-41315500D01*
X17702327Y-41315500D01*
X17750293Y-41309185D01*
X17913585Y-41287688D01*
X18119407Y-41232538D01*
X18296994Y-41158979D01*
X18316260Y-41150999D01*
X18316263Y-41150997D01*
X18316269Y-41150995D01*
X18500803Y-41044454D01*
X18669853Y-40914738D01*
X18745188Y-40839402D01*
X18798893Y-40785698D01*
X18798893Y-40785697D01*
X18809095Y-40775496D01*
X18809102Y-40775486D01*
X18885486Y-40699102D01*
X18885496Y-40699095D01*
X18895698Y-40688893D01*
X18949402Y-40635188D01*
X19024738Y-40559853D01*
X19154454Y-40390803D01*
X19260995Y-40206269D01*
X19264087Y-40198806D01*
X19296389Y-40120821D01*
X19342538Y-40009407D01*
X19397688Y-39803585D01*
X19425500Y-39592326D01*
X19425500Y-39485785D01*
X19425500Y-39409836D01*
X19425500Y-27856153D01*
X24099500Y-27856153D01*
X24099500Y-28013846D01*
X24130261Y-28168489D01*
X24130264Y-28168501D01*
X24190602Y-28314172D01*
X24190609Y-28314185D01*
X24278210Y-28445288D01*
X24278213Y-28445292D01*
X24389707Y-28556786D01*
X24389711Y-28556789D01*
X24520814Y-28644390D01*
X24520827Y-28644397D01*
X24666498Y-28704735D01*
X24666503Y-28704737D01*
X24821153Y-28735499D01*
X24821156Y-28735500D01*
X24821158Y-28735500D01*
X24978844Y-28735500D01*
X24978845Y-28735499D01*
X25133497Y-28704737D01*
X25279179Y-28644394D01*
X25410289Y-28556789D01*
X25521789Y-28445289D01*
X25609394Y-28314179D01*
X25669737Y-28168497D01*
X25700500Y-28013842D01*
X25700500Y-27856158D01*
X25700500Y-27856155D01*
X25700499Y-27856153D01*
X25669738Y-27701510D01*
X25669737Y-27701503D01*
X25615199Y-27569835D01*
X25609397Y-27555827D01*
X25609390Y-27555814D01*
X25521789Y-27424711D01*
X25521786Y-27424707D01*
X25410292Y-27313213D01*
X25410288Y-27313210D01*
X25279185Y-27225609D01*
X25279172Y-27225602D01*
X25133501Y-27165264D01*
X25133489Y-27165261D01*
X24978845Y-27134500D01*
X24978842Y-27134500D01*
X24821158Y-27134500D01*
X24821155Y-27134500D01*
X24666510Y-27165261D01*
X24666498Y-27165264D01*
X24520827Y-27225602D01*
X24520814Y-27225609D01*
X24389711Y-27313210D01*
X24389707Y-27313213D01*
X24278213Y-27424707D01*
X24278210Y-27424711D01*
X24190609Y-27555814D01*
X24190602Y-27555827D01*
X24130264Y-27701498D01*
X24130261Y-27701510D01*
X24099500Y-27856153D01*
X19425500Y-27856153D01*
X19425500Y-24127463D01*
X19445185Y-24060424D01*
X19497989Y-24014669D01*
X19567147Y-24004725D01*
X19618392Y-24024362D01*
X19670812Y-24059389D01*
X19670827Y-24059397D01*
X19767646Y-24099500D01*
X19816503Y-24119737D01*
X19971153Y-24150499D01*
X19971156Y-24150500D01*
X20118059Y-24150500D01*
X20185098Y-24170185D01*
X20230853Y-24222989D01*
X20240797Y-24292147D01*
X20211772Y-24355703D01*
X20205740Y-24362181D01*
X20178213Y-24389707D01*
X20178210Y-24389711D01*
X20090609Y-24520814D01*
X20090602Y-24520827D01*
X20030264Y-24666498D01*
X20030261Y-24666510D01*
X19999500Y-24821153D01*
X19999500Y-24978846D01*
X20030261Y-25133489D01*
X20030264Y-25133501D01*
X20090602Y-25279172D01*
X20090609Y-25279185D01*
X20178210Y-25410288D01*
X20178213Y-25410292D01*
X20289707Y-25521786D01*
X20289711Y-25521789D01*
X20420814Y-25609390D01*
X20420827Y-25609397D01*
X20563490Y-25668489D01*
X20566503Y-25669737D01*
X20721153Y-25700499D01*
X20721156Y-25700500D01*
X20721158Y-25700500D01*
X20878844Y-25700500D01*
X20878845Y-25700499D01*
X21033497Y-25669737D01*
X21179179Y-25609394D01*
X21310289Y-25521789D01*
X21421789Y-25410289D01*
X21509394Y-25279179D01*
X21569737Y-25133497D01*
X21600500Y-24978842D01*
X21600500Y-24821158D01*
X21600500Y-24821155D01*
X21600499Y-24821153D01*
X21596192Y-24799500D01*
X21569737Y-24666503D01*
X21556481Y-24634500D01*
X21509397Y-24520827D01*
X21509390Y-24520814D01*
X21421789Y-24389711D01*
X21421786Y-24389707D01*
X21310292Y-24278213D01*
X21310288Y-24278210D01*
X21179185Y-24190609D01*
X21179172Y-24190602D01*
X21033501Y-24130264D01*
X21033489Y-24130261D01*
X20878845Y-24099500D01*
X20878842Y-24099500D01*
X20731941Y-24099500D01*
X20664902Y-24079815D01*
X20619147Y-24027011D01*
X20609203Y-23957853D01*
X20638228Y-23894297D01*
X20644260Y-23887819D01*
X20671786Y-23860292D01*
X20671789Y-23860289D01*
X20759394Y-23729179D01*
X20819737Y-23583497D01*
X20850500Y-23428842D01*
X20850500Y-23271158D01*
X20850500Y-23271155D01*
X20850499Y-23271153D01*
X20819738Y-23116510D01*
X20819737Y-23116503D01*
X20819735Y-23116498D01*
X20811873Y-23097516D01*
X20794740Y-23056153D01*
X27999500Y-23056153D01*
X27999500Y-23213846D01*
X28030261Y-23368489D01*
X28030264Y-23368501D01*
X28090602Y-23514172D01*
X28090609Y-23514185D01*
X28178210Y-23645288D01*
X28178213Y-23645292D01*
X28289707Y-23756786D01*
X28289711Y-23756789D01*
X28420814Y-23844390D01*
X28420827Y-23844397D01*
X28525659Y-23887819D01*
X28566503Y-23904737D01*
X28721153Y-23935499D01*
X28721156Y-23935500D01*
X28721158Y-23935500D01*
X28878844Y-23935500D01*
X28878845Y-23935499D01*
X29033497Y-23904737D01*
X29179179Y-23844394D01*
X29310289Y-23756789D01*
X29421789Y-23645289D01*
X29509394Y-23514179D01*
X29569737Y-23368497D01*
X29600500Y-23213842D01*
X29600500Y-23056158D01*
X29600500Y-23056155D01*
X29600499Y-23056153D01*
X29597568Y-23041417D01*
X29569737Y-22901503D01*
X29544142Y-22839711D01*
X29509397Y-22755827D01*
X29509390Y-22755814D01*
X29421789Y-22624711D01*
X29421786Y-22624707D01*
X29310292Y-22513213D01*
X29310288Y-22513210D01*
X29179185Y-22425609D01*
X29179172Y-22425602D01*
X29033501Y-22365264D01*
X29033489Y-22365261D01*
X28878845Y-22334500D01*
X28878842Y-22334500D01*
X28721158Y-22334500D01*
X28721155Y-22334500D01*
X28566510Y-22365261D01*
X28566498Y-22365264D01*
X28420827Y-22425602D01*
X28420814Y-22425609D01*
X28289711Y-22513210D01*
X28289707Y-22513213D01*
X28178213Y-22624707D01*
X28178210Y-22624711D01*
X28090609Y-22755814D01*
X28090602Y-22755827D01*
X28030264Y-22901498D01*
X28030261Y-22901510D01*
X27999500Y-23056153D01*
X20794740Y-23056153D01*
X20759395Y-22970823D01*
X20759390Y-22970814D01*
X20671789Y-22839711D01*
X20671786Y-22839707D01*
X20560292Y-22728213D01*
X20560288Y-22728210D01*
X20429185Y-22640609D01*
X20429176Y-22640604D01*
X20338139Y-22602896D01*
X20283736Y-22559055D01*
X20261671Y-22492761D01*
X20278950Y-22425062D01*
X20282490Y-22419444D01*
X20300906Y-22391882D01*
X20309394Y-22379179D01*
X20369737Y-22233497D01*
X20400500Y-22078842D01*
X20400500Y-21921158D01*
X20400500Y-21921155D01*
X20400499Y-21921153D01*
X20373117Y-21783497D01*
X20369737Y-21766503D01*
X20347882Y-21713739D01*
X20309397Y-21620827D01*
X20309390Y-21620814D01*
X20251354Y-21533957D01*
X20221789Y-21489711D01*
X20221786Y-21489707D01*
X20203232Y-21471153D01*
X26249500Y-21471153D01*
X26249500Y-21628846D01*
X26280261Y-21783489D01*
X26280264Y-21783501D01*
X26340602Y-21929172D01*
X26340609Y-21929185D01*
X26428210Y-22060288D01*
X26428213Y-22060292D01*
X26539707Y-22171786D01*
X26539711Y-22171789D01*
X26670814Y-22259390D01*
X26670827Y-22259397D01*
X26816498Y-22319735D01*
X26816503Y-22319737D01*
X26971153Y-22350499D01*
X26971156Y-22350500D01*
X26971158Y-22350500D01*
X27128844Y-22350500D01*
X27128845Y-22350499D01*
X27283497Y-22319737D01*
X27429179Y-22259394D01*
X27560289Y-22171789D01*
X27671789Y-22060289D01*
X27759394Y-21929179D01*
X27762719Y-21921153D01*
X27819735Y-21783501D01*
X27819737Y-21783497D01*
X27850500Y-21628842D01*
X27850500Y-21471158D01*
X27850500Y-21471155D01*
X27850499Y-21471153D01*
X27836636Y-21401460D01*
X27819737Y-21316503D01*
X27809262Y-21291213D01*
X27759397Y-21170827D01*
X27759390Y-21170814D01*
X27671789Y-21039711D01*
X27671786Y-21039707D01*
X27560292Y-20928213D01*
X27560288Y-20928210D01*
X27429185Y-20840609D01*
X27429172Y-20840602D01*
X27283501Y-20780264D01*
X27283489Y-20780261D01*
X27128845Y-20749500D01*
X27128842Y-20749500D01*
X26971158Y-20749500D01*
X26971155Y-20749500D01*
X26816510Y-20780261D01*
X26816498Y-20780264D01*
X26670827Y-20840602D01*
X26670814Y-20840609D01*
X26539711Y-20928210D01*
X26539707Y-20928213D01*
X26428213Y-21039707D01*
X26428210Y-21039711D01*
X26340609Y-21170814D01*
X26340602Y-21170827D01*
X26280264Y-21316498D01*
X26280261Y-21316510D01*
X26249500Y-21471153D01*
X20203232Y-21471153D01*
X20110292Y-21378213D01*
X20110288Y-21378210D01*
X19979185Y-21290609D01*
X19979172Y-21290602D01*
X19833501Y-21230264D01*
X19833489Y-21230261D01*
X19678845Y-21199500D01*
X19678842Y-21199500D01*
X19549500Y-21199500D01*
X19482461Y-21179815D01*
X19436706Y-21127011D01*
X19425500Y-21075500D01*
X19425500Y-19922336D01*
X19426561Y-19906153D01*
X19432823Y-19858582D01*
X19436129Y-19833470D01*
X19444504Y-19802210D01*
X19469429Y-19742037D01*
X19485607Y-19714016D01*
X19530247Y-19655839D01*
X19540920Y-19643669D01*
X19588892Y-19595699D01*
X19588892Y-19595696D01*
X19599097Y-19585493D01*
X19599101Y-19585488D01*
X19713435Y-19471153D01*
X26749500Y-19471153D01*
X26749500Y-19628846D01*
X26780261Y-19783489D01*
X26780264Y-19783501D01*
X26840602Y-19929172D01*
X26840609Y-19929185D01*
X26928210Y-20060288D01*
X26928213Y-20060292D01*
X27039707Y-20171786D01*
X27039711Y-20171789D01*
X27170814Y-20259390D01*
X27170827Y-20259397D01*
X27316498Y-20319735D01*
X27316503Y-20319737D01*
X27471153Y-20350499D01*
X27471156Y-20350500D01*
X27471158Y-20350500D01*
X27628844Y-20350500D01*
X27628845Y-20350499D01*
X27783497Y-20319737D01*
X27901592Y-20270821D01*
X27929172Y-20259397D01*
X27929172Y-20259396D01*
X27929179Y-20259394D01*
X28060289Y-20171789D01*
X28171789Y-20060289D01*
X28259394Y-19929179D01*
X28262229Y-19922336D01*
X28279655Y-19880264D01*
X28319737Y-19783497D01*
X28350500Y-19628842D01*
X28350500Y-19471158D01*
X28350500Y-19471155D01*
X28350499Y-19471153D01*
X28319737Y-19316503D01*
X28268884Y-19193731D01*
X28259397Y-19170827D01*
X28259390Y-19170814D01*
X28171789Y-19039711D01*
X28171786Y-19039707D01*
X28060292Y-18928213D01*
X28060288Y-18928210D01*
X27929185Y-18840609D01*
X27929172Y-18840602D01*
X27783501Y-18780264D01*
X27783489Y-18780261D01*
X27628845Y-18749500D01*
X27628842Y-18749500D01*
X27471158Y-18749500D01*
X27471155Y-18749500D01*
X27316510Y-18780261D01*
X27316498Y-18780264D01*
X27170827Y-18840602D01*
X27170814Y-18840609D01*
X27039711Y-18928210D01*
X27039707Y-18928213D01*
X26928213Y-19039707D01*
X26928210Y-19039711D01*
X26840609Y-19170814D01*
X26840602Y-19170827D01*
X26780264Y-19316498D01*
X26780261Y-19316510D01*
X26749500Y-19471153D01*
X19713435Y-19471153D01*
X19808797Y-19375791D01*
X19870118Y-19342308D01*
X19872128Y-19341889D01*
X19983497Y-19319737D01*
X20129179Y-19259394D01*
X20260289Y-19171789D01*
X20371789Y-19060289D01*
X20459394Y-18929179D01*
X20519737Y-18783497D01*
X20550500Y-18628842D01*
X20550500Y-18471158D01*
X20550500Y-18471155D01*
X20550499Y-18471153D01*
X20519738Y-18316510D01*
X20519738Y-18316508D01*
X20519737Y-18316503D01*
X20519735Y-18316498D01*
X20459397Y-18170827D01*
X20459390Y-18170814D01*
X20371789Y-18039711D01*
X20371786Y-18039707D01*
X20260292Y-17928213D01*
X20260288Y-17928210D01*
X20129185Y-17840609D01*
X20129172Y-17840602D01*
X19983501Y-17780264D01*
X19983489Y-17780261D01*
X19828845Y-17749500D01*
X19828842Y-17749500D01*
X19671158Y-17749500D01*
X19671155Y-17749500D01*
X19516510Y-17780261D01*
X19516498Y-17780264D01*
X19370827Y-17840602D01*
X19370814Y-17840609D01*
X19239711Y-17928210D01*
X19239707Y-17928213D01*
X19128213Y-18039707D01*
X19128210Y-18039711D01*
X19040609Y-18170814D01*
X19040602Y-18170827D01*
X18980264Y-18316498D01*
X18980261Y-18316508D01*
X18958141Y-18427714D01*
X18925756Y-18489625D01*
X18924206Y-18491203D01*
X18704303Y-18711107D01*
X18650599Y-18764811D01*
X18635149Y-18780261D01*
X18575259Y-18840148D01*
X18445552Y-19009187D01*
X18445546Y-19009196D01*
X18339004Y-19193730D01*
X18339002Y-19193734D01*
X18257464Y-19390583D01*
X18257462Y-19390590D01*
X18202312Y-19596412D01*
X18183187Y-19741685D01*
X18154921Y-19805582D01*
X18096596Y-19844053D01*
X18060248Y-19849500D01*
X17971155Y-19849500D01*
X17816510Y-19880261D01*
X17816498Y-19880264D01*
X17670827Y-19940602D01*
X17670814Y-19940609D01*
X17539711Y-20028210D01*
X17539707Y-20028213D01*
X17428213Y-20139707D01*
X17428210Y-20139711D01*
X17340609Y-20270814D01*
X17340604Y-20270823D01*
X17304018Y-20359152D01*
X17260177Y-20413555D01*
X17193883Y-20435620D01*
X17126184Y-20418341D01*
X17101776Y-20399380D01*
X17069786Y-20367390D01*
X16897820Y-20242451D01*
X16897115Y-20242091D01*
X16889054Y-20237985D01*
X16838259Y-20190012D01*
X16821463Y-20122192D01*
X16843999Y-20056056D01*
X16889054Y-20017015D01*
X16897816Y-20012551D01*
X16919789Y-19996586D01*
X17069786Y-19887609D01*
X17069788Y-19887606D01*
X17069792Y-19887604D01*
X17220104Y-19737292D01*
X17220106Y-19737288D01*
X17220109Y-19737286D01*
X17345048Y-19565320D01*
X17345047Y-19565320D01*
X17345051Y-19565316D01*
X17441557Y-19375912D01*
X17507246Y-19173743D01*
X17540500Y-18963787D01*
X17540500Y-18751213D01*
X17507246Y-18541257D01*
X17441557Y-18339088D01*
X17345051Y-18149684D01*
X17345049Y-18149681D01*
X17345048Y-18149679D01*
X17220109Y-17977713D01*
X17069786Y-17827390D01*
X16897820Y-17702451D01*
X16708414Y-17605944D01*
X16708413Y-17605943D01*
X16708412Y-17605943D01*
X16506243Y-17540254D01*
X16506241Y-17540253D01*
X16506240Y-17540253D01*
X16344957Y-17514708D01*
X16296287Y-17507000D01*
X16083713Y-17507000D01*
X16035042Y-17514708D01*
X15873760Y-17540253D01*
X15671585Y-17605944D01*
X15482179Y-17702451D01*
X15310213Y-17827390D01*
X15159890Y-17977713D01*
X15034951Y-18149679D01*
X14938444Y-18339085D01*
X14872753Y-18541260D01*
X14839500Y-18751213D01*
X14839500Y-18963786D01*
X14872444Y-19171789D01*
X14872754Y-19173743D01*
X14938404Y-19375793D01*
X14938444Y-19375914D01*
X15034951Y-19565320D01*
X15159890Y-19737286D01*
X15310213Y-19887609D01*
X15482182Y-20012550D01*
X15490946Y-20017016D01*
X15541742Y-20064991D01*
X15558536Y-20132812D01*
X15535998Y-20198947D01*
X15490946Y-20237984D01*
X15482182Y-20242449D01*
X15310213Y-20367390D01*
X15159890Y-20517713D01*
X15034951Y-20689679D01*
X14938444Y-20879085D01*
X14872753Y-21081260D01*
X14849153Y-21230264D01*
X14839500Y-21291213D01*
X14839500Y-21503787D01*
X14849534Y-21567144D01*
X14859307Y-21628846D01*
X14872754Y-21713743D01*
X14898125Y-21791828D01*
X14938444Y-21915914D01*
X15034951Y-22105320D01*
X15159890Y-22277286D01*
X15310213Y-22427609D01*
X15482182Y-22552550D01*
X15490946Y-22557016D01*
X15541742Y-22604991D01*
X15558536Y-22672812D01*
X15535998Y-22738947D01*
X15490946Y-22777984D01*
X15482182Y-22782449D01*
X15310213Y-22907390D01*
X15159890Y-23057713D01*
X15034951Y-23229679D01*
X14938444Y-23419085D01*
X14872753Y-23621260D01*
X14855660Y-23729185D01*
X14839500Y-23831213D01*
X14839500Y-24043787D01*
X14842135Y-24060424D01*
X14859519Y-24170185D01*
X14872754Y-24253743D01*
X14885232Y-24292147D01*
X14938444Y-24455914D01*
X15034951Y-24645320D01*
X15159890Y-24817286D01*
X15273430Y-24930826D01*
X15306915Y-24992149D01*
X15301931Y-25061841D01*
X15260059Y-25117774D01*
X15229083Y-25134689D01*
X15097669Y-25183703D01*
X15097664Y-25183706D01*
X14982455Y-25269952D01*
X14982452Y-25269955D01*
X14896206Y-25385164D01*
X14896202Y-25385171D01*
X14845908Y-25520017D01*
X14839501Y-25579616D01*
X14839500Y-25579635D01*
X14839500Y-27375370D01*
X14839501Y-27375376D01*
X14845908Y-27434983D01*
X14896202Y-27569828D01*
X14896206Y-27569835D01*
X14982452Y-27685044D01*
X14982455Y-27685047D01*
X15097664Y-27771293D01*
X15097671Y-27771297D01*
X15232517Y-27821591D01*
X15232516Y-27821591D01*
X15239444Y-27822335D01*
X15292127Y-27828000D01*
X17087872Y-27827999D01*
X17147483Y-27821591D01*
X17282331Y-27771296D01*
X17397546Y-27685046D01*
X17483796Y-27569831D01*
X17534091Y-27434983D01*
X17540500Y-27375373D01*
X17540499Y-26505712D01*
X17560183Y-26438674D01*
X17612987Y-26392919D01*
X17682146Y-26382975D01*
X17688684Y-26384094D01*
X17704999Y-26387340D01*
X17771156Y-26400500D01*
X17771158Y-26400500D01*
X17928844Y-26400500D01*
X18026308Y-26381113D01*
X18095900Y-26387340D01*
X18151077Y-26430203D01*
X18174322Y-26496093D01*
X18174500Y-26502730D01*
X18174500Y-39477659D01*
X18173439Y-39493846D01*
X18163869Y-39566531D01*
X18155491Y-39597796D01*
X18130574Y-39657952D01*
X18114389Y-39685986D01*
X18069759Y-39744150D01*
X18059063Y-39756346D01*
X18011109Y-39804298D01*
X18011105Y-39804304D01*
X17914304Y-39901105D01*
X17914298Y-39901109D01*
X17866346Y-39949063D01*
X17854150Y-39959759D01*
X17795986Y-40004389D01*
X17781511Y-40010448D01*
X17771519Y-40019031D01*
X17767952Y-40020574D01*
X17707796Y-40045491D01*
X17676531Y-40053869D01*
X17618322Y-40061533D01*
X17603844Y-40063439D01*
X17587660Y-40064500D01*
X17472981Y-40064500D01*
X17447379Y-40056982D01*
X17420978Y-40053069D01*
X17414365Y-40047288D01*
X17405942Y-40044815D01*
X17384780Y-40021426D01*
X17368374Y-40007084D01*
X17366764Y-40001514D01*
X17362497Y-39996797D01*
X17355049Y-39982180D01*
X17230109Y-39810213D01*
X17079786Y-39659890D01*
X16907820Y-39534951D01*
X16718414Y-39438444D01*
X16718413Y-39438443D01*
X16718412Y-39438443D01*
X16516243Y-39372754D01*
X16516241Y-39372753D01*
X16516240Y-39372753D01*
X16334951Y-39344040D01*
X16306287Y-39339500D01*
X16093713Y-39339500D01*
X16065049Y-39344040D01*
X15883760Y-39372753D01*
X15681585Y-39438444D01*
X15492179Y-39534951D01*
X15320213Y-39659890D01*
X15169890Y-39810213D01*
X15044951Y-39982179D01*
X14948444Y-40171585D01*
X14882753Y-40373760D01*
X14849500Y-40583713D01*
X14849500Y-40796286D01*
X14873728Y-40949260D01*
X14882754Y-41006243D01*
X14934423Y-41165264D01*
X14948444Y-41208414D01*
X15044951Y-41397820D01*
X15169890Y-41569786D01*
X15320213Y-41720109D01*
X15492182Y-41845050D01*
X15500946Y-41849516D01*
X15551742Y-41897491D01*
X15568536Y-41965312D01*
X15545998Y-42031447D01*
X15500946Y-42070484D01*
X15492182Y-42074949D01*
X15320213Y-42199890D01*
X15169890Y-42350213D01*
X15044951Y-42522179D01*
X14948444Y-42711585D01*
X14882753Y-42913760D01*
X14866901Y-43013846D01*
X14849500Y-43123713D01*
X14849500Y-43336287D01*
X14850593Y-43343190D01*
X14875048Y-43497594D01*
X14882754Y-43546243D01*
X14940513Y-43724007D01*
X14948444Y-43748414D01*
X15044951Y-43937820D01*
X15169890Y-44109786D01*
X15320213Y-44260109D01*
X15492179Y-44385048D01*
X15492181Y-44385049D01*
X15492184Y-44385051D01*
X15501493Y-44389794D01*
X15552290Y-44437766D01*
X15569087Y-44505587D01*
X15546552Y-44571722D01*
X15501502Y-44610762D01*
X15492443Y-44615378D01*
X15320540Y-44740272D01*
X15320535Y-44740276D01*
X15170276Y-44890535D01*
X15170272Y-44890540D01*
X15045379Y-45062442D01*
X14948904Y-45251782D01*
X14883242Y-45453870D01*
X14883242Y-45453873D01*
X14872769Y-45520000D01*
X15709252Y-45520000D01*
X15687482Y-45557708D01*
X15650000Y-45697591D01*
X15650000Y-45842409D01*
X15687482Y-45982292D01*
X15709252Y-46020000D01*
X14872769Y-46020000D01*
X14883242Y-46086126D01*
X14883242Y-46086129D01*
X14948904Y-46288217D01*
X15045379Y-46477557D01*
X15170272Y-46649459D01*
X15170276Y-46649464D01*
X15283946Y-46763134D01*
X15317431Y-46824457D01*
X15312447Y-46894149D01*
X15270575Y-46950082D01*
X15239598Y-46966997D01*
X15107671Y-47016202D01*
X15107664Y-47016206D01*
X14992455Y-47102452D01*
X14992452Y-47102455D01*
X14906206Y-47217664D01*
X14906202Y-47217671D01*
X14855908Y-47352517D01*
X14850807Y-47399968D01*
X14849501Y-47412123D01*
X14849500Y-47412135D01*
X14849500Y-49207870D01*
X14849501Y-49207876D01*
X14855909Y-49267488D01*
X14856823Y-49271355D01*
X14856657Y-49274445D01*
X14856738Y-49275196D01*
X14856616Y-49275209D01*
X14853081Y-49341125D01*
X14812213Y-49397795D01*
X14805047Y-49402963D01*
X14792983Y-49411025D01*
X14789705Y-49413215D01*
X14789704Y-49413217D01*
X14678213Y-49524707D01*
X14678210Y-49524711D01*
X14590609Y-49655814D01*
X14590602Y-49655827D01*
X14530264Y-49801498D01*
X14530261Y-49801510D01*
X14499500Y-49956153D01*
X12500500Y-49956153D01*
X12500500Y-29773713D01*
X14849500Y-29773713D01*
X14849500Y-29986286D01*
X14882753Y-30196239D01*
X14948444Y-30398414D01*
X15044951Y-30587820D01*
X15169890Y-30759786D01*
X15320213Y-30910109D01*
X15492182Y-31035050D01*
X15500946Y-31039516D01*
X15551742Y-31087491D01*
X15568536Y-31155312D01*
X15545998Y-31221447D01*
X15500946Y-31260484D01*
X15492182Y-31264949D01*
X15320213Y-31389890D01*
X15169890Y-31540213D01*
X15044951Y-31712179D01*
X14948444Y-31901585D01*
X14882753Y-32103760D01*
X14849500Y-32313713D01*
X14849500Y-32526286D01*
X14872024Y-32668501D01*
X14882754Y-32736243D01*
X14936450Y-32901503D01*
X14948444Y-32938414D01*
X15044951Y-33127820D01*
X15169890Y-33299786D01*
X15320213Y-33450109D01*
X15492182Y-33575050D01*
X15500946Y-33579516D01*
X15551742Y-33627491D01*
X15568536Y-33695312D01*
X15545998Y-33761447D01*
X15500946Y-33800484D01*
X15492182Y-33804949D01*
X15320213Y-33929890D01*
X15169890Y-34080213D01*
X15044951Y-34252179D01*
X14948444Y-34441585D01*
X14948443Y-34441587D01*
X14948443Y-34441588D01*
X14915598Y-34542672D01*
X14882753Y-34643760D01*
X14849500Y-34853713D01*
X14849500Y-35066286D01*
X14865688Y-35168497D01*
X14882754Y-35276243D01*
X14937680Y-35445288D01*
X14948444Y-35478414D01*
X15044951Y-35667820D01*
X15169890Y-35839786D01*
X15283430Y-35953326D01*
X15316915Y-36014649D01*
X15311931Y-36084341D01*
X15270059Y-36140274D01*
X15239083Y-36157189D01*
X15107669Y-36206203D01*
X15107664Y-36206206D01*
X14992455Y-36292452D01*
X14992452Y-36292455D01*
X14906206Y-36407664D01*
X14906202Y-36407671D01*
X14855908Y-36542517D01*
X14849501Y-36602116D01*
X14849501Y-36602123D01*
X14849500Y-36602135D01*
X14849500Y-38397870D01*
X14849501Y-38397876D01*
X14855908Y-38457483D01*
X14906202Y-38592328D01*
X14906206Y-38592335D01*
X14992452Y-38707544D01*
X14992455Y-38707547D01*
X15107664Y-38793793D01*
X15107671Y-38793797D01*
X15242517Y-38844091D01*
X15242516Y-38844091D01*
X15249444Y-38844835D01*
X15302127Y-38850500D01*
X17097872Y-38850499D01*
X17157483Y-38844091D01*
X17292331Y-38793796D01*
X17407546Y-38707546D01*
X17493796Y-38592331D01*
X17544091Y-38457483D01*
X17550500Y-38397873D01*
X17550499Y-36602128D01*
X17544091Y-36542517D01*
X17537448Y-36524707D01*
X17493797Y-36407671D01*
X17493793Y-36407664D01*
X17407547Y-36292455D01*
X17407544Y-36292452D01*
X17292335Y-36206206D01*
X17292328Y-36206202D01*
X17160917Y-36157189D01*
X17104983Y-36115318D01*
X17080566Y-36049853D01*
X17095418Y-35981580D01*
X17116563Y-35953332D01*
X17230104Y-35839792D01*
X17355051Y-35667816D01*
X17451557Y-35478412D01*
X17517246Y-35276243D01*
X17550500Y-35066287D01*
X17550500Y-34853713D01*
X17517246Y-34643757D01*
X17451557Y-34441588D01*
X17355051Y-34252184D01*
X17355049Y-34252181D01*
X17355048Y-34252179D01*
X17230109Y-34080213D01*
X17079786Y-33929890D01*
X16907820Y-33804951D01*
X16907115Y-33804591D01*
X16899054Y-33800485D01*
X16848259Y-33752512D01*
X16831463Y-33684692D01*
X16853999Y-33618556D01*
X16899054Y-33579515D01*
X16907816Y-33575051D01*
X16929789Y-33559086D01*
X17079786Y-33450109D01*
X17079788Y-33450106D01*
X17079792Y-33450104D01*
X17230104Y-33299792D01*
X17230106Y-33299788D01*
X17230109Y-33299786D01*
X17355048Y-33127820D01*
X17355047Y-33127820D01*
X17355051Y-33127816D01*
X17451557Y-32938412D01*
X17517246Y-32736243D01*
X17550500Y-32526287D01*
X17550500Y-32313713D01*
X17517246Y-32103757D01*
X17451557Y-31901588D01*
X17355051Y-31712184D01*
X17355049Y-31712181D01*
X17355048Y-31712179D01*
X17230109Y-31540213D01*
X17079786Y-31389890D01*
X16907820Y-31264951D01*
X16907115Y-31264591D01*
X16899054Y-31260485D01*
X16848259Y-31212512D01*
X16831463Y-31144692D01*
X16853999Y-31078556D01*
X16899054Y-31039515D01*
X16907816Y-31035051D01*
X16953998Y-31001498D01*
X17079786Y-30910109D01*
X17079788Y-30910106D01*
X17079792Y-30910104D01*
X17230104Y-30759792D01*
X17230106Y-30759788D01*
X17230109Y-30759786D01*
X17355048Y-30587820D01*
X17355047Y-30587820D01*
X17355051Y-30587816D01*
X17451557Y-30398412D01*
X17517246Y-30196243D01*
X17550500Y-29986287D01*
X17550500Y-29773713D01*
X17517246Y-29563757D01*
X17451557Y-29361588D01*
X17355051Y-29172184D01*
X17355049Y-29172181D01*
X17355048Y-29172179D01*
X17230109Y-29000213D01*
X17079786Y-28849890D01*
X16907820Y-28724951D01*
X16718414Y-28628444D01*
X16718413Y-28628443D01*
X16718412Y-28628443D01*
X16516243Y-28562754D01*
X16516241Y-28562753D01*
X16516240Y-28562753D01*
X16354957Y-28537208D01*
X16306287Y-28529500D01*
X16093713Y-28529500D01*
X16045042Y-28537208D01*
X15883760Y-28562753D01*
X15681585Y-28628444D01*
X15492179Y-28724951D01*
X15320213Y-28849890D01*
X15169890Y-29000213D01*
X15044951Y-29172179D01*
X14948444Y-29361585D01*
X14882753Y-29563760D01*
X14849500Y-29773713D01*
X12500500Y-29773713D01*
X12500500Y-16207702D01*
X12520185Y-16140663D01*
X12572989Y-16094908D01*
X12642147Y-16084964D01*
X12648667Y-16086080D01*
X12705435Y-16097372D01*
X12721157Y-16100500D01*
X12721158Y-16100500D01*
X12878844Y-16100500D01*
X12878845Y-16100499D01*
X13033497Y-16069737D01*
X13179179Y-16009394D01*
X13310289Y-15921789D01*
X13421789Y-15810289D01*
X13509394Y-15679179D01*
X13569737Y-15533497D01*
X13600500Y-15378842D01*
X13600500Y-15221158D01*
X13600500Y-15221155D01*
X13600499Y-15221153D01*
X15799500Y-15221153D01*
X15799500Y-15378846D01*
X15830261Y-15533489D01*
X15830264Y-15533501D01*
X15890602Y-15679172D01*
X15890609Y-15679185D01*
X15978210Y-15810288D01*
X15978213Y-15810292D01*
X16089707Y-15921786D01*
X16089711Y-15921789D01*
X16220814Y-16009390D01*
X16220827Y-16009397D01*
X16366498Y-16069735D01*
X16366503Y-16069737D01*
X16521153Y-16100499D01*
X16521156Y-16100500D01*
X16521158Y-16100500D01*
X16678844Y-16100500D01*
X16678845Y-16100499D01*
X16833497Y-16069737D01*
X16979179Y-16009394D01*
X17110289Y-15921789D01*
X17221789Y-15810289D01*
X17309394Y-15679179D01*
X17369737Y-15533497D01*
X17400500Y-15378842D01*
X17400500Y-15221158D01*
X17400500Y-15221155D01*
X17400499Y-15221153D01*
X17369738Y-15066510D01*
X17369737Y-15066503D01*
X17369735Y-15066498D01*
X17309397Y-14920827D01*
X17309390Y-14920814D01*
X17221789Y-14789711D01*
X17221786Y-14789707D01*
X17110292Y-14678213D01*
X17110288Y-14678210D01*
X16979185Y-14590609D01*
X16979172Y-14590602D01*
X16833501Y-14530264D01*
X16833489Y-14530261D01*
X16678845Y-14499500D01*
X16678842Y-14499500D01*
X16521158Y-14499500D01*
X16521155Y-14499500D01*
X16366510Y-14530261D01*
X16366498Y-14530264D01*
X16220827Y-14590602D01*
X16220814Y-14590609D01*
X16089711Y-14678210D01*
X16089707Y-14678213D01*
X15978213Y-14789707D01*
X15978210Y-14789711D01*
X15890609Y-14920814D01*
X15890602Y-14920827D01*
X15830264Y-15066498D01*
X15830261Y-15066510D01*
X15799500Y-15221153D01*
X13600499Y-15221153D01*
X13569738Y-15066510D01*
X13569737Y-15066503D01*
X13569735Y-15066498D01*
X13509397Y-14920827D01*
X13509390Y-14920814D01*
X13421789Y-14789711D01*
X13421786Y-14789707D01*
X13310292Y-14678213D01*
X13310288Y-14678210D01*
X13179185Y-14590609D01*
X13179172Y-14590602D01*
X13033501Y-14530264D01*
X13033489Y-14530261D01*
X12878845Y-14499500D01*
X12878842Y-14499500D01*
X12721158Y-14499500D01*
X12656112Y-14512438D01*
X12586521Y-14506209D01*
X12531344Y-14463346D01*
X12508100Y-14397456D01*
X12508186Y-14382720D01*
X12517075Y-14247102D01*
X12519190Y-14231048D01*
X12567045Y-13990462D01*
X12571243Y-13974797D01*
X12594337Y-13906762D01*
X12650093Y-13742512D01*
X12656291Y-13727547D01*
X12764790Y-13507533D01*
X12772897Y-13493493D01*
X12909174Y-13289539D01*
X12919039Y-13276681D01*
X13080786Y-13092244D01*
X13092244Y-13080786D01*
X13276681Y-12919039D01*
X13289534Y-12909177D01*
X13493493Y-12772897D01*
X13507533Y-12764790D01*
X13727547Y-12656291D01*
X13742512Y-12650093D01*
X13906762Y-12594337D01*
X13974797Y-12571243D01*
X13990464Y-12567045D01*
X14231048Y-12519190D01*
X14247102Y-12517075D01*
X14495957Y-12500765D01*
X14504067Y-12500500D01*
X14565892Y-12500500D01*
X41434108Y-12500500D01*
X41495933Y-12500500D01*
X41504043Y-12500765D01*
G37*
%TD.AperFunction*%
%TD*%
M02*
