%TF.GenerationSoftware,KiCad,Pcbnew,10.0.6*%
%TF.CreationDate,2026-09-26T23:15:02+10:00*%
%TF.ProjectId,aioair-v2,61696f61-6972-42d7-9632-2e6b69636164,v1.0.0*%
%TF.SameCoordinates,Original*%
%TF.FileFunction,Copper,L3,Inr*%
%TF.FilePolarity,Positive*%
%FSLAX46Y46*%
G04 Gerber Fmt 4.6, Leading zero omitted, Abs format (unit mm)*
G04 Created by KiCad (PCBNEW 10.0.6) date 2026-09-26 23:15:02*
%MOMM*%
%LPD*%
G01*
G04 APERTURE LIST*
G04 Aperture macros list*
%AMRoundRect*
0 Rectangle with rounded corners*
0 $1 Rounding radius*
0 $2 $3 $4 $5 $6 $7 $8 $9 X,Y pos of 4 corners*
0 Add a 4 corners polygon primitive as box body*
4,1,4,$2,$3,$4,$5,$6,$7,$8,$9,$2,$3,0*
0 Add four circle primitives for the rounded corners*
1,1,$1+$1,$2,$3*
1,1,$1+$1,$4,$5*
1,1,$1+$1,$6,$7*
1,1,$1+$1,$8,$9*
0 Add four rect primitives between the rounded corners*
20,1,$1+$1,$2,$3,$4,$5,0*
20,1,$1+$1,$4,$5,$6,$7,0*
20,1,$1+$1,$6,$7,$8,$9,0*
20,1,$1+$1,$8,$9,$2,$3,0*%
G04 Aperture macros list end*
%TA.AperFunction,ComponentPad*%
%ADD10C,2.600000*%
%TD*%
%TA.AperFunction,ComponentPad*%
%ADD11RoundRect,0.300000X-0.700000X-1.200000X0.700000X-1.200000X0.700000X1.200000X-0.700000X1.200000X0*%
%TD*%
%TA.AperFunction,ComponentPad*%
%ADD12O,2.000000X3.000000*%
%TD*%
%TA.AperFunction,ComponentPad*%
%ADD13RoundRect,0.300000X0.700000X1.200000X-0.700000X1.200000X-0.700000X-1.200000X0.700000X-1.200000X0*%
%TD*%
%TA.AperFunction,ComponentPad*%
%ADD14R,1.700000X1.700000*%
%TD*%
%TA.AperFunction,ComponentPad*%
%ADD15O,1.700000X1.700000*%
%TD*%
%TA.AperFunction,ComponentPad*%
%ADD16R,1.400000X1.400000*%
%TD*%
%TA.AperFunction,ComponentPad*%
%ADD17O,1.400000X1.400000*%
%TD*%
%TA.AperFunction,ViaPad*%
%ADD18C,0.600000*%
%TD*%
G04 APERTURE END LIST*
D10*
%TO.N,N/C*%
%TO.C,REF\u002A\u002A*%
X28000000Y-53000000D03*
%TD*%
D11*
%TO.N,GND*%
%TO.C,U4*%
X24440000Y-67300000D03*
X32060000Y-67300000D03*
D12*
%TO.N,+5V*%
X26980000Y-67300000D03*
X29520000Y-67300000D03*
%TD*%
D13*
%TO.N,GND*%
%TO.C,U7*%
X39200000Y-59800000D03*
X36660000Y-59800000D03*
D12*
%TO.N,+5V*%
X34120000Y-59800000D03*
X31580000Y-59800000D03*
%TD*%
D14*
%TO.N,/TXD*%
%TO.C,U3*%
X16190000Y-26477500D03*
D15*
%TO.N,/RXD*%
X16190000Y-23937500D03*
%TO.N,GND*%
X16190000Y-21397500D03*
%TO.N,+5V*%
X16190000Y-18857500D03*
%TD*%
D16*
%TO.N,+3V3*%
%TO.C,CN4*%
X39645000Y-46012500D03*
D17*
%TO.N,GND*%
X37645000Y-46012500D03*
X35645000Y-46012500D03*
%TO.N,/SDA*%
X33645000Y-46012500D03*
%TO.N,/SCL*%
X31645000Y-46012500D03*
%TD*%
D14*
%TO.N,GND*%
%TO.C,U5*%
X16200000Y-48310000D03*
D15*
%TO.N,+3V3*%
X16200000Y-45770000D03*
%TO.N,/BL*%
X16200000Y-43230000D03*
%TO.N,/D{slash}C*%
X16200000Y-40690000D03*
%TD*%
D16*
%TO.N,+5V*%
%TO.C,CN3*%
X24232500Y-48427500D03*
D17*
%TO.N,GND*%
X24232500Y-46427500D03*
%TO.N,/SEL*%
X24232500Y-44427500D03*
%TO.N,/RX2*%
X24232500Y-42427500D03*
%TO.N,/TX2*%
X24232500Y-40427500D03*
%TD*%
D14*
%TO.N,/MOSI*%
%TO.C,U6*%
X16200000Y-37500000D03*
D15*
%TO.N,/MISO*%
X16200000Y-34960000D03*
%TO.N,/SCK*%
X16200000Y-32420000D03*
%TO.N,/CS*%
X16200000Y-29880000D03*
%TD*%
D16*
%TO.N,+3V3*%
%TO.C,CN1*%
X39775000Y-52465000D03*
D17*
%TO.N,GND*%
X37775000Y-52465000D03*
%TO.N,/SDA*%
X35775000Y-52465000D03*
%TO.N,/SCL*%
X33775000Y-52465000D03*
%TD*%
D16*
%TO.N,+3V3*%
%TO.C,CN2*%
X39645000Y-39922500D03*
D17*
%TO.N,GND*%
X37645000Y-39922500D03*
X35645000Y-39922500D03*
%TO.N,/SDA*%
X33645000Y-39922500D03*
%TO.N,/SCL*%
X31645000Y-39922500D03*
%TD*%
D18*
%TO.N,*%
X28700000Y-64150000D03*
X28700000Y-64650000D03*
X30700000Y-64150000D03*
X27700000Y-64650000D03*
X29200000Y-64150000D03*
X26200000Y-64150000D03*
X31700000Y-64150000D03*
X29700000Y-64150000D03*
X29700000Y-64650000D03*
X26700000Y-64150000D03*
X26700000Y-64650000D03*
X31200000Y-64150000D03*
X27200000Y-64650000D03*
X30700000Y-64650000D03*
X28200000Y-64150000D03*
X29200000Y-64650000D03*
X24700000Y-64650000D03*
X25200000Y-64150000D03*
X30200000Y-64650000D03*
X27700000Y-64150000D03*
X28200000Y-64650000D03*
X29700000Y-64650000D03*
X31700000Y-64650000D03*
X31200000Y-64650000D03*
X25700000Y-64650000D03*
X25200000Y-64650000D03*
X27200000Y-64150000D03*
X26200000Y-64650000D03*
X25700000Y-64150000D03*
X24700000Y-64150000D03*
X29700000Y-64150000D03*
X30200000Y-64150000D03*
%TO.N,GND*%
X36200000Y-33935000D03*
X18050000Y-21450000D03*
X21700000Y-55635000D03*
X41400000Y-38631084D03*
X20500000Y-49235000D03*
X35400000Y-33935000D03*
X39800000Y-37835000D03*
X42200000Y-37035000D03*
X42200000Y-38631084D03*
X36300000Y-43731084D03*
X15900000Y-58135000D03*
X25700000Y-54835000D03*
X36200000Y-32435000D03*
X18900000Y-49235000D03*
X32700000Y-41935000D03*
X41100000Y-58135000D03*
X19700000Y-49235000D03*
X16700000Y-58135000D03*
X32700000Y-47935000D03*
X22600000Y-55635000D03*
X41900000Y-60538916D03*
X36900000Y-49035000D03*
X37200000Y-56431084D03*
X28800000Y-23135000D03*
X24900000Y-27935000D03*
X37700000Y-33235000D03*
X36200000Y-33235000D03*
X41100000Y-61335000D03*
X32700000Y-37935000D03*
X41900000Y-58135000D03*
X27000000Y-55635000D03*
X41400000Y-26135000D03*
X37700000Y-32435000D03*
X42200000Y-26135000D03*
X28800000Y-37035000D03*
X22600000Y-54838916D03*
X41900000Y-61335000D03*
X35400000Y-32435000D03*
X17500000Y-61935000D03*
X15200000Y-59538916D03*
X14400000Y-58135000D03*
X15900000Y-61935000D03*
X27900000Y-40500000D03*
X15200000Y-61935000D03*
X16100000Y-50035000D03*
X36900000Y-32435000D03*
X41900000Y-59731084D03*
X36300000Y-42935000D03*
X34700000Y-50935000D03*
X36900000Y-33235000D03*
X14400000Y-61135000D03*
X37200000Y-55635000D03*
X40600000Y-37835000D03*
X32700000Y-34935000D03*
X16900000Y-50035000D03*
X36900000Y-49831084D03*
X18050000Y-20650000D03*
X36100000Y-48235000D03*
X14400000Y-58835000D03*
X28800000Y-33135000D03*
X37200000Y-54835000D03*
X32700000Y-43935000D03*
X41900000Y-58931084D03*
X15300000Y-50035000D03*
X41100000Y-59731084D03*
X16600000Y-15300000D03*
X39000000Y-37835000D03*
X15200000Y-60338916D03*
X30600000Y-31235000D03*
X41100000Y-60538916D03*
X14400000Y-61935000D03*
X23900000Y-54835000D03*
X14400000Y-59538916D03*
X32700000Y-42935000D03*
X42200000Y-25435000D03*
X37100000Y-43731084D03*
X37400000Y-37835000D03*
X18050000Y-22250000D03*
X15200000Y-58135000D03*
X36400000Y-54835000D03*
X18100000Y-49235000D03*
X36100000Y-49035000D03*
X36300000Y-42135000D03*
X18300000Y-61935000D03*
X27000000Y-54838916D03*
X17850000Y-25600000D03*
X12800000Y-15300000D03*
X32500000Y-33335000D03*
X21700000Y-54838916D03*
X35400000Y-33235000D03*
X41100000Y-58931084D03*
X41400000Y-37035000D03*
X15200000Y-58835000D03*
X21300000Y-49235000D03*
X36900000Y-48235000D03*
X41400000Y-37835000D03*
X41400000Y-25435000D03*
X14400000Y-60338916D03*
X37100000Y-42935000D03*
X38200000Y-37835000D03*
X36400000Y-56431084D03*
X36100000Y-49831084D03*
X15200000Y-61135000D03*
X36400000Y-55635000D03*
X42200000Y-37835000D03*
X37100000Y-42135000D03*
X16700000Y-61935000D03*
%TO.N,+3V3*%
X24300000Y-52600000D03*
X40900000Y-55935000D03*
X37600000Y-34535000D03*
X40800000Y-43235000D03*
X40900000Y-54335000D03*
X20700000Y-45435000D03*
X41600000Y-42435000D03*
X40700000Y-47835000D03*
X18303916Y-44635000D03*
X23500000Y-53335000D03*
X23500000Y-14835000D03*
X40700000Y-48635000D03*
X40700000Y-50231084D03*
X21900000Y-53335000D03*
X41500000Y-49435000D03*
X24300000Y-51900000D03*
X23500000Y-52600000D03*
X24300000Y-53335000D03*
X40800000Y-42435000D03*
X19103916Y-45435000D03*
X22700000Y-51900000D03*
X41600000Y-41635000D03*
X20700000Y-44635000D03*
X21900000Y-52600000D03*
X41500000Y-50231084D03*
X41600000Y-43235000D03*
X21900000Y-14835000D03*
X19903916Y-45435000D03*
X41500000Y-48635000D03*
X22700000Y-53335000D03*
X38400000Y-35335000D03*
X19903916Y-44635000D03*
X23500000Y-51200000D03*
X40900000Y-55135000D03*
X22700000Y-52600000D03*
X18303916Y-45435000D03*
X41500000Y-47835000D03*
X41700000Y-55935000D03*
X22700000Y-51200000D03*
X40800000Y-44031084D03*
X37600000Y-35335000D03*
X23500000Y-51900000D03*
X41700000Y-54335000D03*
X19103916Y-44635000D03*
X38400000Y-36931084D03*
X37600000Y-36135000D03*
X42200000Y-33135000D03*
X21900000Y-51200000D03*
X41400000Y-33135000D03*
X40700000Y-49435000D03*
X21200000Y-53335000D03*
X24300000Y-51200000D03*
X41700000Y-55135000D03*
X38400000Y-36135000D03*
X21900000Y-51900000D03*
X22700000Y-14835000D03*
X40900000Y-56731084D03*
X38400000Y-34535000D03*
X40800000Y-41635000D03*
X41700000Y-56731084D03*
X41600000Y-44031084D03*
X21200000Y-52635000D03*
X37600000Y-36931084D03*
%TO.N,+5V*%
X29500000Y-49335000D03*
X24000000Y-59435000D03*
X23200000Y-58735000D03*
X24000000Y-60135000D03*
X25600000Y-60835000D03*
X24800000Y-60135000D03*
X24800000Y-60835000D03*
X25600000Y-58735000D03*
X24800000Y-59435000D03*
X27400000Y-50135000D03*
X23200000Y-60835000D03*
X24000000Y-58735000D03*
X28100000Y-49335000D03*
X26400000Y-59435000D03*
X28800000Y-50135000D03*
X25600000Y-59435000D03*
X26400000Y-58735000D03*
X23200000Y-59435000D03*
X24800000Y-58735000D03*
X29500000Y-50135000D03*
X24000000Y-60835000D03*
X25600000Y-60135000D03*
X28100000Y-50135000D03*
X28800000Y-49335000D03*
X23200000Y-60135000D03*
X27400000Y-49335000D03*
X26400000Y-60135000D03*
X26400000Y-60835000D03*
%TO.N,/BL*%
X34800000Y-21500000D03*
%TO.N,/D{slash}C*%
X19750000Y-18550000D03*
%TO.N,/RX2*%
X27550000Y-19550000D03*
%TO.N,/TX2*%
X27050000Y-21550000D03*
%TO.N,/CS*%
X19600000Y-22000000D03*
%TO.N,/SCK*%
X20050000Y-23350000D03*
%TO.N,/MISO*%
X20800000Y-24900000D03*
%TD*%
%TA.AperFunction,Conductor*%
%TO.N,GND*%
G36*
X23209049Y-65321317D02*
G01*
X23248645Y-65375817D01*
X23248645Y-65443183D01*
X23222055Y-65486575D01*
X23110577Y-65598052D01*
X23014662Y-65750699D01*
X23014661Y-65750702D01*
X22955124Y-65920853D01*
X22940000Y-66055078D01*
X22940000Y-67049999D01*
X22940001Y-67050000D01*
X24124314Y-67050000D01*
X24119920Y-67054394D01*
X24067259Y-67145606D01*
X24040000Y-67247339D01*
X24040000Y-67352661D01*
X24067259Y-67454394D01*
X24119920Y-67545606D01*
X24124314Y-67550000D01*
X22940001Y-67550000D01*
X22940000Y-67550001D01*
X22940000Y-68544921D01*
X22955124Y-68679146D01*
X23014661Y-68849297D01*
X23014662Y-68849300D01*
X23110577Y-69001947D01*
X23238052Y-69129422D01*
X23390699Y-69225337D01*
X23390702Y-69225338D01*
X23560853Y-69284875D01*
X23695079Y-69300000D01*
X24189999Y-69300000D01*
X24190000Y-69299999D01*
X24190000Y-67615686D01*
X24194394Y-67620080D01*
X24285606Y-67672741D01*
X24387339Y-67700000D01*
X24492661Y-67700000D01*
X24594394Y-67672741D01*
X24685606Y-67620080D01*
X24690000Y-67615686D01*
X24690000Y-69299999D01*
X24690001Y-69300000D01*
X25184921Y-69300000D01*
X25319146Y-69284875D01*
X25489297Y-69225338D01*
X25489300Y-69225337D01*
X25641947Y-69129422D01*
X25769422Y-69001947D01*
X25865336Y-68849301D01*
X25910557Y-68720065D01*
X25951366Y-68666466D01*
X26015886Y-68647091D01*
X26079471Y-68669340D01*
X26090508Y-68678982D01*
X26165354Y-68753828D01*
X26231801Y-68802104D01*
X26324590Y-68869521D01*
X26324602Y-68869528D01*
X26405204Y-68910596D01*
X26499975Y-68958884D01*
X26597354Y-68990524D01*
X26687170Y-69019708D01*
X26687172Y-69019708D01*
X26687174Y-69019709D01*
X26881583Y-69050500D01*
X26881584Y-69050500D01*
X27078416Y-69050500D01*
X27078417Y-69050500D01*
X27272826Y-69019709D01*
X27460025Y-68958884D01*
X27635405Y-68869524D01*
X27794646Y-68753828D01*
X27933828Y-68614646D01*
X28049524Y-68455405D01*
X28138884Y-68280025D01*
X28138885Y-68280022D01*
X28146335Y-68257095D01*
X28185931Y-68202594D01*
X28250000Y-68181777D01*
X28314068Y-68202594D01*
X28353665Y-68257094D01*
X28353665Y-68257095D01*
X28361114Y-68280022D01*
X28450471Y-68455397D01*
X28450478Y-68455409D01*
X28547029Y-68588299D01*
X28566172Y-68614646D01*
X28705354Y-68753828D01*
X28771801Y-68802104D01*
X28864590Y-68869521D01*
X28864602Y-68869528D01*
X28945204Y-68910596D01*
X29039975Y-68958884D01*
X29137354Y-68990524D01*
X29227170Y-69019708D01*
X29227172Y-69019708D01*
X29227174Y-69019709D01*
X29421583Y-69050500D01*
X29421584Y-69050500D01*
X29618416Y-69050500D01*
X29618417Y-69050500D01*
X29812826Y-69019709D01*
X30000025Y-68958884D01*
X30175405Y-68869524D01*
X30334646Y-68753828D01*
X30409485Y-68678988D01*
X30469506Y-68648406D01*
X30536042Y-68658944D01*
X30583677Y-68706578D01*
X30589441Y-68720064D01*
X30634661Y-68849297D01*
X30634662Y-68849300D01*
X30730577Y-69001947D01*
X30858052Y-69129422D01*
X31010699Y-69225337D01*
X31010702Y-69225338D01*
X31180853Y-69284875D01*
X31315079Y-69300000D01*
X31809999Y-69300000D01*
X31810000Y-69299999D01*
X31810000Y-67615686D01*
X31814394Y-67620080D01*
X31905606Y-67672741D01*
X32007339Y-67700000D01*
X32112661Y-67700000D01*
X32214394Y-67672741D01*
X32305606Y-67620080D01*
X32310000Y-67615686D01*
X32310000Y-69299999D01*
X32310001Y-69300000D01*
X32804921Y-69300000D01*
X32939146Y-69284875D01*
X33109297Y-69225338D01*
X33109300Y-69225337D01*
X33261947Y-69129422D01*
X33389422Y-69001947D01*
X33485337Y-68849300D01*
X33485338Y-68849297D01*
X33544875Y-68679146D01*
X33560000Y-68544921D01*
X33560000Y-67550001D01*
X33559999Y-67550000D01*
X32375686Y-67550000D01*
X32380080Y-67545606D01*
X32432741Y-67454394D01*
X32460000Y-67352661D01*
X32460000Y-67247339D01*
X32432741Y-67145606D01*
X32380080Y-67054394D01*
X32375686Y-67050000D01*
X33559999Y-67050000D01*
X33560000Y-67049999D01*
X33560000Y-66055078D01*
X33544875Y-65920853D01*
X33485338Y-65750702D01*
X33485337Y-65750699D01*
X33389422Y-65598052D01*
X33277945Y-65486575D01*
X33247362Y-65426551D01*
X33257900Y-65360015D01*
X33305535Y-65312380D01*
X33355020Y-65300500D01*
X34634108Y-65300500D01*
X34693876Y-65300500D01*
X34706079Y-65301185D01*
X34798946Y-65311648D01*
X34822744Y-65317080D01*
X34905131Y-65345909D01*
X34927121Y-65356499D01*
X35001032Y-65402940D01*
X35020116Y-65418158D01*
X35081841Y-65479883D01*
X35097059Y-65498967D01*
X35143500Y-65572878D01*
X35154090Y-65594868D01*
X35182919Y-65677255D01*
X35188351Y-65701052D01*
X35198815Y-65793920D01*
X35199500Y-65806124D01*
X35199500Y-76793875D01*
X35198815Y-76806079D01*
X35188351Y-76898947D01*
X35182919Y-76922744D01*
X35154090Y-77005131D01*
X35143500Y-77027121D01*
X35097059Y-77101032D01*
X35081841Y-77120116D01*
X35020116Y-77181841D01*
X35001032Y-77197059D01*
X34927121Y-77243500D01*
X34905131Y-77254090D01*
X34822744Y-77282919D01*
X34798948Y-77288351D01*
X34719630Y-77297288D01*
X34706078Y-77298815D01*
X34693876Y-77299500D01*
X21706124Y-77299500D01*
X21693920Y-77298815D01*
X21601052Y-77288351D01*
X21577255Y-77282919D01*
X21494868Y-77254090D01*
X21472878Y-77243500D01*
X21398967Y-77197059D01*
X21379883Y-77181841D01*
X21318158Y-77120116D01*
X21302940Y-77101032D01*
X21256499Y-77027121D01*
X21245909Y-77005131D01*
X21217080Y-76922744D01*
X21211648Y-76898946D01*
X21201185Y-76806078D01*
X21200500Y-76793875D01*
X21200500Y-71837523D01*
X24759500Y-71837523D01*
X24759500Y-71837525D01*
X24759500Y-71982475D01*
X24797016Y-72122485D01*
X24869491Y-72248015D01*
X24971985Y-72350509D01*
X25097515Y-72422984D01*
X25237525Y-72460500D01*
X25237527Y-72460500D01*
X25382473Y-72460500D01*
X25382475Y-72460500D01*
X25522485Y-72422984D01*
X25648015Y-72350509D01*
X25750509Y-72248015D01*
X25822984Y-72122485D01*
X25860500Y-71982475D01*
X25860500Y-71837525D01*
X25860499Y-71837523D01*
X30539500Y-71837523D01*
X30539500Y-71837525D01*
X30539500Y-71982475D01*
X30577016Y-72122485D01*
X30649491Y-72248015D01*
X30751985Y-72350509D01*
X30877515Y-72422984D01*
X31017525Y-72460500D01*
X31017527Y-72460500D01*
X31162473Y-72460500D01*
X31162475Y-72460500D01*
X31302485Y-72422984D01*
X31428015Y-72350509D01*
X31530509Y-72248015D01*
X31602984Y-72122485D01*
X31640500Y-71982475D01*
X31640500Y-71837525D01*
X31602984Y-71697515D01*
X31530509Y-71571985D01*
X31428015Y-71469491D01*
X31302485Y-71397016D01*
X31162476Y-71359500D01*
X31162475Y-71359500D01*
X31017525Y-71359500D01*
X31017523Y-71359500D01*
X30877514Y-71397016D01*
X30751987Y-71469489D01*
X30649489Y-71571987D01*
X30577016Y-71697514D01*
X30539500Y-71837523D01*
X25860499Y-71837523D01*
X25822984Y-71697515D01*
X25750509Y-71571985D01*
X25648015Y-71469491D01*
X25522485Y-71397016D01*
X25382476Y-71359500D01*
X25382475Y-71359500D01*
X25237525Y-71359500D01*
X25237523Y-71359500D01*
X25097514Y-71397016D01*
X24971987Y-71469489D01*
X24869489Y-71571987D01*
X24797016Y-71697514D01*
X24759500Y-71837523D01*
X21200500Y-71837523D01*
X21200500Y-65806124D01*
X21201185Y-65793921D01*
X21211648Y-65701053D01*
X21217080Y-65677255D01*
X21229726Y-65641116D01*
X21245910Y-65594865D01*
X21256499Y-65572878D01*
X21302940Y-65498967D01*
X21318154Y-65479887D01*
X21379887Y-65418154D01*
X21398967Y-65402940D01*
X21472878Y-65356499D01*
X21494865Y-65345910D01*
X21577257Y-65317079D01*
X21601051Y-65311648D01*
X21652716Y-65305827D01*
X21693921Y-65301185D01*
X21706124Y-65300500D01*
X23144980Y-65300500D01*
X23209049Y-65321317D01*
G37*
%TD.AperFunction*%
%TD*%
%TA.AperFunction,Conductor*%
%TO.N,GND*%
G36*
X38879920Y-59554394D02*
G01*
X38827259Y-59645606D01*
X38800000Y-59747339D01*
X38800000Y-59852661D01*
X38827259Y-59954394D01*
X38879920Y-60045606D01*
X38884314Y-60050000D01*
X36975686Y-60050000D01*
X36980080Y-60045606D01*
X37032741Y-59954394D01*
X37060000Y-59852661D01*
X37060000Y-59747339D01*
X37032741Y-59645606D01*
X36980080Y-59554394D01*
X36975686Y-59550000D01*
X38884314Y-59550000D01*
X38879920Y-59554394D01*
G37*
%TD.AperFunction*%
%TA.AperFunction,Conductor*%
G36*
X37225667Y-45838806D02*
G01*
X37195000Y-45953256D01*
X37195000Y-46071744D01*
X37225667Y-46186194D01*
X37269722Y-46262500D01*
X36020278Y-46262500D01*
X36064333Y-46186194D01*
X36095000Y-46071744D01*
X36095000Y-45953256D01*
X36064333Y-45838806D01*
X36020278Y-45762500D01*
X37269722Y-45762500D01*
X37225667Y-45838806D01*
G37*
%TD.AperFunction*%
%TA.AperFunction,Conductor*%
G36*
X37225667Y-39748806D02*
G01*
X37195000Y-39863256D01*
X37195000Y-39981744D01*
X37225667Y-40096194D01*
X37269722Y-40172500D01*
X36020278Y-40172500D01*
X36064333Y-40096194D01*
X36095000Y-39981744D01*
X36095000Y-39863256D01*
X36064333Y-39748806D01*
X36020278Y-39672500D01*
X37269722Y-39672500D01*
X37225667Y-39748806D01*
G37*
%TD.AperFunction*%
%TA.AperFunction,Conductor*%
G36*
X41504043Y-12500765D02*
G01*
X41752895Y-12517075D01*
X41768953Y-12519190D01*
X41976105Y-12560395D01*
X42009535Y-12567045D01*
X42025202Y-12571243D01*
X42194947Y-12628863D01*
X42257481Y-12650091D01*
X42272458Y-12656294D01*
X42481799Y-12759529D01*
X42492460Y-12764787D01*
X42506506Y-12772897D01*
X42710460Y-12909174D01*
X42723329Y-12919048D01*
X42907749Y-13080781D01*
X42919218Y-13092250D01*
X43080951Y-13276670D01*
X43090825Y-13289539D01*
X43227102Y-13493493D01*
X43235212Y-13507539D01*
X43343702Y-13727534D01*
X43349909Y-13742520D01*
X43428756Y-13974797D01*
X43432954Y-13990464D01*
X43480807Y-14231035D01*
X43482925Y-14247116D01*
X43499235Y-14495956D01*
X43499500Y-14504066D01*
X43499500Y-61495933D01*
X43499235Y-61504043D01*
X43482925Y-61752883D01*
X43480807Y-61768964D01*
X43432954Y-62009535D01*
X43428756Y-62025202D01*
X43349909Y-62257479D01*
X43343702Y-62272465D01*
X43235212Y-62492460D01*
X43227102Y-62506506D01*
X43090825Y-62710460D01*
X43080951Y-62723329D01*
X42919218Y-62907749D01*
X42907749Y-62919218D01*
X42723329Y-63080951D01*
X42710460Y-63090825D01*
X42506506Y-63227102D01*
X42492460Y-63235212D01*
X42272465Y-63343702D01*
X42257479Y-63349909D01*
X42025202Y-63428756D01*
X42009535Y-63432954D01*
X41768964Y-63480807D01*
X41752883Y-63482925D01*
X41504043Y-63499235D01*
X41495933Y-63499500D01*
X32113840Y-63499500D01*
X32061479Y-63486385D01*
X32061122Y-63487247D01*
X32055495Y-63484916D01*
X31918913Y-63428342D01*
X31918907Y-63428340D01*
X31773920Y-63399500D01*
X31773918Y-63399500D01*
X31626082Y-63399500D01*
X31626080Y-63399500D01*
X31475113Y-63429530D01*
X31474602Y-63426962D01*
X31425313Y-63427384D01*
X31424887Y-63429530D01*
X31273920Y-63399500D01*
X31273918Y-63399500D01*
X31126082Y-63399500D01*
X31126080Y-63399500D01*
X30975113Y-63429530D01*
X30974602Y-63426962D01*
X30925313Y-63427384D01*
X30924887Y-63429530D01*
X30773920Y-63399500D01*
X30773918Y-63399500D01*
X30626082Y-63399500D01*
X30626080Y-63399500D01*
X30475113Y-63429530D01*
X30474602Y-63426962D01*
X30425313Y-63427384D01*
X30424887Y-63429530D01*
X30273920Y-63399500D01*
X30273918Y-63399500D01*
X30126082Y-63399500D01*
X30126080Y-63399500D01*
X29975113Y-63429530D01*
X29974602Y-63426962D01*
X29925313Y-63427384D01*
X29924887Y-63429530D01*
X29773920Y-63399500D01*
X29773918Y-63399500D01*
X29626082Y-63399500D01*
X29626080Y-63399500D01*
X29475113Y-63429530D01*
X29474602Y-63426962D01*
X29425313Y-63427384D01*
X29424887Y-63429530D01*
X29273920Y-63399500D01*
X29273918Y-63399500D01*
X29126082Y-63399500D01*
X29126080Y-63399500D01*
X28975113Y-63429530D01*
X28974602Y-63426962D01*
X28925313Y-63427384D01*
X28924887Y-63429530D01*
X28773920Y-63399500D01*
X28773918Y-63399500D01*
X28626082Y-63399500D01*
X28626080Y-63399500D01*
X28475113Y-63429530D01*
X28474602Y-63426962D01*
X28425313Y-63427384D01*
X28424887Y-63429530D01*
X28273920Y-63399500D01*
X28273918Y-63399500D01*
X28126082Y-63399500D01*
X28126080Y-63399500D01*
X27975113Y-63429530D01*
X27974602Y-63426962D01*
X27925313Y-63427384D01*
X27924887Y-63429530D01*
X27773920Y-63399500D01*
X27773918Y-63399500D01*
X27626082Y-63399500D01*
X27626080Y-63399500D01*
X27475113Y-63429530D01*
X27474602Y-63426962D01*
X27425313Y-63427384D01*
X27424887Y-63429530D01*
X27273920Y-63399500D01*
X27273918Y-63399500D01*
X27126082Y-63399500D01*
X27126080Y-63399500D01*
X26975113Y-63429530D01*
X26974602Y-63426962D01*
X26925313Y-63427384D01*
X26924887Y-63429530D01*
X26773920Y-63399500D01*
X26773918Y-63399500D01*
X26626082Y-63399500D01*
X26626080Y-63399500D01*
X26475113Y-63429530D01*
X26474602Y-63426962D01*
X26425313Y-63427384D01*
X26424887Y-63429530D01*
X26273920Y-63399500D01*
X26273918Y-63399500D01*
X26126082Y-63399500D01*
X26126080Y-63399500D01*
X25975113Y-63429530D01*
X25974602Y-63426962D01*
X25925313Y-63427384D01*
X25924887Y-63429530D01*
X25773920Y-63399500D01*
X25773918Y-63399500D01*
X25626082Y-63399500D01*
X25626080Y-63399500D01*
X25475113Y-63429530D01*
X25474602Y-63426962D01*
X25425313Y-63427384D01*
X25424887Y-63429530D01*
X25273920Y-63399500D01*
X25273918Y-63399500D01*
X25126082Y-63399500D01*
X25126080Y-63399500D01*
X24975113Y-63429530D01*
X24974602Y-63426962D01*
X24925313Y-63427384D01*
X24924887Y-63429530D01*
X24773920Y-63399500D01*
X24773918Y-63399500D01*
X24626082Y-63399500D01*
X24626080Y-63399500D01*
X24481092Y-63428340D01*
X24481086Y-63428342D01*
X24338878Y-63487247D01*
X24338520Y-63486385D01*
X24286160Y-63499500D01*
X14504067Y-63499500D01*
X14495957Y-63499235D01*
X14247116Y-63482925D01*
X14231035Y-63480807D01*
X13990464Y-63432954D01*
X13974797Y-63428756D01*
X13742520Y-63349909D01*
X13727534Y-63343702D01*
X13507539Y-63235212D01*
X13493493Y-63227102D01*
X13289539Y-63090825D01*
X13276670Y-63080951D01*
X13092250Y-62919218D01*
X13080781Y-62907749D01*
X12919048Y-62723329D01*
X12909174Y-62710460D01*
X12772897Y-62506506D01*
X12764787Y-62492460D01*
X12658855Y-62277652D01*
X12656294Y-62272458D01*
X12650090Y-62257479D01*
X12571243Y-62025202D01*
X12567045Y-62009535D01*
X12525366Y-61800000D01*
X12519190Y-61768953D01*
X12517075Y-61752895D01*
X12500765Y-61504043D01*
X12500500Y-61495933D01*
X12500500Y-58808920D01*
X22449499Y-58808920D01*
X22478340Y-58953906D01*
X22478342Y-58953914D01*
X22512984Y-59037548D01*
X22520453Y-59107018D01*
X22512984Y-59132452D01*
X22478342Y-59216085D01*
X22478340Y-59216093D01*
X22449500Y-59361079D01*
X22449500Y-59361082D01*
X22449500Y-59508918D01*
X22449500Y-59508920D01*
X22449499Y-59508920D01*
X22478340Y-59653906D01*
X22478342Y-59653914D01*
X22512984Y-59737548D01*
X22520453Y-59807018D01*
X22512984Y-59832452D01*
X22478342Y-59916085D01*
X22478340Y-59916093D01*
X22449500Y-60061079D01*
X22449500Y-60061082D01*
X22449500Y-60208918D01*
X22449500Y-60208920D01*
X22449499Y-60208920D01*
X22478340Y-60353906D01*
X22478342Y-60353914D01*
X22512984Y-60437548D01*
X22520453Y-60507018D01*
X22512984Y-60532452D01*
X22478342Y-60616085D01*
X22478340Y-60616093D01*
X22449500Y-60761079D01*
X22449500Y-60761082D01*
X22449500Y-60908918D01*
X22449500Y-60908920D01*
X22449499Y-60908920D01*
X22478340Y-61053907D01*
X22478343Y-61053917D01*
X22534912Y-61190488D01*
X22534919Y-61190501D01*
X22617048Y-61313415D01*
X22617051Y-61313419D01*
X22721580Y-61417948D01*
X22721584Y-61417951D01*
X22844498Y-61500080D01*
X22844511Y-61500087D01*
X22981082Y-61556656D01*
X22981087Y-61556658D01*
X22981091Y-61556658D01*
X22981092Y-61556659D01*
X23126079Y-61585500D01*
X23126082Y-61585500D01*
X23273920Y-61585500D01*
X23371462Y-61566096D01*
X23418913Y-61556658D01*
X23552547Y-61501304D01*
X23622017Y-61493836D01*
X23647452Y-61501304D01*
X23781087Y-61556658D01*
X23781091Y-61556658D01*
X23781092Y-61556659D01*
X23926079Y-61585500D01*
X23926082Y-61585500D01*
X24073920Y-61585500D01*
X24171462Y-61566096D01*
X24218913Y-61556658D01*
X24352547Y-61501304D01*
X24422017Y-61493836D01*
X24447452Y-61501304D01*
X24581087Y-61556658D01*
X24581091Y-61556658D01*
X24581092Y-61556659D01*
X24726079Y-61585500D01*
X24726082Y-61585500D01*
X24873920Y-61585500D01*
X24971462Y-61566096D01*
X25018913Y-61556658D01*
X25152547Y-61501304D01*
X25222017Y-61493836D01*
X25247452Y-61501304D01*
X25381087Y-61556658D01*
X25381091Y-61556658D01*
X25381092Y-61556659D01*
X25526079Y-61585500D01*
X25526082Y-61585500D01*
X25673920Y-61585500D01*
X25771462Y-61566096D01*
X25818913Y-61556658D01*
X25952547Y-61501304D01*
X26022017Y-61493836D01*
X26047452Y-61501304D01*
X26181087Y-61556658D01*
X26181091Y-61556658D01*
X26181092Y-61556659D01*
X26326079Y-61585500D01*
X26326082Y-61585500D01*
X26473920Y-61585500D01*
X26571462Y-61566096D01*
X26618913Y-61556658D01*
X26755495Y-61500084D01*
X26878416Y-61417951D01*
X26982951Y-61313416D01*
X27065084Y-61190495D01*
X27121658Y-61053913D01*
X27150500Y-60908918D01*
X27150500Y-60761082D01*
X27150500Y-60761079D01*
X27121659Y-60616092D01*
X27121658Y-60616091D01*
X27121658Y-60616087D01*
X27087014Y-60532450D01*
X27079546Y-60462984D01*
X27087015Y-60437548D01*
X27121658Y-60353913D01*
X27150500Y-60208918D01*
X27150500Y-60061082D01*
X27150500Y-60061079D01*
X27121659Y-59916092D01*
X27121658Y-59916091D01*
X27121658Y-59916087D01*
X27087014Y-59832450D01*
X27079546Y-59762984D01*
X27087015Y-59737548D01*
X27121658Y-59653913D01*
X27150500Y-59508918D01*
X27150500Y-59361082D01*
X27150500Y-59361079D01*
X27122282Y-59219226D01*
X27121658Y-59216087D01*
X27109128Y-59185837D01*
X30129500Y-59185837D01*
X30129500Y-60414162D01*
X30165215Y-60639660D01*
X30235770Y-60856803D01*
X30331626Y-61044930D01*
X30339421Y-61060228D01*
X30473621Y-61244937D01*
X30635063Y-61406379D01*
X30819772Y-61540579D01*
X30907935Y-61585500D01*
X31023196Y-61644229D01*
X31023198Y-61644229D01*
X31023201Y-61644231D01*
X31139592Y-61682049D01*
X31240339Y-61714784D01*
X31465838Y-61750500D01*
X31465843Y-61750500D01*
X31694162Y-61750500D01*
X31919660Y-61714784D01*
X32136799Y-61644231D01*
X32340228Y-61540579D01*
X32524937Y-61406379D01*
X32686379Y-61244937D01*
X32749682Y-61157807D01*
X32805012Y-61115143D01*
X32874626Y-61109164D01*
X32936421Y-61141770D01*
X32950315Y-61157804D01*
X33013621Y-61244937D01*
X33175063Y-61406379D01*
X33359772Y-61540579D01*
X33447935Y-61585500D01*
X33563196Y-61644229D01*
X33563198Y-61644229D01*
X33563201Y-61644231D01*
X33679592Y-61682049D01*
X33780339Y-61714784D01*
X34005838Y-61750500D01*
X34005843Y-61750500D01*
X34234162Y-61750500D01*
X34459660Y-61714784D01*
X34676799Y-61644231D01*
X34880228Y-61540579D01*
X35064937Y-61406379D01*
X35081243Y-61390073D01*
X35142565Y-61356586D01*
X35212257Y-61361569D01*
X35268191Y-61403439D01*
X35273919Y-61411779D01*
X35330575Y-61501946D01*
X35458051Y-61629422D01*
X35610698Y-61725336D01*
X35780858Y-61784877D01*
X35915069Y-61799999D01*
X35915070Y-61800000D01*
X36410000Y-61800000D01*
X36410000Y-60115686D01*
X36414394Y-60120080D01*
X36505606Y-60172741D01*
X36607339Y-60200000D01*
X36712661Y-60200000D01*
X36814394Y-60172741D01*
X36905606Y-60120080D01*
X36910000Y-60115686D01*
X36910000Y-61800000D01*
X37404930Y-61800000D01*
X37404930Y-61799999D01*
X37539141Y-61784877D01*
X37709301Y-61725336D01*
X37864028Y-61628115D01*
X37931264Y-61609115D01*
X37995972Y-61628115D01*
X38150698Y-61725336D01*
X38320858Y-61784877D01*
X38455069Y-61799999D01*
X38455070Y-61800000D01*
X38950000Y-61800000D01*
X38950000Y-60115686D01*
X38954394Y-60120080D01*
X39045606Y-60172741D01*
X39147339Y-60200000D01*
X39252661Y-60200000D01*
X39354394Y-60172741D01*
X39445606Y-60120080D01*
X39450000Y-60115686D01*
X39450000Y-61800000D01*
X39944930Y-61800000D01*
X39944930Y-61799999D01*
X40079141Y-61784877D01*
X40249301Y-61725336D01*
X40401948Y-61629422D01*
X40529422Y-61501948D01*
X40625336Y-61349301D01*
X40684877Y-61179141D01*
X40699999Y-61044930D01*
X40700000Y-61044930D01*
X40700000Y-60050000D01*
X39515686Y-60050000D01*
X39520080Y-60045606D01*
X39572741Y-59954394D01*
X39600000Y-59852661D01*
X39600000Y-59747339D01*
X39572741Y-59645606D01*
X39520080Y-59554394D01*
X39515686Y-59550000D01*
X40700000Y-59550000D01*
X40700000Y-58555070D01*
X40699999Y-58555069D01*
X40684877Y-58420858D01*
X40625336Y-58250698D01*
X40529422Y-58098051D01*
X40401948Y-57970577D01*
X40249301Y-57874663D01*
X40079141Y-57815122D01*
X39944930Y-57800000D01*
X39450000Y-57800000D01*
X39450000Y-59484314D01*
X39445606Y-59479920D01*
X39354394Y-59427259D01*
X39252661Y-59400000D01*
X39147339Y-59400000D01*
X39045606Y-59427259D01*
X38954394Y-59479920D01*
X38950000Y-59484314D01*
X38950000Y-57800000D01*
X38455070Y-57800000D01*
X38320858Y-57815122D01*
X38150698Y-57874663D01*
X37995972Y-57971884D01*
X37928735Y-57990884D01*
X37864028Y-57971884D01*
X37709301Y-57874663D01*
X37539141Y-57815122D01*
X37404930Y-57800000D01*
X36910000Y-57800000D01*
X36910000Y-59484314D01*
X36905606Y-59479920D01*
X36814394Y-59427259D01*
X36712661Y-59400000D01*
X36607339Y-59400000D01*
X36505606Y-59427259D01*
X36414394Y-59479920D01*
X36410000Y-59484314D01*
X36410000Y-57800000D01*
X35915070Y-57800000D01*
X35780858Y-57815122D01*
X35610698Y-57874663D01*
X35458051Y-57970577D01*
X35330575Y-58098053D01*
X35273919Y-58188221D01*
X35221584Y-58234511D01*
X35152531Y-58245159D01*
X35088683Y-58216784D01*
X35081245Y-58209929D01*
X35064938Y-58193622D01*
X35057504Y-58188221D01*
X34880228Y-58059421D01*
X34676803Y-57955770D01*
X34459660Y-57885215D01*
X34234162Y-57849500D01*
X34234157Y-57849500D01*
X34005843Y-57849500D01*
X34005838Y-57849500D01*
X33780339Y-57885215D01*
X33563196Y-57955770D01*
X33359771Y-58059421D01*
X33175061Y-58193622D01*
X33013623Y-58355060D01*
X33013616Y-58355069D01*
X32950317Y-58442191D01*
X32894987Y-58484857D01*
X32825373Y-58490835D01*
X32763579Y-58458228D01*
X32749683Y-58442191D01*
X32686383Y-58355069D01*
X32686379Y-58355063D01*
X32524937Y-58193621D01*
X32340228Y-58059421D01*
X32136803Y-57955770D01*
X31919660Y-57885215D01*
X31694162Y-57849500D01*
X31694157Y-57849500D01*
X31465843Y-57849500D01*
X31465838Y-57849500D01*
X31240339Y-57885215D01*
X31023196Y-57955770D01*
X30819771Y-58059421D01*
X30635061Y-58193622D01*
X30473622Y-58355061D01*
X30339421Y-58539771D01*
X30235770Y-58743196D01*
X30165215Y-58960339D01*
X30129500Y-59185837D01*
X27109128Y-59185837D01*
X27086836Y-59132020D01*
X27086703Y-59131692D01*
X27083242Y-59097365D01*
X27079546Y-59062984D01*
X27079717Y-59062399D01*
X27079695Y-59062175D01*
X27079904Y-59061763D01*
X27087015Y-59037548D01*
X27121658Y-58953913D01*
X27150500Y-58808918D01*
X27150500Y-58661082D01*
X27150500Y-58661079D01*
X27121659Y-58516092D01*
X27121658Y-58516091D01*
X27121658Y-58516087D01*
X27097692Y-58458228D01*
X27065087Y-58379511D01*
X27065080Y-58379498D01*
X26982951Y-58256584D01*
X26982948Y-58256580D01*
X26878419Y-58152051D01*
X26878415Y-58152048D01*
X26755501Y-58069919D01*
X26755488Y-58069912D01*
X26618917Y-58013343D01*
X26618907Y-58013340D01*
X26473920Y-57984500D01*
X26473918Y-57984500D01*
X26326082Y-57984500D01*
X26326080Y-57984500D01*
X26181092Y-58013340D01*
X26181082Y-58013343D01*
X26047452Y-58068694D01*
X25977982Y-58076163D01*
X25952548Y-58068694D01*
X25818917Y-58013343D01*
X25818907Y-58013340D01*
X25673920Y-57984500D01*
X25673918Y-57984500D01*
X25526082Y-57984500D01*
X25526080Y-57984500D01*
X25381092Y-58013340D01*
X25381082Y-58013343D01*
X25247452Y-58068694D01*
X25177982Y-58076163D01*
X25152548Y-58068694D01*
X25018917Y-58013343D01*
X25018907Y-58013340D01*
X24873920Y-57984500D01*
X24873918Y-57984500D01*
X24726082Y-57984500D01*
X24726080Y-57984500D01*
X24581092Y-58013340D01*
X24581082Y-58013343D01*
X24447452Y-58068694D01*
X24377982Y-58076163D01*
X24352548Y-58068694D01*
X24218917Y-58013343D01*
X24218907Y-58013340D01*
X24073920Y-57984500D01*
X24073918Y-57984500D01*
X23926082Y-57984500D01*
X23926080Y-57984500D01*
X23781092Y-58013340D01*
X23781082Y-58013343D01*
X23647452Y-58068694D01*
X23577982Y-58076163D01*
X23552548Y-58068694D01*
X23418917Y-58013343D01*
X23418907Y-58013340D01*
X23273920Y-57984500D01*
X23273918Y-57984500D01*
X23126082Y-57984500D01*
X23126080Y-57984500D01*
X22981092Y-58013340D01*
X22981082Y-58013343D01*
X22844511Y-58069912D01*
X22844498Y-58069919D01*
X22721584Y-58152048D01*
X22721580Y-58152051D01*
X22617051Y-58256580D01*
X22617048Y-58256584D01*
X22534919Y-58379498D01*
X22534912Y-58379511D01*
X22478343Y-58516082D01*
X22478340Y-58516092D01*
X22449500Y-58661079D01*
X22449500Y-58661082D01*
X22449500Y-58808918D01*
X22449500Y-58808920D01*
X22449499Y-58808920D01*
X12500500Y-58808920D01*
X12500500Y-52708920D01*
X20449499Y-52708920D01*
X20478340Y-52853906D01*
X20478342Y-52853914D01*
X20512984Y-52937548D01*
X20520453Y-53007018D01*
X20512984Y-53032452D01*
X20478342Y-53116085D01*
X20478340Y-53116093D01*
X20449500Y-53261079D01*
X20449500Y-53261082D01*
X20449500Y-53408918D01*
X20449500Y-53408920D01*
X20449499Y-53408920D01*
X20478340Y-53553907D01*
X20478343Y-53553917D01*
X20534912Y-53690488D01*
X20534919Y-53690501D01*
X20617048Y-53813415D01*
X20617051Y-53813419D01*
X20721580Y-53917948D01*
X20721584Y-53917951D01*
X20844498Y-54000080D01*
X20844511Y-54000087D01*
X20981082Y-54056656D01*
X20981087Y-54056658D01*
X20981091Y-54056658D01*
X20981092Y-54056659D01*
X21126079Y-54085500D01*
X21126082Y-54085500D01*
X21273920Y-54085500D01*
X21371462Y-54066096D01*
X21418913Y-54056658D01*
X21502549Y-54022014D01*
X21572016Y-54014546D01*
X21597447Y-54022013D01*
X21681087Y-54056658D01*
X21681091Y-54056658D01*
X21681092Y-54056659D01*
X21826079Y-54085500D01*
X21826082Y-54085500D01*
X21973920Y-54085500D01*
X22071462Y-54066096D01*
X22118913Y-54056658D01*
X22252547Y-54001304D01*
X22322017Y-53993836D01*
X22347452Y-54001304D01*
X22481087Y-54056658D01*
X22481091Y-54056658D01*
X22481092Y-54056659D01*
X22626079Y-54085500D01*
X22626082Y-54085500D01*
X22773920Y-54085500D01*
X22871462Y-54066096D01*
X22918913Y-54056658D01*
X23052547Y-54001304D01*
X23122017Y-53993836D01*
X23147452Y-54001304D01*
X23281087Y-54056658D01*
X23281091Y-54056658D01*
X23281092Y-54056659D01*
X23426079Y-54085500D01*
X23426082Y-54085500D01*
X23573920Y-54085500D01*
X23671462Y-54066096D01*
X23718913Y-54056658D01*
X23852547Y-54001304D01*
X23922017Y-53993836D01*
X23947452Y-54001304D01*
X24081087Y-54056658D01*
X24081091Y-54056658D01*
X24081092Y-54056659D01*
X24226079Y-54085500D01*
X24226082Y-54085500D01*
X24373920Y-54085500D01*
X24471462Y-54066096D01*
X24518913Y-54056658D01*
X24655495Y-54000084D01*
X24778416Y-53917951D01*
X24882951Y-53813416D01*
X24965084Y-53690495D01*
X24971021Y-53676163D01*
X24997042Y-53613342D01*
X25021658Y-53553913D01*
X25042528Y-53448996D01*
X25050500Y-53408920D01*
X25050500Y-53261079D01*
X25021659Y-53116092D01*
X25021658Y-53116091D01*
X25021658Y-53116087D01*
X25021656Y-53116082D01*
X24979767Y-53014952D01*
X24976486Y-52984438D01*
X24971039Y-52954245D01*
X24972587Y-52948177D01*
X24972298Y-52945483D01*
X24979767Y-52920047D01*
X24994177Y-52885258D01*
X26249500Y-52885258D01*
X26249500Y-53114741D01*
X26266880Y-53246748D01*
X26279452Y-53342238D01*
X26324942Y-53512011D01*
X26338842Y-53563887D01*
X26426650Y-53775876D01*
X26426657Y-53775890D01*
X26541392Y-53974617D01*
X26681081Y-54156661D01*
X26681089Y-54156670D01*
X26843330Y-54318911D01*
X26843338Y-54318918D01*
X27025382Y-54458607D01*
X27025385Y-54458608D01*
X27025388Y-54458611D01*
X27224112Y-54573344D01*
X27224117Y-54573346D01*
X27224123Y-54573349D01*
X27315480Y-54611190D01*
X27436113Y-54661158D01*
X27657762Y-54720548D01*
X27885266Y-54750500D01*
X27885273Y-54750500D01*
X28114727Y-54750500D01*
X28114734Y-54750500D01*
X28342238Y-54720548D01*
X28563887Y-54661158D01*
X28775888Y-54573344D01*
X28974612Y-54458611D01*
X29156661Y-54318919D01*
X29156665Y-54318914D01*
X29156670Y-54318911D01*
X29318911Y-54156670D01*
X29318914Y-54156665D01*
X29318919Y-54156661D01*
X29458611Y-53974612D01*
X29573344Y-53775888D01*
X29661158Y-53563887D01*
X29720548Y-53342238D01*
X29750500Y-53114734D01*
X29750500Y-52885266D01*
X29720548Y-52657762D01*
X29661158Y-52436113D01*
X29635616Y-52374448D01*
X32624500Y-52374448D01*
X32624500Y-52555551D01*
X32652829Y-52734410D01*
X32708787Y-52906636D01*
X32708788Y-52906639D01*
X32791006Y-53067997D01*
X32897441Y-53214494D01*
X32897445Y-53214499D01*
X33025500Y-53342554D01*
X33025505Y-53342558D01*
X33116843Y-53408918D01*
X33172006Y-53448996D01*
X33255089Y-53491329D01*
X33333360Y-53531211D01*
X33333363Y-53531212D01*
X33403213Y-53553907D01*
X33505591Y-53587171D01*
X33588429Y-53600291D01*
X33684449Y-53615500D01*
X33684454Y-53615500D01*
X33865551Y-53615500D01*
X33952259Y-53601765D01*
X34044409Y-53587171D01*
X34216639Y-53531211D01*
X34377994Y-53448996D01*
X34524501Y-53342553D01*
X34652553Y-53214501D01*
X34674681Y-53184043D01*
X34730011Y-53141378D01*
X34799624Y-53135399D01*
X34861420Y-53168004D01*
X34875319Y-53184044D01*
X34897447Y-53214501D01*
X35025500Y-53342554D01*
X35025505Y-53342558D01*
X35116843Y-53408918D01*
X35172006Y-53448996D01*
X35255089Y-53491329D01*
X35333360Y-53531211D01*
X35333363Y-53531212D01*
X35403213Y-53553907D01*
X35505591Y-53587171D01*
X35588429Y-53600291D01*
X35684449Y-53615500D01*
X35684454Y-53615500D01*
X35865551Y-53615500D01*
X35952259Y-53601765D01*
X36044409Y-53587171D01*
X36216639Y-53531211D01*
X36377994Y-53448996D01*
X36524501Y-53342553D01*
X36652553Y-53214501D01*
X36652553Y-53214500D01*
X36655998Y-53211056D01*
X36657649Y-53212707D01*
X36708018Y-53179735D01*
X36777886Y-53179146D01*
X36836980Y-53216423D01*
X36844274Y-53225528D01*
X36859691Y-53246748D01*
X36993253Y-53380310D01*
X36993258Y-53380314D01*
X37146059Y-53491329D01*
X37314362Y-53577085D01*
X37493997Y-53635451D01*
X37525000Y-53640362D01*
X37525000Y-52791202D01*
X37617711Y-52844729D01*
X37721352Y-52872500D01*
X37828648Y-52872500D01*
X37932289Y-52844729D01*
X38025000Y-52791202D01*
X38025000Y-53640361D01*
X38056002Y-53635451D01*
X38235637Y-53577085D01*
X38403940Y-53491329D01*
X38533502Y-53397198D01*
X38599308Y-53373718D01*
X38667362Y-53389543D01*
X38706157Y-53423883D01*
X38752848Y-53487148D01*
X38752849Y-53487148D01*
X38752850Y-53487150D01*
X38862118Y-53567793D01*
X38888673Y-53577085D01*
X38990299Y-53612646D01*
X39020730Y-53615500D01*
X40258770Y-53615500D01*
X40325809Y-53635185D01*
X40371564Y-53687989D01*
X40381508Y-53757147D01*
X40352483Y-53820703D01*
X40346451Y-53827181D01*
X40317051Y-53856580D01*
X40317048Y-53856584D01*
X40234919Y-53979498D01*
X40234912Y-53979511D01*
X40178343Y-54116082D01*
X40178340Y-54116092D01*
X40149500Y-54261079D01*
X40149500Y-54261082D01*
X40149500Y-54408918D01*
X40149500Y-54408920D01*
X40149499Y-54408920D01*
X40178340Y-54553907D01*
X40178343Y-54553917D01*
X40233694Y-54687548D01*
X40241163Y-54757018D01*
X40233694Y-54782452D01*
X40178343Y-54916082D01*
X40178340Y-54916092D01*
X40149500Y-55061079D01*
X40149500Y-55061082D01*
X40149500Y-55208918D01*
X40149500Y-55208920D01*
X40149499Y-55208920D01*
X40178340Y-55353907D01*
X40178343Y-55353917D01*
X40233694Y-55487548D01*
X40241163Y-55557018D01*
X40233694Y-55582452D01*
X40178343Y-55716082D01*
X40178340Y-55716092D01*
X40149500Y-55861079D01*
X40149500Y-55861082D01*
X40149500Y-56008918D01*
X40149500Y-56008920D01*
X40149499Y-56008920D01*
X40178340Y-56153907D01*
X40178342Y-56153913D01*
X40232884Y-56285589D01*
X40240353Y-56355059D01*
X40232884Y-56380495D01*
X40178342Y-56512170D01*
X40178340Y-56512176D01*
X40149500Y-56657163D01*
X40149500Y-56657166D01*
X40149500Y-56805002D01*
X40149500Y-56805004D01*
X40149499Y-56805004D01*
X40178340Y-56949991D01*
X40178343Y-56950001D01*
X40234912Y-57086572D01*
X40234919Y-57086585D01*
X40317048Y-57209499D01*
X40317051Y-57209503D01*
X40421580Y-57314032D01*
X40421584Y-57314035D01*
X40544498Y-57396164D01*
X40544511Y-57396171D01*
X40681082Y-57452740D01*
X40681087Y-57452742D01*
X40681091Y-57452742D01*
X40681092Y-57452743D01*
X40826079Y-57481584D01*
X40826082Y-57481584D01*
X40973920Y-57481584D01*
X41071462Y-57462180D01*
X41118913Y-57452742D01*
X41252547Y-57397388D01*
X41322017Y-57389920D01*
X41347452Y-57397388D01*
X41481087Y-57452742D01*
X41481091Y-57452742D01*
X41481092Y-57452743D01*
X41626079Y-57481584D01*
X41626082Y-57481584D01*
X41773920Y-57481584D01*
X41871462Y-57462180D01*
X41918913Y-57452742D01*
X42055495Y-57396168D01*
X42178416Y-57314035D01*
X42282951Y-57209500D01*
X42365084Y-57086579D01*
X42421658Y-56949997D01*
X42450500Y-56805002D01*
X42450500Y-56657166D01*
X42450500Y-56657163D01*
X42421659Y-56512176D01*
X42421658Y-56512175D01*
X42421658Y-56512171D01*
X42367115Y-56380494D01*
X42359647Y-56311025D01*
X42367116Y-56285589D01*
X42421658Y-56153913D01*
X42450500Y-56008918D01*
X42450500Y-55861082D01*
X42450500Y-55861079D01*
X42421659Y-55716092D01*
X42421658Y-55716091D01*
X42421658Y-55716087D01*
X42366304Y-55582452D01*
X42358836Y-55512983D01*
X42366305Y-55487547D01*
X42421658Y-55353913D01*
X42450500Y-55208918D01*
X42450500Y-55061082D01*
X42450500Y-55061079D01*
X42421659Y-54916092D01*
X42421658Y-54916091D01*
X42421658Y-54916087D01*
X42366304Y-54782452D01*
X42358836Y-54712983D01*
X42366305Y-54687547D01*
X42421658Y-54553913D01*
X42450500Y-54408918D01*
X42450500Y-54261082D01*
X42450500Y-54261079D01*
X42421659Y-54116092D01*
X42421658Y-54116091D01*
X42421658Y-54116087D01*
X42421656Y-54116082D01*
X42365087Y-53979511D01*
X42365080Y-53979498D01*
X42282951Y-53856584D01*
X42282948Y-53856580D01*
X42178419Y-53752051D01*
X42178415Y-53752048D01*
X42055501Y-53669919D01*
X42055488Y-53669912D01*
X41918917Y-53613343D01*
X41918907Y-53613340D01*
X41773920Y-53584500D01*
X41773918Y-53584500D01*
X41626082Y-53584500D01*
X41626080Y-53584500D01*
X41481092Y-53613340D01*
X41481082Y-53613343D01*
X41347452Y-53668694D01*
X41277982Y-53676163D01*
X41252548Y-53668694D01*
X41118917Y-53613343D01*
X41118907Y-53613340D01*
X40973920Y-53584500D01*
X40973918Y-53584500D01*
X40970932Y-53584500D01*
X40969424Y-53584057D01*
X40967858Y-53583903D01*
X40967887Y-53583605D01*
X40903893Y-53564815D01*
X40858138Y-53512011D01*
X40848194Y-53442853D01*
X40871163Y-53386865D01*
X40877793Y-53377882D01*
X40900219Y-53313790D01*
X40922646Y-53249701D01*
X40922646Y-53249699D01*
X40925500Y-53219269D01*
X40925500Y-51710730D01*
X40922646Y-51680300D01*
X40922646Y-51680298D01*
X40884756Y-51572018D01*
X40877793Y-51552118D01*
X40797150Y-51442850D01*
X40687882Y-51362207D01*
X40687880Y-51362206D01*
X40559700Y-51317353D01*
X40529270Y-51314500D01*
X40529266Y-51314500D01*
X39020734Y-51314500D01*
X39020730Y-51314500D01*
X38990300Y-51317353D01*
X38990298Y-51317353D01*
X38862119Y-51362206D01*
X38862117Y-51362207D01*
X38752850Y-51442850D01*
X38706157Y-51506117D01*
X38650509Y-51548368D01*
X38580853Y-51553826D01*
X38533502Y-51532801D01*
X38403940Y-51438670D01*
X38235635Y-51352913D01*
X38056004Y-51294549D01*
X38055995Y-51294547D01*
X38025000Y-51289637D01*
X38025000Y-52138797D01*
X37932289Y-52085271D01*
X37828648Y-52057500D01*
X37721352Y-52057500D01*
X37617711Y-52085271D01*
X37525000Y-52138797D01*
X37525000Y-51289637D01*
X37524999Y-51289637D01*
X37494004Y-51294547D01*
X37493995Y-51294549D01*
X37314364Y-51352913D01*
X37146059Y-51438670D01*
X36993258Y-51549685D01*
X36993253Y-51549689D01*
X36859689Y-51683253D01*
X36859688Y-51683255D01*
X36844272Y-51704473D01*
X36788942Y-51747138D01*
X36719328Y-51753116D01*
X36657534Y-51720509D01*
X36656033Y-51718908D01*
X36655998Y-51718944D01*
X36524499Y-51587445D01*
X36524494Y-51587441D01*
X36377997Y-51481006D01*
X36377996Y-51481005D01*
X36377994Y-51481004D01*
X36303113Y-51442850D01*
X36216639Y-51398788D01*
X36216636Y-51398787D01*
X36044410Y-51342829D01*
X35865551Y-51314500D01*
X35865546Y-51314500D01*
X35684454Y-51314500D01*
X35684449Y-51314500D01*
X35505589Y-51342829D01*
X35333363Y-51398787D01*
X35333360Y-51398788D01*
X35172002Y-51481006D01*
X35025505Y-51587441D01*
X35025500Y-51587445D01*
X34897445Y-51715500D01*
X34875318Y-51745956D01*
X34819987Y-51788621D01*
X34750374Y-51794600D01*
X34688579Y-51761994D01*
X34674682Y-51745956D01*
X34652554Y-51715500D01*
X34524499Y-51587445D01*
X34524494Y-51587441D01*
X34377997Y-51481006D01*
X34377996Y-51481005D01*
X34377994Y-51481004D01*
X34303113Y-51442850D01*
X34216639Y-51398788D01*
X34216636Y-51398787D01*
X34044410Y-51342829D01*
X33865551Y-51314500D01*
X33865546Y-51314500D01*
X33684454Y-51314500D01*
X33684449Y-51314500D01*
X33505589Y-51342829D01*
X33333363Y-51398787D01*
X33333360Y-51398788D01*
X33172002Y-51481006D01*
X33025505Y-51587441D01*
X33025500Y-51587445D01*
X32897445Y-51715500D01*
X32897441Y-51715505D01*
X32791006Y-51862002D01*
X32708788Y-52023360D01*
X32708787Y-52023363D01*
X32652829Y-52195589D01*
X32624500Y-52374448D01*
X29635616Y-52374448D01*
X29596286Y-52279498D01*
X29573349Y-52224123D01*
X29573346Y-52224117D01*
X29573344Y-52224112D01*
X29458611Y-52025388D01*
X29458608Y-52025385D01*
X29458607Y-52025382D01*
X29318918Y-51843338D01*
X29318911Y-51843330D01*
X29156670Y-51681089D01*
X29156661Y-51681081D01*
X28974617Y-51541392D01*
X28775890Y-51426657D01*
X28775876Y-51426650D01*
X28563887Y-51338842D01*
X28342238Y-51279452D01*
X28300204Y-51273918D01*
X28114741Y-51249500D01*
X28114734Y-51249500D01*
X27885266Y-51249500D01*
X27885258Y-51249500D01*
X27668715Y-51278009D01*
X27657762Y-51279452D01*
X27619751Y-51289637D01*
X27436112Y-51338842D01*
X27224123Y-51426650D01*
X27224109Y-51426657D01*
X27025382Y-51541392D01*
X26843338Y-51681081D01*
X26681081Y-51843338D01*
X26541392Y-52025382D01*
X26426657Y-52224109D01*
X26426650Y-52224123D01*
X26338842Y-52436112D01*
X26279453Y-52657759D01*
X26279451Y-52657770D01*
X26249500Y-52885258D01*
X24994177Y-52885258D01*
X25015511Y-52833754D01*
X25015511Y-52833753D01*
X25021656Y-52818917D01*
X25021658Y-52818913D01*
X25050500Y-52673918D01*
X25050500Y-52526082D01*
X25050500Y-52526079D01*
X25021659Y-52381092D01*
X25021658Y-52381091D01*
X25021658Y-52381087D01*
X24987014Y-52297450D01*
X24979546Y-52227984D01*
X24987013Y-52202552D01*
X25021658Y-52118913D01*
X25050500Y-51973918D01*
X25050500Y-51826082D01*
X25050500Y-51826079D01*
X25021659Y-51681092D01*
X25021658Y-51681089D01*
X25021658Y-51681087D01*
X24987014Y-51597450D01*
X24979546Y-51527984D01*
X24987015Y-51502548D01*
X25021658Y-51418913D01*
X25034787Y-51352913D01*
X25050500Y-51273920D01*
X25050500Y-51126079D01*
X25021659Y-50981092D01*
X25021658Y-50981091D01*
X25021658Y-50981087D01*
X25009916Y-50952740D01*
X24965087Y-50844511D01*
X24965080Y-50844498D01*
X24882951Y-50721584D01*
X24882948Y-50721580D01*
X24778419Y-50617051D01*
X24778415Y-50617048D01*
X24655501Y-50534919D01*
X24655488Y-50534912D01*
X24518917Y-50478343D01*
X24518907Y-50478340D01*
X24373920Y-50449500D01*
X24373918Y-50449500D01*
X24226082Y-50449500D01*
X24226080Y-50449500D01*
X24081092Y-50478340D01*
X24081082Y-50478343D01*
X23947452Y-50533694D01*
X23877982Y-50541163D01*
X23852548Y-50533694D01*
X23718917Y-50478343D01*
X23718907Y-50478340D01*
X23573920Y-50449500D01*
X23573918Y-50449500D01*
X23426082Y-50449500D01*
X23426080Y-50449500D01*
X23281092Y-50478340D01*
X23281082Y-50478343D01*
X23147452Y-50533694D01*
X23077982Y-50541163D01*
X23052548Y-50533694D01*
X22918917Y-50478343D01*
X22918907Y-50478340D01*
X22773920Y-50449500D01*
X22773918Y-50449500D01*
X22626082Y-50449500D01*
X22626080Y-50449500D01*
X22481092Y-50478340D01*
X22481082Y-50478343D01*
X22347452Y-50533694D01*
X22277982Y-50541163D01*
X22252548Y-50533694D01*
X22118917Y-50478343D01*
X22118907Y-50478340D01*
X21973920Y-50449500D01*
X21973918Y-50449500D01*
X21826082Y-50449500D01*
X21826080Y-50449500D01*
X21681092Y-50478340D01*
X21681082Y-50478343D01*
X21544511Y-50534912D01*
X21544498Y-50534919D01*
X21421584Y-50617048D01*
X21421580Y-50617051D01*
X21317051Y-50721580D01*
X21317048Y-50721584D01*
X21234919Y-50844498D01*
X21234912Y-50844511D01*
X21178343Y-50981082D01*
X21178340Y-50981092D01*
X21149500Y-51126079D01*
X21149500Y-51126082D01*
X21149500Y-51273918D01*
X21149500Y-51273920D01*
X21149499Y-51273920D01*
X21178340Y-51418906D01*
X21178342Y-51418914D01*
X21212984Y-51502548D01*
X21220453Y-51572018D01*
X21212984Y-51597452D01*
X21178342Y-51681085D01*
X21178340Y-51681093D01*
X21154529Y-51800795D01*
X21122143Y-51862706D01*
X21061427Y-51897280D01*
X21057105Y-51898220D01*
X20981091Y-51913341D01*
X20981082Y-51913343D01*
X20844511Y-51969912D01*
X20844498Y-51969919D01*
X20721584Y-52052048D01*
X20721580Y-52052051D01*
X20617051Y-52156580D01*
X20617048Y-52156584D01*
X20534919Y-52279498D01*
X20534912Y-52279511D01*
X20478343Y-52416082D01*
X20478340Y-52416092D01*
X20449500Y-52561079D01*
X20449500Y-52561082D01*
X20449500Y-52708918D01*
X20449500Y-52708920D01*
X20449499Y-52708920D01*
X12500500Y-52708920D01*
X12500500Y-47412155D01*
X14850000Y-47412155D01*
X14850000Y-48060000D01*
X15709252Y-48060000D01*
X15687482Y-48097708D01*
X15650000Y-48237591D01*
X15650000Y-48382409D01*
X15687482Y-48522292D01*
X15709252Y-48560000D01*
X14850000Y-48560000D01*
X14850000Y-49207844D01*
X14856401Y-49267372D01*
X14856403Y-49267379D01*
X14906645Y-49402086D01*
X14906649Y-49402093D01*
X14992809Y-49517187D01*
X14992812Y-49517190D01*
X15107906Y-49603350D01*
X15107913Y-49603354D01*
X15242620Y-49653596D01*
X15242627Y-49653598D01*
X15302155Y-49659999D01*
X15302172Y-49660000D01*
X15950000Y-49660000D01*
X15950000Y-48800747D01*
X15987708Y-48822518D01*
X16127591Y-48860000D01*
X16272409Y-48860000D01*
X16412292Y-48822518D01*
X16450000Y-48800747D01*
X16450000Y-49660000D01*
X17097828Y-49660000D01*
X17097844Y-49659999D01*
X17157372Y-49653598D01*
X17157379Y-49653596D01*
X17292086Y-49603354D01*
X17292093Y-49603350D01*
X17407187Y-49517190D01*
X17407190Y-49517187D01*
X17493350Y-49402093D01*
X17493354Y-49402086D01*
X17543596Y-49267379D01*
X17543598Y-49267372D01*
X17549999Y-49207844D01*
X17550000Y-49207827D01*
X17550000Y-48560000D01*
X16690748Y-48560000D01*
X16712518Y-48522292D01*
X16750000Y-48382409D01*
X16750000Y-48237591D01*
X16712518Y-48097708D01*
X16690748Y-48060000D01*
X17550000Y-48060000D01*
X17550000Y-47412172D01*
X17549999Y-47412155D01*
X17543598Y-47352627D01*
X17543596Y-47352620D01*
X17493354Y-47217913D01*
X17493350Y-47217906D01*
X17407190Y-47102812D01*
X17407187Y-47102809D01*
X17292093Y-47016649D01*
X17292086Y-47016645D01*
X17157379Y-46966403D01*
X17157373Y-46966401D01*
X17131011Y-46963567D01*
X17066460Y-46936828D01*
X17026613Y-46879435D01*
X17024120Y-46809610D01*
X17056584Y-46752600D01*
X17191966Y-46617219D01*
X17312287Y-46451610D01*
X17405220Y-46269219D01*
X17468477Y-46074534D01*
X17487926Y-45951737D01*
X17517855Y-45888603D01*
X17577167Y-45851672D01*
X17647029Y-45852670D01*
X17705262Y-45891280D01*
X17713503Y-45902248D01*
X17720965Y-45913417D01*
X17825496Y-46017948D01*
X17825500Y-46017951D01*
X17948414Y-46100080D01*
X17948427Y-46100087D01*
X18084998Y-46156656D01*
X18085003Y-46156658D01*
X18085007Y-46156658D01*
X18085008Y-46156659D01*
X18229995Y-46185500D01*
X18229998Y-46185500D01*
X18377836Y-46185500D01*
X18475378Y-46166096D01*
X18522829Y-46156658D01*
X18656463Y-46101304D01*
X18725933Y-46093836D01*
X18751368Y-46101304D01*
X18885003Y-46156658D01*
X18885007Y-46156658D01*
X18885008Y-46156659D01*
X19029995Y-46185500D01*
X19029998Y-46185500D01*
X19177836Y-46185500D01*
X19275378Y-46166096D01*
X19322829Y-46156658D01*
X19456463Y-46101304D01*
X19525933Y-46093836D01*
X19551368Y-46101304D01*
X19685003Y-46156658D01*
X19685007Y-46156658D01*
X19685008Y-46156659D01*
X19829995Y-46185500D01*
X19829998Y-46185500D01*
X19977836Y-46185500D01*
X20075378Y-46166096D01*
X20122829Y-46156658D01*
X20254505Y-46102115D01*
X20323975Y-46094647D01*
X20349409Y-46102115D01*
X20481087Y-46156658D01*
X20481091Y-46156658D01*
X20481092Y-46156659D01*
X20626079Y-46185500D01*
X20626082Y-46185500D01*
X20773920Y-46185500D01*
X20814135Y-46177500D01*
X23057138Y-46177500D01*
X23857222Y-46177500D01*
X23813167Y-46253806D01*
X23782500Y-46368256D01*
X23782500Y-46486744D01*
X23813167Y-46601194D01*
X23857222Y-46677500D01*
X23057138Y-46677500D01*
X23062048Y-46708502D01*
X23120414Y-46888137D01*
X23206170Y-47056440D01*
X23300301Y-47186002D01*
X23323781Y-47251808D01*
X23307955Y-47319862D01*
X23273617Y-47358657D01*
X23210350Y-47405350D01*
X23129707Y-47514617D01*
X23129706Y-47514619D01*
X23084853Y-47642798D01*
X23084853Y-47642800D01*
X23082000Y-47673230D01*
X23082000Y-49181769D01*
X23084853Y-49212199D01*
X23084853Y-49212201D01*
X23129706Y-49340380D01*
X23129707Y-49340382D01*
X23210350Y-49449650D01*
X23319618Y-49530293D01*
X23362345Y-49545244D01*
X23447799Y-49575146D01*
X23478230Y-49578000D01*
X23478234Y-49578000D01*
X24986770Y-49578000D01*
X25017199Y-49575146D01*
X25017201Y-49575146D01*
X25081290Y-49552719D01*
X25145382Y-49530293D01*
X25254650Y-49449650D01*
X25284710Y-49408920D01*
X26649499Y-49408920D01*
X26678340Y-49553907D01*
X26678343Y-49553917D01*
X26733694Y-49687548D01*
X26741163Y-49757018D01*
X26733694Y-49782452D01*
X26678343Y-49916082D01*
X26678340Y-49916092D01*
X26649500Y-50061079D01*
X26649500Y-50061082D01*
X26649500Y-50208918D01*
X26649500Y-50208920D01*
X26649499Y-50208920D01*
X26678340Y-50353907D01*
X26678343Y-50353917D01*
X26734912Y-50490488D01*
X26734919Y-50490501D01*
X26817048Y-50613415D01*
X26817051Y-50613419D01*
X26921580Y-50717948D01*
X26921584Y-50717951D01*
X27044498Y-50800080D01*
X27044511Y-50800087D01*
X27151730Y-50844498D01*
X27181087Y-50856658D01*
X27181091Y-50856658D01*
X27181092Y-50856659D01*
X27326079Y-50885500D01*
X27326082Y-50885500D01*
X27473920Y-50885500D01*
X27571462Y-50866096D01*
X27618913Y-50856658D01*
X27702549Y-50822014D01*
X27772016Y-50814546D01*
X27797447Y-50822013D01*
X27881087Y-50856658D01*
X27881091Y-50856658D01*
X27881092Y-50856659D01*
X28026079Y-50885500D01*
X28026082Y-50885500D01*
X28173920Y-50885500D01*
X28271462Y-50866096D01*
X28318913Y-50856658D01*
X28402549Y-50822014D01*
X28472016Y-50814546D01*
X28497447Y-50822013D01*
X28581087Y-50856658D01*
X28581091Y-50856658D01*
X28581092Y-50856659D01*
X28726079Y-50885500D01*
X28726082Y-50885500D01*
X28873920Y-50885500D01*
X28971462Y-50866096D01*
X29018913Y-50856658D01*
X29102549Y-50822014D01*
X29172016Y-50814546D01*
X29197447Y-50822013D01*
X29281087Y-50856658D01*
X29281091Y-50856658D01*
X29281092Y-50856659D01*
X29426079Y-50885500D01*
X29426082Y-50885500D01*
X29573920Y-50885500D01*
X29671462Y-50866096D01*
X29718913Y-50856658D01*
X29855495Y-50800084D01*
X29978416Y-50717951D01*
X30082951Y-50613416D01*
X30165084Y-50490495D01*
X30221658Y-50353913D01*
X30250500Y-50208918D01*
X30250500Y-50061082D01*
X30250500Y-50061079D01*
X30221659Y-49916092D01*
X30221658Y-49916091D01*
X30221658Y-49916087D01*
X30166304Y-49782452D01*
X30158836Y-49712983D01*
X30166305Y-49687547D01*
X30177716Y-49659999D01*
X30221658Y-49553913D01*
X30250500Y-49408918D01*
X30250500Y-49261082D01*
X30250500Y-49261079D01*
X30221659Y-49116092D01*
X30221658Y-49116091D01*
X30221658Y-49116087D01*
X30221656Y-49116082D01*
X30165087Y-48979511D01*
X30165080Y-48979498D01*
X30082951Y-48856584D01*
X30082948Y-48856580D01*
X29978419Y-48752051D01*
X29978415Y-48752048D01*
X29855501Y-48669919D01*
X29855488Y-48669912D01*
X29718917Y-48613343D01*
X29718907Y-48613340D01*
X29573920Y-48584500D01*
X29573918Y-48584500D01*
X29426082Y-48584500D01*
X29426080Y-48584500D01*
X29281093Y-48613340D01*
X29281085Y-48613342D01*
X29197452Y-48647984D01*
X29127982Y-48655453D01*
X29102548Y-48647984D01*
X29018914Y-48613342D01*
X29018906Y-48613340D01*
X28873920Y-48584500D01*
X28873918Y-48584500D01*
X28726082Y-48584500D01*
X28726080Y-48584500D01*
X28581093Y-48613340D01*
X28581085Y-48613342D01*
X28497452Y-48647984D01*
X28427982Y-48655453D01*
X28402548Y-48647984D01*
X28318914Y-48613342D01*
X28318906Y-48613340D01*
X28173920Y-48584500D01*
X28173918Y-48584500D01*
X28026082Y-48584500D01*
X28026080Y-48584500D01*
X27881093Y-48613340D01*
X27881085Y-48613342D01*
X27797452Y-48647984D01*
X27727982Y-48655453D01*
X27702548Y-48647984D01*
X27618914Y-48613342D01*
X27618906Y-48613340D01*
X27473920Y-48584500D01*
X27473918Y-48584500D01*
X27326082Y-48584500D01*
X27326080Y-48584500D01*
X27181092Y-48613340D01*
X27181082Y-48613343D01*
X27044511Y-48669912D01*
X27044498Y-48669919D01*
X26921584Y-48752048D01*
X26921580Y-48752051D01*
X26817051Y-48856580D01*
X26817048Y-48856584D01*
X26734919Y-48979498D01*
X26734912Y-48979511D01*
X26678343Y-49116082D01*
X26678340Y-49116092D01*
X26649500Y-49261079D01*
X26649500Y-49261082D01*
X26649500Y-49408918D01*
X26649500Y-49408920D01*
X26649499Y-49408920D01*
X25284710Y-49408920D01*
X25335293Y-49340382D01*
X25378786Y-49216086D01*
X25379504Y-49214035D01*
X25379505Y-49214030D01*
X25380146Y-49212199D01*
X25383000Y-49181766D01*
X25383000Y-47673234D01*
X25380146Y-47642801D01*
X25380146Y-47642800D01*
X25380146Y-47642798D01*
X25335293Y-47514619D01*
X25335292Y-47514617D01*
X25309383Y-47479511D01*
X25254650Y-47405350D01*
X25254648Y-47405349D01*
X25254648Y-47405348D01*
X25191383Y-47358657D01*
X25149132Y-47303010D01*
X25143673Y-47233354D01*
X25164698Y-47186002D01*
X25258829Y-47056440D01*
X25344585Y-46888137D01*
X25402951Y-46708502D01*
X25407862Y-46677500D01*
X24607778Y-46677500D01*
X24651833Y-46601194D01*
X24682500Y-46486744D01*
X24682500Y-46368256D01*
X24651833Y-46253806D01*
X24607778Y-46177500D01*
X25407862Y-46177500D01*
X25402951Y-46146497D01*
X25344587Y-45966868D01*
X25344583Y-45966857D01*
X25258829Y-45798559D01*
X25147814Y-45645758D01*
X25147810Y-45645753D01*
X25014248Y-45512191D01*
X24993028Y-45496774D01*
X24950362Y-45441444D01*
X24944383Y-45371831D01*
X24976988Y-45310035D01*
X24978591Y-45308533D01*
X24978556Y-45308498D01*
X25043244Y-45243810D01*
X25110053Y-45177001D01*
X25216496Y-45030494D01*
X25298711Y-44869139D01*
X25354671Y-44696909D01*
X25369265Y-44604759D01*
X25383000Y-44518051D01*
X25383000Y-44336948D01*
X25366519Y-44232897D01*
X25354671Y-44158091D01*
X25320217Y-44052051D01*
X25298712Y-43985863D01*
X25298711Y-43985860D01*
X25261759Y-43913340D01*
X25216496Y-43824506D01*
X25202896Y-43805787D01*
X25110058Y-43678005D01*
X25110054Y-43678000D01*
X24982001Y-43549947D01*
X24951544Y-43527819D01*
X24908878Y-43472489D01*
X24902899Y-43402876D01*
X24935504Y-43341080D01*
X24951544Y-43327181D01*
X24982001Y-43305053D01*
X25110053Y-43177001D01*
X25216496Y-43030494D01*
X25298711Y-42869139D01*
X25354671Y-42696909D01*
X25369265Y-42604759D01*
X25383000Y-42518051D01*
X25383000Y-42336948D01*
X25363857Y-42216092D01*
X25354671Y-42158091D01*
X25313522Y-42031446D01*
X25298712Y-41985863D01*
X25298711Y-41985860D01*
X25253683Y-41897490D01*
X25216496Y-41824506D01*
X25200351Y-41802284D01*
X25110058Y-41678005D01*
X25110054Y-41678000D01*
X24982001Y-41549947D01*
X24951544Y-41527819D01*
X24908878Y-41472489D01*
X24902899Y-41402876D01*
X24935504Y-41341080D01*
X24951544Y-41327181D01*
X24982001Y-41305053D01*
X25110053Y-41177001D01*
X25216496Y-41030494D01*
X25298711Y-40869139D01*
X25354671Y-40696909D01*
X25370198Y-40598878D01*
X25383000Y-40518051D01*
X25383000Y-40336948D01*
X25366519Y-40232897D01*
X25354671Y-40158091D01*
X25326691Y-40071976D01*
X25298712Y-39985863D01*
X25298709Y-39985855D01*
X25246493Y-39883378D01*
X25246492Y-39883377D01*
X25225807Y-39842781D01*
X25220288Y-39831948D01*
X30494500Y-39831948D01*
X30494500Y-40013051D01*
X30522829Y-40191910D01*
X30578787Y-40364136D01*
X30578788Y-40364139D01*
X30661006Y-40525497D01*
X30767441Y-40671994D01*
X30767445Y-40671999D01*
X30895500Y-40800054D01*
X30895505Y-40800058D01*
X31023287Y-40892896D01*
X31042006Y-40906496D01*
X31125089Y-40948829D01*
X31203360Y-40988711D01*
X31203363Y-40988712D01*
X31289476Y-41016691D01*
X31375591Y-41044671D01*
X31458429Y-41057791D01*
X31554449Y-41073000D01*
X31554454Y-41073000D01*
X31735551Y-41073000D01*
X31822259Y-41059265D01*
X31914409Y-41044671D01*
X32086639Y-40988711D01*
X32247994Y-40906496D01*
X32394501Y-40800053D01*
X32522553Y-40672001D01*
X32544681Y-40641543D01*
X32600011Y-40598878D01*
X32669624Y-40592899D01*
X32731420Y-40625504D01*
X32745319Y-40641544D01*
X32767447Y-40672001D01*
X32895500Y-40800054D01*
X32895505Y-40800058D01*
X33023287Y-40892896D01*
X33042006Y-40906496D01*
X33125089Y-40948829D01*
X33203360Y-40988711D01*
X33203363Y-40988712D01*
X33289476Y-41016691D01*
X33375591Y-41044671D01*
X33458429Y-41057791D01*
X33554449Y-41073000D01*
X33554454Y-41073000D01*
X33735551Y-41073000D01*
X33822259Y-41059265D01*
X33914409Y-41044671D01*
X34086639Y-40988711D01*
X34247994Y-40906496D01*
X34394501Y-40800053D01*
X34522553Y-40672001D01*
X34522553Y-40672000D01*
X34525998Y-40668556D01*
X34527649Y-40670207D01*
X34578018Y-40637235D01*
X34647886Y-40636646D01*
X34706980Y-40673923D01*
X34714274Y-40683028D01*
X34729691Y-40704248D01*
X34863253Y-40837810D01*
X34863258Y-40837814D01*
X35016059Y-40948829D01*
X35184362Y-41034585D01*
X35363997Y-41092951D01*
X35395000Y-41097862D01*
X35395000Y-40297777D01*
X35471306Y-40341833D01*
X35585756Y-40372500D01*
X35704244Y-40372500D01*
X35818694Y-40341833D01*
X35895000Y-40297777D01*
X35895000Y-41097861D01*
X35926002Y-41092951D01*
X36105637Y-41034585D01*
X36273940Y-40948829D01*
X36426741Y-40837814D01*
X36426746Y-40837810D01*
X36557319Y-40707238D01*
X36618642Y-40673753D01*
X36688334Y-40678737D01*
X36732681Y-40707238D01*
X36863253Y-40837810D01*
X36863258Y-40837814D01*
X37016059Y-40948829D01*
X37184362Y-41034585D01*
X37363997Y-41092951D01*
X37395000Y-41097862D01*
X37395000Y-40297777D01*
X37471306Y-40341833D01*
X37585756Y-40372500D01*
X37704244Y-40372500D01*
X37818694Y-40341833D01*
X37895000Y-40297777D01*
X37895000Y-41097861D01*
X37926002Y-41092951D01*
X38105637Y-41034585D01*
X38273940Y-40948829D01*
X38403502Y-40854698D01*
X38469308Y-40831218D01*
X38537362Y-40847043D01*
X38576157Y-40881383D01*
X38622848Y-40944648D01*
X38622849Y-40944648D01*
X38622850Y-40944650D01*
X38732118Y-41025293D01*
X38758673Y-41034585D01*
X38860299Y-41070146D01*
X38890730Y-41073000D01*
X38890734Y-41073000D01*
X40040910Y-41073000D01*
X40107949Y-41092685D01*
X40153704Y-41145489D01*
X40163648Y-41214647D01*
X40144012Y-41265891D01*
X40134919Y-41279498D01*
X40134912Y-41279511D01*
X40078343Y-41416082D01*
X40078340Y-41416092D01*
X40049500Y-41561079D01*
X40049500Y-41561082D01*
X40049500Y-41708918D01*
X40049500Y-41708920D01*
X40049499Y-41708920D01*
X40078340Y-41853907D01*
X40078343Y-41853917D01*
X40133694Y-41987548D01*
X40141163Y-42057018D01*
X40133694Y-42082452D01*
X40078343Y-42216082D01*
X40078340Y-42216092D01*
X40049500Y-42361079D01*
X40049500Y-42361082D01*
X40049500Y-42508918D01*
X40049500Y-42508920D01*
X40049499Y-42508920D01*
X40078340Y-42653907D01*
X40078343Y-42653917D01*
X40133694Y-42787548D01*
X40141163Y-42857018D01*
X40133694Y-42882452D01*
X40078343Y-43016082D01*
X40078340Y-43016092D01*
X40049500Y-43161079D01*
X40049500Y-43161082D01*
X40049500Y-43308918D01*
X40049500Y-43308920D01*
X40049499Y-43308920D01*
X40078340Y-43453907D01*
X40078342Y-43453913D01*
X40132884Y-43585589D01*
X40140353Y-43655059D01*
X40132884Y-43680495D01*
X40078342Y-43812170D01*
X40078340Y-43812176D01*
X40049500Y-43957163D01*
X40049500Y-43957166D01*
X40049500Y-44105002D01*
X40049500Y-44105004D01*
X40049499Y-44105004D01*
X40078340Y-44249991D01*
X40078343Y-44250001D01*
X40134912Y-44386572D01*
X40134919Y-44386585D01*
X40217048Y-44509499D01*
X40217051Y-44509503D01*
X40321580Y-44614032D01*
X40321584Y-44614035D01*
X40352807Y-44634898D01*
X40397612Y-44688510D01*
X40406319Y-44757835D01*
X40376164Y-44820863D01*
X40316721Y-44857582D01*
X40283916Y-44862000D01*
X38890730Y-44862000D01*
X38860300Y-44864853D01*
X38860298Y-44864853D01*
X38732119Y-44909706D01*
X38732117Y-44909707D01*
X38622850Y-44990350D01*
X38576157Y-45053617D01*
X38520509Y-45095868D01*
X38450853Y-45101326D01*
X38403502Y-45080301D01*
X38273940Y-44986170D01*
X38105635Y-44900413D01*
X37926004Y-44842049D01*
X37925995Y-44842047D01*
X37895000Y-44837137D01*
X37895000Y-45637222D01*
X37818694Y-45593167D01*
X37704244Y-45562500D01*
X37585756Y-45562500D01*
X37471306Y-45593167D01*
X37395000Y-45637222D01*
X37395000Y-44837137D01*
X37394999Y-44837137D01*
X37364004Y-44842047D01*
X37363995Y-44842049D01*
X37184364Y-44900413D01*
X37016059Y-44986170D01*
X36863258Y-45097185D01*
X36863253Y-45097189D01*
X36732681Y-45227762D01*
X36671358Y-45261247D01*
X36601666Y-45256263D01*
X36557319Y-45227762D01*
X36426746Y-45097189D01*
X36426741Y-45097185D01*
X36273940Y-44986170D01*
X36105635Y-44900413D01*
X35926004Y-44842049D01*
X35925995Y-44842047D01*
X35895000Y-44837137D01*
X35895000Y-45637222D01*
X35818694Y-45593167D01*
X35704244Y-45562500D01*
X35585756Y-45562500D01*
X35471306Y-45593167D01*
X35395000Y-45637222D01*
X35395000Y-44837137D01*
X35394999Y-44837137D01*
X35364004Y-44842047D01*
X35363995Y-44842049D01*
X35184364Y-44900413D01*
X35016059Y-44986170D01*
X34863258Y-45097185D01*
X34863253Y-45097189D01*
X34729689Y-45230753D01*
X34729688Y-45230755D01*
X34714272Y-45251973D01*
X34658942Y-45294638D01*
X34589328Y-45300616D01*
X34527534Y-45268009D01*
X34526033Y-45266408D01*
X34525998Y-45266444D01*
X34394499Y-45134945D01*
X34394494Y-45134941D01*
X34247997Y-45028506D01*
X34247996Y-45028505D01*
X34247994Y-45028504D01*
X34167612Y-44987547D01*
X34086639Y-44946288D01*
X34086636Y-44946287D01*
X33914410Y-44890329D01*
X33735551Y-44862000D01*
X33735546Y-44862000D01*
X33554454Y-44862000D01*
X33554449Y-44862000D01*
X33375589Y-44890329D01*
X33203363Y-44946287D01*
X33203360Y-44946288D01*
X33042002Y-45028506D01*
X32895505Y-45134941D01*
X32895500Y-45134945D01*
X32767445Y-45263000D01*
X32745318Y-45293456D01*
X32689987Y-45336121D01*
X32620374Y-45342100D01*
X32558579Y-45309494D01*
X32544682Y-45293456D01*
X32522554Y-45263000D01*
X32394499Y-45134945D01*
X32394494Y-45134941D01*
X32247997Y-45028506D01*
X32247996Y-45028505D01*
X32247994Y-45028504D01*
X32167612Y-44987547D01*
X32086639Y-44946288D01*
X32086636Y-44946287D01*
X31914410Y-44890329D01*
X31735551Y-44862000D01*
X31735546Y-44862000D01*
X31554454Y-44862000D01*
X31554449Y-44862000D01*
X31375589Y-44890329D01*
X31203363Y-44946287D01*
X31203360Y-44946288D01*
X31042002Y-45028506D01*
X30895505Y-45134941D01*
X30895500Y-45134945D01*
X30767445Y-45263000D01*
X30767441Y-45263005D01*
X30661006Y-45409502D01*
X30578788Y-45570860D01*
X30578787Y-45570863D01*
X30522829Y-45743089D01*
X30494500Y-45921948D01*
X30494500Y-46103051D01*
X30522829Y-46281910D01*
X30578787Y-46454136D01*
X30578788Y-46454139D01*
X30661006Y-46615497D01*
X30767441Y-46761994D01*
X30767445Y-46761999D01*
X30895500Y-46890054D01*
X30895505Y-46890058D01*
X31000586Y-46966403D01*
X31042006Y-46996496D01*
X31124398Y-47038477D01*
X31203360Y-47078711D01*
X31203363Y-47078712D01*
X31243365Y-47091709D01*
X31375591Y-47134671D01*
X31458429Y-47147791D01*
X31554449Y-47163000D01*
X31554454Y-47163000D01*
X31735551Y-47163000D01*
X31822259Y-47149265D01*
X31914409Y-47134671D01*
X32086639Y-47078711D01*
X32247994Y-46996496D01*
X32394501Y-46890053D01*
X32522553Y-46762001D01*
X32544681Y-46731543D01*
X32600011Y-46688878D01*
X32669624Y-46682899D01*
X32731420Y-46715504D01*
X32745319Y-46731544D01*
X32767447Y-46762001D01*
X32895500Y-46890054D01*
X32895505Y-46890058D01*
X33000586Y-46966403D01*
X33042006Y-46996496D01*
X33124398Y-47038477D01*
X33203360Y-47078711D01*
X33203363Y-47078712D01*
X33243365Y-47091709D01*
X33375591Y-47134671D01*
X33458429Y-47147791D01*
X33554449Y-47163000D01*
X33554454Y-47163000D01*
X33735551Y-47163000D01*
X33822259Y-47149265D01*
X33914409Y-47134671D01*
X34086639Y-47078711D01*
X34247994Y-46996496D01*
X34394501Y-46890053D01*
X34522553Y-46762001D01*
X34522553Y-46762000D01*
X34525998Y-46758556D01*
X34527649Y-46760207D01*
X34578018Y-46727235D01*
X34647886Y-46726646D01*
X34706980Y-46763923D01*
X34714274Y-46773028D01*
X34729691Y-46794248D01*
X34863253Y-46927810D01*
X34863258Y-46927814D01*
X35016059Y-47038829D01*
X35184362Y-47124585D01*
X35363997Y-47182951D01*
X35395000Y-47187862D01*
X35395000Y-46387777D01*
X35471306Y-46431833D01*
X35585756Y-46462500D01*
X35704244Y-46462500D01*
X35818694Y-46431833D01*
X35895000Y-46387777D01*
X35895000Y-47187861D01*
X35926002Y-47182951D01*
X36105637Y-47124585D01*
X36273940Y-47038829D01*
X36426741Y-46927814D01*
X36426746Y-46927810D01*
X36557319Y-46797238D01*
X36618642Y-46763753D01*
X36688334Y-46768737D01*
X36732681Y-46797238D01*
X36863253Y-46927810D01*
X36863258Y-46927814D01*
X37016059Y-47038829D01*
X37184362Y-47124585D01*
X37363997Y-47182951D01*
X37395000Y-47187862D01*
X37395000Y-46387777D01*
X37471306Y-46431833D01*
X37585756Y-46462500D01*
X37704244Y-46462500D01*
X37818694Y-46431833D01*
X37895000Y-46387777D01*
X37895000Y-47187861D01*
X37926002Y-47182951D01*
X38105637Y-47124585D01*
X38273940Y-47038829D01*
X38403502Y-46944698D01*
X38469308Y-46921218D01*
X38537362Y-46937043D01*
X38576157Y-46971383D01*
X38622848Y-47034648D01*
X38622849Y-47034648D01*
X38622850Y-47034650D01*
X38732118Y-47115293D01*
X38758673Y-47124585D01*
X38860299Y-47160146D01*
X38890730Y-47163000D01*
X38890734Y-47163000D01*
X40014410Y-47163000D01*
X40081449Y-47182685D01*
X40127204Y-47235489D01*
X40137148Y-47304647D01*
X40117512Y-47355891D01*
X40034919Y-47479498D01*
X40034912Y-47479511D01*
X39978343Y-47616082D01*
X39978340Y-47616092D01*
X39949500Y-47761079D01*
X39949500Y-47761082D01*
X39949500Y-47908918D01*
X39949500Y-47908920D01*
X39949499Y-47908920D01*
X39978340Y-48053907D01*
X39978343Y-48053917D01*
X40033694Y-48187548D01*
X40041163Y-48257018D01*
X40033694Y-48282452D01*
X39978343Y-48416082D01*
X39978340Y-48416092D01*
X39949500Y-48561079D01*
X39949500Y-48561082D01*
X39949500Y-48708918D01*
X39949500Y-48708920D01*
X39949499Y-48708920D01*
X39978340Y-48853907D01*
X39978343Y-48853917D01*
X40033694Y-48987548D01*
X40041163Y-49057018D01*
X40033694Y-49082452D01*
X39978343Y-49216082D01*
X39978340Y-49216092D01*
X39949500Y-49361079D01*
X39949500Y-49361082D01*
X39949500Y-49508918D01*
X39949500Y-49508920D01*
X39949499Y-49508920D01*
X39978340Y-49653907D01*
X39978342Y-49653913D01*
X40031584Y-49782452D01*
X40032884Y-49785589D01*
X40040353Y-49855059D01*
X40032884Y-49880495D01*
X39978342Y-50012170D01*
X39978340Y-50012176D01*
X39949500Y-50157163D01*
X39949500Y-50157166D01*
X39949500Y-50305002D01*
X39949500Y-50305004D01*
X39949499Y-50305004D01*
X39978340Y-50449991D01*
X39978343Y-50450001D01*
X40034912Y-50586572D01*
X40034919Y-50586585D01*
X40117048Y-50709499D01*
X40117051Y-50709503D01*
X40221580Y-50814032D01*
X40221584Y-50814035D01*
X40344498Y-50896164D01*
X40344511Y-50896171D01*
X40481082Y-50952740D01*
X40481087Y-50952742D01*
X40481091Y-50952742D01*
X40481092Y-50952743D01*
X40626079Y-50981584D01*
X40626082Y-50981584D01*
X40773920Y-50981584D01*
X40871462Y-50962180D01*
X40918913Y-50952742D01*
X41052547Y-50897388D01*
X41122017Y-50889920D01*
X41147452Y-50897388D01*
X41281087Y-50952742D01*
X41281091Y-50952742D01*
X41281092Y-50952743D01*
X41426079Y-50981584D01*
X41426082Y-50981584D01*
X41573920Y-50981584D01*
X41671462Y-50962180D01*
X41718913Y-50952742D01*
X41855495Y-50896168D01*
X41978416Y-50814035D01*
X42082951Y-50709500D01*
X42165084Y-50586579D01*
X42221658Y-50449997D01*
X42250500Y-50305002D01*
X42250500Y-50157166D01*
X42250500Y-50157163D01*
X42221659Y-50012176D01*
X42221658Y-50012175D01*
X42221658Y-50012171D01*
X42167115Y-49880494D01*
X42159647Y-49811025D01*
X42167116Y-49785589D01*
X42168415Y-49782453D01*
X42221658Y-49653913D01*
X42231716Y-49603350D01*
X42250500Y-49508920D01*
X42250500Y-49361079D01*
X42221659Y-49216092D01*
X42221658Y-49216091D01*
X42221658Y-49216087D01*
X42166304Y-49082452D01*
X42158836Y-49012983D01*
X42166305Y-48987547D01*
X42169639Y-48979498D01*
X42221658Y-48853913D01*
X42250500Y-48708918D01*
X42250500Y-48561082D01*
X42250500Y-48561079D01*
X42221659Y-48416092D01*
X42221658Y-48416091D01*
X42221658Y-48416087D01*
X42166304Y-48282452D01*
X42158836Y-48212983D01*
X42166305Y-48187547D01*
X42221658Y-48053913D01*
X42250500Y-47908918D01*
X42250500Y-47761082D01*
X42250500Y-47761079D01*
X42221659Y-47616092D01*
X42221658Y-47616091D01*
X42221658Y-47616087D01*
X42179629Y-47514619D01*
X42165087Y-47479511D01*
X42165080Y-47479498D01*
X42082951Y-47356584D01*
X42082948Y-47356580D01*
X41978419Y-47252051D01*
X41978415Y-47252048D01*
X41855501Y-47169919D01*
X41855488Y-47169912D01*
X41718917Y-47113343D01*
X41718907Y-47113340D01*
X41573920Y-47084500D01*
X41573918Y-47084500D01*
X41426082Y-47084500D01*
X41426080Y-47084500D01*
X41281092Y-47113340D01*
X41281082Y-47113343D01*
X41147452Y-47168694D01*
X41077982Y-47176163D01*
X41052548Y-47168694D01*
X40918917Y-47113343D01*
X40918907Y-47113340D01*
X40837363Y-47097120D01*
X40775452Y-47064735D01*
X40740878Y-47004019D01*
X40744618Y-46934250D01*
X40744972Y-46933442D01*
X40747791Y-46925383D01*
X40747793Y-46925382D01*
X40768723Y-46865566D01*
X40792646Y-46797201D01*
X40792646Y-46797199D01*
X40795500Y-46766769D01*
X40795500Y-45258230D01*
X40792646Y-45227800D01*
X40792646Y-45227798D01*
X40759006Y-45131663D01*
X40747793Y-45099618D01*
X40667150Y-44990350D01*
X40667148Y-44990349D01*
X40661632Y-44982874D01*
X40663598Y-44981422D01*
X40636580Y-44931942D01*
X40641564Y-44862250D01*
X40683436Y-44806317D01*
X40748900Y-44781900D01*
X40757746Y-44781584D01*
X40873920Y-44781584D01*
X40993309Y-44757835D01*
X41018913Y-44752742D01*
X41152547Y-44697388D01*
X41222017Y-44689920D01*
X41247452Y-44697388D01*
X41381087Y-44752742D01*
X41381091Y-44752742D01*
X41381092Y-44752743D01*
X41526079Y-44781584D01*
X41526082Y-44781584D01*
X41673920Y-44781584D01*
X41793309Y-44757835D01*
X41818913Y-44752742D01*
X41955495Y-44696168D01*
X42078416Y-44614035D01*
X42182951Y-44509500D01*
X42265084Y-44386579D01*
X42321658Y-44249997D01*
X42339940Y-44158089D01*
X42350500Y-44105004D01*
X42350500Y-43957163D01*
X42321659Y-43812176D01*
X42321658Y-43812175D01*
X42321658Y-43812171D01*
X42267115Y-43680494D01*
X42259647Y-43611025D01*
X42267116Y-43585589D01*
X42281880Y-43549945D01*
X42321658Y-43453913D01*
X42335861Y-43382513D01*
X42350500Y-43308920D01*
X42350500Y-43161079D01*
X42321659Y-43016092D01*
X42321658Y-43016091D01*
X42321658Y-43016087D01*
X42266304Y-42882452D01*
X42258836Y-42812983D01*
X42266305Y-42787547D01*
X42289820Y-42730776D01*
X42321658Y-42653913D01*
X42331096Y-42606462D01*
X42350500Y-42508920D01*
X42350500Y-42361079D01*
X42321659Y-42216092D01*
X42321658Y-42216091D01*
X42321658Y-42216087D01*
X42266304Y-42082452D01*
X42258836Y-42012983D01*
X42266305Y-41987547D01*
X42267004Y-41985860D01*
X42321658Y-41853913D01*
X42350500Y-41708918D01*
X42350500Y-41561082D01*
X42350500Y-41561079D01*
X42321659Y-41416092D01*
X42321658Y-41416091D01*
X42321658Y-41416087D01*
X42307751Y-41382513D01*
X42265087Y-41279511D01*
X42265080Y-41279498D01*
X42182951Y-41156584D01*
X42182948Y-41156580D01*
X42078419Y-41052051D01*
X42078415Y-41052048D01*
X41955501Y-40969919D01*
X41955488Y-40969912D01*
X41818917Y-40913343D01*
X41818907Y-40913340D01*
X41673920Y-40884500D01*
X41673918Y-40884500D01*
X41526082Y-40884500D01*
X41526080Y-40884500D01*
X41381092Y-40913340D01*
X41381082Y-40913343D01*
X41247452Y-40968694D01*
X41177982Y-40976163D01*
X41152548Y-40968694D01*
X41018917Y-40913343D01*
X41018907Y-40913340D01*
X40879924Y-40885694D01*
X40818013Y-40853309D01*
X40783439Y-40792593D01*
X40787075Y-40723121D01*
X40792646Y-40707198D01*
X40795500Y-40676769D01*
X40795500Y-39168230D01*
X40792646Y-39137800D01*
X40792646Y-39137798D01*
X40759006Y-39041663D01*
X40747793Y-39009618D01*
X40667150Y-38900350D01*
X40557882Y-38819707D01*
X40557880Y-38819706D01*
X40429700Y-38774853D01*
X40399270Y-38772000D01*
X40399266Y-38772000D01*
X38890734Y-38772000D01*
X38890730Y-38772000D01*
X38860300Y-38774853D01*
X38860298Y-38774853D01*
X38732119Y-38819706D01*
X38732117Y-38819707D01*
X38622850Y-38900350D01*
X38576157Y-38963617D01*
X38520509Y-39005868D01*
X38450853Y-39011326D01*
X38403502Y-38990301D01*
X38273940Y-38896170D01*
X38105635Y-38810413D01*
X37926004Y-38752049D01*
X37925995Y-38752047D01*
X37895000Y-38747137D01*
X37895000Y-39547222D01*
X37818694Y-39503167D01*
X37704244Y-39472500D01*
X37585756Y-39472500D01*
X37471306Y-39503167D01*
X37395000Y-39547222D01*
X37395000Y-38747137D01*
X37394999Y-38747137D01*
X37364004Y-38752047D01*
X37363995Y-38752049D01*
X37184364Y-38810413D01*
X37016059Y-38896170D01*
X36863258Y-39007185D01*
X36863253Y-39007189D01*
X36732681Y-39137762D01*
X36671358Y-39171247D01*
X36601666Y-39166263D01*
X36557319Y-39137762D01*
X36426746Y-39007189D01*
X36426741Y-39007185D01*
X36273940Y-38896170D01*
X36105635Y-38810413D01*
X35926004Y-38752049D01*
X35925995Y-38752047D01*
X35895000Y-38747137D01*
X35895000Y-39547222D01*
X35818694Y-39503167D01*
X35704244Y-39472500D01*
X35585756Y-39472500D01*
X35471306Y-39503167D01*
X35395000Y-39547222D01*
X35395000Y-38747137D01*
X35394999Y-38747137D01*
X35364004Y-38752047D01*
X35363995Y-38752049D01*
X35184364Y-38810413D01*
X35016059Y-38896170D01*
X34863258Y-39007185D01*
X34863253Y-39007189D01*
X34729689Y-39140753D01*
X34729688Y-39140755D01*
X34714272Y-39161973D01*
X34658942Y-39204638D01*
X34589328Y-39210616D01*
X34527534Y-39178009D01*
X34526033Y-39176408D01*
X34525998Y-39176444D01*
X34394499Y-39044945D01*
X34394494Y-39044941D01*
X34247997Y-38938506D01*
X34247996Y-38938505D01*
X34247994Y-38938504D01*
X34173113Y-38900350D01*
X34086639Y-38856288D01*
X34086636Y-38856287D01*
X33914410Y-38800329D01*
X33735551Y-38772000D01*
X33735546Y-38772000D01*
X33554454Y-38772000D01*
X33554449Y-38772000D01*
X33375589Y-38800329D01*
X33203363Y-38856287D01*
X33203360Y-38856288D01*
X33042002Y-38938506D01*
X32895505Y-39044941D01*
X32895500Y-39044945D01*
X32767445Y-39173000D01*
X32745318Y-39203456D01*
X32689987Y-39246121D01*
X32620374Y-39252100D01*
X32558579Y-39219494D01*
X32544682Y-39203456D01*
X32522554Y-39173000D01*
X32394499Y-39044945D01*
X32394494Y-39044941D01*
X32247997Y-38938506D01*
X32247996Y-38938505D01*
X32247994Y-38938504D01*
X32173113Y-38900350D01*
X32086639Y-38856288D01*
X32086636Y-38856287D01*
X31914410Y-38800329D01*
X31735551Y-38772000D01*
X31735546Y-38772000D01*
X31554454Y-38772000D01*
X31554449Y-38772000D01*
X31375589Y-38800329D01*
X31203363Y-38856287D01*
X31203360Y-38856288D01*
X31042002Y-38938506D01*
X30895505Y-39044941D01*
X30895500Y-39044945D01*
X30767445Y-39173000D01*
X30767441Y-39173005D01*
X30661006Y-39319502D01*
X30578788Y-39480860D01*
X30578787Y-39480863D01*
X30522829Y-39653089D01*
X30494500Y-39831948D01*
X25220288Y-39831948D01*
X25216496Y-39824506D01*
X25216494Y-39824503D01*
X25216493Y-39824501D01*
X25110058Y-39678005D01*
X25110054Y-39678000D01*
X24981999Y-39549945D01*
X24981994Y-39549941D01*
X24835497Y-39443506D01*
X24835496Y-39443505D01*
X24835494Y-39443504D01*
X24783800Y-39417164D01*
X24674139Y-39361288D01*
X24674136Y-39361287D01*
X24501910Y-39305329D01*
X24323051Y-39277000D01*
X24323046Y-39277000D01*
X24141954Y-39277000D01*
X24141949Y-39277000D01*
X23963089Y-39305329D01*
X23790863Y-39361287D01*
X23790860Y-39361288D01*
X23629502Y-39443506D01*
X23483005Y-39549941D01*
X23483000Y-39549945D01*
X23354945Y-39678000D01*
X23354941Y-39678005D01*
X23248506Y-39824502D01*
X23166288Y-39985860D01*
X23166287Y-39985863D01*
X23110329Y-40158089D01*
X23082000Y-40336948D01*
X23082000Y-40518051D01*
X23110329Y-40696910D01*
X23166287Y-40869136D01*
X23166288Y-40869139D01*
X23188812Y-40913343D01*
X23245853Y-41025292D01*
X23248506Y-41030497D01*
X23354941Y-41176994D01*
X23354945Y-41176999D01*
X23483000Y-41305054D01*
X23513456Y-41327182D01*
X23556121Y-41382513D01*
X23562100Y-41452126D01*
X23529494Y-41513921D01*
X23513456Y-41527818D01*
X23483000Y-41549945D01*
X23354945Y-41678000D01*
X23354941Y-41678005D01*
X23248506Y-41824502D01*
X23166288Y-41985860D01*
X23166287Y-41985863D01*
X23110329Y-42158089D01*
X23082000Y-42336948D01*
X23082000Y-42518051D01*
X23110329Y-42696910D01*
X23166287Y-42869136D01*
X23166288Y-42869139D01*
X23194989Y-42925466D01*
X23241163Y-43016087D01*
X23248506Y-43030497D01*
X23354941Y-43176994D01*
X23354945Y-43176999D01*
X23483000Y-43305054D01*
X23513456Y-43327182D01*
X23556121Y-43382513D01*
X23562100Y-43452126D01*
X23529494Y-43513921D01*
X23513456Y-43527818D01*
X23483000Y-43549945D01*
X23354945Y-43678000D01*
X23354941Y-43678005D01*
X23248506Y-43824502D01*
X23166288Y-43985860D01*
X23166287Y-43985863D01*
X23110329Y-44158089D01*
X23082000Y-44336948D01*
X23082000Y-44518051D01*
X23110329Y-44696910D01*
X23166287Y-44869136D01*
X23166288Y-44869139D01*
X23205599Y-44946289D01*
X23247491Y-45028506D01*
X23248506Y-45030497D01*
X23354941Y-45176994D01*
X23354945Y-45176999D01*
X23486444Y-45308498D01*
X23484819Y-45310122D01*
X23517819Y-45360700D01*
X23518301Y-45430568D01*
X23480934Y-45489605D01*
X23471973Y-45496772D01*
X23450755Y-45512188D01*
X23450753Y-45512189D01*
X23317189Y-45645753D01*
X23317185Y-45645758D01*
X23206170Y-45798559D01*
X23120414Y-45966862D01*
X23062048Y-46146497D01*
X23057138Y-46177500D01*
X20814135Y-46177500D01*
X20871462Y-46166096D01*
X20918913Y-46156658D01*
X21055495Y-46100084D01*
X21178416Y-46017951D01*
X21282951Y-45913416D01*
X21365084Y-45790495D01*
X21421658Y-45653913D01*
X21433741Y-45593167D01*
X21450500Y-45508920D01*
X21450500Y-45361079D01*
X21421659Y-45216092D01*
X21421658Y-45216091D01*
X21421658Y-45216087D01*
X21366304Y-45082452D01*
X21358836Y-45012983D01*
X21366305Y-44987547D01*
X21368842Y-44981422D01*
X21421658Y-44853913D01*
X21435983Y-44781900D01*
X21450500Y-44708920D01*
X21450500Y-44561079D01*
X21421659Y-44416092D01*
X21421658Y-44416091D01*
X21421658Y-44416087D01*
X21409438Y-44386585D01*
X21365087Y-44279511D01*
X21365080Y-44279498D01*
X21282951Y-44156584D01*
X21282948Y-44156580D01*
X21178419Y-44052051D01*
X21178415Y-44052048D01*
X21055501Y-43969919D01*
X21055488Y-43969912D01*
X20918917Y-43913343D01*
X20918907Y-43913340D01*
X20773920Y-43884500D01*
X20773918Y-43884500D01*
X20626082Y-43884500D01*
X20626080Y-43884500D01*
X20481092Y-43913340D01*
X20481086Y-43913342D01*
X20349411Y-43967884D01*
X20279941Y-43975353D01*
X20254505Y-43967884D01*
X20228629Y-43957166D01*
X20122829Y-43913342D01*
X20122823Y-43913340D01*
X19977836Y-43884500D01*
X19977834Y-43884500D01*
X19829998Y-43884500D01*
X19829996Y-43884500D01*
X19685008Y-43913340D01*
X19684998Y-43913343D01*
X19551368Y-43968694D01*
X19481898Y-43976163D01*
X19456464Y-43968694D01*
X19322833Y-43913343D01*
X19322823Y-43913340D01*
X19177836Y-43884500D01*
X19177834Y-43884500D01*
X19029998Y-43884500D01*
X19029996Y-43884500D01*
X18885008Y-43913340D01*
X18884998Y-43913343D01*
X18751368Y-43968694D01*
X18681898Y-43976163D01*
X18656464Y-43968694D01*
X18522833Y-43913343D01*
X18522823Y-43913340D01*
X18377836Y-43884500D01*
X18377834Y-43884500D01*
X18229998Y-43884500D01*
X18229996Y-43884500D01*
X18085008Y-43913340D01*
X18084998Y-43913343D01*
X17948427Y-43969912D01*
X17948414Y-43969919D01*
X17825500Y-44052048D01*
X17825496Y-44052051D01*
X17720967Y-44156580D01*
X17720964Y-44156584D01*
X17638835Y-44279498D01*
X17638828Y-44279511D01*
X17582259Y-44416082D01*
X17582256Y-44416092D01*
X17553416Y-44561079D01*
X17553416Y-44561082D01*
X17553416Y-44708918D01*
X17553416Y-44708920D01*
X17553415Y-44708920D01*
X17582256Y-44853907D01*
X17582259Y-44853917D01*
X17637610Y-44987548D01*
X17645079Y-45057018D01*
X17637610Y-45082452D01*
X17593309Y-45189406D01*
X17549469Y-45243810D01*
X17483175Y-45265875D01*
X17415475Y-45248596D01*
X17368263Y-45198249D01*
X17357437Y-45177001D01*
X17312287Y-45088390D01*
X17312285Y-45088387D01*
X17312284Y-45088385D01*
X17191971Y-44922786D01*
X17047213Y-44778028D01*
X16881614Y-44657715D01*
X16836833Y-44634898D01*
X16788917Y-44610483D01*
X16738123Y-44562511D01*
X16721328Y-44494690D01*
X16743865Y-44428555D01*
X16788917Y-44389516D01*
X16881610Y-44342287D01*
X16902770Y-44326913D01*
X17047213Y-44221971D01*
X17047215Y-44221968D01*
X17047219Y-44221966D01*
X17191966Y-44077219D01*
X17191968Y-44077215D01*
X17191971Y-44077213D01*
X17244732Y-44004590D01*
X17312287Y-43911610D01*
X17405220Y-43729219D01*
X17468477Y-43534534D01*
X17500500Y-43332352D01*
X17500500Y-43127648D01*
X17468477Y-42925466D01*
X17453543Y-42879505D01*
X17405218Y-42730776D01*
X17366051Y-42653907D01*
X17312287Y-42548390D01*
X17283609Y-42508918D01*
X17191971Y-42382786D01*
X17047213Y-42238028D01*
X16881614Y-42117715D01*
X16812406Y-42082452D01*
X16788917Y-42070483D01*
X16738123Y-42022511D01*
X16721328Y-41954690D01*
X16743865Y-41888555D01*
X16788917Y-41849516D01*
X16881610Y-41802287D01*
X17010120Y-41708920D01*
X17047213Y-41681971D01*
X17047215Y-41681968D01*
X17047219Y-41681966D01*
X17191966Y-41537219D01*
X17191968Y-41537215D01*
X17191971Y-41537213D01*
X17279969Y-41416092D01*
X17312287Y-41371610D01*
X17405220Y-41189219D01*
X17468477Y-40994534D01*
X17500500Y-40792352D01*
X17500500Y-40587648D01*
X17468477Y-40385466D01*
X17461547Y-40364139D01*
X17407827Y-40198806D01*
X17405220Y-40190781D01*
X17405218Y-40190778D01*
X17405218Y-40190776D01*
X17357025Y-40096194D01*
X17312287Y-40008390D01*
X17295918Y-39985860D01*
X17191971Y-39842786D01*
X17047213Y-39698028D01*
X16881613Y-39577715D01*
X16881612Y-39577714D01*
X16881610Y-39577713D01*
X16824653Y-39548691D01*
X16699223Y-39484781D01*
X16504534Y-39421522D01*
X16329995Y-39393878D01*
X16302352Y-39389500D01*
X16097648Y-39389500D01*
X16073329Y-39393351D01*
X15895465Y-39421522D01*
X15700776Y-39484781D01*
X15518386Y-39577715D01*
X15352786Y-39698028D01*
X15208028Y-39842786D01*
X15087715Y-40008386D01*
X14994781Y-40190776D01*
X14931522Y-40385465D01*
X14899500Y-40587648D01*
X14899500Y-40792351D01*
X14931522Y-40994534D01*
X14994781Y-41189223D01*
X15087715Y-41371613D01*
X15208028Y-41537213D01*
X15352786Y-41681971D01*
X15507749Y-41794556D01*
X15518390Y-41802287D01*
X15609840Y-41848883D01*
X15611080Y-41849515D01*
X15661876Y-41897490D01*
X15678671Y-41965311D01*
X15656134Y-42031446D01*
X15611080Y-42070485D01*
X15518386Y-42117715D01*
X15352786Y-42238028D01*
X15208028Y-42382786D01*
X15087715Y-42548386D01*
X14994781Y-42730776D01*
X14931522Y-42925465D01*
X14914887Y-43030497D01*
X14899500Y-43127648D01*
X14899500Y-43332352D01*
X14903878Y-43359995D01*
X14931522Y-43534534D01*
X14994781Y-43729223D01*
X15087715Y-43911613D01*
X15208028Y-44077213D01*
X15352786Y-44221971D01*
X15507749Y-44334556D01*
X15518390Y-44342287D01*
X15605304Y-44386572D01*
X15611080Y-44389515D01*
X15661876Y-44437490D01*
X15678671Y-44505311D01*
X15656134Y-44571446D01*
X15611080Y-44610485D01*
X15518386Y-44657715D01*
X15352786Y-44778028D01*
X15208028Y-44922786D01*
X15087715Y-45088386D01*
X14994781Y-45270776D01*
X14931522Y-45465465D01*
X14899500Y-45667648D01*
X14899500Y-45872351D01*
X14931522Y-46074534D01*
X14994781Y-46269223D01*
X15045242Y-46368256D01*
X15087712Y-46451609D01*
X15087715Y-46451613D01*
X15208028Y-46617213D01*
X15343412Y-46752597D01*
X15376897Y-46813920D01*
X15371913Y-46883612D01*
X15330041Y-46939545D01*
X15268988Y-46963567D01*
X15242626Y-46966401D01*
X15242620Y-46966403D01*
X15107913Y-47016645D01*
X15107906Y-47016649D01*
X14992812Y-47102809D01*
X14992809Y-47102812D01*
X14906649Y-47217906D01*
X14906645Y-47217913D01*
X14856403Y-47352620D01*
X14856401Y-47352627D01*
X14850000Y-47412155D01*
X12500500Y-47412155D01*
X12500500Y-29777648D01*
X14899500Y-29777648D01*
X14899500Y-29982351D01*
X14931522Y-30184534D01*
X14994781Y-30379223D01*
X15087715Y-30561613D01*
X15208028Y-30727213D01*
X15352786Y-30871971D01*
X15507749Y-30984556D01*
X15518390Y-30992287D01*
X15609840Y-31038883D01*
X15611080Y-31039515D01*
X15661876Y-31087490D01*
X15678671Y-31155311D01*
X15656134Y-31221446D01*
X15611080Y-31260485D01*
X15518386Y-31307715D01*
X15352786Y-31428028D01*
X15208028Y-31572786D01*
X15087715Y-31738386D01*
X14994781Y-31920776D01*
X14931522Y-32115465D01*
X14899500Y-32317648D01*
X14899500Y-32522351D01*
X14931522Y-32724534D01*
X14994781Y-32919223D01*
X15035275Y-32998695D01*
X15067061Y-33061079D01*
X15087715Y-33101613D01*
X15208028Y-33267213D01*
X15352786Y-33411971D01*
X15507749Y-33524556D01*
X15518390Y-33532287D01*
X15609840Y-33578883D01*
X15611080Y-33579515D01*
X15661876Y-33627490D01*
X15678671Y-33695311D01*
X15656134Y-33761446D01*
X15611080Y-33800485D01*
X15518386Y-33847715D01*
X15352786Y-33968028D01*
X15208028Y-34112786D01*
X15087715Y-34278386D01*
X14994781Y-34460776D01*
X14931522Y-34655465D01*
X14899500Y-34857648D01*
X14899500Y-35062351D01*
X14931522Y-35264534D01*
X14994781Y-35459223D01*
X15087715Y-35641613D01*
X15208028Y-35807213D01*
X15352786Y-35951971D01*
X15384734Y-35975182D01*
X15427400Y-36030511D01*
X15433379Y-36100125D01*
X15400774Y-36161920D01*
X15339935Y-36196277D01*
X15311849Y-36199500D01*
X15295730Y-36199500D01*
X15265300Y-36202353D01*
X15265298Y-36202353D01*
X15137119Y-36247206D01*
X15137117Y-36247207D01*
X15027850Y-36327850D01*
X14947207Y-36437117D01*
X14947206Y-36437119D01*
X14902353Y-36565298D01*
X14902353Y-36565300D01*
X14899500Y-36595730D01*
X14899500Y-38404269D01*
X14902353Y-38434699D01*
X14902353Y-38434701D01*
X14947206Y-38562880D01*
X14947207Y-38562882D01*
X15027850Y-38672150D01*
X15137118Y-38752793D01*
X15179845Y-38767744D01*
X15265299Y-38797646D01*
X15295730Y-38800500D01*
X15295734Y-38800500D01*
X17104270Y-38800500D01*
X17134699Y-38797646D01*
X17134701Y-38797646D01*
X17207991Y-38772000D01*
X17262882Y-38752793D01*
X17372150Y-38672150D01*
X17452793Y-38562882D01*
X17475219Y-38498790D01*
X17497646Y-38434701D01*
X17497646Y-38434699D01*
X17500500Y-38404269D01*
X17500500Y-36595730D01*
X17497646Y-36565300D01*
X17497646Y-36565298D01*
X17452793Y-36437119D01*
X17452792Y-36437117D01*
X17372150Y-36327850D01*
X17262882Y-36247207D01*
X17262880Y-36247206D01*
X17134700Y-36202353D01*
X17104270Y-36199500D01*
X17104266Y-36199500D01*
X17088151Y-36199500D01*
X17021112Y-36179815D01*
X16975357Y-36127011D01*
X16965413Y-36057853D01*
X16994438Y-35994297D01*
X17015266Y-35975182D01*
X17047213Y-35951971D01*
X17047215Y-35951968D01*
X17047219Y-35951966D01*
X17191966Y-35807219D01*
X17191968Y-35807215D01*
X17191971Y-35807213D01*
X17278912Y-35687547D01*
X17312287Y-35641610D01*
X17405220Y-35459219D01*
X17468477Y-35264534D01*
X17500500Y-35062352D01*
X17500500Y-34857648D01*
X17468477Y-34655466D01*
X17468476Y-34655462D01*
X17468476Y-34655461D01*
X17453354Y-34608920D01*
X36849499Y-34608920D01*
X36878340Y-34753907D01*
X36878343Y-34753917D01*
X36933694Y-34887548D01*
X36941163Y-34957018D01*
X36933694Y-34982452D01*
X36878343Y-35116082D01*
X36878340Y-35116092D01*
X36849500Y-35261079D01*
X36849500Y-35261082D01*
X36849500Y-35408918D01*
X36849500Y-35408920D01*
X36849499Y-35408920D01*
X36878340Y-35553907D01*
X36878343Y-35553917D01*
X36933694Y-35687548D01*
X36941163Y-35757018D01*
X36933694Y-35782452D01*
X36878343Y-35916082D01*
X36878340Y-35916092D01*
X36849500Y-36061079D01*
X36849500Y-36061082D01*
X36849500Y-36208918D01*
X36849500Y-36208920D01*
X36849499Y-36208920D01*
X36878340Y-36353907D01*
X36878342Y-36353913D01*
X36932884Y-36485589D01*
X36940353Y-36555059D01*
X36932884Y-36580495D01*
X36878342Y-36712170D01*
X36878340Y-36712176D01*
X36849500Y-36857163D01*
X36849500Y-36857166D01*
X36849500Y-37005002D01*
X36849500Y-37005004D01*
X36849499Y-37005004D01*
X36878340Y-37149991D01*
X36878343Y-37150001D01*
X36934912Y-37286572D01*
X36934919Y-37286585D01*
X37017048Y-37409499D01*
X37017051Y-37409503D01*
X37121580Y-37514032D01*
X37121584Y-37514035D01*
X37244498Y-37596164D01*
X37244511Y-37596171D01*
X37381082Y-37652740D01*
X37381087Y-37652742D01*
X37381091Y-37652742D01*
X37381092Y-37652743D01*
X37526079Y-37681584D01*
X37526082Y-37681584D01*
X37673920Y-37681584D01*
X37771462Y-37662180D01*
X37818913Y-37652742D01*
X37952547Y-37597388D01*
X38022017Y-37589920D01*
X38047452Y-37597388D01*
X38181087Y-37652742D01*
X38181091Y-37652742D01*
X38181092Y-37652743D01*
X38326079Y-37681584D01*
X38326082Y-37681584D01*
X38473920Y-37681584D01*
X38571462Y-37662180D01*
X38618913Y-37652742D01*
X38755495Y-37596168D01*
X38878416Y-37514035D01*
X38982951Y-37409500D01*
X39065084Y-37286579D01*
X39121658Y-37149997D01*
X39150500Y-37005002D01*
X39150500Y-36857166D01*
X39150500Y-36857163D01*
X39121659Y-36712176D01*
X39121658Y-36712175D01*
X39121658Y-36712171D01*
X39067115Y-36580494D01*
X39059647Y-36511025D01*
X39067116Y-36485589D01*
X39087193Y-36437118D01*
X39121658Y-36353913D01*
X39150500Y-36208918D01*
X39150500Y-36061082D01*
X39150500Y-36061079D01*
X39121659Y-35916092D01*
X39121658Y-35916091D01*
X39121658Y-35916087D01*
X39066304Y-35782452D01*
X39058836Y-35712983D01*
X39066305Y-35687547D01*
X39121658Y-35553913D01*
X39131096Y-35506462D01*
X39150500Y-35408920D01*
X39150500Y-35261079D01*
X39121659Y-35116092D01*
X39121658Y-35116091D01*
X39121658Y-35116087D01*
X39066304Y-34982452D01*
X39058836Y-34912983D01*
X39066305Y-34887547D01*
X39121658Y-34753913D01*
X39150500Y-34608918D01*
X39150500Y-34461082D01*
X39150500Y-34461079D01*
X39121659Y-34316092D01*
X39121658Y-34316091D01*
X39121658Y-34316087D01*
X39121656Y-34316082D01*
X39065087Y-34179511D01*
X39065080Y-34179498D01*
X38982951Y-34056584D01*
X38982948Y-34056580D01*
X38878419Y-33952051D01*
X38878415Y-33952048D01*
X38755501Y-33869919D01*
X38755488Y-33869912D01*
X38618917Y-33813343D01*
X38618907Y-33813340D01*
X38473920Y-33784500D01*
X38473918Y-33784500D01*
X38326082Y-33784500D01*
X38326080Y-33784500D01*
X38181092Y-33813340D01*
X38181082Y-33813343D01*
X38047452Y-33868694D01*
X37977982Y-33876163D01*
X37952548Y-33868694D01*
X37818917Y-33813343D01*
X37818907Y-33813340D01*
X37673920Y-33784500D01*
X37673918Y-33784500D01*
X37526082Y-33784500D01*
X37526080Y-33784500D01*
X37381092Y-33813340D01*
X37381082Y-33813343D01*
X37244511Y-33869912D01*
X37244498Y-33869919D01*
X37121584Y-33952048D01*
X37121580Y-33952051D01*
X37017051Y-34056580D01*
X37017048Y-34056584D01*
X36934919Y-34179498D01*
X36934912Y-34179511D01*
X36878343Y-34316082D01*
X36878340Y-34316092D01*
X36849500Y-34461079D01*
X36849500Y-34461082D01*
X36849500Y-34608918D01*
X36849500Y-34608920D01*
X36849499Y-34608920D01*
X17453354Y-34608920D01*
X17415789Y-34493308D01*
X17415788Y-34493306D01*
X17405220Y-34460780D01*
X17331497Y-34316092D01*
X17312287Y-34278390D01*
X17304556Y-34267749D01*
X17191971Y-34112786D01*
X17047213Y-33968028D01*
X16881614Y-33847715D01*
X16875006Y-33844348D01*
X16788917Y-33800483D01*
X16738123Y-33752511D01*
X16721328Y-33684690D01*
X16743865Y-33618555D01*
X16788917Y-33579516D01*
X16881610Y-33532287D01*
X16939142Y-33490488D01*
X17047213Y-33411971D01*
X17047215Y-33411968D01*
X17047219Y-33411966D01*
X17191966Y-33267219D01*
X17191968Y-33267215D01*
X17191971Y-33267213D01*
X17234321Y-33208920D01*
X40649499Y-33208920D01*
X40678340Y-33353907D01*
X40678343Y-33353917D01*
X40734912Y-33490488D01*
X40734919Y-33490501D01*
X40817048Y-33613415D01*
X40817051Y-33613419D01*
X40921580Y-33717948D01*
X40921584Y-33717951D01*
X41044498Y-33800080D01*
X41044511Y-33800087D01*
X41181082Y-33856656D01*
X41181087Y-33856658D01*
X41181091Y-33856658D01*
X41181092Y-33856659D01*
X41326079Y-33885500D01*
X41326082Y-33885500D01*
X41473920Y-33885500D01*
X41571462Y-33866096D01*
X41618913Y-33856658D01*
X41752547Y-33801304D01*
X41822017Y-33793836D01*
X41847452Y-33801304D01*
X41981087Y-33856658D01*
X41981091Y-33856658D01*
X41981092Y-33856659D01*
X42126079Y-33885500D01*
X42126082Y-33885500D01*
X42273920Y-33885500D01*
X42371462Y-33866096D01*
X42418913Y-33856658D01*
X42555495Y-33800084D01*
X42678416Y-33717951D01*
X42782951Y-33613416D01*
X42865084Y-33490495D01*
X42921658Y-33353913D01*
X42950500Y-33208918D01*
X42950500Y-33061082D01*
X42950500Y-33061079D01*
X42921659Y-32916092D01*
X42921658Y-32916091D01*
X42921658Y-32916087D01*
X42921656Y-32916082D01*
X42865087Y-32779511D01*
X42865080Y-32779498D01*
X42782951Y-32656584D01*
X42782948Y-32656580D01*
X42678419Y-32552051D01*
X42678415Y-32552048D01*
X42555501Y-32469919D01*
X42555488Y-32469912D01*
X42418917Y-32413343D01*
X42418907Y-32413340D01*
X42273920Y-32384500D01*
X42273918Y-32384500D01*
X42126082Y-32384500D01*
X42126080Y-32384500D01*
X41981092Y-32413340D01*
X41981082Y-32413343D01*
X41847452Y-32468694D01*
X41777982Y-32476163D01*
X41752548Y-32468694D01*
X41618917Y-32413343D01*
X41618907Y-32413340D01*
X41473920Y-32384500D01*
X41473918Y-32384500D01*
X41326082Y-32384500D01*
X41326080Y-32384500D01*
X41181092Y-32413340D01*
X41181082Y-32413343D01*
X41044511Y-32469912D01*
X41044498Y-32469919D01*
X40921584Y-32552048D01*
X40921580Y-32552051D01*
X40817051Y-32656580D01*
X40817048Y-32656584D01*
X40734919Y-32779498D01*
X40734912Y-32779511D01*
X40678343Y-32916082D01*
X40678340Y-32916092D01*
X40649500Y-33061079D01*
X40649500Y-33061082D01*
X40649500Y-33208918D01*
X40649500Y-33208920D01*
X40649499Y-33208920D01*
X17234321Y-33208920D01*
X17244732Y-33194590D01*
X17312287Y-33101610D01*
X17405220Y-32919219D01*
X17468477Y-32724534D01*
X17500500Y-32522352D01*
X17500500Y-32317648D01*
X17468477Y-32115466D01*
X17405220Y-31920781D01*
X17405218Y-31920778D01*
X17405218Y-31920776D01*
X17371503Y-31854607D01*
X17312287Y-31738390D01*
X17304556Y-31727749D01*
X17191971Y-31572786D01*
X17047213Y-31428028D01*
X16881614Y-31307715D01*
X16875006Y-31304348D01*
X16788917Y-31260483D01*
X16738123Y-31212511D01*
X16721328Y-31144690D01*
X16743865Y-31078555D01*
X16788917Y-31039516D01*
X16881610Y-30992287D01*
X16902770Y-30976913D01*
X17047213Y-30871971D01*
X17047215Y-30871968D01*
X17047219Y-30871966D01*
X17191966Y-30727219D01*
X17191968Y-30727215D01*
X17191971Y-30727213D01*
X17244732Y-30654590D01*
X17312287Y-30561610D01*
X17405220Y-30379219D01*
X17468477Y-30184534D01*
X17500500Y-29982352D01*
X17500500Y-29777648D01*
X17468477Y-29575466D01*
X17405220Y-29380781D01*
X17405218Y-29380778D01*
X17405218Y-29380776D01*
X17371503Y-29314607D01*
X17312287Y-29198390D01*
X17304556Y-29187749D01*
X17191971Y-29032786D01*
X17047213Y-28888028D01*
X16881613Y-28767715D01*
X16881612Y-28767714D01*
X16881610Y-28767713D01*
X16824653Y-28738691D01*
X16699223Y-28674781D01*
X16504534Y-28611522D01*
X16329995Y-28583878D01*
X16302352Y-28579500D01*
X16097648Y-28579500D01*
X16073329Y-28583351D01*
X15895465Y-28611522D01*
X15700776Y-28674781D01*
X15518386Y-28767715D01*
X15352786Y-28888028D01*
X15208028Y-29032786D01*
X15087715Y-29198386D01*
X14994781Y-29380776D01*
X14931522Y-29575465D01*
X14899500Y-29777648D01*
X12500500Y-29777648D01*
X12500500Y-21147500D01*
X14862769Y-21147500D01*
X15699252Y-21147500D01*
X15677482Y-21185208D01*
X15640000Y-21325091D01*
X15640000Y-21469909D01*
X15677482Y-21609792D01*
X15699252Y-21647500D01*
X14862769Y-21647500D01*
X14873242Y-21713626D01*
X14873242Y-21713629D01*
X14938904Y-21915717D01*
X15035379Y-22105057D01*
X15160272Y-22276959D01*
X15160276Y-22276964D01*
X15310535Y-22427223D01*
X15310540Y-22427227D01*
X15482442Y-22552120D01*
X15546563Y-22584792D01*
X15597359Y-22632766D01*
X15614154Y-22700587D01*
X15591617Y-22766722D01*
X15546565Y-22805761D01*
X15508386Y-22825214D01*
X15342786Y-22945528D01*
X15198028Y-23090286D01*
X15077715Y-23255886D01*
X14984781Y-23438276D01*
X14921522Y-23632965D01*
X14889500Y-23835148D01*
X14889500Y-24039851D01*
X14921522Y-24242034D01*
X14984781Y-24436723D01*
X15077715Y-24619113D01*
X15198028Y-24784713D01*
X15342786Y-24929471D01*
X15374734Y-24952682D01*
X15417400Y-25008011D01*
X15423379Y-25077625D01*
X15390774Y-25139420D01*
X15329935Y-25173777D01*
X15301849Y-25177000D01*
X15285730Y-25177000D01*
X15255300Y-25179853D01*
X15255298Y-25179853D01*
X15127119Y-25224706D01*
X15127117Y-25224707D01*
X15017850Y-25305350D01*
X14937207Y-25414617D01*
X14937206Y-25414619D01*
X14892353Y-25542798D01*
X14892353Y-25542800D01*
X14889500Y-25573230D01*
X14889500Y-27381769D01*
X14892353Y-27412199D01*
X14892353Y-27412201D01*
X14937206Y-27540380D01*
X14937207Y-27540382D01*
X15017850Y-27649650D01*
X15127118Y-27730293D01*
X15169845Y-27745244D01*
X15255299Y-27775146D01*
X15285730Y-27778000D01*
X15285734Y-27778000D01*
X17094270Y-27778000D01*
X17124699Y-27775146D01*
X17124701Y-27775146D01*
X17188790Y-27752719D01*
X17252882Y-27730293D01*
X17362150Y-27649650D01*
X17442793Y-27540382D01*
X17465219Y-27476290D01*
X17487646Y-27412201D01*
X17487646Y-27412199D01*
X17490500Y-27381769D01*
X17490500Y-25573230D01*
X17487646Y-25542800D01*
X17487646Y-25542798D01*
X17442793Y-25414619D01*
X17442792Y-25414617D01*
X17416077Y-25378419D01*
X17362150Y-25305350D01*
X17252882Y-25224707D01*
X17252880Y-25224706D01*
X17124700Y-25179853D01*
X17094270Y-25177000D01*
X17094266Y-25177000D01*
X17078151Y-25177000D01*
X17011112Y-25157315D01*
X16965357Y-25104511D01*
X16955413Y-25035353D01*
X16984438Y-24971797D01*
X17005266Y-24952682D01*
X17037213Y-24929471D01*
X17037215Y-24929468D01*
X17037219Y-24929466D01*
X17181966Y-24784719D01*
X17181968Y-24784715D01*
X17181971Y-24784713D01*
X17257262Y-24681082D01*
X17302287Y-24619110D01*
X17395220Y-24436719D01*
X17458477Y-24242034D01*
X17490500Y-24039852D01*
X17490500Y-23835148D01*
X17458477Y-23632966D01*
X17395220Y-23438281D01*
X17395218Y-23438278D01*
X17395218Y-23438276D01*
X17312575Y-23276082D01*
X17302287Y-23255890D01*
X17294556Y-23245249D01*
X17181971Y-23090286D01*
X17037213Y-22945528D01*
X16871611Y-22825213D01*
X16833435Y-22805761D01*
X16782640Y-22757786D01*
X16765845Y-22689965D01*
X16788383Y-22623831D01*
X16833437Y-22584792D01*
X16897555Y-22552122D01*
X17069459Y-22427227D01*
X17069464Y-22427223D01*
X17219723Y-22276964D01*
X17219727Y-22276959D01*
X17344620Y-22105057D01*
X17360485Y-22073920D01*
X18849499Y-22073920D01*
X18878340Y-22218907D01*
X18878343Y-22218917D01*
X18934912Y-22355488D01*
X18934919Y-22355501D01*
X19017048Y-22478415D01*
X19017051Y-22478419D01*
X19121580Y-22582948D01*
X19121584Y-22582951D01*
X19244498Y-22665080D01*
X19244511Y-22665087D01*
X19386714Y-22723989D01*
X19385673Y-22726500D01*
X19434309Y-22758382D01*
X19462758Y-22822197D01*
X19452189Y-22891263D01*
X19442967Y-22907623D01*
X19384922Y-22994493D01*
X19384912Y-22994511D01*
X19328343Y-23131082D01*
X19328340Y-23131092D01*
X19299500Y-23276079D01*
X19299500Y-23276082D01*
X19299500Y-23423918D01*
X19299500Y-23423920D01*
X19299499Y-23423920D01*
X19328340Y-23568907D01*
X19328343Y-23568917D01*
X19384912Y-23705488D01*
X19384919Y-23705501D01*
X19467048Y-23828415D01*
X19467051Y-23828419D01*
X19571580Y-23932948D01*
X19571584Y-23932951D01*
X19694498Y-24015080D01*
X19694511Y-24015087D01*
X19754300Y-24039852D01*
X19831087Y-24071658D01*
X19831091Y-24071658D01*
X19831092Y-24071659D01*
X19976079Y-24100500D01*
X19976082Y-24100500D01*
X20123920Y-24100500D01*
X20255421Y-24074342D01*
X20325013Y-24080569D01*
X20380190Y-24123432D01*
X20403435Y-24189321D01*
X20387368Y-24257318D01*
X20348504Y-24299061D01*
X20321584Y-24317048D01*
X20321580Y-24317051D01*
X20217051Y-24421580D01*
X20217048Y-24421584D01*
X20134919Y-24544498D01*
X20134912Y-24544511D01*
X20078343Y-24681082D01*
X20078340Y-24681092D01*
X20049500Y-24826079D01*
X20049500Y-24826082D01*
X20049500Y-24973918D01*
X20049500Y-24973920D01*
X20049499Y-24973920D01*
X20078340Y-25118907D01*
X20078343Y-25118917D01*
X20134912Y-25255488D01*
X20134919Y-25255501D01*
X20217048Y-25378415D01*
X20217051Y-25378419D01*
X20321580Y-25482948D01*
X20321584Y-25482951D01*
X20444498Y-25565080D01*
X20444511Y-25565087D01*
X20581082Y-25621656D01*
X20581087Y-25621658D01*
X20581091Y-25621658D01*
X20581092Y-25621659D01*
X20726079Y-25650500D01*
X20726082Y-25650500D01*
X20873920Y-25650500D01*
X20971462Y-25631096D01*
X21018913Y-25621658D01*
X21155495Y-25565084D01*
X21278416Y-25482951D01*
X21382951Y-25378416D01*
X21465084Y-25255495D01*
X21521658Y-25118913D01*
X21538280Y-25035353D01*
X21550500Y-24973920D01*
X21550500Y-24826079D01*
X21521659Y-24681092D01*
X21521658Y-24681091D01*
X21521658Y-24681087D01*
X21495988Y-24619113D01*
X21465087Y-24544511D01*
X21465080Y-24544498D01*
X21382951Y-24421584D01*
X21382948Y-24421580D01*
X21278419Y-24317051D01*
X21278415Y-24317048D01*
X21155501Y-24234919D01*
X21155488Y-24234912D01*
X21018917Y-24178343D01*
X21018907Y-24178340D01*
X20873920Y-24149500D01*
X20873918Y-24149500D01*
X20726082Y-24149500D01*
X20726077Y-24149500D01*
X20594577Y-24175657D01*
X20524985Y-24169430D01*
X20469808Y-24126567D01*
X20446564Y-24060677D01*
X20462632Y-23992680D01*
X20501495Y-23950938D01*
X20528416Y-23932951D01*
X20632951Y-23828416D01*
X20715084Y-23705495D01*
X20771658Y-23568913D01*
X20800500Y-23423918D01*
X20800500Y-23276082D01*
X20800500Y-23276079D01*
X20771659Y-23131092D01*
X20771658Y-23131091D01*
X20771658Y-23131087D01*
X20754756Y-23090281D01*
X20715087Y-22994511D01*
X20715080Y-22994498D01*
X20632951Y-22871584D01*
X20632948Y-22871580D01*
X20528419Y-22767051D01*
X20528415Y-22767048D01*
X20405501Y-22684919D01*
X20405488Y-22684912D01*
X20263286Y-22626011D01*
X20264316Y-22623522D01*
X20215605Y-22591518D01*
X20187224Y-22527672D01*
X20197866Y-22458617D01*
X20207024Y-22442387D01*
X20265084Y-22355495D01*
X20321658Y-22218913D01*
X20344306Y-22105057D01*
X20350500Y-22073920D01*
X20350500Y-21926079D01*
X20321659Y-21781092D01*
X20321658Y-21781091D01*
X20321658Y-21781087D01*
X20316613Y-21768907D01*
X20265087Y-21644511D01*
X20265080Y-21644498D01*
X20251330Y-21623920D01*
X26299499Y-21623920D01*
X26328340Y-21768907D01*
X26328343Y-21768917D01*
X26384912Y-21905488D01*
X26384919Y-21905501D01*
X26467048Y-22028415D01*
X26467051Y-22028419D01*
X26571580Y-22132948D01*
X26571584Y-22132951D01*
X26694498Y-22215080D01*
X26694511Y-22215087D01*
X26831082Y-22271656D01*
X26831087Y-22271658D01*
X26831091Y-22271658D01*
X26831092Y-22271659D01*
X26976079Y-22300500D01*
X26976082Y-22300500D01*
X27123920Y-22300500D01*
X27221462Y-22281096D01*
X27268913Y-22271658D01*
X27396251Y-22218913D01*
X27405488Y-22215087D01*
X27405488Y-22215086D01*
X27405495Y-22215084D01*
X27528416Y-22132951D01*
X27632951Y-22028416D01*
X27715084Y-21905495D01*
X27771658Y-21768913D01*
X27796405Y-21644505D01*
X27800500Y-21623920D01*
X27800500Y-21573920D01*
X34049499Y-21573920D01*
X34078340Y-21718907D01*
X34078343Y-21718917D01*
X34134912Y-21855488D01*
X34134919Y-21855501D01*
X34217048Y-21978415D01*
X34217051Y-21978419D01*
X34321580Y-22082948D01*
X34321584Y-22082951D01*
X34444498Y-22165080D01*
X34444511Y-22165087D01*
X34581082Y-22221656D01*
X34581087Y-22221658D01*
X34581091Y-22221658D01*
X34581092Y-22221659D01*
X34726079Y-22250500D01*
X34726082Y-22250500D01*
X34873920Y-22250500D01*
X34971462Y-22231096D01*
X35018913Y-22221658D01*
X35155495Y-22165084D01*
X35278416Y-22082951D01*
X35382951Y-21978416D01*
X35465084Y-21855495D01*
X35521658Y-21718913D01*
X35536459Y-21644505D01*
X35550500Y-21573920D01*
X35550500Y-21426079D01*
X35521659Y-21281092D01*
X35521658Y-21281091D01*
X35521658Y-21281087D01*
X35466325Y-21147500D01*
X35465087Y-21144511D01*
X35465080Y-21144498D01*
X35382951Y-21021584D01*
X35382948Y-21021580D01*
X35278419Y-20917051D01*
X35278415Y-20917048D01*
X35155501Y-20834919D01*
X35155488Y-20834912D01*
X35018917Y-20778343D01*
X35018907Y-20778340D01*
X34873920Y-20749500D01*
X34873918Y-20749500D01*
X34726082Y-20749500D01*
X34726080Y-20749500D01*
X34581092Y-20778340D01*
X34581082Y-20778343D01*
X34444511Y-20834912D01*
X34444498Y-20834919D01*
X34321584Y-20917048D01*
X34321580Y-20917051D01*
X34217051Y-21021580D01*
X34217048Y-21021584D01*
X34134919Y-21144498D01*
X34134912Y-21144511D01*
X34078343Y-21281082D01*
X34078340Y-21281092D01*
X34049500Y-21426079D01*
X34049500Y-21426082D01*
X34049500Y-21573918D01*
X34049500Y-21573920D01*
X34049499Y-21573920D01*
X27800500Y-21573920D01*
X27800500Y-21476079D01*
X27794155Y-21444182D01*
X27771659Y-21331092D01*
X27771658Y-21331091D01*
X27771658Y-21331087D01*
X27769174Y-21325091D01*
X27715087Y-21194511D01*
X27715080Y-21194498D01*
X27632951Y-21071584D01*
X27632948Y-21071580D01*
X27528419Y-20967051D01*
X27528415Y-20967048D01*
X27405501Y-20884919D01*
X27405488Y-20884912D01*
X27268917Y-20828343D01*
X27268907Y-20828340D01*
X27123920Y-20799500D01*
X27123918Y-20799500D01*
X26976082Y-20799500D01*
X26976080Y-20799500D01*
X26831092Y-20828340D01*
X26831082Y-20828343D01*
X26694511Y-20884912D01*
X26694498Y-20884919D01*
X26571584Y-20967048D01*
X26571580Y-20967051D01*
X26467051Y-21071580D01*
X26467048Y-21071584D01*
X26384919Y-21194498D01*
X26384912Y-21194511D01*
X26328343Y-21331082D01*
X26328340Y-21331092D01*
X26299500Y-21476079D01*
X26299500Y-21476082D01*
X26299500Y-21623918D01*
X26299500Y-21623920D01*
X26299499Y-21623920D01*
X20251330Y-21623920D01*
X20194509Y-21538881D01*
X20182951Y-21521584D01*
X20182948Y-21521580D01*
X20078419Y-21417051D01*
X20078415Y-21417048D01*
X19955501Y-21334919D01*
X19955488Y-21334912D01*
X19818917Y-21278343D01*
X19818907Y-21278340D01*
X19673920Y-21249500D01*
X19673918Y-21249500D01*
X19526082Y-21249500D01*
X19526080Y-21249500D01*
X19381092Y-21278340D01*
X19381082Y-21278343D01*
X19244511Y-21334912D01*
X19244498Y-21334919D01*
X19121584Y-21417048D01*
X19121580Y-21417051D01*
X19017051Y-21521580D01*
X19017048Y-21521584D01*
X18934919Y-21644498D01*
X18934912Y-21644511D01*
X18878343Y-21781082D01*
X18878340Y-21781092D01*
X18849500Y-21926079D01*
X18849500Y-21926082D01*
X18849500Y-22073918D01*
X18849500Y-22073920D01*
X18849499Y-22073920D01*
X17360485Y-22073920D01*
X17441096Y-21915715D01*
X17452157Y-21881673D01*
X17452157Y-21881672D01*
X17506757Y-21713629D01*
X17506757Y-21713626D01*
X17517231Y-21647500D01*
X16680748Y-21647500D01*
X16702518Y-21609792D01*
X16740000Y-21469909D01*
X16740000Y-21325091D01*
X16702518Y-21185208D01*
X16680748Y-21147500D01*
X17517231Y-21147500D01*
X17506757Y-21081373D01*
X17506757Y-21081370D01*
X17441095Y-20879282D01*
X17344620Y-20689942D01*
X17219727Y-20518040D01*
X17219723Y-20518035D01*
X17069464Y-20367776D01*
X17069459Y-20367772D01*
X16897557Y-20242879D01*
X16833436Y-20210207D01*
X16782640Y-20162232D01*
X16765845Y-20094411D01*
X16788383Y-20028276D01*
X16833437Y-19989237D01*
X16871610Y-19969787D01*
X16960111Y-19905488D01*
X17037213Y-19849471D01*
X17037215Y-19849468D01*
X17037219Y-19849466D01*
X17181966Y-19704719D01*
X17181968Y-19704715D01*
X17181971Y-19704713D01*
X17240670Y-19623920D01*
X26799499Y-19623920D01*
X26828340Y-19768907D01*
X26828343Y-19768917D01*
X26884912Y-19905488D01*
X26884919Y-19905501D01*
X26967048Y-20028415D01*
X26967051Y-20028419D01*
X27071580Y-20132948D01*
X27071584Y-20132951D01*
X27194498Y-20215080D01*
X27194511Y-20215087D01*
X27331082Y-20271656D01*
X27331087Y-20271658D01*
X27331091Y-20271658D01*
X27331092Y-20271659D01*
X27476079Y-20300500D01*
X27476082Y-20300500D01*
X27623920Y-20300500D01*
X27721462Y-20281096D01*
X27768913Y-20271658D01*
X27905495Y-20215084D01*
X28028416Y-20132951D01*
X28132951Y-20028416D01*
X28215084Y-19905495D01*
X28271658Y-19768913D01*
X28284427Y-19704719D01*
X28300500Y-19623920D01*
X28300500Y-19476079D01*
X28271659Y-19331092D01*
X28271658Y-19331091D01*
X28271658Y-19331087D01*
X28271656Y-19331082D01*
X28215087Y-19194511D01*
X28215080Y-19194498D01*
X28132951Y-19071584D01*
X28132948Y-19071580D01*
X28028419Y-18967051D01*
X28028415Y-18967048D01*
X27905501Y-18884919D01*
X27905488Y-18884912D01*
X27768917Y-18828343D01*
X27768907Y-18828340D01*
X27623920Y-18799500D01*
X27623918Y-18799500D01*
X27476082Y-18799500D01*
X27476080Y-18799500D01*
X27331092Y-18828340D01*
X27331082Y-18828343D01*
X27194511Y-18884912D01*
X27194498Y-18884919D01*
X27071584Y-18967048D01*
X27071580Y-18967051D01*
X26967051Y-19071580D01*
X26967048Y-19071584D01*
X26884919Y-19194498D01*
X26884912Y-19194511D01*
X26828343Y-19331082D01*
X26828340Y-19331092D01*
X26799500Y-19476079D01*
X26799500Y-19476082D01*
X26799500Y-19623918D01*
X26799500Y-19623920D01*
X26799499Y-19623920D01*
X17240670Y-19623920D01*
X17302284Y-19539114D01*
X17302285Y-19539113D01*
X17302287Y-19539110D01*
X17366191Y-19413692D01*
X17395216Y-19356728D01*
X17395218Y-19356723D01*
X17395220Y-19356719D01*
X17458477Y-19162034D01*
X17490500Y-18959852D01*
X17490500Y-18755148D01*
X17469715Y-18623920D01*
X18999499Y-18623920D01*
X19028340Y-18768907D01*
X19028343Y-18768917D01*
X19084912Y-18905488D01*
X19084919Y-18905501D01*
X19167048Y-19028415D01*
X19167051Y-19028419D01*
X19271580Y-19132948D01*
X19271584Y-19132951D01*
X19394498Y-19215080D01*
X19394511Y-19215087D01*
X19531082Y-19271656D01*
X19531087Y-19271658D01*
X19531091Y-19271658D01*
X19531092Y-19271659D01*
X19676079Y-19300500D01*
X19676082Y-19300500D01*
X19823920Y-19300500D01*
X19921462Y-19281096D01*
X19968913Y-19271658D01*
X20105495Y-19215084D01*
X20228416Y-19132951D01*
X20332951Y-19028416D01*
X20415084Y-18905495D01*
X20471658Y-18768913D01*
X20500500Y-18623918D01*
X20500500Y-18476082D01*
X20500500Y-18476079D01*
X20471659Y-18331092D01*
X20471658Y-18331091D01*
X20471658Y-18331087D01*
X20471656Y-18331082D01*
X20415087Y-18194511D01*
X20415080Y-18194498D01*
X20332951Y-18071584D01*
X20332948Y-18071580D01*
X20228419Y-17967051D01*
X20228415Y-17967048D01*
X20105501Y-17884919D01*
X20105488Y-17884912D01*
X19968917Y-17828343D01*
X19968907Y-17828340D01*
X19823920Y-17799500D01*
X19823918Y-17799500D01*
X19676082Y-17799500D01*
X19676080Y-17799500D01*
X19531092Y-17828340D01*
X19531082Y-17828343D01*
X19394511Y-17884912D01*
X19394498Y-17884919D01*
X19271584Y-17967048D01*
X19271580Y-17967051D01*
X19167051Y-18071580D01*
X19167048Y-18071584D01*
X19084919Y-18194498D01*
X19084912Y-18194511D01*
X19028343Y-18331082D01*
X19028340Y-18331092D01*
X18999500Y-18476079D01*
X18999500Y-18476082D01*
X18999500Y-18623918D01*
X18999500Y-18623920D01*
X18999499Y-18623920D01*
X17469715Y-18623920D01*
X17458477Y-18552966D01*
X17395220Y-18358281D01*
X17395218Y-18358278D01*
X17395218Y-18358276D01*
X17361503Y-18292107D01*
X17302287Y-18175890D01*
X17294556Y-18165249D01*
X17181971Y-18010286D01*
X17037213Y-17865528D01*
X16871613Y-17745215D01*
X16871612Y-17745214D01*
X16871610Y-17745213D01*
X16814653Y-17716191D01*
X16689223Y-17652281D01*
X16494534Y-17589022D01*
X16319995Y-17561378D01*
X16292352Y-17557000D01*
X16087648Y-17557000D01*
X16063329Y-17560851D01*
X15885465Y-17589022D01*
X15690776Y-17652281D01*
X15508386Y-17745215D01*
X15342786Y-17865528D01*
X15198028Y-18010286D01*
X15077715Y-18175886D01*
X14984781Y-18358276D01*
X14921522Y-18552965D01*
X14889500Y-18755148D01*
X14889500Y-18959851D01*
X14921522Y-19162034D01*
X14984781Y-19356723D01*
X15077715Y-19539113D01*
X15198028Y-19704713D01*
X15342786Y-19849471D01*
X15508385Y-19969784D01*
X15508387Y-19969785D01*
X15508390Y-19969787D01*
X15546563Y-19989237D01*
X15597359Y-20037212D01*
X15614154Y-20105033D01*
X15591617Y-20171168D01*
X15546564Y-20210206D01*
X15482444Y-20242877D01*
X15310540Y-20367772D01*
X15310535Y-20367776D01*
X15160276Y-20518035D01*
X15160272Y-20518040D01*
X15035379Y-20689942D01*
X14938904Y-20879282D01*
X14873242Y-21081370D01*
X14873242Y-21081373D01*
X14862769Y-21147500D01*
X12500500Y-21147500D01*
X12500500Y-14908920D01*
X21149499Y-14908920D01*
X21178340Y-15053907D01*
X21178343Y-15053917D01*
X21234912Y-15190488D01*
X21234919Y-15190501D01*
X21317048Y-15313415D01*
X21317051Y-15313419D01*
X21421580Y-15417948D01*
X21421584Y-15417951D01*
X21544498Y-15500080D01*
X21544511Y-15500087D01*
X21681082Y-15556656D01*
X21681087Y-15556658D01*
X21681091Y-15556658D01*
X21681092Y-15556659D01*
X21826079Y-15585500D01*
X21826082Y-15585500D01*
X21973920Y-15585500D01*
X22071462Y-15566096D01*
X22118913Y-15556658D01*
X22252547Y-15501304D01*
X22322017Y-15493836D01*
X22347452Y-15501304D01*
X22481087Y-15556658D01*
X22481091Y-15556658D01*
X22481092Y-15556659D01*
X22626079Y-15585500D01*
X22626082Y-15585500D01*
X22773920Y-15585500D01*
X22871462Y-15566096D01*
X22918913Y-15556658D01*
X23052547Y-15501304D01*
X23122017Y-15493836D01*
X23147452Y-15501304D01*
X23281087Y-15556658D01*
X23281091Y-15556658D01*
X23281092Y-15556659D01*
X23426079Y-15585500D01*
X23426082Y-15585500D01*
X23573920Y-15585500D01*
X23671462Y-15566096D01*
X23718913Y-15556658D01*
X23855495Y-15500084D01*
X23978416Y-15417951D01*
X24082951Y-15313416D01*
X24165084Y-15190495D01*
X24221658Y-15053913D01*
X24250500Y-14908918D01*
X24250500Y-14761082D01*
X24250500Y-14761079D01*
X24221659Y-14616092D01*
X24221658Y-14616091D01*
X24221658Y-14616087D01*
X24221656Y-14616082D01*
X24165087Y-14479511D01*
X24165080Y-14479498D01*
X24082951Y-14356584D01*
X24082948Y-14356580D01*
X23978419Y-14252051D01*
X23978415Y-14252048D01*
X23855501Y-14169919D01*
X23855488Y-14169912D01*
X23718917Y-14113343D01*
X23718907Y-14113340D01*
X23573920Y-14084500D01*
X23573918Y-14084500D01*
X23426082Y-14084500D01*
X23426080Y-14084500D01*
X23281092Y-14113340D01*
X23281082Y-14113343D01*
X23147452Y-14168694D01*
X23077982Y-14176163D01*
X23052548Y-14168694D01*
X22918917Y-14113343D01*
X22918907Y-14113340D01*
X22773920Y-14084500D01*
X22773918Y-14084500D01*
X22626082Y-14084500D01*
X22626080Y-14084500D01*
X22481092Y-14113340D01*
X22481082Y-14113343D01*
X22347452Y-14168694D01*
X22277982Y-14176163D01*
X22252548Y-14168694D01*
X22118917Y-14113343D01*
X22118907Y-14113340D01*
X21973920Y-14084500D01*
X21973918Y-14084500D01*
X21826082Y-14084500D01*
X21826080Y-14084500D01*
X21681092Y-14113340D01*
X21681082Y-14113343D01*
X21544511Y-14169912D01*
X21544498Y-14169919D01*
X21421584Y-14252048D01*
X21421580Y-14252051D01*
X21317051Y-14356580D01*
X21317048Y-14356584D01*
X21234919Y-14479498D01*
X21234912Y-14479511D01*
X21178343Y-14616082D01*
X21178340Y-14616092D01*
X21149500Y-14761079D01*
X21149500Y-14761082D01*
X21149500Y-14908918D01*
X21149500Y-14908920D01*
X21149499Y-14908920D01*
X12500500Y-14908920D01*
X12500500Y-14504066D01*
X12500765Y-14495956D01*
X12504819Y-14434108D01*
X12517075Y-14247102D01*
X12519190Y-14231048D01*
X12567045Y-13990462D01*
X12571243Y-13974797D01*
X12594337Y-13906762D01*
X12650093Y-13742512D01*
X12656291Y-13727547D01*
X12764790Y-13507533D01*
X12772897Y-13493493D01*
X12909174Y-13289539D01*
X12919039Y-13276681D01*
X13080786Y-13092244D01*
X13092244Y-13080786D01*
X13276681Y-12919039D01*
X13289534Y-12909177D01*
X13493493Y-12772897D01*
X13507533Y-12764790D01*
X13727547Y-12656291D01*
X13742512Y-12650093D01*
X13906762Y-12594337D01*
X13974797Y-12571243D01*
X13990464Y-12567045D01*
X14231048Y-12519190D01*
X14247102Y-12517075D01*
X14495957Y-12500765D01*
X14504067Y-12500500D01*
X14565892Y-12500500D01*
X41434108Y-12500500D01*
X41495933Y-12500500D01*
X41504043Y-12500765D01*
G37*
%TD.AperFunction*%
%TD*%
M02*
