%TF.GenerationSoftware,KiCad,Pcbnew,10.0.6*%
%TF.CreationDate,2026-09-26T23:15:02+10:00*%
%TF.ProjectId,aioair-v2,61696f61-6972-42d7-9632-2e6b69636164,v1.0.0*%
%TF.SameCoordinates,Original*%
%TF.FileFunction,Soldermask,Top*%
%TF.FilePolarity,Negative*%
%FSLAX46Y46*%
G04 Gerber Fmt 4.6, Leading zero omitted, Abs format (unit mm)*
G04 Created by KiCad (PCBNEW 10.0.6) date 2026-09-26 23:15:02*
%MOMM*%
%LPD*%
G01*
G04 APERTURE LIST*
G04 Aperture macros list*
%AMRoundRect*
0 Rectangle with rounded corners*
0 $1 Rounding radius*
0 $2 $3 $4 $5 $6 $7 $8 $9 X,Y pos of 4 corners*
0 Add a 4 corners polygon primitive as box body*
4,1,4,$2,$3,$4,$5,$6,$7,$8,$9,$2,$3,0*
0 Add four circle primitives for the rounded corners*
1,1,$1+$1,$2,$3*
1,1,$1+$1,$4,$5*
1,1,$1+$1,$6,$7*
1,1,$1+$1,$8,$9*
0 Add four rect primitives between the rounded corners*
20,1,$1+$1,$2,$3,$4,$5,0*
20,1,$1+$1,$4,$5,$6,$7,0*
20,1,$1+$1,$6,$7,$8,$9,0*
20,1,$1+$1,$8,$9,$2,$3,0*%
G04 Aperture macros list end*
%ADD10C,3.800000*%
%ADD11C,2.600000*%
%ADD12R,0.800000X0.900000*%
%ADD13RoundRect,0.300000X-0.700000X-1.200000X0.700000X-1.200000X0.700000X1.200000X-0.700000X1.200000X0*%
%ADD14O,2.000000X3.000000*%
%ADD15R,0.900000X0.800000*%
%ADD16C,0.600000*%
%ADD17R,1.700000X1.200000*%
%ADD18R,1.700000X1.500000*%
%ADD19R,0.500000X1.140000*%
%ADD20R,0.300000X1.140000*%
%ADD21R,0.865000X0.805000*%
%ADD22RoundRect,0.300000X0.700000X1.200000X-0.700000X1.200000X-0.700000X-1.200000X0.700000X-1.200000X0*%
%ADD23R,2.000000X0.900000*%
%ADD24R,0.900000X2.000000*%
%ADD25R,5.000000X5.000000*%
%ADD26R,1.700000X1.700000*%
%ADD27O,1.700000X1.700000*%
%ADD28R,1.230000X1.860000*%
%ADD29R,1.100000X2.200000*%
%ADD30R,3.500000X2.200000*%
%ADD31R,1.400000X1.400000*%
%ADD32O,1.400000X1.400000*%
G04 APERTURE END LIST*
D10*
%TO.C,REF\u002A\u002A*%
X28000000Y-53000000D03*
D11*
X28000000Y-53000000D03*
%TD*%
D12*
%TO.C,C13*%
X38225072Y-41912632D03*
X39625072Y-41912632D03*
%TD*%
D13*
%TO.C,U4*%
X24440000Y-67300000D03*
X32060000Y-67300000D03*
D14*
X26980000Y-67300000D03*
X29520000Y-67300000D03*
%TD*%
D15*
%TO.C,C10*%
X29312440Y-46725072D03*
X29312440Y-48125072D03*
%TD*%
%TO.C,C6*%
X25712632Y-55772488D03*
X25712632Y-57172488D03*
%TD*%
D12*
%TO.C,C9*%
X38162536Y-48112536D03*
X39562536Y-48112536D03*
%TD*%
D16*
%TO.C,USB1*%
X25310000Y-71910000D03*
X31090000Y-71910000D03*
D17*
X23000000Y-71240000D03*
D18*
X23000000Y-75440000D03*
D17*
X33400000Y-71240000D03*
D18*
X33400000Y-75440000D03*
D19*
X25000000Y-70820000D03*
X25800000Y-70820000D03*
D20*
X26950000Y-70820000D03*
X27950000Y-70820000D03*
X28450000Y-70820000D03*
X29450000Y-70820000D03*
D19*
X31400000Y-70820000D03*
X30600000Y-70820000D03*
D20*
X29950000Y-70820000D03*
X28950000Y-70820000D03*
X27450000Y-70820000D03*
X26450000Y-70820000D03*
%TD*%
D15*
%TO.C,C19*%
X41865000Y-34470024D03*
X41865000Y-35870024D03*
%TD*%
D12*
%TO.C,C17*%
X38195120Y-49887560D03*
X39595120Y-49887560D03*
%TD*%
D21*
%TO.C,R1*%
X41865000Y-30345000D03*
X41865000Y-31855000D03*
%TD*%
D22*
%TO.C,U7*%
X39200000Y-59800000D03*
X36660000Y-59800000D03*
D14*
X34120000Y-59800000D03*
X31580000Y-59800000D03*
%TD*%
D15*
%TO.C,C15*%
X18562488Y-46697560D03*
X18562488Y-48097560D03*
%TD*%
D21*
%TO.C,R2*%
X34595000Y-67285000D03*
X34595000Y-68795000D03*
%TD*%
D15*
%TO.C,C11*%
X27537416Y-46762536D03*
X27537416Y-48162536D03*
%TD*%
D12*
%TO.C,C12*%
X39600000Y-43662392D03*
X38200000Y-43662392D03*
%TD*%
D23*
%TO.C,U1*%
X39700000Y-32865000D03*
X39700000Y-31595000D03*
X39700000Y-30325000D03*
X39700000Y-29055000D03*
X39700000Y-27785000D03*
X39700000Y-26515000D03*
X39700000Y-25245000D03*
X39700000Y-23975000D03*
X39700000Y-22705000D03*
X39700000Y-21435000D03*
X39700000Y-20165000D03*
X39700000Y-18895000D03*
X39700000Y-17625000D03*
X39700000Y-16355000D03*
D24*
X36915000Y-15135000D03*
X35645000Y-15135000D03*
X34375000Y-15135000D03*
X33105000Y-15135000D03*
X31835000Y-15135000D03*
X30565000Y-15135000D03*
X29295000Y-15135000D03*
X28025000Y-15135000D03*
X26755000Y-15135000D03*
X25485000Y-15135000D03*
D23*
X22700000Y-16355000D03*
X22700000Y-17625000D03*
X22700000Y-18895000D03*
X22700000Y-20165000D03*
X22700000Y-21435000D03*
X22700000Y-22705000D03*
X22700000Y-23975000D03*
X22700000Y-25245000D03*
X22700000Y-26515000D03*
X22700000Y-27785000D03*
X22700000Y-29055000D03*
X22700000Y-30325000D03*
X22700000Y-31595000D03*
X22700000Y-32865000D03*
D25*
X32700000Y-25150000D03*
%TD*%
D15*
%TO.C,C5*%
X23937608Y-57172488D03*
X23937608Y-55772488D03*
%TD*%
%TO.C,C7*%
X18587656Y-51744976D03*
X18587656Y-50344976D03*
%TD*%
D26*
%TO.C,U3*%
X16190000Y-26477500D03*
D27*
X16190000Y-23937500D03*
X16190000Y-21397500D03*
X16190000Y-18857500D03*
%TD*%
D12*
%TO.C,C14*%
X38362536Y-54687656D03*
X39762536Y-54687656D03*
%TD*%
D15*
%TO.C,C4*%
X20437416Y-50327512D03*
X20437416Y-51727512D03*
%TD*%
%TO.C,C16*%
X20312536Y-48102440D03*
X20312536Y-46702440D03*
%TD*%
D28*
%TO.C,SW1*%
X18785000Y-15300000D03*
X14415000Y-15300000D03*
%TD*%
D12*
%TO.C,C18*%
X38395120Y-56462584D03*
X39795120Y-56462584D03*
%TD*%
D21*
%TO.C,R4*%
X20635000Y-16295000D03*
X20635000Y-14785000D03*
%TD*%
D29*
%TO.C,U2*%
X16627500Y-60150000D03*
X18927500Y-60150000D03*
X21227500Y-60150000D03*
D30*
X18927500Y-53950000D03*
%TD*%
D15*
%TO.C,C2*%
X40052464Y-35190024D03*
X40052464Y-36590024D03*
%TD*%
%TO.C,C1*%
X41894976Y-27362512D03*
X41894976Y-28762512D03*
%TD*%
D21*
%TO.C,R3*%
X21825000Y-67305000D03*
X21825000Y-68815000D03*
%TD*%
D31*
%TO.C,CN4*%
X39645000Y-46012500D03*
D32*
X37645000Y-46012500D03*
X35645000Y-46012500D03*
X33645000Y-46012500D03*
X31645000Y-46012500D03*
%TD*%
D26*
%TO.C,U5*%
X16200000Y-48310000D03*
D27*
X16200000Y-45770000D03*
X16200000Y-43230000D03*
X16200000Y-40690000D03*
%TD*%
D31*
%TO.C,CN3*%
X24232500Y-48427500D03*
D32*
X24232500Y-46427500D03*
X24232500Y-44427500D03*
X24232500Y-42427500D03*
X24232500Y-40427500D03*
%TD*%
D26*
%TO.C,U6*%
X16200000Y-37500000D03*
D27*
X16200000Y-34960000D03*
X16200000Y-32420000D03*
X16200000Y-29880000D03*
%TD*%
D31*
%TO.C,CN1*%
X39775000Y-52465000D03*
D32*
X37775000Y-52465000D03*
X35775000Y-52465000D03*
X33775000Y-52465000D03*
%TD*%
D31*
%TO.C,CN2*%
X39645000Y-39922500D03*
D32*
X37645000Y-39922500D03*
X35645000Y-39922500D03*
X33645000Y-39922500D03*
X31645000Y-39922500D03*
%TD*%
M02*
