%TF.GenerationSoftware,KiCad,Pcbnew,10.0.6*%
%TF.CreationDate,2026-09-26T23:15:02+10:00*%
%TF.ProjectId,aioair-v2,61696f61-6972-42d7-9632-2e6b69636164,v1.0.0*%
%TF.SameCoordinates,Original*%
%TF.FileFunction,Copper,L4,Bot*%
%TF.FilePolarity,Positive*%
%FSLAX46Y46*%
G04 Gerber Fmt 4.6, Leading zero omitted, Abs format (unit mm)*
G04 Created by KiCad (PCBNEW 10.0.6) date 2026-09-26 23:15:02*
%MOMM*%
%LPD*%
G01*
G04 APERTURE LIST*
G04 Aperture macros list*
%AMRoundRect*
0 Rectangle with rounded corners*
0 $1 Rounding radius*
0 $2 $3 $4 $5 $6 $7 $8 $9 X,Y pos of 4 corners*
0 Add a 4 corners polygon primitive as box body*
4,1,4,$2,$3,$4,$5,$6,$7,$8,$9,$2,$3,0*
0 Add four circle primitives for the rounded corners*
1,1,$1+$1,$2,$3*
1,1,$1+$1,$4,$5*
1,1,$1+$1,$6,$7*
1,1,$1+$1,$8,$9*
0 Add four rect primitives between the rounded corners*
20,1,$1+$1,$2,$3,$4,$5,0*
20,1,$1+$1,$4,$5,$6,$7,0*
20,1,$1+$1,$6,$7,$8,$9,0*
20,1,$1+$1,$8,$9,$2,$3,0*%
G04 Aperture macros list end*
%TA.AperFunction,ComponentPad*%
%ADD10C,2.600000*%
%TD*%
%TA.AperFunction,ConnectorPad*%
%ADD11C,3.800000*%
%TD*%
%TA.AperFunction,ComponentPad*%
%ADD12RoundRect,0.300000X-0.700000X-1.200000X0.700000X-1.200000X0.700000X1.200000X-0.700000X1.200000X0*%
%TD*%
%TA.AperFunction,ComponentPad*%
%ADD13O,2.000000X3.000000*%
%TD*%
%TA.AperFunction,ComponentPad*%
%ADD14RoundRect,0.300000X0.700000X1.200000X-0.700000X1.200000X-0.700000X-1.200000X0.700000X-1.200000X0*%
%TD*%
%TA.AperFunction,ComponentPad*%
%ADD15R,1.700000X1.700000*%
%TD*%
%TA.AperFunction,ComponentPad*%
%ADD16O,1.700000X1.700000*%
%TD*%
%TA.AperFunction,ComponentPad*%
%ADD17R,1.400000X1.400000*%
%TD*%
%TA.AperFunction,ComponentPad*%
%ADD18O,1.400000X1.400000*%
%TD*%
%TA.AperFunction,ViaPad*%
%ADD19C,0.600000*%
%TD*%
%TA.AperFunction,Conductor*%
%ADD20C,0.250000*%
%TD*%
G04 APERTURE END LIST*
D10*
%TO.P,REF\u002A\u002A,1*%
%TO.N,N/C*%
X28000000Y-53000000D03*
D11*
X28000000Y-53000000D03*
%TD*%
D12*
%TO.P,U4,1,GND_1*%
%TO.N,GND*%
X24440000Y-67300000D03*
%TO.P,U4,2,GND_2*%
X32060000Y-67300000D03*
D13*
%TO.P,U4,3,5V_3*%
%TO.N,+5V*%
X26980000Y-67300000D03*
X29520000Y-67300000D03*
%TD*%
D14*
%TO.P,U7,1,GND_1*%
%TO.N,GND*%
X39200000Y-59800000D03*
%TO.P,U7,2,GND_2*%
X36660000Y-59800000D03*
D13*
%TO.P,U7,3,5V_3*%
%TO.N,+5V*%
X34120000Y-59800000D03*
X31580000Y-59800000D03*
%TD*%
D15*
%TO.P,U3,1,1_1*%
%TO.N,/TXD*%
X16190000Y-26477500D03*
D16*
%TO.P,U3,2,2_2*%
%TO.N,/RXD*%
X16190000Y-23937500D03*
%TO.P,U3,3,3_3*%
%TO.N,GND*%
X16190000Y-21397500D03*
%TO.P,U3,4,4_4*%
%TO.N,+5V*%
X16190000Y-18857500D03*
%TD*%
D17*
%TO.P,CN4,1,1_1*%
%TO.N,+3V3*%
X39645000Y-46012500D03*
D18*
%TO.P,CN4,2,2_2*%
%TO.N,GND*%
X37645000Y-46012500D03*
%TO.P,CN4,3,3_3*%
X35645000Y-46012500D03*
%TO.P,CN4,4,4_4*%
%TO.N,/SDA*%
X33645000Y-46012500D03*
%TO.P,CN4,5,5_5*%
%TO.N,/SCL*%
X31645000Y-46012500D03*
%TD*%
D15*
%TO.P,U5,1,1_1*%
%TO.N,GND*%
X16200000Y-48310000D03*
D16*
%TO.P,U5,2,2_2*%
%TO.N,+3V3*%
X16200000Y-45770000D03*
%TO.P,U5,3,3_3*%
%TO.N,/BL*%
X16200000Y-43230000D03*
%TO.P,U5,4,4_4*%
%TO.N,/D{slash}C*%
X16200000Y-40690000D03*
%TD*%
D17*
%TO.P,CN3,1,1_1*%
%TO.N,+5V*%
X24232500Y-48427500D03*
D18*
%TO.P,CN3,2,2_2*%
%TO.N,GND*%
X24232500Y-46427500D03*
%TO.P,CN3,3,3_3*%
%TO.N,/SEL*%
X24232500Y-44427500D03*
%TO.P,CN3,4,4_4*%
%TO.N,/RX2*%
X24232500Y-42427500D03*
%TO.P,CN3,5,5_5*%
%TO.N,/TX2*%
X24232500Y-40427500D03*
%TD*%
D15*
%TO.P,U6,1,1_1*%
%TO.N,/MOSI*%
X16200000Y-37500000D03*
D16*
%TO.P,U6,2,2_2*%
%TO.N,/MISO*%
X16200000Y-34960000D03*
%TO.P,U6,3,3_3*%
%TO.N,/SCK*%
X16200000Y-32420000D03*
%TO.P,U6,4,4_4*%
%TO.N,/CS*%
X16200000Y-29880000D03*
%TD*%
D17*
%TO.P,CN1,1,1_1*%
%TO.N,+3V3*%
X39775000Y-52465000D03*
D18*
%TO.P,CN1,2,2_2*%
%TO.N,GND*%
X37775000Y-52465000D03*
%TO.P,CN1,3,3_3*%
%TO.N,/SDA*%
X35775000Y-52465000D03*
%TO.P,CN1,4,4_4*%
%TO.N,/SCL*%
X33775000Y-52465000D03*
%TD*%
D17*
%TO.P,CN2,1,1_1*%
%TO.N,+3V3*%
X39645000Y-39922500D03*
D18*
%TO.P,CN2,2,2_2*%
%TO.N,GND*%
X37645000Y-39922500D03*
%TO.P,CN2,3,3_3*%
X35645000Y-39922500D03*
%TO.P,CN2,4,4_4*%
%TO.N,/SDA*%
X33645000Y-39922500D03*
%TO.P,CN2,5,5_5*%
%TO.N,/SCL*%
X31645000Y-39922500D03*
%TD*%
D19*
%TO.N,*%
X28700000Y-64150000D03*
X28700000Y-64650000D03*
X30700000Y-64150000D03*
X27700000Y-64650000D03*
X29200000Y-64150000D03*
X26200000Y-64150000D03*
X31700000Y-64150000D03*
X29700000Y-64150000D03*
X29700000Y-64650000D03*
X26700000Y-64150000D03*
X26700000Y-64650000D03*
X31200000Y-64150000D03*
X27200000Y-64650000D03*
X30700000Y-64650000D03*
X28200000Y-64150000D03*
X29200000Y-64650000D03*
X24700000Y-64650000D03*
X25200000Y-64150000D03*
X30200000Y-64650000D03*
X27700000Y-64150000D03*
X28200000Y-64650000D03*
X29700000Y-64650000D03*
X31700000Y-64650000D03*
X31200000Y-64650000D03*
X25700000Y-64650000D03*
X25200000Y-64650000D03*
X27200000Y-64150000D03*
X26200000Y-64650000D03*
X25700000Y-64150000D03*
X24700000Y-64150000D03*
X29700000Y-64150000D03*
X30200000Y-64150000D03*
%TO.N,GND*%
X36200000Y-33935000D03*
X18050000Y-21450000D03*
X21700000Y-55635000D03*
X41400000Y-38631084D03*
X20500000Y-49235000D03*
X35400000Y-33935000D03*
X39800000Y-37835000D03*
X42200000Y-37035000D03*
X42200000Y-38631084D03*
X36300000Y-43731084D03*
X15900000Y-58135000D03*
X25700000Y-54835000D03*
X36200000Y-32435000D03*
X18900000Y-49235000D03*
X32700000Y-41935000D03*
X41100000Y-58135000D03*
X19700000Y-49235000D03*
X16700000Y-58135000D03*
X32700000Y-47935000D03*
X22600000Y-55635000D03*
X41900000Y-60538916D03*
X36900000Y-49035000D03*
X37200000Y-56431084D03*
X28800000Y-23135000D03*
X24900000Y-27935000D03*
X37700000Y-33235000D03*
X36200000Y-33235000D03*
X41100000Y-61335000D03*
X32700000Y-37935000D03*
X41900000Y-58135000D03*
X27000000Y-55635000D03*
X41400000Y-26135000D03*
X37700000Y-32435000D03*
X42200000Y-26135000D03*
X28800000Y-37035000D03*
X22600000Y-54838916D03*
X41900000Y-61335000D03*
X35400000Y-32435000D03*
X17500000Y-61935000D03*
X15200000Y-59538916D03*
X14400000Y-58135000D03*
X15900000Y-61935000D03*
X27900000Y-40500000D03*
X15200000Y-61935000D03*
X16100000Y-50035000D03*
X36900000Y-32435000D03*
X41900000Y-59731084D03*
X36300000Y-42935000D03*
X34700000Y-50935000D03*
X36900000Y-33235000D03*
X14400000Y-61135000D03*
X37200000Y-55635000D03*
X40600000Y-37835000D03*
X32700000Y-34935000D03*
X16900000Y-50035000D03*
X36900000Y-49831084D03*
X18050000Y-20650000D03*
X36100000Y-48235000D03*
X14400000Y-58835000D03*
X28800000Y-33135000D03*
X37200000Y-54835000D03*
X32700000Y-43935000D03*
X41900000Y-58931084D03*
X15300000Y-50035000D03*
X41100000Y-59731084D03*
X16600000Y-15300000D03*
X39000000Y-37835000D03*
X15200000Y-60338916D03*
X30600000Y-31235000D03*
X41100000Y-60538916D03*
X14400000Y-61935000D03*
X23900000Y-54835000D03*
X14400000Y-59538916D03*
X32700000Y-42935000D03*
X42200000Y-25435000D03*
X37100000Y-43731084D03*
X37400000Y-37835000D03*
X18050000Y-22250000D03*
X15200000Y-58135000D03*
X36400000Y-54835000D03*
X18100000Y-49235000D03*
X36100000Y-49035000D03*
X36300000Y-42135000D03*
X18300000Y-61935000D03*
X27000000Y-54838916D03*
X17850000Y-25600000D03*
X12800000Y-15300000D03*
X32500000Y-33335000D03*
X21700000Y-54838916D03*
X35400000Y-33235000D03*
X41100000Y-58931084D03*
X41400000Y-37035000D03*
X15200000Y-58835000D03*
X21300000Y-49235000D03*
X36900000Y-48235000D03*
X41400000Y-37835000D03*
X41400000Y-25435000D03*
X14400000Y-60338916D03*
X37100000Y-42935000D03*
X38200000Y-37835000D03*
X36400000Y-56431084D03*
X36100000Y-49831084D03*
X15200000Y-61135000D03*
X36400000Y-55635000D03*
X42200000Y-37835000D03*
X37100000Y-42135000D03*
X16700000Y-61935000D03*
%TO.N,+3V3*%
X24300000Y-52600000D03*
X40900000Y-55935000D03*
X37600000Y-34535000D03*
X40800000Y-43235000D03*
X40900000Y-54335000D03*
X20700000Y-45435000D03*
X41600000Y-42435000D03*
X40700000Y-47835000D03*
X18303916Y-44635000D03*
X23500000Y-53335000D03*
X23500000Y-14835000D03*
X40700000Y-48635000D03*
X40700000Y-50231084D03*
X21900000Y-53335000D03*
X41500000Y-49435000D03*
X24300000Y-51900000D03*
X23500000Y-52600000D03*
X24300000Y-53335000D03*
X40800000Y-42435000D03*
X19103916Y-45435000D03*
X22700000Y-51900000D03*
X41600000Y-41635000D03*
X20700000Y-44635000D03*
X21900000Y-52600000D03*
X41500000Y-50231084D03*
X41600000Y-43235000D03*
X21900000Y-14835000D03*
X19903916Y-45435000D03*
X41500000Y-48635000D03*
X22700000Y-53335000D03*
X38400000Y-35335000D03*
X19903916Y-44635000D03*
X23500000Y-51200000D03*
X40900000Y-55135000D03*
X22700000Y-52600000D03*
X18303916Y-45435000D03*
X41500000Y-47835000D03*
X41700000Y-55935000D03*
X22700000Y-51200000D03*
X40800000Y-44031084D03*
X37600000Y-35335000D03*
X23500000Y-51900000D03*
X41700000Y-54335000D03*
X19103916Y-44635000D03*
X38400000Y-36931084D03*
X37600000Y-36135000D03*
X42200000Y-33135000D03*
X21900000Y-51200000D03*
X41400000Y-33135000D03*
X40700000Y-49435000D03*
X21200000Y-53335000D03*
X24300000Y-51200000D03*
X41700000Y-55135000D03*
X38400000Y-36135000D03*
X21900000Y-51900000D03*
X22700000Y-14835000D03*
X40900000Y-56731084D03*
X38400000Y-34535000D03*
X40800000Y-41635000D03*
X41700000Y-56731084D03*
X41600000Y-44031084D03*
X21200000Y-52635000D03*
X37600000Y-36931084D03*
%TO.N,+5V*%
X29500000Y-49335000D03*
X24000000Y-59435000D03*
X23200000Y-58735000D03*
X24000000Y-60135000D03*
X25600000Y-60835000D03*
X24800000Y-60135000D03*
X24800000Y-60835000D03*
X25600000Y-58735000D03*
X24800000Y-59435000D03*
X27400000Y-50135000D03*
X23200000Y-60835000D03*
X24000000Y-58735000D03*
X28100000Y-49335000D03*
X26400000Y-59435000D03*
X28800000Y-50135000D03*
X25600000Y-59435000D03*
X26400000Y-58735000D03*
X23200000Y-59435000D03*
X24800000Y-58735000D03*
X29500000Y-50135000D03*
X24000000Y-60835000D03*
X25600000Y-60135000D03*
X28100000Y-50135000D03*
X28800000Y-49335000D03*
X23200000Y-60135000D03*
X27400000Y-49335000D03*
X26400000Y-60135000D03*
X26400000Y-60835000D03*
%TO.N,/BL*%
X34800000Y-21500000D03*
%TO.N,/D{slash}C*%
X19750000Y-18550000D03*
%TO.N,/RX2*%
X27550000Y-19550000D03*
%TO.N,/TX2*%
X27050000Y-21550000D03*
%TO.N,/CS*%
X19600000Y-22000000D03*
%TO.N,/SCK*%
X20050000Y-23350000D03*
%TO.N,/MISO*%
X20800000Y-24900000D03*
%TD*%
%TO.N,/RX2*%
D20*
X27550000Y-19550000D02*
X29407107Y-21407107D01*
X26858286Y-42427500D02*
X24232500Y-42427500D01*
X29700000Y-22114214D02*
X29700000Y-39585786D01*
X29407107Y-40292893D02*
X27565393Y-42134607D01*
X27565393Y-42134607D02*
G75*
G02*
X26858286Y-42427490I-707093J707107D01*
G01*
X29407107Y-21407107D02*
G75*
G02*
X29699990Y-22114214I-707107J-707093D01*
G01*
X29700000Y-39585786D02*
G75*
G02*
X29407114Y-40292900I-1000000J-14D01*
G01*
%TO.N,/TX2*%
X27900000Y-27200000D02*
X27900000Y-38685786D01*
X27900000Y-23106628D02*
X27900000Y-22814214D01*
X28140000Y-25060000D02*
X28454244Y-25060000D01*
X27607107Y-22107107D02*
X27050000Y-21550000D01*
X28694244Y-26020000D02*
X28694244Y-25900000D01*
X28454244Y-24460000D02*
X28140000Y-24460000D01*
X26158286Y-40427500D02*
X24232500Y-40427500D01*
X27900000Y-25060000D02*
X28140000Y-25060000D01*
X27900000Y-26260000D02*
X28454244Y-26260000D01*
X27345767Y-26260000D02*
X27660000Y-26260000D01*
X27660000Y-26260000D02*
X27900000Y-26260000D01*
X27900000Y-24220000D02*
X27900000Y-24100000D01*
X27345756Y-25060000D02*
X27900000Y-25060000D01*
X27900000Y-25660000D02*
X27345756Y-25660000D01*
X27660000Y-26860000D02*
X27345767Y-26860000D01*
X27105756Y-25420000D02*
X27105756Y-25300000D01*
X27105767Y-26620000D02*
X27105767Y-26500000D01*
X27607107Y-39392893D02*
X26865393Y-40134607D01*
X28694244Y-24820000D02*
X28694244Y-24700000D01*
X28454244Y-25660000D02*
X27900000Y-25660000D01*
X27900000Y-27200000D02*
X27900000Y-27100000D01*
X27900000Y-24100000D02*
X27900000Y-23106628D01*
X27345767Y-26860000D02*
G75*
G02*
X27105800Y-26620000I33J240000D01*
G01*
X27105756Y-25300000D02*
G75*
G02*
X27345756Y-25059956I240044J0D01*
G01*
X28454244Y-25060000D02*
G75*
G03*
X28694200Y-24820000I-44J240000D01*
G01*
X28140000Y-24460000D02*
G75*
G02*
X27900000Y-24220000I0J240000D01*
G01*
X28694244Y-24700000D02*
G75*
G03*
X28454244Y-24459956I-240044J0D01*
G01*
X27900000Y-27100000D02*
G75*
G03*
X27660000Y-26860000I-240000J0D01*
G01*
X27105767Y-26500000D02*
G75*
G02*
X27345767Y-26259967I240033J0D01*
G01*
X27345756Y-25660000D02*
G75*
G02*
X27105800Y-25420000I44J240000D01*
G01*
X26865393Y-40134607D02*
G75*
G02*
X26158286Y-40427490I-707093J707107D01*
G01*
X27900000Y-38685786D02*
G75*
G02*
X27607114Y-39392900I-1000000J-14D01*
G01*
X27607107Y-22107107D02*
G75*
G02*
X27899990Y-22814214I-707107J-707093D01*
G01*
X28454244Y-26260000D02*
G75*
G03*
X28694200Y-26020000I-44J240000D01*
G01*
X28694244Y-25900000D02*
G75*
G03*
X28454244Y-25659956I-240044J0D01*
G01*
%TO.N,/CS*%
X17705786Y-29880000D02*
X16200000Y-29880000D01*
X19600000Y-22000000D02*
X19092893Y-22507107D01*
X18507107Y-29492893D02*
X18412893Y-29587107D01*
X18800000Y-23214214D02*
X18800000Y-28785786D01*
X17705786Y-29880000D02*
G75*
G03*
X18412900Y-29587114I14J1000000D01*
G01*
X19092893Y-22507107D02*
G75*
G03*
X18800010Y-23214214I707107J-707093D01*
G01*
X18507107Y-29492893D02*
G75*
G03*
X18799990Y-28785786I-707107J707093D01*
G01*
%TO.N,/SCK*%
X17865786Y-32420000D02*
X16200000Y-32420000D01*
X19926814Y-23537902D02*
X19912504Y-23552212D01*
X19800000Y-24014214D02*
X19800000Y-30485786D01*
X19926814Y-23473186D02*
X19926814Y-23537902D01*
X19507107Y-31192893D02*
X18572893Y-32127107D01*
X20050000Y-23350000D02*
X19926814Y-23473186D01*
X18572893Y-32127107D02*
G75*
G02*
X17865786Y-32419990I-707093J707107D01*
G01*
X19800000Y-30485786D02*
G75*
G02*
X19507114Y-31192900I-1000000J-14D01*
G01*
X19912504Y-23552212D02*
G75*
G03*
X19799974Y-24014214I896996J-463188D01*
G01*
%TO.N,/MISO*%
X18025786Y-34960000D02*
X16200000Y-34960000D01*
X20800000Y-24900000D02*
X20800000Y-32185786D01*
X20507107Y-32892893D02*
X18732893Y-34667107D01*
X18732893Y-34667107D02*
G75*
G02*
X18025786Y-34959990I-707093J707107D01*
G01*
X20800000Y-32185786D02*
G75*
G02*
X20507114Y-32892900I-1000000J-14D01*
G01*
%TD*%
%TA.AperFunction,Conductor*%
%TO.N,GND*%
G36*
X23161395Y-65305833D02*
G01*
X23172849Y-65309555D01*
X23227349Y-65349149D01*
X23248168Y-65413217D01*
X23232104Y-65470176D01*
X23228794Y-65475577D01*
X23212933Y-65495696D01*
X23110577Y-65598051D01*
X23014663Y-65750697D01*
X23014637Y-65750752D01*
X23014414Y-65751405D01*
X22955124Y-65920851D01*
X22954223Y-65928847D01*
X22940000Y-66055078D01*
X22940000Y-67049999D01*
X22940001Y-67050000D01*
X23950825Y-67050000D01*
X24014894Y-67070817D01*
X24054490Y-67125317D01*
X24056111Y-67187211D01*
X24040000Y-67247339D01*
X24040000Y-67352660D01*
X24056111Y-67412789D01*
X24052585Y-67480063D01*
X24010190Y-67532415D01*
X23950825Y-67550000D01*
X22940001Y-67550000D01*
X22940000Y-67550001D01*
X22940000Y-68544921D01*
X22947857Y-68614651D01*
X22955124Y-68679147D01*
X23014414Y-68848593D01*
X23014638Y-68849250D01*
X23014660Y-68849296D01*
X23014661Y-68849297D01*
X23014662Y-68849300D01*
X23110577Y-69001947D01*
X23238052Y-69129422D01*
X23390699Y-69225337D01*
X23390702Y-69225338D01*
X23390706Y-69225339D01*
X23390747Y-69225359D01*
X23391406Y-69225584D01*
X23560853Y-69284875D01*
X23560854Y-69284875D01*
X23560858Y-69284876D01*
X23695074Y-69300000D01*
X23695079Y-69300000D01*
X24189999Y-69300000D01*
X24190000Y-69299999D01*
X24190000Y-67789174D01*
X24210817Y-67725105D01*
X24265317Y-67685509D01*
X24327207Y-67683888D01*
X24387339Y-67700000D01*
X24492659Y-67700000D01*
X24492661Y-67700000D01*
X24552791Y-67683888D01*
X24620061Y-67687413D01*
X24672415Y-67729808D01*
X24690000Y-67789174D01*
X24690000Y-69299999D01*
X24690001Y-69300000D01*
X25184921Y-69300000D01*
X25184926Y-69300000D01*
X25319140Y-69284876D01*
X25319140Y-69284875D01*
X25319146Y-69284875D01*
X25488682Y-69225552D01*
X25489255Y-69225357D01*
X25489288Y-69225340D01*
X25489297Y-69225338D01*
X25489300Y-69225337D01*
X25641947Y-69129422D01*
X25769422Y-69001947D01*
X25865336Y-68849301D01*
X25904856Y-68736356D01*
X25921006Y-68706340D01*
X25928612Y-68696351D01*
X25983980Y-68657986D01*
X26051326Y-68659491D01*
X26058140Y-68661876D01*
X26099206Y-68687681D01*
X26143195Y-68731669D01*
X26165354Y-68753828D01*
X26231799Y-68802102D01*
X26231800Y-68802104D01*
X26296759Y-68849300D01*
X26324590Y-68869521D01*
X26324602Y-68869528D01*
X26405204Y-68910596D01*
X26499975Y-68958884D01*
X26597354Y-68990524D01*
X26679414Y-69017187D01*
X26679781Y-69017338D01*
X26686956Y-69019639D01*
X26687095Y-69019683D01*
X26687170Y-69019708D01*
X26687171Y-69019708D01*
X26687174Y-69019709D01*
X26881583Y-69050500D01*
X26881584Y-69050500D01*
X27078416Y-69050500D01*
X27078417Y-69050500D01*
X27272826Y-69019709D01*
X27460025Y-68958884D01*
X27635405Y-68869524D01*
X27794646Y-68753828D01*
X27933828Y-68614646D01*
X28049524Y-68455405D01*
X28138884Y-68280025D01*
X28138885Y-68280022D01*
X28140999Y-68273515D01*
X28156474Y-68243138D01*
X28161815Y-68235787D01*
X28216309Y-68196190D01*
X28283675Y-68196186D01*
X28338178Y-68235779D01*
X28338182Y-68235784D01*
X28343517Y-68243127D01*
X28358998Y-68273510D01*
X28361112Y-68280018D01*
X28361114Y-68280023D01*
X28361116Y-68280026D01*
X28450471Y-68455397D01*
X28450478Y-68455409D01*
X28547029Y-68588299D01*
X28547030Y-68588300D01*
X28547029Y-68588300D01*
X28566164Y-68614637D01*
X28566176Y-68614651D01*
X28637027Y-68685501D01*
X28705354Y-68753828D01*
X28771799Y-68802102D01*
X28771800Y-68802104D01*
X28836759Y-68849300D01*
X28864590Y-68869521D01*
X28864602Y-68869528D01*
X28945204Y-68910596D01*
X29039975Y-68958884D01*
X29137354Y-68990524D01*
X29219414Y-69017187D01*
X29219781Y-69017338D01*
X29226956Y-69019639D01*
X29227095Y-69019683D01*
X29227170Y-69019708D01*
X29227171Y-69019708D01*
X29227174Y-69019709D01*
X29421583Y-69050500D01*
X29421584Y-69050500D01*
X29618416Y-69050500D01*
X29618417Y-69050500D01*
X29812826Y-69019709D01*
X30000025Y-68958884D01*
X30175405Y-68869524D01*
X30334646Y-68753828D01*
X30397279Y-68691193D01*
X30424861Y-68671153D01*
X30436044Y-68665455D01*
X30502577Y-68654918D01*
X30562600Y-68685501D01*
X30562608Y-68685509D01*
X30567700Y-68690602D01*
X30593501Y-68731669D01*
X30634393Y-68848532D01*
X30634639Y-68849251D01*
X30634660Y-68849296D01*
X30634661Y-68849297D01*
X30634662Y-68849300D01*
X30730577Y-69001947D01*
X30858052Y-69129422D01*
X31010699Y-69225337D01*
X31010702Y-69225338D01*
X31010706Y-69225339D01*
X31010747Y-69225359D01*
X31011406Y-69225584D01*
X31180853Y-69284875D01*
X31180854Y-69284875D01*
X31180858Y-69284876D01*
X31315074Y-69300000D01*
X31315079Y-69300000D01*
X31809999Y-69300000D01*
X31810000Y-69299999D01*
X31810000Y-67789174D01*
X31830817Y-67725105D01*
X31885317Y-67685509D01*
X31947207Y-67683888D01*
X32007339Y-67700000D01*
X32112659Y-67700000D01*
X32112661Y-67700000D01*
X32172791Y-67683888D01*
X32240061Y-67687413D01*
X32292415Y-67729808D01*
X32310000Y-67789174D01*
X32310000Y-69299999D01*
X32310001Y-69300000D01*
X32804921Y-69300000D01*
X32804926Y-69300000D01*
X32939140Y-69284876D01*
X32939140Y-69284875D01*
X32939146Y-69284875D01*
X33108682Y-69225552D01*
X33109255Y-69225357D01*
X33109288Y-69225340D01*
X33109297Y-69225338D01*
X33109300Y-69225337D01*
X33261947Y-69129422D01*
X33389422Y-69001947D01*
X33485337Y-68849300D01*
X33485338Y-68849297D01*
X33485340Y-68849288D01*
X33485357Y-68849255D01*
X33485584Y-68848593D01*
X33544875Y-68679146D01*
X33544893Y-68678988D01*
X33560000Y-68544925D01*
X33560000Y-67550001D01*
X33559999Y-67550000D01*
X32549175Y-67550000D01*
X32485106Y-67529183D01*
X32445510Y-67474683D01*
X32443889Y-67412789D01*
X32460000Y-67352660D01*
X32460000Y-67247339D01*
X32443889Y-67187211D01*
X32447415Y-67119937D01*
X32489810Y-67067585D01*
X32549175Y-67050000D01*
X33559999Y-67050000D01*
X33560000Y-67049999D01*
X33560000Y-66055073D01*
X33544876Y-65920858D01*
X33544875Y-65920854D01*
X33542650Y-65914496D01*
X33485584Y-65751405D01*
X33485359Y-65750747D01*
X33485339Y-65750706D01*
X33485338Y-65750702D01*
X33485337Y-65750699D01*
X33389422Y-65598052D01*
X33340870Y-65549500D01*
X33290151Y-65498780D01*
X33270106Y-65471190D01*
X33264640Y-65460462D01*
X33254102Y-65393925D01*
X33284686Y-65333902D01*
X33336321Y-65304989D01*
X33342488Y-65303508D01*
X33367919Y-65300500D01*
X34690813Y-65300500D01*
X34696911Y-65300671D01*
X34703015Y-65301013D01*
X34709095Y-65301524D01*
X34792874Y-65310963D01*
X34804917Y-65313011D01*
X34816780Y-65315719D01*
X34828519Y-65319101D01*
X34899361Y-65343890D01*
X34910643Y-65348563D01*
X34921608Y-65353844D01*
X34932303Y-65359755D01*
X34995845Y-65399681D01*
X35005809Y-65406750D01*
X35015324Y-65414337D01*
X35024444Y-65422486D01*
X35077512Y-65475554D01*
X35085661Y-65484674D01*
X35093248Y-65494189D01*
X35100317Y-65504153D01*
X35140243Y-65567695D01*
X35146154Y-65578390D01*
X35151432Y-65589349D01*
X35156111Y-65600644D01*
X35180896Y-65671474D01*
X35184280Y-65683221D01*
X35186988Y-65695086D01*
X35189036Y-65707136D01*
X35198472Y-65790881D01*
X35198985Y-65796966D01*
X35199328Y-65803066D01*
X35199500Y-65809185D01*
X35199500Y-76790813D01*
X35199328Y-76796932D01*
X35198985Y-76803032D01*
X35198472Y-76809117D01*
X35189036Y-76892862D01*
X35186988Y-76904912D01*
X35184280Y-76916777D01*
X35180896Y-76928524D01*
X35156111Y-76999354D01*
X35151432Y-77010649D01*
X35146154Y-77021608D01*
X35140243Y-77032303D01*
X35100317Y-77095845D01*
X35093248Y-77105809D01*
X35085661Y-77115324D01*
X35077512Y-77124444D01*
X35024444Y-77177512D01*
X35015324Y-77185661D01*
X35005809Y-77193248D01*
X34995845Y-77200317D01*
X34932303Y-77240243D01*
X34921608Y-77246154D01*
X34910649Y-77251432D01*
X34899353Y-77256111D01*
X34828516Y-77280898D01*
X34816773Y-77284282D01*
X34804923Y-77286987D01*
X34792871Y-77289034D01*
X34719631Y-77297287D01*
X34719622Y-77297288D01*
X34709107Y-77298472D01*
X34703032Y-77298985D01*
X34696934Y-77299328D01*
X34690813Y-77299500D01*
X21709185Y-77299500D01*
X21703066Y-77299328D01*
X21696966Y-77298985D01*
X21690881Y-77298472D01*
X21607136Y-77289036D01*
X21595086Y-77286988D01*
X21583221Y-77284280D01*
X21571474Y-77280896D01*
X21500644Y-77256111D01*
X21489349Y-77251432D01*
X21478390Y-77246154D01*
X21467695Y-77240243D01*
X21404153Y-77200317D01*
X21394189Y-77193248D01*
X21384674Y-77185661D01*
X21375554Y-77177512D01*
X21322486Y-77124444D01*
X21314337Y-77115324D01*
X21306750Y-77105809D01*
X21299681Y-77095845D01*
X21259755Y-77032303D01*
X21253844Y-77021608D01*
X21248566Y-77010649D01*
X21243890Y-76999361D01*
X21219101Y-76928519D01*
X21215719Y-76916780D01*
X21213011Y-76904917D01*
X21210963Y-76892871D01*
X21201525Y-76809097D01*
X21201013Y-76803014D01*
X21200671Y-76796910D01*
X21200500Y-76790812D01*
X21200500Y-71837521D01*
X24759500Y-71837521D01*
X24759500Y-71837523D01*
X24759500Y-71837525D01*
X24759500Y-71982475D01*
X24797016Y-72122485D01*
X24869491Y-72248015D01*
X24971985Y-72350509D01*
X25097515Y-72422984D01*
X25237525Y-72460500D01*
X25237527Y-72460500D01*
X25382473Y-72460500D01*
X25382475Y-72460500D01*
X25522485Y-72422984D01*
X25648015Y-72350509D01*
X25750509Y-72248015D01*
X25822984Y-72122485D01*
X25860500Y-71982475D01*
X25860500Y-71837525D01*
X25860499Y-71837521D01*
X30539500Y-71837521D01*
X30539500Y-71837523D01*
X30539500Y-71837525D01*
X30539500Y-71982475D01*
X30577016Y-72122485D01*
X30649491Y-72248015D01*
X30751985Y-72350509D01*
X30877515Y-72422984D01*
X31017525Y-72460500D01*
X31017527Y-72460500D01*
X31162473Y-72460500D01*
X31162475Y-72460500D01*
X31302485Y-72422984D01*
X31428015Y-72350509D01*
X31530509Y-72248015D01*
X31602984Y-72122485D01*
X31640500Y-71982475D01*
X31640500Y-71837525D01*
X31602984Y-71697515D01*
X31530509Y-71571985D01*
X31428015Y-71469491D01*
X31428008Y-71469487D01*
X31302485Y-71397016D01*
X31162477Y-71359500D01*
X31162476Y-71359500D01*
X31162475Y-71359500D01*
X31017525Y-71359500D01*
X31017523Y-71359500D01*
X31017521Y-71359500D01*
X30877513Y-71397016D01*
X30751989Y-71469487D01*
X30649487Y-71571989D01*
X30577016Y-71697513D01*
X30539500Y-71837521D01*
X25860499Y-71837521D01*
X25822984Y-71697515D01*
X25750509Y-71571985D01*
X25648015Y-71469491D01*
X25648008Y-71469487D01*
X25522485Y-71397016D01*
X25382477Y-71359500D01*
X25382476Y-71359500D01*
X25382475Y-71359500D01*
X25237525Y-71359500D01*
X25237523Y-71359500D01*
X25237521Y-71359500D01*
X25097513Y-71397016D01*
X24971989Y-71469487D01*
X24869487Y-71571989D01*
X24797016Y-71697513D01*
X24759500Y-71837521D01*
X21200500Y-71837521D01*
X21200500Y-65809186D01*
X21200671Y-65803088D01*
X21201013Y-65796984D01*
X21201524Y-65790904D01*
X21210963Y-65707124D01*
X21213011Y-65695081D01*
X21215719Y-65683218D01*
X21219103Y-65671473D01*
X21229727Y-65641114D01*
X21241718Y-65606844D01*
X21243890Y-65600635D01*
X21248563Y-65589356D01*
X21253848Y-65578381D01*
X21259742Y-65567715D01*
X21299696Y-65504128D01*
X21306746Y-65494193D01*
X21314340Y-65484670D01*
X21322472Y-65475568D01*
X21375568Y-65422472D01*
X21384674Y-65414337D01*
X21394193Y-65406746D01*
X21404128Y-65399696D01*
X21467715Y-65359742D01*
X21478381Y-65353848D01*
X21489358Y-65348562D01*
X21500632Y-65343891D01*
X21571486Y-65319098D01*
X21583216Y-65315718D01*
X21595086Y-65313009D01*
X21607122Y-65310963D01*
X21652716Y-65305827D01*
X21690906Y-65301524D01*
X21696985Y-65301013D01*
X21703092Y-65300671D01*
X21709187Y-65300500D01*
X23127718Y-65300500D01*
X23161395Y-65305833D01*
G37*
%TD.AperFunction*%
%TD*%
%TA.AperFunction,NonConductor*%
G36*
X41504043Y-12500765D02*
G01*
X41752895Y-12517075D01*
X41768953Y-12519190D01*
X41976105Y-12560395D01*
X42009535Y-12567045D01*
X42025202Y-12571243D01*
X42194947Y-12628863D01*
X42257481Y-12650091D01*
X42272458Y-12656294D01*
X42481799Y-12759529D01*
X42492460Y-12764787D01*
X42506506Y-12772897D01*
X42710460Y-12909174D01*
X42723329Y-12919048D01*
X42907749Y-13080781D01*
X42919218Y-13092250D01*
X43080951Y-13276670D01*
X43090825Y-13289539D01*
X43227102Y-13493493D01*
X43235212Y-13507539D01*
X43343702Y-13727534D01*
X43349909Y-13742520D01*
X43428756Y-13974797D01*
X43432954Y-13990464D01*
X43480807Y-14231035D01*
X43482925Y-14247116D01*
X43499235Y-14495956D01*
X43499500Y-14504066D01*
X43499500Y-20155730D01*
X43479815Y-20222769D01*
X43456031Y-20250021D01*
X43389096Y-20307188D01*
X43373355Y-20318624D01*
X43189308Y-20431409D01*
X43171971Y-20440243D01*
X42972541Y-20522850D01*
X42954035Y-20528863D01*
X42744142Y-20579254D01*
X42724924Y-20582298D01*
X42504854Y-20599618D01*
X42495125Y-20600000D01*
X33004875Y-20600000D01*
X32995146Y-20599618D01*
X32775075Y-20582298D01*
X32755857Y-20579254D01*
X32545964Y-20528863D01*
X32527458Y-20522850D01*
X32328028Y-20440243D01*
X32310691Y-20431409D01*
X32126644Y-20318624D01*
X32110903Y-20307187D01*
X31946761Y-20166997D01*
X31933002Y-20153238D01*
X31792812Y-19989096D01*
X31781375Y-19973355D01*
X31668590Y-19789308D01*
X31659756Y-19771971D01*
X31644364Y-19734813D01*
X31577147Y-19572534D01*
X31571138Y-19554042D01*
X31520744Y-19344137D01*
X31517701Y-19324923D01*
X31500382Y-19104852D01*
X31500000Y-19095124D01*
X31500000Y-17600000D01*
X31500000Y-12500500D01*
X41434108Y-12500500D01*
X41495933Y-12500500D01*
X41504043Y-12500765D01*
G37*
%TD.AperFunction*%
%TA.AperFunction,Conductor*%
%TO.N,+5V*%
G36*
X21092539Y-51019685D02*
G01*
X21138294Y-51072489D01*
X21149500Y-51124000D01*
X21149500Y-51126082D01*
X21149500Y-51273918D01*
X21149500Y-51273920D01*
X21149499Y-51273920D01*
X21178340Y-51418906D01*
X21178342Y-51418914D01*
X21212984Y-51502548D01*
X21220453Y-51572018D01*
X21212984Y-51597452D01*
X21178342Y-51681085D01*
X21178340Y-51681093D01*
X21154529Y-51800795D01*
X21122143Y-51862706D01*
X21061427Y-51897280D01*
X21057105Y-51898220D01*
X20981091Y-51913341D01*
X20981082Y-51913343D01*
X20844511Y-51969912D01*
X20844498Y-51969919D01*
X20721584Y-52052048D01*
X20721580Y-52052051D01*
X20617051Y-52156580D01*
X20617048Y-52156584D01*
X20534919Y-52279498D01*
X20534912Y-52279511D01*
X20478343Y-52416082D01*
X20478340Y-52416092D01*
X20449500Y-52561079D01*
X20449500Y-52561082D01*
X20449500Y-52708918D01*
X20449500Y-52708920D01*
X20449499Y-52708920D01*
X20478340Y-52853906D01*
X20478342Y-52853914D01*
X20512984Y-52937548D01*
X20520453Y-53007018D01*
X20512984Y-53032452D01*
X20478342Y-53116085D01*
X20478340Y-53116093D01*
X20449500Y-53261079D01*
X20449500Y-53261082D01*
X20449500Y-53408918D01*
X20449500Y-53408920D01*
X20449499Y-53408920D01*
X20478340Y-53553907D01*
X20478343Y-53553917D01*
X20534912Y-53690488D01*
X20534919Y-53690501D01*
X20617048Y-53813415D01*
X20617051Y-53813419D01*
X20721580Y-53917948D01*
X20721584Y-53917951D01*
X20844498Y-54000080D01*
X20844511Y-54000087D01*
X20981082Y-54056656D01*
X20981087Y-54056658D01*
X21108149Y-54081932D01*
X21120391Y-54084368D01*
X21182302Y-54116753D01*
X21216876Y-54177469D01*
X21213137Y-54247238D01*
X21183882Y-54293666D01*
X21117048Y-54360500D01*
X21034919Y-54483414D01*
X21034912Y-54483427D01*
X20978343Y-54619998D01*
X20978340Y-54620008D01*
X20949500Y-54764995D01*
X20949500Y-54764998D01*
X20949500Y-54912834D01*
X20949500Y-54912836D01*
X20949499Y-54912836D01*
X20978340Y-55057823D01*
X20978342Y-55057829D01*
X21032884Y-55189505D01*
X21040353Y-55258975D01*
X21032884Y-55284411D01*
X20978342Y-55416086D01*
X20978340Y-55416092D01*
X20949500Y-55561079D01*
X20949500Y-55561082D01*
X20949500Y-55708918D01*
X20949500Y-55708920D01*
X20949499Y-55708920D01*
X20978340Y-55853907D01*
X20978343Y-55853917D01*
X21034912Y-55990488D01*
X21034919Y-55990501D01*
X21117048Y-56113415D01*
X21117051Y-56113419D01*
X21221580Y-56217948D01*
X21221584Y-56217951D01*
X21344498Y-56300080D01*
X21344511Y-56300087D01*
X21481082Y-56356656D01*
X21481087Y-56356658D01*
X21481091Y-56356658D01*
X21481092Y-56356659D01*
X21626079Y-56385500D01*
X21626082Y-56385500D01*
X21773920Y-56385500D01*
X21871462Y-56366096D01*
X21918913Y-56356658D01*
X22055495Y-56300084D01*
X22081110Y-56282967D01*
X22147784Y-56262090D01*
X22215165Y-56280573D01*
X22218838Y-56282933D01*
X22244505Y-56300084D01*
X22381087Y-56356658D01*
X22381091Y-56356658D01*
X22381092Y-56356659D01*
X22526079Y-56385500D01*
X22526082Y-56385500D01*
X22673920Y-56385500D01*
X22771462Y-56366096D01*
X22818913Y-56356658D01*
X22955495Y-56300084D01*
X23078416Y-56217951D01*
X23182951Y-56113416D01*
X23265084Y-55990495D01*
X23321658Y-55853913D01*
X23350500Y-55708918D01*
X23350500Y-55602442D01*
X23370185Y-55535403D01*
X23422989Y-55489648D01*
X23492147Y-55479704D01*
X23538909Y-55497623D01*
X23539130Y-55497211D01*
X23542415Y-55498967D01*
X23543394Y-55499342D01*
X23544500Y-55500081D01*
X23544511Y-55500087D01*
X23681082Y-55556656D01*
X23681087Y-55556658D01*
X23681091Y-55556658D01*
X23681092Y-55556659D01*
X23826079Y-55585500D01*
X23826082Y-55585500D01*
X23973919Y-55585500D01*
X23978905Y-55584507D01*
X24000000Y-55580311D01*
X24000000Y-63499500D01*
X14504067Y-63499500D01*
X14495957Y-63499235D01*
X14247116Y-63482925D01*
X14231035Y-63480807D01*
X13990464Y-63432954D01*
X13974797Y-63428756D01*
X13742520Y-63349909D01*
X13727534Y-63343702D01*
X13507539Y-63235212D01*
X13493493Y-63227102D01*
X13289539Y-63090825D01*
X13276670Y-63080951D01*
X13092250Y-62919218D01*
X13080781Y-62907749D01*
X12919048Y-62723329D01*
X12909174Y-62710460D01*
X12772897Y-62506506D01*
X12764787Y-62492460D01*
X12725806Y-62413415D01*
X12656294Y-62272458D01*
X12650090Y-62257479D01*
X12571243Y-62025202D01*
X12567045Y-62009535D01*
X12537515Y-61861079D01*
X12519190Y-61768953D01*
X12517075Y-61752895D01*
X12500765Y-61504043D01*
X12500500Y-61495933D01*
X12500500Y-58208920D01*
X13649499Y-58208920D01*
X13678340Y-58353906D01*
X13678342Y-58353914D01*
X13712984Y-58437548D01*
X13720453Y-58507018D01*
X13712984Y-58532452D01*
X13678342Y-58616085D01*
X13678340Y-58616093D01*
X13649500Y-58761079D01*
X13649500Y-58761082D01*
X13649500Y-58908918D01*
X13649500Y-58908920D01*
X13649499Y-58908920D01*
X13678340Y-59053906D01*
X13678342Y-59053914D01*
X13713795Y-59139506D01*
X13721264Y-59208976D01*
X13713795Y-59234410D01*
X13678342Y-59320001D01*
X13678340Y-59320009D01*
X13649500Y-59464995D01*
X13649500Y-59464998D01*
X13649500Y-59612834D01*
X13649500Y-59612836D01*
X13649499Y-59612836D01*
X13678340Y-59757823D01*
X13678343Y-59757833D01*
X13733694Y-59891464D01*
X13741163Y-59960934D01*
X13733694Y-59986368D01*
X13678343Y-60119998D01*
X13678340Y-60120008D01*
X13649500Y-60264995D01*
X13649500Y-60264998D01*
X13649500Y-60412834D01*
X13649500Y-60412836D01*
X13649499Y-60412836D01*
X13678340Y-60557823D01*
X13678342Y-60557829D01*
X13732884Y-60689505D01*
X13740353Y-60758975D01*
X13732884Y-60784411D01*
X13678342Y-60916086D01*
X13678340Y-60916092D01*
X13649500Y-61061079D01*
X13649500Y-61061082D01*
X13649500Y-61208918D01*
X13649500Y-61208920D01*
X13649499Y-61208920D01*
X13678340Y-61353907D01*
X13678343Y-61353917D01*
X13733694Y-61487548D01*
X13741163Y-61557018D01*
X13733694Y-61582452D01*
X13678343Y-61716082D01*
X13678340Y-61716092D01*
X13649500Y-61861079D01*
X13649500Y-61861082D01*
X13649500Y-62008918D01*
X13649500Y-62008920D01*
X13649499Y-62008920D01*
X13678340Y-62153907D01*
X13678343Y-62153917D01*
X13734912Y-62290488D01*
X13734919Y-62290501D01*
X13817048Y-62413415D01*
X13817051Y-62413419D01*
X13921580Y-62517948D01*
X13921584Y-62517951D01*
X14044498Y-62600080D01*
X14044511Y-62600087D01*
X14181082Y-62656656D01*
X14181087Y-62656658D01*
X14181091Y-62656658D01*
X14181092Y-62656659D01*
X14326079Y-62685500D01*
X14326082Y-62685500D01*
X14473920Y-62685500D01*
X14571462Y-62666096D01*
X14618913Y-62656658D01*
X14752547Y-62601304D01*
X14822017Y-62593836D01*
X14847452Y-62601304D01*
X14981087Y-62656658D01*
X14981091Y-62656658D01*
X14981092Y-62656659D01*
X15126079Y-62685500D01*
X15126082Y-62685500D01*
X15273920Y-62685500D01*
X15371462Y-62666096D01*
X15418913Y-62656658D01*
X15502549Y-62622014D01*
X15572016Y-62614546D01*
X15597447Y-62622013D01*
X15681087Y-62656658D01*
X15681091Y-62656658D01*
X15681092Y-62656659D01*
X15826079Y-62685500D01*
X15826082Y-62685500D01*
X15973920Y-62685500D01*
X16071462Y-62666096D01*
X16118913Y-62656658D01*
X16252547Y-62601304D01*
X16322017Y-62593836D01*
X16347452Y-62601304D01*
X16481087Y-62656658D01*
X16481091Y-62656658D01*
X16481092Y-62656659D01*
X16626079Y-62685500D01*
X16626082Y-62685500D01*
X16773920Y-62685500D01*
X16871462Y-62666096D01*
X16918913Y-62656658D01*
X17052547Y-62601304D01*
X17122017Y-62593836D01*
X17147452Y-62601304D01*
X17281087Y-62656658D01*
X17281091Y-62656658D01*
X17281092Y-62656659D01*
X17426079Y-62685500D01*
X17426082Y-62685500D01*
X17573920Y-62685500D01*
X17671462Y-62666096D01*
X17718913Y-62656658D01*
X17852547Y-62601304D01*
X17922017Y-62593836D01*
X17947452Y-62601304D01*
X18081087Y-62656658D01*
X18081091Y-62656658D01*
X18081092Y-62656659D01*
X18226079Y-62685500D01*
X18226082Y-62685500D01*
X18373920Y-62685500D01*
X18471462Y-62666096D01*
X18518913Y-62656658D01*
X18655495Y-62600084D01*
X18778416Y-62517951D01*
X18882951Y-62413416D01*
X18965084Y-62290495D01*
X19021658Y-62153913D01*
X19048791Y-62017509D01*
X19050500Y-62008920D01*
X19050500Y-61861079D01*
X19021659Y-61716092D01*
X19021658Y-61716091D01*
X19021658Y-61716087D01*
X18966305Y-61582452D01*
X18965087Y-61579511D01*
X18965080Y-61579498D01*
X18882951Y-61456584D01*
X18882948Y-61456580D01*
X18778419Y-61352051D01*
X18778415Y-61352048D01*
X18655501Y-61269919D01*
X18655488Y-61269912D01*
X18518917Y-61213343D01*
X18518907Y-61213340D01*
X18373920Y-61184500D01*
X18373918Y-61184500D01*
X18226082Y-61184500D01*
X18226080Y-61184500D01*
X18081092Y-61213340D01*
X18081082Y-61213343D01*
X17947452Y-61268694D01*
X17877982Y-61276163D01*
X17852548Y-61268694D01*
X17718917Y-61213343D01*
X17718907Y-61213340D01*
X17573920Y-61184500D01*
X17573918Y-61184500D01*
X17426082Y-61184500D01*
X17426080Y-61184500D01*
X17281092Y-61213340D01*
X17281082Y-61213343D01*
X17147452Y-61268694D01*
X17077982Y-61276163D01*
X17052548Y-61268694D01*
X16918917Y-61213343D01*
X16918907Y-61213340D01*
X16773920Y-61184500D01*
X16773918Y-61184500D01*
X16626082Y-61184500D01*
X16626080Y-61184500D01*
X16481092Y-61213340D01*
X16481082Y-61213343D01*
X16347452Y-61268694D01*
X16277982Y-61276163D01*
X16252548Y-61268694D01*
X16118917Y-61213343D01*
X16118908Y-61213340D01*
X16050307Y-61199694D01*
X15988396Y-61167308D01*
X15953823Y-61106592D01*
X15950500Y-61078077D01*
X15950500Y-61061079D01*
X15921659Y-60916092D01*
X15921658Y-60916091D01*
X15921658Y-60916087D01*
X15867115Y-60784410D01*
X15859647Y-60714941D01*
X15867116Y-60689505D01*
X15921658Y-60557829D01*
X15950500Y-60412834D01*
X15950500Y-60264998D01*
X15950500Y-60264995D01*
X15921659Y-60120008D01*
X15921658Y-60120007D01*
X15921658Y-60120003D01*
X15866304Y-59986368D01*
X15858836Y-59916899D01*
X15866305Y-59891463D01*
X15921658Y-59757829D01*
X15950500Y-59612834D01*
X15950500Y-59464998D01*
X15950500Y-59464995D01*
X15921659Y-59320008D01*
X15921658Y-59320007D01*
X15921658Y-59320003D01*
X15886203Y-59234408D01*
X15878735Y-59164942D01*
X15886204Y-59139506D01*
X15921658Y-59053913D01*
X15938221Y-58970646D01*
X15970606Y-58908736D01*
X16031321Y-58874162D01*
X16035647Y-58873221D01*
X16118913Y-58856658D01*
X16252547Y-58801304D01*
X16322017Y-58793836D01*
X16347452Y-58801304D01*
X16481087Y-58856658D01*
X16481091Y-58856658D01*
X16481092Y-58856659D01*
X16626079Y-58885500D01*
X16626082Y-58885500D01*
X16773920Y-58885500D01*
X16871462Y-58866096D01*
X16918913Y-58856658D01*
X17055495Y-58800084D01*
X17178416Y-58717951D01*
X17282951Y-58613416D01*
X17365084Y-58490495D01*
X17421658Y-58353913D01*
X17450500Y-58208918D01*
X17450500Y-58061082D01*
X17450500Y-58061079D01*
X17421659Y-57916092D01*
X17421658Y-57916091D01*
X17421658Y-57916087D01*
X17421656Y-57916082D01*
X17365087Y-57779511D01*
X17365080Y-57779498D01*
X17282951Y-57656584D01*
X17282948Y-57656580D01*
X17178419Y-57552051D01*
X17178415Y-57552048D01*
X17055501Y-57469919D01*
X17055488Y-57469912D01*
X16918917Y-57413343D01*
X16918907Y-57413340D01*
X16773920Y-57384500D01*
X16773918Y-57384500D01*
X16626082Y-57384500D01*
X16626080Y-57384500D01*
X16481092Y-57413340D01*
X16481082Y-57413343D01*
X16347452Y-57468694D01*
X16277982Y-57476163D01*
X16252548Y-57468694D01*
X16118917Y-57413343D01*
X16118907Y-57413340D01*
X15973920Y-57384500D01*
X15973918Y-57384500D01*
X15826082Y-57384500D01*
X15826080Y-57384500D01*
X15681093Y-57413340D01*
X15681085Y-57413342D01*
X15597452Y-57447984D01*
X15527982Y-57455453D01*
X15502548Y-57447984D01*
X15418914Y-57413342D01*
X15418906Y-57413340D01*
X15273920Y-57384500D01*
X15273918Y-57384500D01*
X15126082Y-57384500D01*
X15126080Y-57384500D01*
X14981092Y-57413340D01*
X14981082Y-57413343D01*
X14847452Y-57468694D01*
X14777982Y-57476163D01*
X14752548Y-57468694D01*
X14618917Y-57413343D01*
X14618907Y-57413340D01*
X14473920Y-57384500D01*
X14473918Y-57384500D01*
X14326082Y-57384500D01*
X14326080Y-57384500D01*
X14181092Y-57413340D01*
X14181082Y-57413343D01*
X14044511Y-57469912D01*
X14044498Y-57469919D01*
X13921584Y-57552048D01*
X13921580Y-57552051D01*
X13817051Y-57656580D01*
X13817048Y-57656584D01*
X13734919Y-57779498D01*
X13734912Y-57779511D01*
X13678343Y-57916082D01*
X13678340Y-57916092D01*
X13649500Y-58061079D01*
X13649500Y-58061082D01*
X13649500Y-58208918D01*
X13649500Y-58208920D01*
X13649499Y-58208920D01*
X12500500Y-58208920D01*
X12500500Y-51000000D01*
X14000000Y-51000000D01*
X21025500Y-51000000D01*
X21092539Y-51019685D01*
G37*
%TD.AperFunction*%
%TD*%
%TA.AperFunction,Conductor*%
%TO.N,+5V*%
G36*
X14926530Y-18005021D02*
G01*
X14939849Y-18008932D01*
X14998627Y-18046706D01*
X15027653Y-18110261D01*
X15027653Y-18110265D01*
X15028128Y-18113569D01*
X15023587Y-18168705D01*
X15022991Y-18170584D01*
X15015279Y-18189387D01*
X15009871Y-18200000D01*
X14200000Y-18200000D01*
X14200000Y-19400000D01*
X14951277Y-19400000D01*
X15035379Y-19565057D01*
X15160272Y-19736959D01*
X15160276Y-19736964D01*
X15160281Y-19736970D01*
X15310526Y-19887215D01*
X15310536Y-19887224D01*
X15310538Y-19887226D01*
X15310545Y-19887231D01*
X15482434Y-20012115D01*
X15482444Y-20012122D01*
X15482452Y-20012126D01*
X15483329Y-20012663D01*
X15485941Y-20014662D01*
X15486385Y-20014985D01*
X15486376Y-20014996D01*
X15503675Y-20028237D01*
X15513069Y-20037109D01*
X15548290Y-20097449D01*
X15545296Y-20167255D01*
X15505038Y-20224361D01*
X15440608Y-20250605D01*
X15386976Y-20256119D01*
X15244436Y-20306778D01*
X15244433Y-20306780D01*
X15120847Y-20394016D01*
X15120839Y-20394024D01*
X15025369Y-20511370D01*
X14965099Y-20650128D01*
X14944500Y-20799998D01*
X14944500Y-20840805D01*
X14938431Y-20879123D01*
X14872753Y-21081255D01*
X14872753Y-21081258D01*
X14839500Y-21291207D01*
X14839500Y-21503791D01*
X14872752Y-21713739D01*
X14912637Y-21836489D01*
X14938431Y-21915875D01*
X14944500Y-21954191D01*
X14944500Y-22000006D01*
X14956119Y-22113021D01*
X14956120Y-22113026D01*
X15006778Y-22255563D01*
X15006780Y-22255566D01*
X15094016Y-22379152D01*
X15094018Y-22379154D01*
X15094021Y-22379158D01*
X15135254Y-22412704D01*
X15211370Y-22474630D01*
X15350128Y-22534901D01*
X15442574Y-22547607D01*
X15506309Y-22576236D01*
X15544448Y-22634779D01*
X15544882Y-22704647D01*
X15507473Y-22763659D01*
X15506895Y-22764163D01*
X15502227Y-22768208D01*
X15485814Y-22780223D01*
X15482190Y-22782443D01*
X15310210Y-22907392D01*
X15159892Y-23057710D01*
X15034949Y-23229682D01*
X14938445Y-23419080D01*
X14872752Y-23621259D01*
X14839500Y-23831207D01*
X14839500Y-24043791D01*
X14872752Y-24253739D01*
X14938445Y-24455918D01*
X15031532Y-24638611D01*
X15034951Y-24645320D01*
X15159890Y-24817286D01*
X15159892Y-24817288D01*
X15260822Y-24918218D01*
X15281973Y-24946471D01*
X15288625Y-24958653D01*
X15303477Y-25026926D01*
X15279061Y-25092391D01*
X15279055Y-25092399D01*
X15276305Y-25096072D01*
X15220376Y-25137936D01*
X15097673Y-25183701D01*
X15097664Y-25183706D01*
X15097661Y-25183708D01*
X14982456Y-25269950D01*
X14982450Y-25269956D01*
X14896205Y-25385165D01*
X14896203Y-25385168D01*
X14845907Y-25520016D01*
X14839501Y-25579616D01*
X14839500Y-25579639D01*
X14839500Y-27375376D01*
X14839659Y-27377306D01*
X14839885Y-27378954D01*
X14845907Y-27434982D01*
X14873690Y-27509471D01*
X14896202Y-27569828D01*
X14896203Y-27569830D01*
X14896204Y-27569832D01*
X14896205Y-27569833D01*
X14982450Y-27685042D01*
X14982452Y-27685044D01*
X14982455Y-27685047D01*
X15097664Y-27771293D01*
X15097671Y-27771297D01*
X15147155Y-27789753D01*
X15182513Y-27816221D01*
X15239444Y-27822335D01*
X15239443Y-27822339D01*
X15239458Y-27822336D01*
X15292127Y-27828000D01*
X16508171Y-27827999D01*
X16543107Y-27833022D01*
X16558105Y-27837426D01*
X16616883Y-27875201D01*
X16616890Y-27875210D01*
X16618076Y-27876579D01*
X16645518Y-27931401D01*
X16647163Y-27938959D01*
X16650000Y-27965330D01*
X16650000Y-28420923D01*
X16644975Y-28455864D01*
X16641064Y-28469181D01*
X16603287Y-28527957D01*
X16539732Y-28556978D01*
X16526848Y-28558830D01*
X16489808Y-28558565D01*
X16306293Y-28529500D01*
X16306287Y-28529500D01*
X16093713Y-28529500D01*
X16093709Y-28529500D01*
X16054776Y-28535666D01*
X16045042Y-28537208D01*
X16007654Y-28543129D01*
X15883763Y-28562752D01*
X15681582Y-28628445D01*
X15492182Y-28724949D01*
X15320210Y-28849892D01*
X15169892Y-29000210D01*
X15044949Y-29172182D01*
X14948445Y-29361580D01*
X14882752Y-29563759D01*
X14849500Y-29773707D01*
X14849500Y-29986291D01*
X14882752Y-30196239D01*
X14948445Y-30398418D01*
X15041532Y-30581111D01*
X15044951Y-30587820D01*
X15169890Y-30759786D01*
X15320213Y-30910109D01*
X15492182Y-31035050D01*
X15492190Y-31035054D01*
X15492693Y-31035363D01*
X15494174Y-31036496D01*
X15496122Y-31037912D01*
X15496086Y-31037960D01*
X15513034Y-31050934D01*
X15523315Y-31060643D01*
X15558541Y-31120983D01*
X15555552Y-31190789D01*
X15519383Y-31244507D01*
X15512227Y-31250708D01*
X15495814Y-31262723D01*
X15492190Y-31264943D01*
X15320210Y-31389892D01*
X15169892Y-31540210D01*
X15044949Y-31712182D01*
X14948445Y-31901580D01*
X14882752Y-32103759D01*
X14882752Y-32103760D01*
X14861067Y-32240682D01*
X14861067Y-32240683D01*
X14849500Y-32313713D01*
X14849500Y-32526286D01*
X14882754Y-32736244D01*
X14882754Y-32736247D01*
X14929786Y-32880995D01*
X14948441Y-32938406D01*
X14948444Y-32938414D01*
X15044951Y-33127820D01*
X15169890Y-33299786D01*
X15320213Y-33450109D01*
X15492182Y-33575050D01*
X15492190Y-33575054D01*
X15492693Y-33575363D01*
X15494174Y-33576496D01*
X15496122Y-33577912D01*
X15496086Y-33577960D01*
X15513034Y-33590934D01*
X15523315Y-33600643D01*
X15558541Y-33660983D01*
X15555552Y-33730789D01*
X15519383Y-33784507D01*
X15512227Y-33790708D01*
X15495814Y-33802723D01*
X15492190Y-33804943D01*
X15320210Y-33929892D01*
X15169892Y-34080210D01*
X15044949Y-34252182D01*
X14948445Y-34441580D01*
X14882752Y-34643759D01*
X14849500Y-34853707D01*
X14849500Y-35066291D01*
X14882752Y-35276239D01*
X14948445Y-35478418D01*
X15041532Y-35661111D01*
X15044951Y-35667820D01*
X15169890Y-35839786D01*
X15169892Y-35839788D01*
X15270822Y-35940718D01*
X15291973Y-35968971D01*
X15298625Y-35981153D01*
X15313477Y-36049426D01*
X15289061Y-36114891D01*
X15289055Y-36114899D01*
X15286305Y-36118572D01*
X15230376Y-36160436D01*
X15107673Y-36206201D01*
X15107664Y-36206206D01*
X15107661Y-36206208D01*
X14992456Y-36292450D01*
X14992450Y-36292456D01*
X14906205Y-36407665D01*
X14906203Y-36407668D01*
X14855907Y-36542516D01*
X14849501Y-36602116D01*
X14849500Y-36602139D01*
X14849500Y-38397876D01*
X14849659Y-38399806D01*
X14849885Y-38401454D01*
X14855907Y-38457482D01*
X14883690Y-38531971D01*
X14906202Y-38592328D01*
X14906203Y-38592330D01*
X14906204Y-38592332D01*
X14906205Y-38592333D01*
X14992450Y-38707542D01*
X14992452Y-38707544D01*
X14992455Y-38707547D01*
X15107664Y-38793793D01*
X15107671Y-38793797D01*
X15157155Y-38812253D01*
X15192513Y-38838721D01*
X15249444Y-38844835D01*
X15249443Y-38844839D01*
X15249458Y-38844836D01*
X15302127Y-38850500D01*
X16508171Y-38850499D01*
X16543107Y-38855522D01*
X16558105Y-38859926D01*
X16616883Y-38897701D01*
X16616890Y-38897710D01*
X16618076Y-38899079D01*
X16645518Y-38953901D01*
X16647163Y-38961459D01*
X16650000Y-38987830D01*
X16650000Y-39230923D01*
X16644975Y-39265864D01*
X16641064Y-39279181D01*
X16603287Y-39337957D01*
X16539732Y-39366978D01*
X16526848Y-39368830D01*
X16489808Y-39368565D01*
X16306293Y-39339500D01*
X16306287Y-39339500D01*
X16093713Y-39339500D01*
X16093709Y-39339500D01*
X16054776Y-39345666D01*
X16045042Y-39347208D01*
X16007654Y-39353129D01*
X15883763Y-39372752D01*
X15681582Y-39438445D01*
X15492182Y-39534949D01*
X15320210Y-39659892D01*
X15169892Y-39810210D01*
X15044949Y-39982182D01*
X14948445Y-40171580D01*
X14882752Y-40373759D01*
X14849500Y-40583707D01*
X14849500Y-40796291D01*
X14882752Y-41006239D01*
X14948445Y-41208418D01*
X15041532Y-41391111D01*
X15044951Y-41397820D01*
X15169890Y-41569786D01*
X15320213Y-41720109D01*
X15492182Y-41845050D01*
X15492190Y-41845054D01*
X15492693Y-41845363D01*
X15494174Y-41846496D01*
X15496122Y-41847912D01*
X15496086Y-41847960D01*
X15513034Y-41860934D01*
X15523315Y-41870643D01*
X15558541Y-41930983D01*
X15555552Y-42000789D01*
X15519383Y-42054507D01*
X15512227Y-42060708D01*
X15495814Y-42072723D01*
X15492190Y-42074943D01*
X15320210Y-42199892D01*
X15169892Y-42350210D01*
X15044949Y-42522182D01*
X14948445Y-42711580D01*
X14882752Y-42913759D01*
X14849500Y-43123707D01*
X14849500Y-43336291D01*
X14882752Y-43546239D01*
X14948445Y-43748418D01*
X15041532Y-43931111D01*
X15044951Y-43937820D01*
X15169890Y-44109786D01*
X15320213Y-44260109D01*
X15492182Y-44385050D01*
X15492190Y-44385054D01*
X15492693Y-44385363D01*
X15494174Y-44386496D01*
X15496122Y-44387912D01*
X15496086Y-44387960D01*
X15513034Y-44400934D01*
X15523315Y-44410643D01*
X15558541Y-44470983D01*
X15555552Y-44540789D01*
X15519383Y-44594507D01*
X15512227Y-44600708D01*
X15495814Y-44612723D01*
X15492190Y-44614943D01*
X15320210Y-44739892D01*
X15169892Y-44890210D01*
X15044949Y-45062182D01*
X14948445Y-45251580D01*
X14882752Y-45453759D01*
X14849500Y-45663707D01*
X14849500Y-45876291D01*
X14882752Y-46086239D01*
X14948445Y-46288418D01*
X15041532Y-46471111D01*
X15044951Y-46477820D01*
X15169890Y-46649786D01*
X15169892Y-46649788D01*
X15270822Y-46750718D01*
X15291973Y-46778971D01*
X15298625Y-46791153D01*
X15313477Y-46859426D01*
X15289061Y-46924891D01*
X15289045Y-46924912D01*
X15286295Y-46928584D01*
X15230378Y-46970434D01*
X15182477Y-46988301D01*
X15161164Y-46994149D01*
X15139664Y-46998029D01*
X15117642Y-47000000D01*
X14000000Y-47000000D01*
X14000000Y-45000000D01*
X12500500Y-45000000D01*
X12500500Y-18230711D01*
X12505522Y-18195778D01*
X12510517Y-18178766D01*
X12545401Y-18122574D01*
X12554393Y-18114276D01*
X12580026Y-18096051D01*
X12601189Y-18084740D01*
X12612157Y-18079552D01*
X12623377Y-18074904D01*
X12634810Y-18070812D01*
X12787425Y-18024518D01*
X12799202Y-18021569D01*
X12811085Y-18019205D01*
X12823109Y-18017421D01*
X12990940Y-18000892D01*
X12996952Y-18000448D01*
X13003081Y-18000147D01*
X13009143Y-18000000D01*
X14891598Y-18000000D01*
X14926530Y-18005021D01*
G37*
%TD.AperFunction*%
%TD*%
%TA.AperFunction,Conductor*%
%TO.N,+5V*%
G36*
X16663681Y-18213681D02*
G01*
X16697166Y-18275004D01*
X16700000Y-18301362D01*
X16700000Y-19298638D01*
X16680315Y-19365677D01*
X16663681Y-19386319D01*
X16650000Y-19400000D01*
X14200000Y-19400000D01*
X14200000Y-18200000D01*
X16650000Y-18200000D01*
X16663681Y-18213681D01*
G37*
%TD.AperFunction*%
%TD*%
%TA.AperFunction,Conductor*%
%TO.N,+5V*%
G36*
X14000000Y-51000000D02*
G01*
X12500500Y-51000000D01*
X12500500Y-45000000D01*
X14000000Y-45000000D01*
X14000000Y-51000000D01*
G37*
%TD.AperFunction*%
%TD*%
%TA.AperFunction,Conductor*%
%TO.N,GND*%
G36*
X34736102Y-50692381D02*
G01*
X34759492Y-50697033D01*
X34782734Y-50704083D01*
X34804767Y-50713209D01*
X34812678Y-50719584D01*
X34822479Y-50722273D01*
X34826193Y-50724660D01*
X34845192Y-50737355D01*
X34846029Y-50737914D01*
X34864818Y-50753334D01*
X34881663Y-50770179D01*
X34897084Y-50788969D01*
X34910330Y-50808793D01*
X34913367Y-50818492D01*
X34920023Y-50826174D01*
X34921779Y-50830207D01*
X34930913Y-50852258D01*
X34937967Y-50875512D01*
X34942617Y-50898886D01*
X34945000Y-50923080D01*
X34945000Y-50946914D01*
X34942137Y-50956663D01*
X34943404Y-50966746D01*
X34942617Y-50971106D01*
X34928975Y-51039686D01*
X34926147Y-51051064D01*
X34920274Y-51070675D01*
X34910849Y-51119893D01*
X34910848Y-51119901D01*
X34901877Y-51222202D01*
X34901877Y-51222203D01*
X34922668Y-51353465D01*
X34924386Y-51364309D01*
X34924387Y-51364315D01*
X34924389Y-51364320D01*
X34945024Y-51431054D01*
X34945026Y-51431060D01*
X34955564Y-51453289D01*
X34961016Y-51464791D01*
X34971944Y-51533801D01*
X34943828Y-51597764D01*
X34936649Y-51605586D01*
X34875286Y-51666950D01*
X34847027Y-51688103D01*
X34833309Y-51695593D01*
X34765051Y-51710444D01*
X34763245Y-51710315D01*
X34705044Y-51690947D01*
X34698529Y-51686760D01*
X34677893Y-51670130D01*
X34557075Y-51549312D01*
X34557073Y-51549310D01*
X34535727Y-51533801D01*
X34506194Y-51512343D01*
X34463528Y-51457013D01*
X34457550Y-51387399D01*
X34464525Y-51365607D01*
X34465426Y-51362433D01*
X34484626Y-51219839D01*
X34484626Y-51219837D01*
X34484001Y-51150029D01*
X34484000Y-51149887D01*
X34483963Y-51145247D01*
X34483956Y-51145083D01*
X34483824Y-51130445D01*
X34480476Y-51124439D01*
X34477584Y-51103675D01*
X34477135Y-51095326D01*
X34479824Y-51083936D01*
X34476162Y-51065526D01*
X34476157Y-51065490D01*
X34474227Y-51055793D01*
X34474224Y-51055777D01*
X34457383Y-50971115D01*
X34455000Y-50946923D01*
X34455000Y-50923077D01*
X34457381Y-50898896D01*
X34462034Y-50875502D01*
X34469082Y-50852266D01*
X34478215Y-50830217D01*
X34489664Y-50808797D01*
X34502917Y-50788963D01*
X34518329Y-50770184D01*
X34535184Y-50753329D01*
X34553962Y-50737918D01*
X34573797Y-50724664D01*
X34595217Y-50713215D01*
X34617260Y-50704084D01*
X34640509Y-50697032D01*
X34663897Y-50692380D01*
X34688081Y-50690000D01*
X34711920Y-50690000D01*
X34736102Y-50692381D01*
G37*
%TD.AperFunction*%
%TA.AperFunction,Conductor*%
G36*
X26375613Y-12520185D02*
G01*
X26421368Y-12572989D01*
X26431312Y-12642147D01*
X26423135Y-12671952D01*
X26363927Y-12814892D01*
X26348832Y-12855808D01*
X26342829Y-12874286D01*
X26342826Y-12874298D01*
X26330988Y-12916272D01*
X26280592Y-13126183D01*
X26272229Y-13168229D01*
X26272076Y-13168999D01*
X26269036Y-13188197D01*
X26263913Y-13231494D01*
X26246593Y-13451575D01*
X26245310Y-13473333D01*
X26244927Y-13483096D01*
X26244500Y-13504872D01*
X26244500Y-16095126D01*
X26244927Y-16116902D01*
X26245310Y-16126665D01*
X26246593Y-16148423D01*
X26263914Y-16368520D01*
X26269036Y-16411792D01*
X26269039Y-16411817D01*
X26272082Y-16431031D01*
X26272085Y-16431049D01*
X26280591Y-16473810D01*
X26330989Y-16683732D01*
X26342828Y-16725711D01*
X26348840Y-16744211D01*
X26363932Y-16785116D01*
X26430782Y-16946509D01*
X26430863Y-16946703D01*
X26446546Y-16984565D01*
X26464799Y-17024159D01*
X26473643Y-17041515D01*
X26494950Y-17079562D01*
X26607727Y-17263595D01*
X26607734Y-17263605D01*
X26631973Y-17299879D01*
X26643410Y-17315620D01*
X26670406Y-17349864D01*
X26810596Y-17514006D01*
X26840204Y-17546036D01*
X26853963Y-17559795D01*
X26885993Y-17589403D01*
X27050135Y-17729593D01*
X27084379Y-17756589D01*
X27100120Y-17768026D01*
X27136394Y-17792265D01*
X27136403Y-17792271D01*
X27320436Y-17905048D01*
X27358482Y-17926354D01*
X27358491Y-17926359D01*
X27375828Y-17935193D01*
X27415446Y-17953458D01*
X27614876Y-18036065D01*
X27655798Y-18051162D01*
X27674304Y-18057175D01*
X27716285Y-18069014D01*
X27926178Y-18119405D01*
X27968953Y-18127914D01*
X27988171Y-18130958D01*
X28031491Y-18136086D01*
X28251562Y-18153406D01*
X28270394Y-18154515D01*
X28273333Y-18154689D01*
X28273339Y-18154689D01*
X28273352Y-18154690D01*
X28283081Y-18155072D01*
X28301761Y-18155438D01*
X28304872Y-18155500D01*
X28304875Y-18155500D01*
X30870500Y-18155500D01*
X30937539Y-18175185D01*
X30983294Y-18227989D01*
X30994500Y-18279500D01*
X30994500Y-19095129D01*
X30994888Y-19114940D01*
X30995271Y-19124689D01*
X30996440Y-19144513D01*
X31013759Y-19364593D01*
X31018423Y-19403991D01*
X31021467Y-19423213D01*
X31029209Y-19462135D01*
X31029211Y-19462144D01*
X31079605Y-19672049D01*
X31090383Y-19710264D01*
X31096392Y-19728756D01*
X31110125Y-19765978D01*
X31110128Y-19765985D01*
X31177931Y-19929681D01*
X31177954Y-19929734D01*
X31186228Y-19949709D01*
X31192735Y-19965418D01*
X31209355Y-20001469D01*
X31218198Y-20018824D01*
X31237578Y-20053428D01*
X31350358Y-20237468D01*
X31372431Y-20270501D01*
X31383850Y-20286218D01*
X31391246Y-20295599D01*
X31408426Y-20317391D01*
X31548616Y-20481533D01*
X31575560Y-20510680D01*
X31589319Y-20524439D01*
X31618466Y-20551383D01*
X31782608Y-20691573D01*
X31800168Y-20705416D01*
X31813780Y-20716148D01*
X31829497Y-20727567D01*
X31862530Y-20749640D01*
X32046570Y-20862420D01*
X32076679Y-20879282D01*
X32081191Y-20881809D01*
X32098528Y-20890643D01*
X32098538Y-20890648D01*
X32134576Y-20907262D01*
X32134581Y-20907264D01*
X32334011Y-20989871D01*
X32371249Y-21003609D01*
X32389755Y-21009622D01*
X32427957Y-21020396D01*
X32637850Y-21070787D01*
X32676775Y-21078530D01*
X32695993Y-21081574D01*
X32719037Y-21084301D01*
X32735402Y-21086239D01*
X32735412Y-21086239D01*
X32735414Y-21086240D01*
X32955485Y-21103560D01*
X32975313Y-21104729D01*
X32985042Y-21105111D01*
X32999916Y-21105402D01*
X33004869Y-21105500D01*
X33004875Y-21105500D01*
X33911896Y-21105500D01*
X33978935Y-21125185D01*
X34024690Y-21177989D01*
X34034634Y-21247147D01*
X34031146Y-21261981D01*
X34031378Y-21262039D01*
X34030267Y-21266485D01*
X34030257Y-21266527D01*
X33999500Y-21421150D01*
X33999500Y-21578845D01*
X33999499Y-21578848D01*
X34030257Y-21733471D01*
X34030264Y-21733502D01*
X34090598Y-21879165D01*
X34090603Y-21879174D01*
X34090613Y-21879191D01*
X34178211Y-22010290D01*
X34178212Y-22010291D01*
X34178217Y-22010297D01*
X34289701Y-22121781D01*
X34289707Y-22121786D01*
X34289711Y-22121789D01*
X34420814Y-22209390D01*
X34420827Y-22209397D01*
X34566498Y-22269735D01*
X34566503Y-22269737D01*
X34713513Y-22298979D01*
X34716247Y-22299703D01*
X34721155Y-22300500D01*
X34878844Y-22300500D01*
X34882964Y-22300500D01*
X34890814Y-22298118D01*
X35033497Y-22269737D01*
X35179179Y-22209394D01*
X35310289Y-22121789D01*
X35421789Y-22010289D01*
X35509394Y-21879179D01*
X35569737Y-21733497D01*
X35590759Y-21627815D01*
X35600500Y-21578845D01*
X35600500Y-21420971D01*
X35600064Y-21418966D01*
X35579684Y-21316510D01*
X35569737Y-21266503D01*
X35569735Y-21266498D01*
X35569734Y-21266497D01*
X35569734Y-21266493D01*
X35569224Y-21264772D01*
X35569221Y-21263913D01*
X35568622Y-21260899D01*
X35569212Y-21260781D01*
X35569025Y-21194903D01*
X35606633Y-21136018D01*
X35670106Y-21106813D01*
X35688101Y-21105500D01*
X42495131Y-21105500D01*
X42499884Y-21105406D01*
X42514958Y-21105111D01*
X42524687Y-21104729D01*
X42544515Y-21103560D01*
X42764585Y-21086240D01*
X42764588Y-21086239D01*
X42764596Y-21086239D01*
X42776352Y-21084847D01*
X42804006Y-21081574D01*
X42823224Y-21078530D01*
X42862149Y-21070787D01*
X43072042Y-21020396D01*
X43110244Y-21009622D01*
X43128750Y-21003609D01*
X43165988Y-20989871D01*
X43328049Y-20922742D01*
X43397516Y-20915274D01*
X43459995Y-20946549D01*
X43495648Y-21006637D01*
X43499500Y-21037304D01*
X43499500Y-47416702D01*
X43479815Y-47483741D01*
X43427011Y-47529496D01*
X43357853Y-47539440D01*
X43345377Y-47536987D01*
X43305373Y-47526967D01*
X43281545Y-47522228D01*
X43281540Y-47522227D01*
X43281543Y-47522227D01*
X43232494Y-47514952D01*
X43232474Y-47514950D01*
X43055598Y-47497530D01*
X43030876Y-47495707D01*
X43030871Y-47495706D01*
X43030861Y-47495706D01*
X43025602Y-47495447D01*
X43018714Y-47495109D01*
X43011473Y-47494931D01*
X42993907Y-47494500D01*
X42993890Y-47494500D01*
X42326845Y-47494500D01*
X42326844Y-47494500D01*
X42325555Y-47494511D01*
X42317817Y-47494581D01*
X42313389Y-47494660D01*
X42305100Y-47494881D01*
X42237561Y-47476986D01*
X42198700Y-47439816D01*
X42180217Y-47412155D01*
X42121789Y-47324711D01*
X42121786Y-47324707D01*
X42121781Y-47324701D01*
X42010297Y-47213217D01*
X42010291Y-47213212D01*
X42010290Y-47213211D01*
X41879191Y-47125613D01*
X41879190Y-47125612D01*
X41879185Y-47125609D01*
X41879172Y-47125602D01*
X41879165Y-47125598D01*
X41733502Y-47065264D01*
X41733471Y-47065257D01*
X41578847Y-47034500D01*
X41578845Y-47034500D01*
X41578842Y-47034500D01*
X41421158Y-47034500D01*
X41421155Y-47034500D01*
X41421153Y-47034500D01*
X41266527Y-47065257D01*
X41266501Y-47065263D01*
X41266499Y-47065263D01*
X41266498Y-47065264D01*
X41175848Y-47102812D01*
X41163922Y-47107752D01*
X41129727Y-47116479D01*
X41103575Y-47119291D01*
X41042866Y-47110563D01*
X40933523Y-47065272D01*
X40933504Y-47065265D01*
X40933501Y-47065264D01*
X40933497Y-47065262D01*
X40933492Y-47065261D01*
X40933480Y-47065258D01*
X40920837Y-47062743D01*
X40887561Y-47051004D01*
X40875264Y-47044572D01*
X40824984Y-46996058D01*
X40808914Y-46928061D01*
X40808914Y-46928058D01*
X40808927Y-46927814D01*
X40809600Y-46915255D01*
X40817239Y-46878568D01*
X40839091Y-46819983D01*
X40845500Y-46760373D01*
X40845499Y-45264628D01*
X40844856Y-45258650D01*
X40843098Y-45242293D01*
X40839091Y-45205017D01*
X40837780Y-45201503D01*
X40837780Y-45201502D01*
X40837778Y-45201496D01*
X40837776Y-45201491D01*
X40788798Y-45070172D01*
X40788797Y-45070171D01*
X40788795Y-45070168D01*
X40786215Y-45066722D01*
X40769330Y-45044168D01*
X40752419Y-45013199D01*
X40747980Y-45001297D01*
X40742995Y-44931609D01*
X40776478Y-44870285D01*
X40833498Y-44837815D01*
X40842826Y-44835434D01*
X40873488Y-44831584D01*
X40882964Y-44831584D01*
X40890814Y-44829202D01*
X41033497Y-44800821D01*
X41136081Y-44758329D01*
X41170271Y-44749603D01*
X41196427Y-44746791D01*
X41257133Y-44755518D01*
X41366503Y-44800821D01*
X41513513Y-44830063D01*
X41516247Y-44830787D01*
X41521155Y-44831584D01*
X41678844Y-44831584D01*
X41682964Y-44831584D01*
X41690814Y-44829202D01*
X41833497Y-44800821D01*
X41979179Y-44740478D01*
X42110289Y-44652873D01*
X42221789Y-44541373D01*
X42309394Y-44410263D01*
X42313023Y-44401503D01*
X42368060Y-44268628D01*
X42369222Y-44266081D01*
X42369730Y-44264594D01*
X42369735Y-44264585D01*
X42369737Y-44264581D01*
X42400499Y-44109932D01*
X42400500Y-44109928D01*
X42400500Y-43952055D01*
X42400064Y-43950050D01*
X42383199Y-43865264D01*
X42383198Y-43865257D01*
X42369737Y-43797587D01*
X42328057Y-43696964D01*
X42319330Y-43662769D01*
X42316518Y-43636614D01*
X42325245Y-43575909D01*
X42369737Y-43468497D01*
X42400500Y-43313842D01*
X42400500Y-43156158D01*
X42400500Y-43156155D01*
X42400500Y-43155973D01*
X42400065Y-43153972D01*
X42394046Y-43123713D01*
X42370395Y-43004815D01*
X42369984Y-43002406D01*
X42369738Y-43001510D01*
X42369737Y-43001503D01*
X42356704Y-42970039D01*
X42356703Y-42970037D01*
X42327247Y-42898922D01*
X42318519Y-42864726D01*
X42315707Y-42838573D01*
X42324434Y-42777868D01*
X42351888Y-42711588D01*
X42369737Y-42668497D01*
X42400500Y-42513842D01*
X42400500Y-42356158D01*
X42400500Y-42356155D01*
X42400500Y-42355973D01*
X42400065Y-42353972D01*
X42370398Y-42204830D01*
X42369983Y-42202403D01*
X42369737Y-42201504D01*
X42369068Y-42199890D01*
X42327246Y-42098921D01*
X42318519Y-42064726D01*
X42315707Y-42038573D01*
X42324434Y-41977867D01*
X42368054Y-41872557D01*
X42369221Y-41870001D01*
X42369730Y-41868510D01*
X42369735Y-41868501D01*
X42369737Y-41868497D01*
X42393131Y-41750888D01*
X42400500Y-41713844D01*
X42400500Y-41555973D01*
X42400065Y-41553971D01*
X42392349Y-41515180D01*
X42372159Y-41413680D01*
X42369737Y-41401503D01*
X42369735Y-41401498D01*
X42309397Y-41255827D01*
X42309390Y-41255814D01*
X42221789Y-41124711D01*
X42221786Y-41124707D01*
X42221781Y-41124701D01*
X42110297Y-41013217D01*
X42110291Y-41013212D01*
X42110290Y-41013211D01*
X41979191Y-40925613D01*
X41979190Y-40925612D01*
X41979185Y-40925609D01*
X41979172Y-40925602D01*
X41979165Y-40925598D01*
X41833502Y-40865264D01*
X41833471Y-40865257D01*
X41678847Y-40834500D01*
X41678845Y-40834500D01*
X41678842Y-40834500D01*
X41521158Y-40834500D01*
X41521155Y-40834500D01*
X41521153Y-40834500D01*
X41366527Y-40865257D01*
X41366501Y-40865263D01*
X41366499Y-40865263D01*
X41366498Y-40865264D01*
X41310408Y-40888497D01*
X41263922Y-40907752D01*
X41229727Y-40916479D01*
X41203575Y-40919291D01*
X41142866Y-40910563D01*
X41033523Y-40865272D01*
X41033509Y-40865267D01*
X41033501Y-40865264D01*
X41033491Y-40865261D01*
X41033486Y-40865260D01*
X41033483Y-40865259D01*
X40957627Y-40850170D01*
X40924343Y-40838428D01*
X40910489Y-40831181D01*
X40860218Y-40782678D01*
X40859802Y-40781947D01*
X40857872Y-40778557D01*
X40841863Y-40724940D01*
X40841700Y-40722333D01*
X40842168Y-40701353D01*
X40845500Y-40670373D01*
X40845499Y-39174628D01*
X40839091Y-39115017D01*
X40798872Y-39007185D01*
X40788797Y-38980171D01*
X40788793Y-38980164D01*
X40718291Y-38885986D01*
X40702548Y-38864956D01*
X40702542Y-38864950D01*
X40629686Y-38810410D01*
X40587335Y-38778706D01*
X40587332Y-38778704D01*
X40587330Y-38778703D01*
X40587328Y-38778702D01*
X40537844Y-38760246D01*
X40502497Y-38733784D01*
X40400583Y-38722828D01*
X40395742Y-38722000D01*
X40392881Y-38722000D01*
X40392873Y-38722000D01*
X40392864Y-38722000D01*
X38897129Y-38722000D01*
X38897123Y-38722000D01*
X38895192Y-38722159D01*
X38893545Y-38722385D01*
X38837516Y-38728408D01*
X38752152Y-38760247D01*
X38702666Y-38778704D01*
X38702665Y-38778705D01*
X38587457Y-38864950D01*
X38587454Y-38864952D01*
X38545813Y-38920578D01*
X38520856Y-38945534D01*
X38508340Y-38954903D01*
X38442875Y-38979319D01*
X38442835Y-38979322D01*
X38440559Y-38979484D01*
X38381046Y-38968955D01*
X38374733Y-38966126D01*
X38352559Y-38953288D01*
X38289382Y-38907389D01*
X38273940Y-38896170D01*
X38273937Y-38896168D01*
X38273933Y-38896166D01*
X38105640Y-38810414D01*
X38105629Y-38810410D01*
X37926013Y-38752051D01*
X37926007Y-38752050D01*
X37926004Y-38752049D01*
X37925995Y-38752047D01*
X37925991Y-38752046D01*
X37925985Y-38752045D01*
X37895000Y-38747137D01*
X37895000Y-39362013D01*
X37875315Y-39429052D01*
X37822511Y-39474807D01*
X37753353Y-39484751D01*
X37738907Y-39481788D01*
X37704244Y-39472500D01*
X37704243Y-39472500D01*
X37585756Y-39472500D01*
X37551093Y-39481788D01*
X37481243Y-39480125D01*
X37423381Y-39440962D01*
X37395877Y-39376733D01*
X37395000Y-39362013D01*
X37395000Y-38747137D01*
X37394999Y-38747137D01*
X37388300Y-38748198D01*
X37364013Y-38752045D01*
X37363991Y-38752050D01*
X37363985Y-38752051D01*
X37184369Y-38810410D01*
X37184358Y-38810414D01*
X37016061Y-38896168D01*
X36915878Y-38968955D01*
X36863772Y-39006812D01*
X36863261Y-39007183D01*
X36863257Y-39007185D01*
X36745285Y-39125157D01*
X36717027Y-39146309D01*
X36703309Y-39153799D01*
X36635051Y-39168650D01*
X36633245Y-39168521D01*
X36575044Y-39149153D01*
X36568529Y-39144966D01*
X36547897Y-39128340D01*
X36426746Y-39007189D01*
X36426741Y-39007185D01*
X36273940Y-38896170D01*
X36273939Y-38896169D01*
X36273937Y-38896168D01*
X36105640Y-38810414D01*
X36105629Y-38810410D01*
X35926013Y-38752051D01*
X35926007Y-38752050D01*
X35926004Y-38752049D01*
X35925995Y-38752047D01*
X35925991Y-38752046D01*
X35925985Y-38752045D01*
X35895000Y-38747137D01*
X35895000Y-39362013D01*
X35875315Y-39429052D01*
X35822511Y-39474807D01*
X35753353Y-39484751D01*
X35738907Y-39481788D01*
X35704244Y-39472500D01*
X35704243Y-39472500D01*
X35585756Y-39472500D01*
X35551093Y-39481788D01*
X35481243Y-39480125D01*
X35423381Y-39440962D01*
X35395877Y-39376733D01*
X35395000Y-39362013D01*
X35395000Y-38747137D01*
X35394999Y-38747137D01*
X35388300Y-38748198D01*
X35364013Y-38752045D01*
X35363991Y-38752050D01*
X35363985Y-38752051D01*
X35184369Y-38810410D01*
X35184358Y-38810414D01*
X35016061Y-38896168D01*
X34915878Y-38968955D01*
X34863772Y-39006812D01*
X34863261Y-39007183D01*
X34863257Y-39007185D01*
X34745638Y-39124804D01*
X34717380Y-39145956D01*
X34703662Y-39153446D01*
X34635404Y-39168297D01*
X34633598Y-39168168D01*
X34575397Y-39148800D01*
X34568882Y-39144613D01*
X34548246Y-39127983D01*
X34427075Y-39006812D01*
X34427073Y-39006810D01*
X34274199Y-38895740D01*
X34229640Y-38873036D01*
X34105836Y-38809954D01*
X33926118Y-38751559D01*
X33926112Y-38751558D01*
X33739491Y-38722000D01*
X33739486Y-38722000D01*
X33739481Y-38722000D01*
X33550519Y-38722000D01*
X33550514Y-38722000D01*
X33550509Y-38722000D01*
X33363886Y-38751558D01*
X33363884Y-38751558D01*
X33363881Y-38751559D01*
X33184163Y-38809954D01*
X33117166Y-38844091D01*
X33015799Y-38895740D01*
X32981614Y-38920578D01*
X32940296Y-38950598D01*
X32874799Y-38998184D01*
X32867416Y-39002318D01*
X32745285Y-39124450D01*
X32717027Y-39145603D01*
X32703309Y-39153093D01*
X32635051Y-39167944D01*
X32633245Y-39167815D01*
X32575044Y-39148447D01*
X32568529Y-39144260D01*
X32547893Y-39127630D01*
X32427075Y-39006812D01*
X32427073Y-39006810D01*
X32274199Y-38895740D01*
X32229640Y-38873036D01*
X32105836Y-38809954D01*
X31926118Y-38751559D01*
X31926112Y-38751558D01*
X31739491Y-38722000D01*
X31739486Y-38722000D01*
X31739481Y-38722000D01*
X31550519Y-38722000D01*
X31550514Y-38722000D01*
X31550509Y-38722000D01*
X31363886Y-38751558D01*
X31363884Y-38751558D01*
X31363881Y-38751559D01*
X31184163Y-38809954D01*
X31117166Y-38844091D01*
X31015799Y-38895740D01*
X30981614Y-38920578D01*
X30940296Y-38950598D01*
X30897480Y-38981706D01*
X30874797Y-38998186D01*
X30867417Y-39002318D01*
X30724818Y-39144917D01*
X30720688Y-39152293D01*
X30709318Y-39167944D01*
X30704461Y-39174629D01*
X30618240Y-39293300D01*
X30618237Y-39293304D01*
X30618236Y-39293307D01*
X30568079Y-39391747D01*
X30547746Y-39420591D01*
X30540408Y-39428361D01*
X30480067Y-39463585D01*
X30410261Y-39460595D01*
X30353153Y-39420339D01*
X30328552Y-39366972D01*
X30327796Y-39363098D01*
X30325500Y-39339348D01*
X30325500Y-34613848D01*
X36799499Y-34613848D01*
X36830257Y-34768471D01*
X36830261Y-34768489D01*
X36830264Y-34768501D01*
X36831949Y-34772568D01*
X36872752Y-34871077D01*
X36881479Y-34905273D01*
X36884291Y-34931426D01*
X36875563Y-34992134D01*
X36830264Y-35101496D01*
X36830257Y-35101527D01*
X36799500Y-35256150D01*
X36799500Y-35256153D01*
X36799500Y-35413846D01*
X36799500Y-35413848D01*
X36799499Y-35413848D01*
X36830257Y-35568471D01*
X36830261Y-35568489D01*
X36830264Y-35568501D01*
X36872752Y-35671077D01*
X36881479Y-35705273D01*
X36884291Y-35731426D01*
X36875563Y-35792134D01*
X36830264Y-35901496D01*
X36830257Y-35901527D01*
X36799500Y-36056150D01*
X36799500Y-36056153D01*
X36799500Y-36213846D01*
X36799500Y-36213848D01*
X36799499Y-36213848D01*
X36830257Y-36368471D01*
X36830261Y-36368489D01*
X36830264Y-36368501D01*
X36871941Y-36469119D01*
X36880668Y-36503315D01*
X36883480Y-36529468D01*
X36874752Y-36590176D01*
X36830264Y-36697580D01*
X36830257Y-36697611D01*
X36799500Y-36852234D01*
X36799500Y-36852237D01*
X36799500Y-37009930D01*
X36799500Y-37009932D01*
X36799499Y-37009932D01*
X36830257Y-37164555D01*
X36830264Y-37164586D01*
X36890598Y-37310249D01*
X36890603Y-37310258D01*
X36890613Y-37310275D01*
X36978211Y-37441374D01*
X36978212Y-37441375D01*
X36978217Y-37441381D01*
X37089701Y-37552865D01*
X37089707Y-37552870D01*
X37089711Y-37552873D01*
X37220814Y-37640474D01*
X37220827Y-37640481D01*
X37366498Y-37700819D01*
X37366503Y-37700821D01*
X37513513Y-37730063D01*
X37516247Y-37730787D01*
X37521155Y-37731584D01*
X37678844Y-37731584D01*
X37682964Y-37731584D01*
X37690814Y-37729202D01*
X37833497Y-37700821D01*
X37936081Y-37658329D01*
X37970271Y-37649603D01*
X37996427Y-37646791D01*
X38057133Y-37655518D01*
X38166503Y-37700821D01*
X38313513Y-37730063D01*
X38316247Y-37730787D01*
X38321155Y-37731584D01*
X38478844Y-37731584D01*
X38482964Y-37731584D01*
X38490814Y-37729202D01*
X38633497Y-37700821D01*
X38779179Y-37640478D01*
X38910289Y-37552873D01*
X39021789Y-37441373D01*
X39109394Y-37310263D01*
X39169737Y-37164581D01*
X39200500Y-37009926D01*
X39200500Y-36852242D01*
X39200500Y-36852239D01*
X39200500Y-36852057D01*
X39200065Y-36850056D01*
X39170398Y-36700914D01*
X39169984Y-36698490D01*
X39169737Y-36697587D01*
X39169734Y-36697580D01*
X39128057Y-36596964D01*
X39119330Y-36562769D01*
X39116518Y-36536614D01*
X39125245Y-36475909D01*
X39169737Y-36368497D01*
X39200500Y-36213842D01*
X39200500Y-36056158D01*
X39200500Y-36056155D01*
X39200500Y-36055973D01*
X39200065Y-36053972D01*
X39191827Y-36012558D01*
X39170395Y-35904815D01*
X39169983Y-35902403D01*
X39169737Y-35901504D01*
X39127247Y-35798922D01*
X39118519Y-35764726D01*
X39115707Y-35738573D01*
X39124434Y-35677867D01*
X39168054Y-35572557D01*
X39169221Y-35570001D01*
X39169730Y-35568510D01*
X39169735Y-35568501D01*
X39169737Y-35568497D01*
X39200499Y-35413848D01*
X39200500Y-35413844D01*
X39200500Y-35255971D01*
X39200064Y-35253966D01*
X39186294Y-35184740D01*
X39171308Y-35109401D01*
X39169737Y-35101503D01*
X39127246Y-34998921D01*
X39118519Y-34964726D01*
X39115707Y-34938573D01*
X39124434Y-34877867D01*
X39168054Y-34772557D01*
X39169221Y-34770001D01*
X39169730Y-34768510D01*
X39169735Y-34768501D01*
X39169737Y-34768497D01*
X39200499Y-34613848D01*
X39200500Y-34613844D01*
X39200500Y-34455972D01*
X39200066Y-34453976D01*
X39197601Y-34441584D01*
X39197601Y-34441583D01*
X39178854Y-34347341D01*
X39169737Y-34301503D01*
X39158506Y-34274388D01*
X39109400Y-34155833D01*
X39109395Y-34155824D01*
X39109390Y-34155814D01*
X39021789Y-34024711D01*
X39021786Y-34024707D01*
X39021781Y-34024701D01*
X38910297Y-33913217D01*
X38910291Y-33913212D01*
X38910290Y-33913211D01*
X38779191Y-33825613D01*
X38779190Y-33825612D01*
X38779185Y-33825609D01*
X38779172Y-33825602D01*
X38779165Y-33825598D01*
X38633502Y-33765264D01*
X38633471Y-33765257D01*
X38478847Y-33734500D01*
X38478845Y-33734500D01*
X38478842Y-33734500D01*
X38321158Y-33734500D01*
X38321155Y-33734500D01*
X38321153Y-33734500D01*
X38166527Y-33765257D01*
X38166501Y-33765263D01*
X38166499Y-33765263D01*
X38166498Y-33765264D01*
X38109044Y-33789062D01*
X38063922Y-33807752D01*
X38029726Y-33816479D01*
X38003573Y-33819291D01*
X37942865Y-33810563D01*
X37833502Y-33765264D01*
X37833471Y-33765257D01*
X37678847Y-33734500D01*
X37678845Y-33734500D01*
X37678842Y-33734500D01*
X37521158Y-33734500D01*
X37521155Y-33734500D01*
X37521153Y-33734500D01*
X37366527Y-33765257D01*
X37366496Y-33765264D01*
X37220833Y-33825598D01*
X37220824Y-33825603D01*
X37220807Y-33825613D01*
X37089708Y-33913211D01*
X37089707Y-33913212D01*
X37089701Y-33913217D01*
X36978217Y-34024701D01*
X36978212Y-34024707D01*
X36978211Y-34024708D01*
X36890613Y-34155807D01*
X36890603Y-34155824D01*
X36890598Y-34155833D01*
X36830264Y-34301496D01*
X36830257Y-34301527D01*
X36799500Y-34456150D01*
X36799500Y-34456153D01*
X36799500Y-34613846D01*
X36799500Y-34613848D01*
X36799499Y-34613848D01*
X30325500Y-34613848D01*
X30325500Y-33213848D01*
X40599499Y-33213848D01*
X40630257Y-33368471D01*
X40630264Y-33368502D01*
X40690598Y-33514165D01*
X40690603Y-33514174D01*
X40690613Y-33514191D01*
X40778211Y-33645290D01*
X40778212Y-33645291D01*
X40778217Y-33645297D01*
X40889701Y-33756781D01*
X40889707Y-33756786D01*
X40889711Y-33756789D01*
X41020814Y-33844390D01*
X41020827Y-33844397D01*
X41166498Y-33904735D01*
X41166503Y-33904737D01*
X41292935Y-33929886D01*
X41292955Y-33929890D01*
X41313512Y-33933979D01*
X41316247Y-33934703D01*
X41321155Y-33935500D01*
X41478844Y-33935500D01*
X41482964Y-33935500D01*
X41490814Y-33933118D01*
X41633497Y-33904737D01*
X41736081Y-33862245D01*
X41770271Y-33853519D01*
X41796427Y-33850707D01*
X41857133Y-33859434D01*
X41966503Y-33904737D01*
X42092935Y-33929886D01*
X42092955Y-33929890D01*
X42113512Y-33933979D01*
X42116247Y-33934703D01*
X42121155Y-33935500D01*
X42278844Y-33935500D01*
X42282964Y-33935500D01*
X42290814Y-33933118D01*
X42433497Y-33904737D01*
X42579179Y-33844394D01*
X42710289Y-33756789D01*
X42821789Y-33645289D01*
X42909394Y-33514179D01*
X42969737Y-33368497D01*
X43000500Y-33213842D01*
X43000500Y-33056158D01*
X43000500Y-33056155D01*
X43000500Y-33055971D01*
X43000064Y-33053966D01*
X42992848Y-33017688D01*
X42969738Y-32901505D01*
X42969736Y-32901500D01*
X42965490Y-32891249D01*
X42961243Y-32880996D01*
X42951549Y-32857592D01*
X42909400Y-32755833D01*
X42909395Y-32755824D01*
X42909390Y-32755814D01*
X42821789Y-32624711D01*
X42821786Y-32624707D01*
X42821781Y-32624701D01*
X42710297Y-32513217D01*
X42710291Y-32513212D01*
X42710290Y-32513211D01*
X42579191Y-32425613D01*
X42579190Y-32425612D01*
X42579185Y-32425609D01*
X42579172Y-32425602D01*
X42579165Y-32425598D01*
X42433502Y-32365264D01*
X42433471Y-32365257D01*
X42278847Y-32334500D01*
X42278845Y-32334500D01*
X42278842Y-32334500D01*
X42121158Y-32334500D01*
X42121155Y-32334500D01*
X42121153Y-32334500D01*
X41966527Y-32365257D01*
X41966501Y-32365263D01*
X41966499Y-32365263D01*
X41966498Y-32365264D01*
X41933476Y-32378942D01*
X41863922Y-32407752D01*
X41829726Y-32416479D01*
X41803573Y-32419291D01*
X41742865Y-32410563D01*
X41633502Y-32365264D01*
X41633471Y-32365257D01*
X41478847Y-32334500D01*
X41478845Y-32334500D01*
X41478842Y-32334500D01*
X41321158Y-32334500D01*
X41321155Y-32334500D01*
X41321153Y-32334500D01*
X41166527Y-32365257D01*
X41166496Y-32365264D01*
X41020833Y-32425598D01*
X41020824Y-32425603D01*
X41020807Y-32425613D01*
X40889708Y-32513211D01*
X40889707Y-32513212D01*
X40889701Y-32513217D01*
X40778217Y-32624701D01*
X40778212Y-32624707D01*
X40778211Y-32624708D01*
X40690613Y-32755807D01*
X40690603Y-32755824D01*
X40690598Y-32755833D01*
X40630264Y-32901496D01*
X40630257Y-32901527D01*
X40599500Y-33056150D01*
X40599500Y-33056153D01*
X40599500Y-33213846D01*
X40599500Y-33213848D01*
X40599499Y-33213848D01*
X30325500Y-33213848D01*
X30325500Y-22007680D01*
X30325499Y-22007666D01*
X30317848Y-21949549D01*
X30315165Y-21929172D01*
X30297688Y-21796415D01*
X30296334Y-21791363D01*
X30252789Y-21628848D01*
X30242539Y-21590593D01*
X30237672Y-21578844D01*
X30189489Y-21462519D01*
X30189488Y-21462517D01*
X30161000Y-21393740D01*
X30160995Y-21393730D01*
X30054454Y-21209196D01*
X30007113Y-21147500D01*
X29924740Y-21040148D01*
X29924737Y-21040145D01*
X29924733Y-21040140D01*
X29924301Y-21039708D01*
X29849402Y-20964812D01*
X28388400Y-19503810D01*
X28367250Y-19475558D01*
X28364843Y-19471150D01*
X28351362Y-19446462D01*
X28338578Y-19411232D01*
X28319737Y-19316503D01*
X28319734Y-19316496D01*
X28295599Y-19258229D01*
X28295599Y-19258228D01*
X28270877Y-19198545D01*
X28259397Y-19170827D01*
X28259390Y-19170814D01*
X28171789Y-19039711D01*
X28171786Y-19039707D01*
X28171781Y-19039701D01*
X28060297Y-18928217D01*
X28060291Y-18928212D01*
X28060290Y-18928211D01*
X27929191Y-18840613D01*
X27929190Y-18840612D01*
X27929185Y-18840609D01*
X27929172Y-18840602D01*
X27929165Y-18840598D01*
X27783502Y-18780264D01*
X27783471Y-18780257D01*
X27628847Y-18749500D01*
X27628845Y-18749500D01*
X27628842Y-18749500D01*
X27471158Y-18749500D01*
X27471155Y-18749500D01*
X27471153Y-18749500D01*
X27316527Y-18780257D01*
X27316496Y-18780264D01*
X27170833Y-18840598D01*
X27170824Y-18840603D01*
X27170807Y-18840613D01*
X27039708Y-18928211D01*
X27039707Y-18928212D01*
X27039701Y-18928217D01*
X26928217Y-19039701D01*
X26928212Y-19039707D01*
X26928211Y-19039708D01*
X26840613Y-19170807D01*
X26840603Y-19170824D01*
X26840598Y-19170833D01*
X26780264Y-19316496D01*
X26780263Y-19316501D01*
X26749500Y-19471150D01*
X26749500Y-19471153D01*
X26749500Y-19628846D01*
X26749500Y-19628848D01*
X26749499Y-19628848D01*
X26780257Y-19783471D01*
X26780264Y-19783502D01*
X26840598Y-19929165D01*
X26840603Y-19929174D01*
X26840613Y-19929191D01*
X26928211Y-20060290D01*
X26928212Y-20060291D01*
X26928217Y-20060297D01*
X27039701Y-20171781D01*
X27039707Y-20171786D01*
X27039711Y-20171789D01*
X27170814Y-20259390D01*
X27170827Y-20259397D01*
X27258228Y-20295598D01*
X27258229Y-20295599D01*
X27282367Y-20305597D01*
X27316503Y-20319737D01*
X27410233Y-20338380D01*
X27443513Y-20350121D01*
X27470995Y-20364496D01*
X27472884Y-20365485D01*
X27503089Y-20387679D01*
X28904768Y-21789358D01*
X28904813Y-21789405D01*
X28956182Y-21840773D01*
X28961731Y-21846697D01*
X28967091Y-21852809D01*
X28972237Y-21859080D01*
X29009440Y-21907563D01*
X29018448Y-21921044D01*
X29026506Y-21934999D01*
X29033681Y-21949549D01*
X29052383Y-21994700D01*
X29057596Y-22010057D01*
X29061766Y-22025619D01*
X29064931Y-22041529D01*
X29072909Y-22102130D01*
X29073703Y-22110192D01*
X29074234Y-22118289D01*
X29074500Y-22126389D01*
X29074500Y-23823695D01*
X29069475Y-23858637D01*
X29065637Y-23871705D01*
X29027859Y-23930481D01*
X28964301Y-23959502D01*
X28902287Y-23952551D01*
X28897886Y-23950864D01*
X28894573Y-23949595D01*
X28870073Y-23936919D01*
X28868040Y-23935561D01*
X28865917Y-23934027D01*
X28864213Y-23933004D01*
X28864198Y-23932996D01*
X28706709Y-23867763D01*
X28706689Y-23867756D01*
X28706682Y-23867755D01*
X28642793Y-23855047D01*
X28609506Y-23843303D01*
X28595652Y-23836056D01*
X28545381Y-23787545D01*
X28541742Y-23781155D01*
X28525500Y-23719802D01*
X28525500Y-22707680D01*
X28525499Y-22707666D01*
X28516670Y-22640605D01*
X28516670Y-22640604D01*
X28514804Y-22626429D01*
X28497688Y-22496415D01*
X28442539Y-22290593D01*
X28360996Y-22093731D01*
X28254454Y-21909196D01*
X28213520Y-21855849D01*
X28213519Y-21855847D01*
X28162500Y-21789358D01*
X28124740Y-21740148D01*
X28098217Y-21713626D01*
X28098217Y-21713625D01*
X28098216Y-21713625D01*
X28049401Y-21664811D01*
X27888400Y-21503810D01*
X27867250Y-21475558D01*
X27864843Y-21471150D01*
X27851362Y-21446462D01*
X27838578Y-21411232D01*
X27819737Y-21316503D01*
X27784016Y-21230264D01*
X27759397Y-21170827D01*
X27759390Y-21170814D01*
X27671789Y-21039711D01*
X27671786Y-21039707D01*
X27671781Y-21039701D01*
X27560297Y-20928217D01*
X27560291Y-20928212D01*
X27560290Y-20928211D01*
X27429191Y-20840613D01*
X27429190Y-20840612D01*
X27429185Y-20840609D01*
X27429172Y-20840602D01*
X27429165Y-20840598D01*
X27283502Y-20780264D01*
X27283471Y-20780257D01*
X27128847Y-20749500D01*
X27128845Y-20749500D01*
X27128842Y-20749500D01*
X26971158Y-20749500D01*
X26971155Y-20749500D01*
X26971153Y-20749500D01*
X26816527Y-20780257D01*
X26816496Y-20780264D01*
X26670833Y-20840598D01*
X26670824Y-20840603D01*
X26670807Y-20840613D01*
X26539708Y-20928211D01*
X26539707Y-20928212D01*
X26539701Y-20928217D01*
X26428217Y-21039701D01*
X26428212Y-21039707D01*
X26340613Y-21170807D01*
X26340603Y-21170824D01*
X26340598Y-21170833D01*
X26280264Y-21316496D01*
X26280261Y-21316510D01*
X26249500Y-21471150D01*
X26249500Y-21471153D01*
X26249500Y-21628846D01*
X26249500Y-21628848D01*
X26249499Y-21628848D01*
X26280257Y-21783471D01*
X26280264Y-21783502D01*
X26340598Y-21929165D01*
X26340602Y-21929172D01*
X26340609Y-21929185D01*
X26340612Y-21929190D01*
X26340613Y-21929191D01*
X26428211Y-22060290D01*
X26428212Y-22060291D01*
X26428217Y-22060297D01*
X26539701Y-22171781D01*
X26539707Y-22171786D01*
X26539711Y-22171789D01*
X26670814Y-22259390D01*
X26670827Y-22259397D01*
X26758228Y-22295598D01*
X26758229Y-22295599D01*
X26782367Y-22305597D01*
X26816503Y-22319737D01*
X26910233Y-22338380D01*
X26943513Y-22350121D01*
X26970995Y-22364496D01*
X26972884Y-22365485D01*
X27003089Y-22387679D01*
X27104768Y-22489358D01*
X27104813Y-22489405D01*
X27156182Y-22540773D01*
X27161731Y-22546697D01*
X27167091Y-22552809D01*
X27172237Y-22559080D01*
X27209440Y-22607563D01*
X27218451Y-22621048D01*
X27226506Y-22634999D01*
X27233681Y-22649549D01*
X27252383Y-22694700D01*
X27257596Y-22710057D01*
X27261766Y-22725619D01*
X27264931Y-22741529D01*
X27272909Y-22802130D01*
X27273703Y-22810192D01*
X27274234Y-22818289D01*
X27274500Y-22826389D01*
X27274500Y-24220000D01*
X27274499Y-24299856D01*
X27274005Y-24310913D01*
X27271524Y-24338620D01*
X27245939Y-24403637D01*
X27245938Y-24403637D01*
X27244827Y-24405067D01*
X27196389Y-24442690D01*
X27189298Y-24445776D01*
X27164008Y-24453694D01*
X27093324Y-24467754D01*
X27093297Y-24467760D01*
X26935801Y-24532995D01*
X26935791Y-24533000D01*
X26935783Y-24533005D01*
X26935782Y-24533005D01*
X26794030Y-24627721D01*
X26794017Y-24627733D01*
X26673489Y-24748261D01*
X26673477Y-24748274D01*
X26578761Y-24890026D01*
X26578761Y-24890027D01*
X26578756Y-24890035D01*
X26578751Y-24890045D01*
X26513519Y-25047533D01*
X26513512Y-25047554D01*
X26480255Y-25214756D01*
X26480256Y-25257919D01*
X26480256Y-25419999D01*
X26480255Y-25505243D01*
X26480255Y-25505248D01*
X26513510Y-25672435D01*
X26513511Y-25672442D01*
X26513519Y-25672465D01*
X26578753Y-25829956D01*
X26578755Y-25829960D01*
X26578760Y-25829968D01*
X26578766Y-25829979D01*
X26609713Y-25876296D01*
X26624945Y-25908133D01*
X26629615Y-25923048D01*
X26630863Y-25992901D01*
X26627261Y-26006033D01*
X26610782Y-26042121D01*
X26578774Y-26090025D01*
X26578766Y-26090039D01*
X26578761Y-26090050D01*
X26513530Y-26247533D01*
X26513523Y-26247554D01*
X26480266Y-26414756D01*
X26480267Y-26457919D01*
X26480267Y-26619999D01*
X26480266Y-26705243D01*
X26480266Y-26705248D01*
X26513521Y-26872435D01*
X26513522Y-26872442D01*
X26513530Y-26872465D01*
X26578762Y-27029953D01*
X26578767Y-27029963D01*
X26578772Y-27029971D01*
X26578772Y-27029972D01*
X26597446Y-27057919D01*
X26673486Y-27171722D01*
X26673492Y-27171729D01*
X26794037Y-27292274D01*
X26794044Y-27292280D01*
X26932994Y-27385123D01*
X26935877Y-27387165D01*
X26936208Y-27387314D01*
X26939808Y-27388657D01*
X27093312Y-27452240D01*
X27157210Y-27464949D01*
X27190489Y-27476690D01*
X27204340Y-27483935D01*
X27254613Y-27532442D01*
X27258249Y-27538826D01*
X27274500Y-27600194D01*
X27274500Y-38673607D01*
X27274234Y-38681720D01*
X27273705Y-38689788D01*
X27272910Y-38697863D01*
X27264929Y-38758475D01*
X27261764Y-38774383D01*
X27257593Y-38789948D01*
X27252381Y-38805304D01*
X27233686Y-38850439D01*
X27226513Y-38864984D01*
X27218452Y-38878947D01*
X27209439Y-38892436D01*
X27172236Y-38940920D01*
X27167092Y-38947189D01*
X27161735Y-38953298D01*
X27156183Y-38959225D01*
X27106790Y-39008616D01*
X27106770Y-39008638D01*
X26481137Y-39634271D01*
X26481126Y-39634279D01*
X26481127Y-39634280D01*
X26431724Y-39683684D01*
X26425797Y-39689236D01*
X26419688Y-39694593D01*
X26413419Y-39699737D01*
X26364935Y-39736940D01*
X26351453Y-39745949D01*
X26337499Y-39754006D01*
X26322947Y-39761182D01*
X26277798Y-39779883D01*
X26262439Y-39785097D01*
X26246876Y-39789267D01*
X26230970Y-39792431D01*
X26215025Y-39794530D01*
X26201392Y-39796325D01*
X26178714Y-39799310D01*
X26170362Y-39800410D01*
X26162303Y-39801204D01*
X26154209Y-39801734D01*
X26146108Y-39802000D01*
X25342958Y-39802000D01*
X25308023Y-39796977D01*
X25286649Y-39790701D01*
X25236433Y-39761863D01*
X25233186Y-39758796D01*
X25218030Y-39741553D01*
X25148190Y-39645427D01*
X25014573Y-39511810D01*
X24861699Y-39400740D01*
X24693336Y-39314954D01*
X24513618Y-39256559D01*
X24513612Y-39256558D01*
X24326991Y-39227000D01*
X24326986Y-39227000D01*
X24326981Y-39227000D01*
X24138019Y-39227000D01*
X24138014Y-39227000D01*
X24138009Y-39227000D01*
X23951386Y-39256558D01*
X23951384Y-39256558D01*
X23951381Y-39256559D01*
X23771663Y-39314954D01*
X23723788Y-39339348D01*
X23603300Y-39400739D01*
X23551406Y-39438444D01*
X23462298Y-39503185D01*
X23454917Y-39507318D01*
X23312317Y-39649918D01*
X23308186Y-39657295D01*
X23286923Y-39686562D01*
X23286922Y-39686563D01*
X23205744Y-39798294D01*
X23205736Y-39798307D01*
X23177717Y-39853298D01*
X23119954Y-39966663D01*
X23061559Y-40146381D01*
X23061558Y-40146384D01*
X23061558Y-40146386D01*
X23032000Y-40333007D01*
X23032000Y-40521991D01*
X23060919Y-40704575D01*
X23061559Y-40708618D01*
X23119954Y-40888336D01*
X23123156Y-40894620D01*
X23166682Y-40980046D01*
X23166683Y-40980046D01*
X23205740Y-41056699D01*
X23316810Y-41209573D01*
X23316812Y-41209575D01*
X23434448Y-41327211D01*
X23455600Y-41355467D01*
X23463092Y-41369188D01*
X23468080Y-41392119D01*
X23477357Y-41413680D01*
X23477944Y-41437448D01*
X23477815Y-41439254D01*
X23458447Y-41497456D01*
X23454268Y-41503959D01*
X23437632Y-41524603D01*
X23405575Y-41556659D01*
X23405549Y-41556687D01*
X23316812Y-41645424D01*
X23316812Y-41645425D01*
X23316810Y-41645427D01*
X23286922Y-41686564D01*
X23282996Y-41691966D01*
X23282990Y-41691974D01*
X23205744Y-41798294D01*
X23205736Y-41798307D01*
X23169970Y-41868501D01*
X23119954Y-41966663D01*
X23061559Y-42146381D01*
X23061558Y-42146384D01*
X23061558Y-42146386D01*
X23032000Y-42333007D01*
X23032000Y-42521991D01*
X23055205Y-42668501D01*
X23061559Y-42708618D01*
X23119954Y-42888336D01*
X23177616Y-43001503D01*
X23205740Y-43056699D01*
X23316810Y-43209573D01*
X23316812Y-43209575D01*
X23434448Y-43327211D01*
X23455600Y-43355467D01*
X23463092Y-43369188D01*
X23477944Y-43437448D01*
X23477815Y-43439254D01*
X23458447Y-43497456D01*
X23454268Y-43503959D01*
X23437632Y-43524603D01*
X23312317Y-43649917D01*
X23308185Y-43657296D01*
X23269110Y-43711078D01*
X23269110Y-43711079D01*
X23205740Y-43798299D01*
X23187295Y-43834500D01*
X23119954Y-43966663D01*
X23061559Y-44146381D01*
X23061559Y-44146383D01*
X23061558Y-44146386D01*
X23032000Y-44333007D01*
X23032000Y-44521991D01*
X23052730Y-44652873D01*
X23061559Y-44708618D01*
X23119954Y-44888336D01*
X23184075Y-45014179D01*
X23205740Y-45056699D01*
X23316810Y-45209573D01*
X23316812Y-45209575D01*
X23434801Y-45327564D01*
X23455953Y-45355820D01*
X23463445Y-45369541D01*
X23478297Y-45437801D01*
X23478168Y-45439607D01*
X23458797Y-45497813D01*
X23454617Y-45504317D01*
X23437985Y-45524957D01*
X23317186Y-45645756D01*
X23206169Y-45798559D01*
X23120411Y-45966868D01*
X23062049Y-46146490D01*
X23062048Y-46146497D01*
X23057138Y-46177500D01*
X23672013Y-46177500D01*
X23739052Y-46197185D01*
X23784807Y-46249989D01*
X23794751Y-46319147D01*
X23791788Y-46333592D01*
X23782500Y-46368256D01*
X23782500Y-46486744D01*
X23791788Y-46521407D01*
X23790125Y-46591257D01*
X23750962Y-46649119D01*
X23686733Y-46676623D01*
X23672013Y-46677500D01*
X23057138Y-46677500D01*
X23062048Y-46708502D01*
X23062048Y-46708505D01*
X23120411Y-46888130D01*
X23120412Y-46888131D01*
X23120414Y-46888137D01*
X23177487Y-47000147D01*
X23206169Y-47056438D01*
X23206170Y-47056440D01*
X23260379Y-47131054D01*
X23276849Y-47162269D01*
X23282102Y-47176992D01*
X23286090Y-47246748D01*
X23286090Y-47246750D01*
X23285573Y-47248973D01*
X23257932Y-47302748D01*
X23253364Y-47307945D01*
X23234540Y-47325347D01*
X23174952Y-47369954D01*
X23174950Y-47369957D01*
X23088705Y-47485165D01*
X23088703Y-47485168D01*
X23038408Y-47620016D01*
X23032000Y-47679625D01*
X23032000Y-48885963D01*
X23012315Y-48953002D01*
X22959511Y-48998757D01*
X22942936Y-49004940D01*
X22862496Y-49028560D01*
X22862492Y-49028562D01*
X22741462Y-49106344D01*
X22741451Y-49106352D01*
X22688659Y-49152096D01*
X22594433Y-49260837D01*
X22594430Y-49260841D01*
X22534664Y-49391707D01*
X22514976Y-49458755D01*
X22501325Y-49553701D01*
X22495029Y-49597498D01*
X22494500Y-49601174D01*
X22494500Y-50335811D01*
X22474815Y-50402850D01*
X22422011Y-50448605D01*
X22417968Y-50450365D01*
X22391537Y-50461313D01*
X22363921Y-50472752D01*
X22329726Y-50481479D01*
X22303573Y-50484291D01*
X22242865Y-50475563D01*
X22133502Y-50430264D01*
X22133471Y-50430257D01*
X21978847Y-50399500D01*
X21978845Y-50399500D01*
X21978842Y-50399500D01*
X21821158Y-50399500D01*
X21821155Y-50399500D01*
X21821153Y-50399500D01*
X21666527Y-50430257D01*
X21666496Y-50430264D01*
X21520833Y-50490598D01*
X21520824Y-50490603D01*
X21520807Y-50490613D01*
X21423095Y-50555903D01*
X21356417Y-50576781D01*
X21302691Y-50565595D01*
X21234962Y-50534663D01*
X21167917Y-50514976D01*
X21120444Y-50508150D01*
X21025500Y-50494500D01*
X21025498Y-50494500D01*
X14629500Y-50494500D01*
X14562461Y-50474815D01*
X14516706Y-50422011D01*
X14505500Y-50370500D01*
X14505500Y-47629500D01*
X14525185Y-47562461D01*
X14577989Y-47516706D01*
X14629500Y-47505500D01*
X14726000Y-47505500D01*
X14793039Y-47525185D01*
X14838794Y-47577989D01*
X14850000Y-47629500D01*
X14850000Y-48060000D01*
X15535986Y-48060000D01*
X15603025Y-48079685D01*
X15648780Y-48132489D01*
X15658724Y-48201647D01*
X15655763Y-48216080D01*
X15650000Y-48237591D01*
X15650000Y-48382409D01*
X15655760Y-48403908D01*
X15654098Y-48473755D01*
X15614936Y-48531618D01*
X15550708Y-48559123D01*
X15535986Y-48560000D01*
X14850000Y-48560000D01*
X14850000Y-49207852D01*
X14856400Y-49267370D01*
X14856402Y-49267377D01*
X14876502Y-49321267D01*
X14906247Y-49401020D01*
X14906646Y-49402088D01*
X14906648Y-49402091D01*
X14992807Y-49517185D01*
X14992809Y-49517187D01*
X14992812Y-49517190D01*
X15107906Y-49603350D01*
X15107913Y-49603354D01*
X15242620Y-49653596D01*
X15242627Y-49653598D01*
X15249468Y-49654333D01*
X15302138Y-49659998D01*
X15302155Y-49659999D01*
X15302172Y-49660000D01*
X15950000Y-49660000D01*
X15950000Y-48974014D01*
X15969685Y-48906975D01*
X16022489Y-48861220D01*
X16091647Y-48851276D01*
X16106080Y-48854236D01*
X16127591Y-48860000D01*
X16272406Y-48860000D01*
X16272409Y-48860000D01*
X16293908Y-48854239D01*
X16363755Y-48855902D01*
X16421618Y-48895064D01*
X16449123Y-48959292D01*
X16450000Y-48974014D01*
X16450000Y-49660000D01*
X17097828Y-49660000D01*
X17097836Y-49660000D01*
X17097847Y-49659999D01*
X17133560Y-49656158D01*
X17157372Y-49653598D01*
X17157379Y-49653596D01*
X17292086Y-49603354D01*
X17292093Y-49603350D01*
X17407187Y-49517190D01*
X17407190Y-49517187D01*
X17493350Y-49402093D01*
X17493354Y-49402086D01*
X17543596Y-49267379D01*
X17543598Y-49267372D01*
X17546201Y-49243168D01*
X17549998Y-49207860D01*
X17550000Y-49207827D01*
X17550000Y-48560000D01*
X16864014Y-48560000D01*
X16796975Y-48540315D01*
X16751220Y-48487511D01*
X16741276Y-48418353D01*
X16744236Y-48403919D01*
X16750000Y-48382409D01*
X16750000Y-48237591D01*
X16744239Y-48216091D01*
X16745902Y-48146245D01*
X16785064Y-48088382D01*
X16849292Y-48060877D01*
X16864014Y-48060000D01*
X17550000Y-48060000D01*
X17550000Y-47412172D01*
X17549998Y-47412138D01*
X17543598Y-47352628D01*
X17543596Y-47352621D01*
X17543596Y-47352620D01*
X17493354Y-47217913D01*
X17493350Y-47217906D01*
X17424255Y-47125608D01*
X17407191Y-47102813D01*
X17407185Y-47102807D01*
X17337985Y-47051004D01*
X17292093Y-47016649D01*
X17292088Y-47016646D01*
X17212791Y-46987070D01*
X17177232Y-46973807D01*
X17146255Y-46956891D01*
X17135145Y-46948574D01*
X17093274Y-46892640D01*
X17088290Y-46822950D01*
X17089265Y-46818467D01*
X17122750Y-46757145D01*
X17230104Y-46649792D01*
X17355051Y-46477816D01*
X17451557Y-46288412D01*
X17517246Y-46086243D01*
X17518203Y-46080196D01*
X17528626Y-46046488D01*
X17534177Y-46034778D01*
X17580681Y-45982635D01*
X17647995Y-45963911D01*
X17710256Y-45981711D01*
X17718200Y-45986502D01*
X17741841Y-46005004D01*
X17793618Y-46056782D01*
X17793623Y-46056786D01*
X17793627Y-46056789D01*
X17924730Y-46144390D01*
X17924743Y-46144397D01*
X18070414Y-46204735D01*
X18070419Y-46204737D01*
X18217429Y-46233979D01*
X18220163Y-46234703D01*
X18225071Y-46235500D01*
X18382760Y-46235500D01*
X18386880Y-46235500D01*
X18394730Y-46233118D01*
X18537413Y-46204737D01*
X18639997Y-46162245D01*
X18674187Y-46153519D01*
X18700343Y-46150707D01*
X18761048Y-46159434D01*
X18825652Y-46186194D01*
X18825653Y-46186195D01*
X18870414Y-46204735D01*
X18870419Y-46204737D01*
X19017429Y-46233979D01*
X19020163Y-46234703D01*
X19025071Y-46235500D01*
X19182760Y-46235500D01*
X19186880Y-46235500D01*
X19194730Y-46233118D01*
X19337413Y-46204737D01*
X19439997Y-46162245D01*
X19474187Y-46153519D01*
X19500343Y-46150707D01*
X19561048Y-46159434D01*
X19625652Y-46186194D01*
X19625653Y-46186195D01*
X19670414Y-46204735D01*
X19670419Y-46204737D01*
X19817429Y-46233979D01*
X19820163Y-46234703D01*
X19825071Y-46235500D01*
X19982760Y-46235500D01*
X19986880Y-46235500D01*
X19994730Y-46233118D01*
X20137413Y-46204737D01*
X20238033Y-46163057D01*
X20272231Y-46154330D01*
X20298386Y-46151518D01*
X20359090Y-46160245D01*
X20466503Y-46204737D01*
X20613513Y-46233979D01*
X20616247Y-46234703D01*
X20621155Y-46235500D01*
X20778844Y-46235500D01*
X20782964Y-46235500D01*
X20790814Y-46233118D01*
X20933497Y-46204737D01*
X21079179Y-46144394D01*
X21210289Y-46056789D01*
X21321789Y-45945289D01*
X21409394Y-45814179D01*
X21469737Y-45668497D01*
X21500500Y-45513842D01*
X21500500Y-45356158D01*
X21500500Y-45356155D01*
X21500500Y-45355974D01*
X21500073Y-45354014D01*
X21497320Y-45340172D01*
X21481551Y-45260894D01*
X21469738Y-45201506D01*
X21469737Y-45201504D01*
X21469737Y-45201503D01*
X21427245Y-45098919D01*
X21418519Y-45064727D01*
X21418185Y-45061621D01*
X21415707Y-45038571D01*
X21424434Y-44977868D01*
X21456707Y-44899954D01*
X21469737Y-44868497D01*
X21500500Y-44713842D01*
X21500500Y-44556158D01*
X21500500Y-44556155D01*
X21500500Y-44555973D01*
X21500065Y-44553972D01*
X21497559Y-44541376D01*
X21489329Y-44500000D01*
X21469737Y-44401503D01*
X21464771Y-44389514D01*
X21409397Y-44255827D01*
X21409390Y-44255814D01*
X21321789Y-44124711D01*
X21321786Y-44124707D01*
X21321781Y-44124701D01*
X21210297Y-44013217D01*
X21210291Y-44013212D01*
X21210288Y-44013210D01*
X21079191Y-43925613D01*
X21079190Y-43925612D01*
X21079185Y-43925609D01*
X21079172Y-43925602D01*
X21079165Y-43925598D01*
X20933502Y-43865264D01*
X20933471Y-43865257D01*
X20778847Y-43834500D01*
X20778845Y-43834500D01*
X20778842Y-43834500D01*
X20621158Y-43834500D01*
X20621155Y-43834500D01*
X20621153Y-43834500D01*
X20466527Y-43865257D01*
X20466501Y-43865263D01*
X20466499Y-43865263D01*
X20466498Y-43865264D01*
X20427243Y-43881524D01*
X20365880Y-43906941D01*
X20331684Y-43915668D01*
X20305531Y-43918480D01*
X20244823Y-43909752D01*
X20137418Y-43865264D01*
X20137387Y-43865257D01*
X19982763Y-43834500D01*
X19982761Y-43834500D01*
X19982758Y-43834500D01*
X19825074Y-43834500D01*
X19825071Y-43834500D01*
X19825069Y-43834500D01*
X19670443Y-43865257D01*
X19670417Y-43865263D01*
X19670415Y-43865263D01*
X19670414Y-43865264D01*
X19631159Y-43881524D01*
X19567838Y-43907752D01*
X19533642Y-43916479D01*
X19507489Y-43919291D01*
X19446781Y-43910563D01*
X19337418Y-43865264D01*
X19337387Y-43865257D01*
X19182763Y-43834500D01*
X19182761Y-43834500D01*
X19182758Y-43834500D01*
X19025074Y-43834500D01*
X19025071Y-43834500D01*
X19025069Y-43834500D01*
X18870443Y-43865257D01*
X18870417Y-43865263D01*
X18870415Y-43865263D01*
X18870414Y-43865264D01*
X18831159Y-43881524D01*
X18767838Y-43907752D01*
X18733642Y-43916479D01*
X18707489Y-43919291D01*
X18646781Y-43910563D01*
X18537418Y-43865264D01*
X18537387Y-43865257D01*
X18382763Y-43834500D01*
X18382761Y-43834500D01*
X18382758Y-43834500D01*
X18225074Y-43834500D01*
X18225071Y-43834500D01*
X18225069Y-43834500D01*
X18070443Y-43865257D01*
X18070412Y-43865264D01*
X17924749Y-43925598D01*
X17924740Y-43925603D01*
X17924723Y-43925613D01*
X17793627Y-44013210D01*
X17793623Y-44013212D01*
X17793617Y-44013217D01*
X17682133Y-44124701D01*
X17682128Y-44124707D01*
X17682127Y-44124708D01*
X17594529Y-44255807D01*
X17594519Y-44255824D01*
X17594514Y-44255833D01*
X17534180Y-44401496D01*
X17534180Y-44401498D01*
X17534177Y-44401510D01*
X17528797Y-44428556D01*
X17503416Y-44556150D01*
X17503416Y-44556153D01*
X17503416Y-44713846D01*
X17503416Y-44713848D01*
X17503415Y-44713848D01*
X17534173Y-44868471D01*
X17534178Y-44868495D01*
X17550617Y-44908182D01*
X17559345Y-44942378D01*
X17559998Y-44948452D01*
X17547592Y-45017212D01*
X17499981Y-45068349D01*
X17432282Y-45085628D01*
X17365988Y-45063563D01*
X17363191Y-45061621D01*
X17333592Y-45032649D01*
X17331591Y-45029895D01*
X17295807Y-44980642D01*
X17230107Y-44890211D01*
X17079782Y-44739886D01*
X16907824Y-44614953D01*
X16907258Y-44614606D01*
X16907089Y-44614419D01*
X16903901Y-44612103D01*
X16904388Y-44611431D01*
X16903653Y-44610618D01*
X16886960Y-44599062D01*
X16876683Y-44589357D01*
X16862543Y-44565136D01*
X16860406Y-44562772D01*
X16860107Y-44560963D01*
X16841457Y-44529017D01*
X16844445Y-44459212D01*
X16880613Y-44405493D01*
X16887783Y-44399281D01*
X16904187Y-44387275D01*
X16907816Y-44385051D01*
X16929789Y-44369086D01*
X17079786Y-44260109D01*
X17079786Y-44260108D01*
X17079844Y-44260066D01*
X17080605Y-44259290D01*
X17229290Y-44110605D01*
X17230065Y-44109845D01*
X17230124Y-44109765D01*
X17355048Y-43937820D01*
X17355047Y-43937820D01*
X17355051Y-43937816D01*
X17355053Y-43937810D01*
X17375445Y-43909744D01*
X17383730Y-43881529D01*
X17451557Y-43748412D01*
X17517246Y-43546243D01*
X17550500Y-43336287D01*
X17550500Y-43123713D01*
X17517246Y-42913757D01*
X17451557Y-42711588D01*
X17355197Y-42522471D01*
X17355052Y-42522183D01*
X17230112Y-42350216D01*
X17079782Y-42199886D01*
X16907824Y-42074953D01*
X16907258Y-42074606D01*
X16907089Y-42074419D01*
X16903901Y-42072103D01*
X16904388Y-42071431D01*
X16903653Y-42070618D01*
X16886960Y-42059062D01*
X16876683Y-42049357D01*
X16862543Y-42025136D01*
X16860406Y-42022772D01*
X16860107Y-42020963D01*
X16841457Y-41989017D01*
X16844445Y-41919212D01*
X16880612Y-41865495D01*
X16887783Y-41859281D01*
X16904201Y-41847266D01*
X16907810Y-41845054D01*
X16907816Y-41845051D01*
X16967071Y-41802000D01*
X17079786Y-41720109D01*
X17079786Y-41720107D01*
X17079846Y-41720064D01*
X17080605Y-41719290D01*
X17229303Y-41570592D01*
X17230062Y-41569848D01*
X17230099Y-41569796D01*
X17230104Y-41569792D01*
X17230106Y-41569788D01*
X17230109Y-41569786D01*
X17342025Y-41415745D01*
X17352377Y-41401497D01*
X17353044Y-41400577D01*
X17355051Y-41397816D01*
X17451557Y-41208412D01*
X17517246Y-41006243D01*
X17550500Y-40796287D01*
X17550500Y-40583713D01*
X17517246Y-40373757D01*
X17451557Y-40171588D01*
X17355197Y-39982471D01*
X17355052Y-39982183D01*
X17230112Y-39810216D01*
X17097740Y-39677844D01*
X17064255Y-39616521D01*
X17069239Y-39546829D01*
X17072621Y-39538666D01*
X17126080Y-39421623D01*
X17129991Y-39408306D01*
X17145327Y-39337822D01*
X17150352Y-39302881D01*
X17155500Y-39230923D01*
X17155500Y-38987830D01*
X17152860Y-38938616D01*
X17168925Y-38870621D01*
X17219202Y-38822103D01*
X17233335Y-38815799D01*
X17292331Y-38793796D01*
X17407546Y-38707546D01*
X17493796Y-38592331D01*
X17544091Y-38457483D01*
X17550500Y-38397873D01*
X17550499Y-36602128D01*
X17544091Y-36542517D01*
X17541890Y-36536614D01*
X17532345Y-36511024D01*
X17532345Y-36511023D01*
X17493798Y-36407673D01*
X17493797Y-36407671D01*
X17493793Y-36407664D01*
X17407547Y-36292455D01*
X17407544Y-36292452D01*
X17407542Y-36292450D01*
X17302543Y-36213848D01*
X17292335Y-36206206D01*
X17292332Y-36206204D01*
X17292330Y-36206203D01*
X17292328Y-36206202D01*
X17177621Y-36163419D01*
X17146642Y-36146502D01*
X17135531Y-36138184D01*
X17093661Y-36082250D01*
X17088678Y-36012561D01*
X17089655Y-36008068D01*
X17123138Y-35946757D01*
X17168399Y-35901496D01*
X17230104Y-35839792D01*
X17290243Y-35757018D01*
X17355049Y-35667819D01*
X17355054Y-35667808D01*
X17355057Y-35667805D01*
X17357597Y-35663662D01*
X17358040Y-35663933D01*
X17374730Y-35640250D01*
X17386463Y-35627828D01*
X17444238Y-35593274D01*
X17453931Y-35590652D01*
X17457089Y-35589799D01*
X17489455Y-35585500D01*
X18132320Y-35585500D01*
X18132326Y-35585500D01*
X18164354Y-35581283D01*
X18343585Y-35557688D01*
X18549407Y-35502539D01*
X18746269Y-35420996D01*
X18930804Y-35314454D01*
X19099854Y-35184738D01*
X19175189Y-35109401D01*
X19228893Y-35055697D01*
X19228892Y-35055697D01*
X20992965Y-33291626D01*
X21012377Y-33272214D01*
X21012394Y-33272195D01*
X21024738Y-33259853D01*
X21154454Y-33090803D01*
X21260995Y-32906269D01*
X21271464Y-32880996D01*
X21281157Y-32857592D01*
X21342538Y-32709407D01*
X21397688Y-32503585D01*
X21425500Y-32292326D01*
X21425500Y-32185785D01*
X21425500Y-32109836D01*
X21425500Y-25460179D01*
X21430523Y-25425244D01*
X21439863Y-25393435D01*
X21455736Y-25359482D01*
X21509394Y-25279179D01*
X21569737Y-25133497D01*
X21600500Y-24978842D01*
X21600500Y-24821158D01*
X21600500Y-24821155D01*
X21600500Y-24820971D01*
X21600064Y-24818966D01*
X21586003Y-24748276D01*
X21569738Y-24666510D01*
X21569737Y-24666503D01*
X21553672Y-24627719D01*
X21509397Y-24520827D01*
X21509390Y-24520814D01*
X21421789Y-24389711D01*
X21421786Y-24389707D01*
X21421781Y-24389701D01*
X21310297Y-24278217D01*
X21310291Y-24278212D01*
X21310290Y-24278211D01*
X21179191Y-24190613D01*
X21179190Y-24190612D01*
X21179185Y-24190609D01*
X21179172Y-24190602D01*
X21179165Y-24190598D01*
X21033502Y-24130264D01*
X21033471Y-24130257D01*
X20878847Y-24099500D01*
X20878845Y-24099500D01*
X20878842Y-24099500D01*
X20749771Y-24099500D01*
X20742111Y-24097250D01*
X20734231Y-24098522D01*
X20714836Y-24094477D01*
X20703982Y-24091290D01*
X20688982Y-24081650D01*
X20682732Y-24079815D01*
X20678466Y-24074892D01*
X20645204Y-24053516D01*
X20616179Y-23989960D01*
X20626122Y-23920803D01*
X20629312Y-23913820D01*
X20654421Y-23877658D01*
X20671788Y-23860291D01*
X20671787Y-23860291D01*
X20671789Y-23860289D01*
X20758216Y-23730941D01*
X20759390Y-23729185D01*
X20759390Y-23729184D01*
X20759394Y-23729179D01*
X20819737Y-23583497D01*
X20850500Y-23428842D01*
X20850500Y-23271158D01*
X20850500Y-23271155D01*
X20850500Y-23270973D01*
X20850065Y-23268972D01*
X20842249Y-23229679D01*
X20842249Y-23229678D01*
X20819737Y-23116505D01*
X20819736Y-23116501D01*
X20816080Y-23107674D01*
X20795386Y-23057713D01*
X20759397Y-22970827D01*
X20759390Y-22970814D01*
X20671789Y-22839711D01*
X20671786Y-22839707D01*
X20671781Y-22839701D01*
X20560297Y-22728217D01*
X20560291Y-22728212D01*
X20560290Y-22728211D01*
X20429179Y-22640605D01*
X20429178Y-22640604D01*
X20354610Y-22609718D01*
X20324259Y-22591710D01*
X20313448Y-22582999D01*
X20273602Y-22525608D01*
X20271108Y-22455786D01*
X20273832Y-22445110D01*
X20290878Y-22406887D01*
X20309394Y-22379179D01*
X20369737Y-22233497D01*
X20400500Y-22078842D01*
X20400500Y-21921158D01*
X20400500Y-21921155D01*
X20400500Y-21920971D01*
X20400064Y-21918966D01*
X20386227Y-21849403D01*
X20374682Y-21791363D01*
X20369737Y-21766503D01*
X20369735Y-21766498D01*
X20309397Y-21620827D01*
X20309390Y-21620814D01*
X20221789Y-21489711D01*
X20221786Y-21489707D01*
X20221781Y-21489701D01*
X20110297Y-21378217D01*
X20110291Y-21378212D01*
X20110290Y-21378211D01*
X19979191Y-21290613D01*
X19979190Y-21290612D01*
X19979185Y-21290609D01*
X19979172Y-21290602D01*
X19979165Y-21290598D01*
X19833502Y-21230264D01*
X19833471Y-21230257D01*
X19678847Y-21199500D01*
X19678845Y-21199500D01*
X19678842Y-21199500D01*
X19521158Y-21199500D01*
X19521155Y-21199500D01*
X19521153Y-21199500D01*
X19366527Y-21230257D01*
X19366496Y-21230264D01*
X19220833Y-21290598D01*
X19220824Y-21290603D01*
X19220807Y-21290613D01*
X19089708Y-21378211D01*
X19089707Y-21378212D01*
X19089701Y-21378217D01*
X18978217Y-21489701D01*
X18978212Y-21489707D01*
X18978211Y-21489708D01*
X18890613Y-21620807D01*
X18890603Y-21620824D01*
X18890598Y-21620833D01*
X18830272Y-21766475D01*
X18830264Y-21766499D01*
X18830259Y-21766513D01*
X18811619Y-21860225D01*
X18799877Y-21893509D01*
X18784511Y-21922884D01*
X18762320Y-21953087D01*
X18704303Y-22011106D01*
X18662803Y-22052607D01*
X18636568Y-22078842D01*
X18575262Y-22140144D01*
X18575258Y-22140149D01*
X18445556Y-22309180D01*
X18445555Y-22309182D01*
X18445538Y-22309207D01*
X18339003Y-22493729D01*
X18257468Y-22690570D01*
X18257464Y-22690582D01*
X18257457Y-22690605D01*
X18202311Y-22896414D01*
X18174500Y-23107673D01*
X18174500Y-28773609D01*
X18173548Y-28777830D01*
X18174233Y-28781728D01*
X18173731Y-28789386D01*
X18173704Y-28789805D01*
X18172909Y-28797868D01*
X18164931Y-28858469D01*
X18161766Y-28874379D01*
X18157596Y-28889941D01*
X18153687Y-28897803D01*
X18153195Y-28903289D01*
X18152383Y-28905299D01*
X18133682Y-28950447D01*
X18126510Y-28964991D01*
X18118457Y-28978940D01*
X18109443Y-28992431D01*
X18072226Y-29040932D01*
X18067079Y-29047203D01*
X18061747Y-29053283D01*
X18056206Y-29059199D01*
X18033341Y-29082067D01*
X18033331Y-29082078D01*
X18003038Y-29112368D01*
X18003027Y-29112380D01*
X17979216Y-29136192D01*
X17973287Y-29141745D01*
X17967195Y-29147087D01*
X17960927Y-29152231D01*
X17912436Y-29189439D01*
X17898947Y-29198452D01*
X17884984Y-29206513D01*
X17870439Y-29213686D01*
X17825304Y-29232381D01*
X17809948Y-29237593D01*
X17794383Y-29241764D01*
X17778476Y-29244929D01*
X17744573Y-29249393D01*
X17728322Y-29251533D01*
X17728318Y-29251533D01*
X17728314Y-29251534D01*
X17717858Y-29252910D01*
X17709801Y-29253704D01*
X17709167Y-29253745D01*
X17701707Y-29254234D01*
X17693605Y-29254500D01*
X17490811Y-29254500D01*
X17455871Y-29249476D01*
X17439489Y-29244665D01*
X17396574Y-29217729D01*
X17393156Y-29216530D01*
X17391710Y-29214675D01*
X17382478Y-29208881D01*
X17373550Y-29199013D01*
X17357820Y-29176187D01*
X17357591Y-29176328D01*
X17355052Y-29172185D01*
X17355050Y-29172182D01*
X17355049Y-29172180D01*
X17230109Y-29000213D01*
X17097740Y-28867844D01*
X17064255Y-28806521D01*
X17069239Y-28736829D01*
X17072621Y-28728666D01*
X17126080Y-28611623D01*
X17129991Y-28598306D01*
X17145327Y-28527822D01*
X17150352Y-28492881D01*
X17155500Y-28420923D01*
X17155500Y-27965330D01*
X17152664Y-27912460D01*
X17168729Y-27844464D01*
X17219007Y-27795947D01*
X17233154Y-27789638D01*
X17282326Y-27771298D01*
X17282326Y-27771297D01*
X17282331Y-27771296D01*
X17397546Y-27685046D01*
X17483796Y-27569831D01*
X17534091Y-27434983D01*
X17540500Y-27375373D01*
X17540499Y-25579628D01*
X17534091Y-25520017D01*
X17496786Y-25419998D01*
X17483797Y-25385171D01*
X17483793Y-25385164D01*
X17404449Y-25279175D01*
X17397548Y-25269956D01*
X17397542Y-25269950D01*
X17323811Y-25214755D01*
X17282335Y-25183706D01*
X17282332Y-25183704D01*
X17282330Y-25183703D01*
X17282328Y-25183702D01*
X17167621Y-25140919D01*
X17136642Y-25124002D01*
X17125531Y-25115684D01*
X17083661Y-25059750D01*
X17078678Y-24990061D01*
X17079654Y-24985572D01*
X17113136Y-24924258D01*
X17220104Y-24817292D01*
X17345051Y-24645316D01*
X17441557Y-24455912D01*
X17507246Y-24253743D01*
X17540500Y-24043787D01*
X17540500Y-23831213D01*
X17507246Y-23621257D01*
X17441557Y-23419088D01*
X17345197Y-23229971D01*
X17345052Y-23229683D01*
X17220109Y-23057713D01*
X17069788Y-22907392D01*
X17069786Y-22907390D01*
X16897817Y-22782449D01*
X16897812Y-22782446D01*
X16896584Y-22781694D01*
X16876242Y-22766124D01*
X16866127Y-22756571D01*
X16830906Y-22696234D01*
X16833896Y-22626429D01*
X16870063Y-22572713D01*
X16877115Y-22566602D01*
X16893525Y-22554590D01*
X16897543Y-22552127D01*
X16897558Y-22552120D01*
X17069459Y-22427227D01*
X17069464Y-22427223D01*
X17219723Y-22276964D01*
X17219727Y-22276959D01*
X17344620Y-22105057D01*
X17398150Y-22000000D01*
X18000000Y-22000000D01*
X18000000Y-20800000D01*
X17400698Y-20800000D01*
X17344620Y-20689942D01*
X17219727Y-20518040D01*
X17219723Y-20518035D01*
X17219720Y-20518032D01*
X17219717Y-20518028D01*
X17069472Y-20367783D01*
X17069462Y-20367774D01*
X17069460Y-20367772D01*
X17069453Y-20367767D01*
X16897564Y-20242883D01*
X16897559Y-20242880D01*
X16897555Y-20242877D01*
X16897550Y-20242874D01*
X16896670Y-20242336D01*
X16896401Y-20242039D01*
X16893614Y-20240014D01*
X16894039Y-20239428D01*
X16893094Y-20238384D01*
X16876314Y-20226753D01*
X16866122Y-20217127D01*
X16852053Y-20193022D01*
X16849794Y-20190525D01*
X16849475Y-20188605D01*
X16830903Y-20156784D01*
X16833899Y-20086979D01*
X16870070Y-20033267D01*
X16877084Y-20027190D01*
X16894083Y-20015782D01*
X16893663Y-20015096D01*
X16897814Y-20012552D01*
X16897813Y-20012552D01*
X16897816Y-20012551D01*
X16977007Y-19955015D01*
X17069786Y-19887609D01*
X17069787Y-19887607D01*
X17069846Y-19887564D01*
X17070605Y-19886790D01*
X17219290Y-19738105D01*
X17220065Y-19737345D01*
X17220124Y-19737265D01*
X17226306Y-19728756D01*
X17345048Y-19565320D01*
X17345047Y-19565320D01*
X17345051Y-19565316D01*
X17345053Y-19565310D01*
X17365445Y-19537244D01*
X17373730Y-19509029D01*
X17441557Y-19375912D01*
X17507246Y-19173743D01*
X17540500Y-18963787D01*
X17540500Y-18751213D01*
X17521119Y-18628848D01*
X18949499Y-18628848D01*
X18980257Y-18783471D01*
X18980264Y-18783502D01*
X19040598Y-18929165D01*
X19040603Y-18929174D01*
X19040613Y-18929191D01*
X19128211Y-19060290D01*
X19128212Y-19060291D01*
X19128217Y-19060297D01*
X19239701Y-19171781D01*
X19239707Y-19171786D01*
X19239711Y-19171789D01*
X19370814Y-19259390D01*
X19370827Y-19259397D01*
X19508693Y-19316502D01*
X19516503Y-19319737D01*
X19663513Y-19348979D01*
X19666247Y-19349703D01*
X19671155Y-19350500D01*
X19828844Y-19350500D01*
X19832964Y-19350500D01*
X19840814Y-19348118D01*
X19983497Y-19319737D01*
X20129179Y-19259394D01*
X20260289Y-19171789D01*
X20371789Y-19060289D01*
X20459394Y-18929179D01*
X20459793Y-18928217D01*
X20496079Y-18840613D01*
X20519737Y-18783497D01*
X20550500Y-18628842D01*
X20550500Y-18471158D01*
X20550500Y-18471155D01*
X20550500Y-18470973D01*
X20550065Y-18468972D01*
X20524229Y-18339088D01*
X20520395Y-18319816D01*
X20519994Y-18317467D01*
X20519738Y-18316508D01*
X20519737Y-18316506D01*
X20519737Y-18316503D01*
X20519735Y-18316498D01*
X20459397Y-18170827D01*
X20459390Y-18170814D01*
X20371789Y-18039711D01*
X20371786Y-18039707D01*
X20371781Y-18039701D01*
X20260297Y-17928217D01*
X20260291Y-17928212D01*
X20260290Y-17928211D01*
X20129191Y-17840613D01*
X20129190Y-17840612D01*
X20129185Y-17840609D01*
X20129172Y-17840602D01*
X20129165Y-17840598D01*
X19983502Y-17780264D01*
X19983471Y-17780257D01*
X19828847Y-17749500D01*
X19828845Y-17749500D01*
X19828842Y-17749500D01*
X19671158Y-17749500D01*
X19671155Y-17749500D01*
X19671153Y-17749500D01*
X19516527Y-17780257D01*
X19516496Y-17780264D01*
X19370833Y-17840598D01*
X19370824Y-17840603D01*
X19370807Y-17840613D01*
X19239708Y-17928211D01*
X19239707Y-17928212D01*
X19239701Y-17928217D01*
X19128217Y-18039701D01*
X19128212Y-18039707D01*
X19128211Y-18039708D01*
X19040613Y-18170807D01*
X19040603Y-18170824D01*
X19040598Y-18170833D01*
X18980264Y-18316496D01*
X18980257Y-18316527D01*
X18949500Y-18471150D01*
X18949500Y-18471153D01*
X18949500Y-18628846D01*
X18949500Y-18628848D01*
X18949499Y-18628848D01*
X17521119Y-18628848D01*
X17507246Y-18541257D01*
X17441557Y-18339088D01*
X17345197Y-18149971D01*
X17345052Y-18149683D01*
X17220112Y-17977716D01*
X17069787Y-17827391D01*
X17069786Y-17827390D01*
X17062228Y-17821899D01*
X17051295Y-17813955D01*
X17045723Y-17809478D01*
X17045713Y-17809492D01*
X16938628Y-17725369D01*
X16928069Y-17720783D01*
X16904593Y-17707371D01*
X16897824Y-17702454D01*
X16897820Y-17702451D01*
X16749157Y-17626704D01*
X16725911Y-17614859D01*
X16720571Y-17610979D01*
X16696254Y-17600906D01*
X16689734Y-17599874D01*
X16566338Y-17559780D01*
X16515074Y-17543123D01*
X16510552Y-17541270D01*
X16501362Y-17539100D01*
X16496599Y-17538726D01*
X16449107Y-17531204D01*
X16344957Y-17514708D01*
X16325489Y-17511624D01*
X16296290Y-17507000D01*
X16296287Y-17507000D01*
X16083713Y-17507000D01*
X16083709Y-17507000D01*
X16044776Y-17513166D01*
X16035042Y-17514708D01*
X16006820Y-17519178D01*
X15873763Y-17540252D01*
X15671582Y-17605945D01*
X15622439Y-17630985D01*
X15566144Y-17644500D01*
X15343980Y-17644500D01*
X15276941Y-17624815D01*
X15274293Y-17622976D01*
X15213145Y-17583679D01*
X15213134Y-17583673D01*
X15082276Y-17523911D01*
X15068953Y-17519999D01*
X14998437Y-17504660D01*
X14963521Y-17499642D01*
X14963510Y-17499641D01*
X14891603Y-17494500D01*
X14891598Y-17494500D01*
X13009143Y-17494500D01*
X13006954Y-17494526D01*
X12996843Y-17494649D01*
X12990850Y-17494794D01*
X12978262Y-17495255D01*
X12972204Y-17495553D01*
X12970300Y-17495670D01*
X12959721Y-17496321D01*
X12958678Y-17496398D01*
X12953688Y-17496766D01*
X12941419Y-17497823D01*
X12773561Y-17514354D01*
X12748921Y-17517394D01*
X12736900Y-17519178D01*
X12712469Y-17523417D01*
X12700555Y-17525788D01*
X12676434Y-17531204D01*
X12676414Y-17531208D01*
X12676414Y-17531209D01*
X12664637Y-17534158D01*
X12664627Y-17534160D01*
X12664610Y-17534165D01*
X12657562Y-17536115D01*
X12587701Y-17535018D01*
X12529523Y-17496325D01*
X12501500Y-17432321D01*
X12500500Y-17416604D01*
X12500500Y-14913848D01*
X21099499Y-14913848D01*
X21130257Y-15068471D01*
X21130264Y-15068502D01*
X21190598Y-15214165D01*
X21190603Y-15214174D01*
X21190613Y-15214191D01*
X21278211Y-15345290D01*
X21278212Y-15345291D01*
X21278217Y-15345297D01*
X21389701Y-15456781D01*
X21389707Y-15456786D01*
X21389711Y-15456789D01*
X21520814Y-15544390D01*
X21520827Y-15544397D01*
X21666498Y-15604735D01*
X21666503Y-15604737D01*
X21813513Y-15633979D01*
X21816247Y-15634703D01*
X21821155Y-15635500D01*
X21978844Y-15635500D01*
X21982964Y-15635500D01*
X21990814Y-15633118D01*
X22133497Y-15604737D01*
X22236081Y-15562245D01*
X22270271Y-15553519D01*
X22296427Y-15550707D01*
X22357133Y-15559434D01*
X22466503Y-15604737D01*
X22613513Y-15633979D01*
X22616247Y-15634703D01*
X22621155Y-15635500D01*
X22778844Y-15635500D01*
X22782964Y-15635500D01*
X22790814Y-15633118D01*
X22933497Y-15604737D01*
X23036081Y-15562245D01*
X23070271Y-15553519D01*
X23096427Y-15550707D01*
X23157133Y-15559434D01*
X23266503Y-15604737D01*
X23413513Y-15633979D01*
X23416247Y-15634703D01*
X23421155Y-15635500D01*
X23578844Y-15635500D01*
X23582964Y-15635500D01*
X23590814Y-15633118D01*
X23733497Y-15604737D01*
X23879179Y-15544394D01*
X24010289Y-15456789D01*
X24121789Y-15345289D01*
X24209394Y-15214179D01*
X24269737Y-15068497D01*
X24300500Y-14913842D01*
X24300500Y-14756158D01*
X24300500Y-14756155D01*
X24300500Y-14755973D01*
X24300065Y-14753972D01*
X24270398Y-14604830D01*
X24269983Y-14602403D01*
X24269737Y-14601504D01*
X24229378Y-14504066D01*
X24209397Y-14455827D01*
X24209390Y-14455814D01*
X24121789Y-14324711D01*
X24121786Y-14324707D01*
X24121781Y-14324701D01*
X24010297Y-14213217D01*
X24010291Y-14213212D01*
X24010290Y-14213211D01*
X23879191Y-14125613D01*
X23879190Y-14125612D01*
X23879185Y-14125609D01*
X23879172Y-14125602D01*
X23879165Y-14125598D01*
X23733502Y-14065264D01*
X23733471Y-14065257D01*
X23578847Y-14034500D01*
X23578845Y-14034500D01*
X23578842Y-14034500D01*
X23421158Y-14034500D01*
X23421155Y-14034500D01*
X23421153Y-14034500D01*
X23266527Y-14065257D01*
X23266501Y-14065263D01*
X23266499Y-14065263D01*
X23266498Y-14065264D01*
X23163922Y-14107752D01*
X23129726Y-14116479D01*
X23103573Y-14119291D01*
X23042865Y-14110563D01*
X22933502Y-14065264D01*
X22933471Y-14065257D01*
X22778847Y-14034500D01*
X22778845Y-14034500D01*
X22778842Y-14034500D01*
X22621158Y-14034500D01*
X22621155Y-14034500D01*
X22621153Y-14034500D01*
X22466527Y-14065257D01*
X22466501Y-14065263D01*
X22466499Y-14065263D01*
X22466498Y-14065264D01*
X22363922Y-14107752D01*
X22329726Y-14116479D01*
X22303573Y-14119291D01*
X22242865Y-14110563D01*
X22133502Y-14065264D01*
X22133471Y-14065257D01*
X21978847Y-14034500D01*
X21978845Y-14034500D01*
X21978842Y-14034500D01*
X21821158Y-14034500D01*
X21821155Y-14034500D01*
X21821153Y-14034500D01*
X21666527Y-14065257D01*
X21666496Y-14065264D01*
X21520833Y-14125598D01*
X21520824Y-14125603D01*
X21520807Y-14125613D01*
X21389708Y-14213211D01*
X21389707Y-14213212D01*
X21389701Y-14213217D01*
X21278217Y-14324701D01*
X21278212Y-14324707D01*
X21278211Y-14324708D01*
X21190613Y-14455807D01*
X21190603Y-14455824D01*
X21190598Y-14455833D01*
X21130264Y-14601496D01*
X21130257Y-14601527D01*
X21099500Y-14756150D01*
X21099500Y-14756153D01*
X21099500Y-14913846D01*
X21099500Y-14913848D01*
X21099499Y-14913848D01*
X12500500Y-14913848D01*
X12500500Y-14506096D01*
X12500566Y-14502058D01*
X12500698Y-14498007D01*
X12500898Y-14493934D01*
X12503395Y-14455828D01*
X12511988Y-14324711D01*
X12516810Y-14251143D01*
X12517603Y-14243093D01*
X12518665Y-14235031D01*
X12519977Y-14227087D01*
X12566252Y-13994446D01*
X12568090Y-13986561D01*
X12570199Y-13978689D01*
X12572540Y-13970973D01*
X12594337Y-13906762D01*
X12648792Y-13746342D01*
X12651644Y-13738766D01*
X12654737Y-13731298D01*
X12658082Y-13723914D01*
X12763002Y-13511156D01*
X12766804Y-13504043D01*
X12770889Y-13496969D01*
X12775133Y-13490146D01*
X12906927Y-13292901D01*
X12911632Y-13286336D01*
X12916564Y-13279907D01*
X12921708Y-13273637D01*
X13078127Y-13095275D01*
X13083644Y-13089385D01*
X13089385Y-13083644D01*
X13095275Y-13078127D01*
X13273651Y-12921696D01*
X13279876Y-12916587D01*
X13286347Y-12911621D01*
X13292854Y-12906958D01*
X13490154Y-12775127D01*
X13496969Y-12770889D01*
X13504043Y-12766804D01*
X13511156Y-12763002D01*
X13723914Y-12658082D01*
X13731286Y-12654742D01*
X13738778Y-12651639D01*
X13746342Y-12648792D01*
X13906762Y-12594337D01*
X13961369Y-12575801D01*
X13970950Y-12572549D01*
X13978698Y-12570197D01*
X13986569Y-12568088D01*
X13994428Y-12566256D01*
X14227087Y-12519977D01*
X14235031Y-12518665D01*
X14243093Y-12517603D01*
X14251140Y-12516810D01*
X14493957Y-12500896D01*
X14498008Y-12500698D01*
X14502057Y-12500566D01*
X14506097Y-12500500D01*
X26308574Y-12500500D01*
X26375613Y-12520185D01*
G37*
%TD.AperFunction*%
%TA.AperFunction,Conductor*%
G36*
X30436553Y-40107947D02*
G01*
X30437554Y-40109022D01*
X30464902Y-40155721D01*
X30465121Y-40156403D01*
X30469495Y-40174801D01*
X30474059Y-40203617D01*
X30516101Y-40333007D01*
X30532454Y-40383336D01*
X30618240Y-40551699D01*
X30729310Y-40704573D01*
X30862927Y-40838190D01*
X31015801Y-40949260D01*
X31056582Y-40970039D01*
X31076222Y-40980046D01*
X31177714Y-41031759D01*
X31179314Y-41032695D01*
X31183011Y-41034486D01*
X31185025Y-41035487D01*
X31188789Y-41036549D01*
X31239418Y-41052999D01*
X31280331Y-41066292D01*
X31280332Y-41066293D01*
X31308182Y-41075342D01*
X31363881Y-41093440D01*
X31550514Y-41123000D01*
X31550519Y-41123000D01*
X31739485Y-41123000D01*
X31739486Y-41123000D01*
X31926118Y-41093440D01*
X31927623Y-41092951D01*
X32105832Y-41035047D01*
X32274199Y-40949260D01*
X32427073Y-40838190D01*
X32544717Y-40720545D01*
X32572964Y-40699400D01*
X32586688Y-40691906D01*
X32654946Y-40677055D01*
X32656756Y-40677184D01*
X32714953Y-40696550D01*
X32721471Y-40700739D01*
X32742106Y-40717369D01*
X32862927Y-40838190D01*
X33015801Y-40949260D01*
X33056582Y-40970039D01*
X33076222Y-40980046D01*
X33177714Y-41031759D01*
X33179314Y-41032695D01*
X33183011Y-41034486D01*
X33185025Y-41035487D01*
X33188789Y-41036549D01*
X33239418Y-41052999D01*
X33280331Y-41066292D01*
X33280332Y-41066293D01*
X33308182Y-41075342D01*
X33363881Y-41093440D01*
X33550514Y-41123000D01*
X33550519Y-41123000D01*
X33739485Y-41123000D01*
X33739486Y-41123000D01*
X33926118Y-41093440D01*
X33927623Y-41092951D01*
X34105832Y-41035047D01*
X34274199Y-40949260D01*
X34427073Y-40838190D01*
X34545070Y-40720192D01*
X34573317Y-40699047D01*
X34587041Y-40691553D01*
X34655299Y-40676702D01*
X34657109Y-40676831D01*
X34715306Y-40696197D01*
X34721824Y-40700386D01*
X34742454Y-40717011D01*
X34863253Y-40837810D01*
X34863258Y-40837814D01*
X35016059Y-40948829D01*
X35184362Y-41034585D01*
X35184367Y-41034586D01*
X35184370Y-41034588D01*
X35241035Y-41052999D01*
X35363997Y-41092951D01*
X35395000Y-41097862D01*
X35395000Y-40482986D01*
X35414685Y-40415947D01*
X35467489Y-40370192D01*
X35536647Y-40360248D01*
X35551086Y-40363210D01*
X35585756Y-40372500D01*
X35704242Y-40372500D01*
X35704244Y-40372500D01*
X35738906Y-40363212D01*
X35808755Y-40364873D01*
X35866618Y-40404035D01*
X35894123Y-40468263D01*
X35895000Y-40482986D01*
X35895000Y-41097860D01*
X35895000Y-41097861D01*
X35926002Y-41092951D01*
X36105637Y-41034585D01*
X36273940Y-40948829D01*
X36426741Y-40837814D01*
X36426746Y-40837810D01*
X36426751Y-40837804D01*
X36426758Y-40837799D01*
X36544713Y-40719844D01*
X36572963Y-40698695D01*
X36586689Y-40691200D01*
X36654946Y-40676349D01*
X36656756Y-40676478D01*
X36714953Y-40695844D01*
X36721471Y-40700033D01*
X36742101Y-40716658D01*
X36863253Y-40837810D01*
X36863258Y-40837814D01*
X37016059Y-40948829D01*
X37184362Y-41034585D01*
X37184367Y-41034586D01*
X37184370Y-41034588D01*
X37241035Y-41052999D01*
X37363997Y-41092951D01*
X37395000Y-41097862D01*
X37395000Y-40482986D01*
X37414685Y-40415947D01*
X37467489Y-40370192D01*
X37536647Y-40360248D01*
X37551086Y-40363210D01*
X37585756Y-40372500D01*
X37704242Y-40372500D01*
X37704244Y-40372500D01*
X37738906Y-40363212D01*
X37808755Y-40364873D01*
X37866618Y-40404035D01*
X37894123Y-40468263D01*
X37895000Y-40482986D01*
X37895000Y-41097860D01*
X37895000Y-41097861D01*
X37926002Y-41092951D01*
X38105637Y-41034585D01*
X38273937Y-40948831D01*
X38348557Y-40894616D01*
X38379761Y-40878151D01*
X38394493Y-40872894D01*
X38464233Y-40868905D01*
X38466460Y-40869422D01*
X38520249Y-40897069D01*
X38525449Y-40901640D01*
X38542848Y-40920461D01*
X38564086Y-40948831D01*
X38587455Y-40980047D01*
X38702664Y-41066293D01*
X38702671Y-41066297D01*
X38752155Y-41084753D01*
X38787513Y-41111221D01*
X38844444Y-41117335D01*
X38844443Y-41117339D01*
X38844458Y-41117336D01*
X38897127Y-41123000D01*
X39942216Y-41122999D01*
X39977145Y-41128020D01*
X39990463Y-41131931D01*
X40049241Y-41169703D01*
X40078267Y-41233258D01*
X40078269Y-41233272D01*
X40079014Y-41238457D01*
X40070837Y-41303544D01*
X40030264Y-41401498D01*
X40030257Y-41401527D01*
X39999500Y-41556150D01*
X39999500Y-41556153D01*
X39999500Y-41713846D01*
X39999500Y-41713848D01*
X39999499Y-41713848D01*
X40030257Y-41868471D01*
X40030261Y-41868489D01*
X40030264Y-41868501D01*
X40070924Y-41966664D01*
X40072752Y-41971077D01*
X40081479Y-42005273D01*
X40084291Y-42031426D01*
X40075563Y-42092134D01*
X40030264Y-42201496D01*
X40030257Y-42201527D01*
X39999500Y-42356150D01*
X39999500Y-42356153D01*
X39999500Y-42513846D01*
X39999500Y-42513848D01*
X39999499Y-42513848D01*
X40030257Y-42668471D01*
X40030261Y-42668489D01*
X40030264Y-42668501D01*
X40048111Y-42711588D01*
X40072752Y-42771077D01*
X40081479Y-42805273D01*
X40084291Y-42831426D01*
X40075563Y-42892134D01*
X40030264Y-43001496D01*
X40030257Y-43001527D01*
X39999500Y-43156150D01*
X39999500Y-43313848D01*
X40027350Y-43453858D01*
X40030261Y-43468489D01*
X40030264Y-43468501D01*
X40071941Y-43569119D01*
X40080668Y-43603315D01*
X40083480Y-43629468D01*
X40074752Y-43690176D01*
X40030264Y-43797580D01*
X40030257Y-43797611D01*
X39999500Y-43952234D01*
X39999500Y-43952237D01*
X39999500Y-44109930D01*
X39999500Y-44109932D01*
X39999499Y-44109932D01*
X40030257Y-44264555D01*
X40030264Y-44264586D01*
X40090598Y-44410249D01*
X40090603Y-44410258D01*
X40090613Y-44410275D01*
X40178211Y-44541374D01*
X40178212Y-44541375D01*
X40178216Y-44541380D01*
X40224548Y-44587711D01*
X40245700Y-44615966D01*
X40251120Y-44625892D01*
X40265972Y-44694165D01*
X40241555Y-44759629D01*
X40185622Y-44801501D01*
X40178434Y-44804182D01*
X40135100Y-44812000D01*
X38897123Y-44812000D01*
X38895192Y-44812159D01*
X38893545Y-44812385D01*
X38837516Y-44818408D01*
X38703291Y-44868471D01*
X38702666Y-44868704D01*
X38702665Y-44868705D01*
X38587457Y-44954950D01*
X38587454Y-44954952D01*
X38545813Y-45010578D01*
X38520856Y-45035534D01*
X38508340Y-45044903D01*
X38442875Y-45069319D01*
X38442835Y-45069322D01*
X38440559Y-45069484D01*
X38381046Y-45058955D01*
X38375797Y-45056603D01*
X38374732Y-45056125D01*
X38352559Y-45043288D01*
X38284888Y-44994124D01*
X38273940Y-44986170D01*
X38273937Y-44986168D01*
X38273933Y-44986166D01*
X38105640Y-44900414D01*
X38105629Y-44900410D01*
X37926013Y-44842051D01*
X37926007Y-44842050D01*
X37926004Y-44842049D01*
X37925995Y-44842047D01*
X37925991Y-44842046D01*
X37925985Y-44842045D01*
X37895000Y-44837137D01*
X37895000Y-45452013D01*
X37875315Y-45519052D01*
X37822511Y-45564807D01*
X37753353Y-45574751D01*
X37738907Y-45571788D01*
X37704244Y-45562500D01*
X37704243Y-45562500D01*
X37585756Y-45562500D01*
X37551093Y-45571788D01*
X37481243Y-45570125D01*
X37423381Y-45530962D01*
X37395877Y-45466733D01*
X37395000Y-45452013D01*
X37395000Y-44837137D01*
X37394999Y-44837137D01*
X37390719Y-44837815D01*
X37364013Y-44842045D01*
X37363991Y-44842050D01*
X37363985Y-44842051D01*
X37184369Y-44900410D01*
X37184358Y-44900414D01*
X37016061Y-44986168D01*
X36863256Y-45097186D01*
X36745285Y-45215157D01*
X36717027Y-45236309D01*
X36703309Y-45243799D01*
X36635051Y-45258650D01*
X36633245Y-45258521D01*
X36575044Y-45239153D01*
X36568529Y-45234966D01*
X36547897Y-45218340D01*
X36426746Y-45097189D01*
X36426741Y-45097185D01*
X36273940Y-44986170D01*
X36273939Y-44986169D01*
X36273937Y-44986168D01*
X36105640Y-44900414D01*
X36105629Y-44900410D01*
X35926013Y-44842051D01*
X35926007Y-44842050D01*
X35926004Y-44842049D01*
X35925995Y-44842047D01*
X35925991Y-44842046D01*
X35925985Y-44842045D01*
X35895000Y-44837137D01*
X35895000Y-45452013D01*
X35875315Y-45519052D01*
X35822511Y-45564807D01*
X35753353Y-45574751D01*
X35738907Y-45571788D01*
X35704244Y-45562500D01*
X35704243Y-45562500D01*
X35585756Y-45562500D01*
X35551093Y-45571788D01*
X35481243Y-45570125D01*
X35423381Y-45530962D01*
X35395877Y-45466733D01*
X35395000Y-45452013D01*
X35395000Y-44837137D01*
X35394999Y-44837137D01*
X35390719Y-44837815D01*
X35364013Y-44842045D01*
X35363991Y-44842050D01*
X35363985Y-44842051D01*
X35184369Y-44900410D01*
X35184358Y-44900414D01*
X35016061Y-44986168D01*
X34863256Y-45097186D01*
X34745638Y-45214804D01*
X34717380Y-45235956D01*
X34703662Y-45243446D01*
X34635404Y-45258297D01*
X34633598Y-45258168D01*
X34575397Y-45238800D01*
X34568882Y-45234613D01*
X34548246Y-45217983D01*
X34427075Y-45096812D01*
X34427073Y-45096810D01*
X34274199Y-44985740D01*
X34232378Y-44964431D01*
X34105836Y-44899954D01*
X33926118Y-44841559D01*
X33926112Y-44841558D01*
X33739491Y-44812000D01*
X33739486Y-44812000D01*
X33739481Y-44812000D01*
X33550519Y-44812000D01*
X33550514Y-44812000D01*
X33550509Y-44812000D01*
X33363886Y-44841558D01*
X33363884Y-44841558D01*
X33363881Y-44841559D01*
X33184163Y-44899954D01*
X33057621Y-44964431D01*
X33015800Y-44985740D01*
X33004260Y-44994125D01*
X32874799Y-45088184D01*
X32867415Y-45092319D01*
X32745285Y-45214450D01*
X32717027Y-45235603D01*
X32703309Y-45243093D01*
X32635051Y-45257944D01*
X32633245Y-45257815D01*
X32575044Y-45238447D01*
X32568529Y-45234260D01*
X32547893Y-45217630D01*
X32427075Y-45096812D01*
X32427073Y-45096810D01*
X32274199Y-44985740D01*
X32232378Y-44964431D01*
X32105836Y-44899954D01*
X31926118Y-44841559D01*
X31926112Y-44841558D01*
X31739491Y-44812000D01*
X31739486Y-44812000D01*
X31739481Y-44812000D01*
X31550519Y-44812000D01*
X31550514Y-44812000D01*
X31550509Y-44812000D01*
X31363886Y-44841558D01*
X31363884Y-44841558D01*
X31363881Y-44841559D01*
X31184163Y-44899954D01*
X31015800Y-44985740D01*
X31004261Y-44994124D01*
X30943083Y-45038573D01*
X30874798Y-45088185D01*
X30867417Y-45092318D01*
X30724818Y-45234917D01*
X30720688Y-45242293D01*
X30704464Y-45264625D01*
X30704461Y-45264629D01*
X30618239Y-45383300D01*
X30575728Y-45466733D01*
X30532454Y-45551663D01*
X30474059Y-45731381D01*
X30474058Y-45731384D01*
X30474058Y-45731386D01*
X30444500Y-45918007D01*
X30444500Y-46106991D01*
X30469130Y-46262500D01*
X30474059Y-46293618D01*
X30532454Y-46473336D01*
X30618240Y-46641699D01*
X30729310Y-46794573D01*
X30862927Y-46928190D01*
X31015801Y-47039260D01*
X31066831Y-47065261D01*
X31066830Y-47065261D01*
X31120607Y-47092661D01*
X31177720Y-47121762D01*
X31179311Y-47122694D01*
X31183011Y-47124486D01*
X31185024Y-47125487D01*
X31188790Y-47126549D01*
X31202656Y-47131054D01*
X31228703Y-47139517D01*
X31228704Y-47139518D01*
X31273763Y-47154158D01*
X31363881Y-47183440D01*
X31550514Y-47213000D01*
X31550519Y-47213000D01*
X31739485Y-47213000D01*
X31739486Y-47213000D01*
X31926118Y-47183440D01*
X31927623Y-47182951D01*
X32105832Y-47125047D01*
X32274199Y-47039260D01*
X32427073Y-46928190D01*
X32544717Y-46810545D01*
X32572964Y-46789400D01*
X32586688Y-46781906D01*
X32654946Y-46767055D01*
X32656756Y-46767184D01*
X32714953Y-46786550D01*
X32721471Y-46790739D01*
X32742106Y-46807369D01*
X32862927Y-46928190D01*
X33015801Y-47039260D01*
X33066831Y-47065261D01*
X33066830Y-47065261D01*
X33120607Y-47092661D01*
X33177720Y-47121762D01*
X33179311Y-47122694D01*
X33183011Y-47124486D01*
X33185268Y-47125608D01*
X33185839Y-47125899D01*
X33188790Y-47126549D01*
X33202656Y-47131054D01*
X33228703Y-47139517D01*
X33228704Y-47139518D01*
X33273763Y-47154158D01*
X33363881Y-47183440D01*
X33550514Y-47213000D01*
X33550519Y-47213000D01*
X33739485Y-47213000D01*
X33739486Y-47213000D01*
X33926118Y-47183440D01*
X33927623Y-47182951D01*
X34105832Y-47125047D01*
X34274199Y-47039260D01*
X34427073Y-46928190D01*
X34545070Y-46810192D01*
X34573317Y-46789047D01*
X34587041Y-46781553D01*
X34655299Y-46766702D01*
X34657109Y-46766831D01*
X34715306Y-46786197D01*
X34721824Y-46790386D01*
X34742454Y-46807011D01*
X34863253Y-46927810D01*
X34863258Y-46927814D01*
X35016059Y-47038829D01*
X35184362Y-47124585D01*
X35184367Y-47124586D01*
X35184370Y-47124588D01*
X35248656Y-47145475D01*
X35363997Y-47182951D01*
X35395000Y-47187862D01*
X35395000Y-46572986D01*
X35414685Y-46505947D01*
X35467489Y-46460192D01*
X35536647Y-46450248D01*
X35551086Y-46453210D01*
X35585756Y-46462500D01*
X35704242Y-46462500D01*
X35704244Y-46462500D01*
X35738906Y-46453212D01*
X35808755Y-46454873D01*
X35866618Y-46494035D01*
X35894123Y-46558263D01*
X35895000Y-46572986D01*
X35895000Y-47187860D01*
X35895000Y-47187861D01*
X35926002Y-47182951D01*
X36105637Y-47124585D01*
X36273940Y-47038829D01*
X36426741Y-46927814D01*
X36426746Y-46927810D01*
X36426751Y-46927804D01*
X36426758Y-46927799D01*
X36544713Y-46809844D01*
X36572963Y-46788695D01*
X36586689Y-46781200D01*
X36654946Y-46766349D01*
X36656756Y-46766478D01*
X36714953Y-46785844D01*
X36721471Y-46790033D01*
X36742101Y-46806658D01*
X36863253Y-46927810D01*
X36863258Y-46927814D01*
X37016059Y-47038829D01*
X37184362Y-47124585D01*
X37184367Y-47124586D01*
X37184370Y-47124588D01*
X37248656Y-47145475D01*
X37363997Y-47182951D01*
X37395000Y-47187862D01*
X37395000Y-46572986D01*
X37414685Y-46505947D01*
X37467489Y-46460192D01*
X37536647Y-46450248D01*
X37551086Y-46453210D01*
X37585756Y-46462500D01*
X37704242Y-46462500D01*
X37704244Y-46462500D01*
X37738906Y-46453212D01*
X37808755Y-46454873D01*
X37866618Y-46494035D01*
X37894123Y-46558263D01*
X37895000Y-46572986D01*
X37895000Y-47187860D01*
X37895000Y-47187861D01*
X37926002Y-47182951D01*
X38102485Y-47125609D01*
X38105634Y-47124586D01*
X38105637Y-47124585D01*
X38138673Y-47107752D01*
X38273937Y-47038831D01*
X38348557Y-46984616D01*
X38379761Y-46968151D01*
X38394493Y-46962894D01*
X38464233Y-46958905D01*
X38466460Y-46959422D01*
X38520251Y-46987070D01*
X38525452Y-46991642D01*
X38542848Y-47010461D01*
X38568384Y-47044572D01*
X38571583Y-47048844D01*
X38571584Y-47048848D01*
X38571585Y-47048848D01*
X38583876Y-47065267D01*
X38587452Y-47070044D01*
X38587453Y-47070045D01*
X38587455Y-47070047D01*
X38702664Y-47156293D01*
X38702671Y-47156297D01*
X38752155Y-47174753D01*
X38787513Y-47201221D01*
X38844444Y-47207335D01*
X38844443Y-47207339D01*
X38844458Y-47207336D01*
X38897127Y-47213000D01*
X39903039Y-47212999D01*
X39937967Y-47218020D01*
X39951039Y-47221858D01*
X40009816Y-47259631D01*
X40038842Y-47323186D01*
X40031892Y-47385211D01*
X40028936Y-47392924D01*
X40016250Y-47417439D01*
X40000140Y-47441549D01*
X39946527Y-47486354D01*
X39879400Y-47495397D01*
X39873163Y-47494500D01*
X39873156Y-47494500D01*
X37769553Y-47494500D01*
X37765448Y-47494555D01*
X37755984Y-47494682D01*
X37749364Y-47494860D01*
X37735850Y-47495402D01*
X37594736Y-47523474D01*
X37594724Y-47523477D01*
X37528855Y-47546715D01*
X37528840Y-47546722D01*
X37528824Y-47546730D01*
X37401348Y-47613416D01*
X37401346Y-47613418D01*
X37297822Y-47713315D01*
X37297818Y-47713319D01*
X37254950Y-47768505D01*
X37183760Y-47893529D01*
X37183758Y-47893534D01*
X37154705Y-48016492D01*
X37150673Y-48033557D01*
X37145518Y-48091182D01*
X37144447Y-48103148D01*
X37144822Y-48110138D01*
X37145000Y-48116777D01*
X37145000Y-48246911D01*
X37142616Y-48271107D01*
X37137964Y-48294489D01*
X37130911Y-48317741D01*
X37115058Y-48356018D01*
X37115055Y-48356025D01*
X37099281Y-48394102D01*
X37081289Y-48445106D01*
X37081277Y-48445142D01*
X37073819Y-48470539D01*
X37073816Y-48470550D01*
X37061370Y-48523219D01*
X37061369Y-48523227D01*
X37056232Y-48667011D01*
X37063701Y-48736490D01*
X37063701Y-48736493D01*
X37099282Y-48875896D01*
X37099287Y-48875909D01*
X37130911Y-48952254D01*
X37137967Y-48975514D01*
X37140456Y-48988025D01*
X37142617Y-48998887D01*
X37145000Y-49023079D01*
X37145000Y-49046913D01*
X37142617Y-49071107D01*
X37137966Y-49094486D01*
X37130912Y-49117739D01*
X37110247Y-49167631D01*
X37110244Y-49167639D01*
X37110244Y-49167640D01*
X37100091Y-49192149D01*
X37082096Y-49243160D01*
X37082088Y-49243184D01*
X37074630Y-49268581D01*
X37074627Y-49268592D01*
X37062181Y-49321261D01*
X37062180Y-49321267D01*
X37057043Y-49465056D01*
X37062648Y-49517191D01*
X37064512Y-49534532D01*
X37064512Y-49534535D01*
X37100093Y-49673938D01*
X37100098Y-49673951D01*
X37130911Y-49748338D01*
X37131964Y-49758138D01*
X37137968Y-49771600D01*
X37142617Y-49794971D01*
X37145000Y-49819163D01*
X37145000Y-49842997D01*
X37142616Y-49867193D01*
X37137964Y-49890575D01*
X37130910Y-49913829D01*
X37121790Y-49935848D01*
X37110329Y-49957291D01*
X37097083Y-49977114D01*
X37081663Y-49995902D01*
X37064818Y-50012747D01*
X37046030Y-50028167D01*
X37026207Y-50041413D01*
X37004764Y-50052874D01*
X36982745Y-50061994D01*
X36959493Y-50069048D01*
X36936113Y-50073700D01*
X36911915Y-50076084D01*
X36888080Y-50076084D01*
X36863884Y-50073700D01*
X36840512Y-50069050D01*
X36822977Y-50063730D01*
X36821374Y-50063616D01*
X36820539Y-50062990D01*
X36817256Y-50061995D01*
X36740910Y-50030371D01*
X36689849Y-50012357D01*
X36664432Y-50004895D01*
X36621649Y-49994786D01*
X36611776Y-49992453D01*
X36496744Y-49988343D01*
X36467988Y-49987316D01*
X36467987Y-49987316D01*
X36458062Y-49988382D01*
X36398511Y-49994784D01*
X36398499Y-49994786D01*
X36259102Y-50030366D01*
X36259089Y-50030370D01*
X36182743Y-50061994D01*
X36172946Y-50063047D01*
X36159489Y-50069049D01*
X36136114Y-50073700D01*
X36111916Y-50076084D01*
X36088080Y-50076084D01*
X36063890Y-50073701D01*
X36040515Y-50069051D01*
X36017256Y-50061995D01*
X35995225Y-50052869D01*
X35973790Y-50041412D01*
X35957266Y-50030371D01*
X35953967Y-50028167D01*
X35935179Y-50012747D01*
X35918334Y-49995902D01*
X35902915Y-49977115D01*
X35889667Y-49957288D01*
X35878211Y-49935854D01*
X35869087Y-49913827D01*
X35862030Y-49890563D01*
X35857382Y-49867194D01*
X35855000Y-49843005D01*
X35855000Y-49819165D01*
X35857382Y-49794976D01*
X35862031Y-49771602D01*
X35867352Y-49754058D01*
X35867467Y-49752457D01*
X35868091Y-49751623D01*
X35869088Y-49748338D01*
X35898167Y-49678137D01*
X35898185Y-49678093D01*
X35899923Y-49673896D01*
X35917903Y-49622925D01*
X35925372Y-49597491D01*
X35937821Y-49544811D01*
X35942956Y-49401022D01*
X35935487Y-49331552D01*
X35912929Y-49243168D01*
X35899907Y-49192149D01*
X35899904Y-49192139D01*
X35883320Y-49152103D01*
X35869084Y-49117734D01*
X35862031Y-49094484D01*
X35857381Y-49071107D01*
X35855000Y-49046923D01*
X35855000Y-49023077D01*
X35857382Y-48998890D01*
X35857383Y-48998887D01*
X35862033Y-48975507D01*
X35869082Y-48952266D01*
X35900716Y-48875897D01*
X35918713Y-48824884D01*
X35926182Y-48799450D01*
X35938631Y-48746770D01*
X35943766Y-48602981D01*
X35936297Y-48533511D01*
X35936296Y-48533507D01*
X35936294Y-48533496D01*
X35900717Y-48394108D01*
X35900715Y-48394101D01*
X35884940Y-48356018D01*
X35869085Y-48317740D01*
X35862032Y-48294488D01*
X35857381Y-48271109D01*
X35855000Y-48246923D01*
X35855000Y-48121847D01*
X35853539Y-48108259D01*
X35853539Y-48069705D01*
X35852316Y-48061200D01*
X35843595Y-48000545D01*
X35803060Y-47862496D01*
X35725272Y-47741457D01*
X35725267Y-47741451D01*
X35679523Y-47688659D01*
X35679519Y-47688656D01*
X35679517Y-47688653D01*
X35570783Y-47594433D01*
X35570780Y-47594431D01*
X35570778Y-47594430D01*
X35439912Y-47534664D01*
X35439907Y-47534662D01*
X35439906Y-47534662D01*
X35395213Y-47521538D01*
X35372864Y-47514976D01*
X35306955Y-47505500D01*
X35230447Y-47494500D01*
X35230445Y-47494500D01*
X33554025Y-47494500D01*
X33495547Y-47497896D01*
X33495497Y-47497900D01*
X33467002Y-47501222D01*
X33439524Y-47506053D01*
X33409273Y-47511371D01*
X33409271Y-47511371D01*
X33409269Y-47511372D01*
X33275380Y-47564051D01*
X33217582Y-47596964D01*
X33215731Y-47597952D01*
X33214661Y-47598626D01*
X33101042Y-47686890D01*
X33101036Y-47686895D01*
X33016891Y-47803587D01*
X33016883Y-47803600D01*
X32984497Y-47865513D01*
X32936636Y-48001176D01*
X32936446Y-48001870D01*
X32936320Y-48002073D01*
X32935167Y-48005342D01*
X32934454Y-48005090D01*
X32932942Y-48007536D01*
X32931437Y-48016473D01*
X32921789Y-48039765D01*
X32910332Y-48061200D01*
X32897086Y-48081025D01*
X32881663Y-48099818D01*
X32864818Y-48116663D01*
X32846030Y-48132083D01*
X32826207Y-48145329D01*
X32804764Y-48156790D01*
X32782745Y-48165910D01*
X32759493Y-48172964D01*
X32736113Y-48177616D01*
X32711915Y-48180000D01*
X32688080Y-48180000D01*
X32663890Y-48177617D01*
X32640515Y-48172967D01*
X32617256Y-48165911D01*
X32595225Y-48156785D01*
X32573790Y-48145328D01*
X32553970Y-48132085D01*
X32535179Y-48116663D01*
X32518334Y-48099818D01*
X32507209Y-48086263D01*
X32505827Y-48085201D01*
X32505430Y-48084094D01*
X32502914Y-48081029D01*
X32502016Y-48079685D01*
X32489665Y-48061200D01*
X32478213Y-48039776D01*
X32468563Y-48016478D01*
X32463120Y-48000244D01*
X32448613Y-47944450D01*
X32439789Y-47917128D01*
X32430627Y-47893534D01*
X32418575Y-47862496D01*
X32418574Y-47862494D01*
X32340791Y-47741462D01*
X32340782Y-47741451D01*
X32295038Y-47688659D01*
X32295034Y-47688656D01*
X32295032Y-47688653D01*
X32186298Y-47594433D01*
X32186295Y-47594431D01*
X32186293Y-47594430D01*
X32055427Y-47534664D01*
X32055422Y-47534662D01*
X32055421Y-47534662D01*
X32010728Y-47521538D01*
X31988379Y-47514976D01*
X31922470Y-47505500D01*
X31845962Y-47494500D01*
X31845960Y-47494500D01*
X25556506Y-47494500D01*
X25556500Y-47494500D01*
X25493978Y-47501222D01*
X25466389Y-47504188D01*
X25397629Y-47491781D01*
X25353869Y-47455209D01*
X25290049Y-47369958D01*
X25290048Y-47369957D01*
X25290047Y-47369955D01*
X25290045Y-47369953D01*
X25290043Y-47369951D01*
X25234421Y-47328312D01*
X25209468Y-47303360D01*
X25200098Y-47290844D01*
X25175680Y-47225383D01*
X25175514Y-47223061D01*
X25186036Y-47163563D01*
X25186616Y-47162269D01*
X25188870Y-47157236D01*
X25201708Y-47135059D01*
X25258831Y-47056437D01*
X25344585Y-46888137D01*
X25402951Y-46708502D01*
X25407862Y-46677500D01*
X24792987Y-46677500D01*
X24725948Y-46657815D01*
X24680193Y-46605011D01*
X24670249Y-46535853D01*
X24673212Y-46521407D01*
X24682500Y-46486744D01*
X24682500Y-46368256D01*
X24673212Y-46333592D01*
X24674875Y-46263743D01*
X24714038Y-46205881D01*
X24778267Y-46178377D01*
X24792987Y-46177500D01*
X25407862Y-46177500D01*
X25405000Y-46159435D01*
X25402951Y-46146497D01*
X25402950Y-46146495D01*
X25402950Y-46146492D01*
X25344587Y-45966867D01*
X25344586Y-45966866D01*
X25344585Y-45966861D01*
X25258829Y-45798559D01*
X25147814Y-45645758D01*
X25147810Y-45645753D01*
X25147809Y-45645752D01*
X25147802Y-45645744D01*
X25030198Y-45528140D01*
X25009048Y-45499888D01*
X25001556Y-45486168D01*
X24986702Y-45417904D01*
X24986831Y-45416095D01*
X25006197Y-45357900D01*
X25010390Y-45351376D01*
X25027007Y-45330755D01*
X25148190Y-45209573D01*
X25259260Y-45056699D01*
X25345047Y-44888332D01*
X25403440Y-44708618D01*
X25412269Y-44652873D01*
X25433000Y-44521986D01*
X25433000Y-44333013D01*
X25403440Y-44146381D01*
X25360171Y-44013213D01*
X25360170Y-44013210D01*
X25360170Y-44013209D01*
X25346551Y-43971298D01*
X25345487Y-43967526D01*
X25344478Y-43965496D01*
X25342692Y-43961809D01*
X25341763Y-43960222D01*
X25259259Y-43798300D01*
X25258741Y-43797587D01*
X25148190Y-43645427D01*
X25030551Y-43527788D01*
X25009399Y-43499532D01*
X25001907Y-43485811D01*
X24987055Y-43417551D01*
X24987184Y-43415742D01*
X25006550Y-43357547D01*
X25010743Y-43351023D01*
X25027362Y-43330400D01*
X25043921Y-43313842D01*
X25148190Y-43209573D01*
X25214332Y-43118533D01*
X25238929Y-43093225D01*
X25256570Y-43079622D01*
X25309403Y-43055953D01*
X25313793Y-43055128D01*
X25336669Y-43053000D01*
X26964820Y-43053000D01*
X26964826Y-43053000D01*
X26996854Y-43048783D01*
X27176085Y-43025188D01*
X27381907Y-42970039D01*
X27578769Y-42888496D01*
X27763304Y-42781954D01*
X27932354Y-42652238D01*
X28007689Y-42576901D01*
X28061393Y-42523197D01*
X29781651Y-40802936D01*
X29781687Y-40802904D01*
X29795696Y-40788895D01*
X29802644Y-40781947D01*
X29849402Y-40735188D01*
X29924738Y-40659853D01*
X30054454Y-40490803D01*
X30160995Y-40306269D01*
X30164513Y-40297777D01*
X30216767Y-40171623D01*
X30224149Y-40153800D01*
X30242155Y-40123452D01*
X30249249Y-40114648D01*
X30306639Y-40074797D01*
X30376464Y-40072299D01*
X30436553Y-40107947D01*
G37*
%TD.AperFunction*%
%TA.AperFunction,Conductor*%
G36*
X37151552Y-45782185D02*
G01*
X37197307Y-45834989D01*
X37207251Y-45904147D01*
X37204288Y-45918592D01*
X37195000Y-45953256D01*
X37195000Y-46071744D01*
X37198885Y-46086243D01*
X37204288Y-46106407D01*
X37202625Y-46176257D01*
X37163462Y-46234119D01*
X37099233Y-46261623D01*
X37084513Y-46262500D01*
X36205487Y-46262500D01*
X36138448Y-46242815D01*
X36092693Y-46190011D01*
X36082749Y-46120853D01*
X36085712Y-46106407D01*
X36095000Y-46071744D01*
X36095000Y-45953256D01*
X36085712Y-45918592D01*
X36087375Y-45848743D01*
X36126538Y-45790881D01*
X36190767Y-45763377D01*
X36205487Y-45762500D01*
X37084513Y-45762500D01*
X37151552Y-45782185D01*
G37*
%TD.AperFunction*%
%TA.AperFunction,Conductor*%
G36*
X29040925Y-26801451D02*
G01*
X29069597Y-26856866D01*
X29071425Y-26864921D01*
X29074500Y-26892364D01*
X29074500Y-39573607D01*
X29074234Y-39581720D01*
X29073705Y-39589788D01*
X29072910Y-39597863D01*
X29064929Y-39658475D01*
X29061764Y-39674383D01*
X29057593Y-39689948D01*
X29052381Y-39705304D01*
X29033686Y-39750439D01*
X29026513Y-39764984D01*
X29018452Y-39778947D01*
X29009439Y-39792436D01*
X28972236Y-39840920D01*
X28967092Y-39847189D01*
X28961735Y-39853298D01*
X28956183Y-39859225D01*
X28906790Y-39908616D01*
X28906770Y-39908638D01*
X27181137Y-41634271D01*
X27181126Y-41634279D01*
X27181127Y-41634280D01*
X27131724Y-41683684D01*
X27125797Y-41689236D01*
X27119688Y-41694593D01*
X27113419Y-41699737D01*
X27064935Y-41736940D01*
X27051453Y-41745949D01*
X27037499Y-41754006D01*
X27022947Y-41761182D01*
X26977798Y-41779883D01*
X26962439Y-41785097D01*
X26946876Y-41789267D01*
X26930970Y-41792431D01*
X26915025Y-41794530D01*
X26901392Y-41796325D01*
X26878714Y-41799310D01*
X26870362Y-41800410D01*
X26862303Y-41801204D01*
X26854209Y-41801734D01*
X26846108Y-41802000D01*
X25342958Y-41802000D01*
X25308023Y-41796977D01*
X25286649Y-41790701D01*
X25236433Y-41761863D01*
X25233186Y-41758796D01*
X25218030Y-41741553D01*
X25148190Y-41645427D01*
X25030551Y-41527788D01*
X25009399Y-41499532D01*
X25001907Y-41485811D01*
X24987055Y-41417551D01*
X24987184Y-41415742D01*
X25006550Y-41357547D01*
X25010743Y-41351023D01*
X25027365Y-41330397D01*
X25063312Y-41294451D01*
X25148190Y-41209573D01*
X25214332Y-41118533D01*
X25238929Y-41093225D01*
X25256570Y-41079622D01*
X25309403Y-41055953D01*
X25313793Y-41055128D01*
X25336669Y-41053000D01*
X26264820Y-41053000D01*
X26264826Y-41053000D01*
X26296854Y-41048783D01*
X26476085Y-41025188D01*
X26681907Y-40970039D01*
X26878769Y-40888496D01*
X27063304Y-40781954D01*
X27232354Y-40652238D01*
X27307689Y-40576901D01*
X27361393Y-40523197D01*
X27981651Y-39902936D01*
X27981687Y-39902904D01*
X27995696Y-39888895D01*
X27995698Y-39888893D01*
X28049402Y-39835188D01*
X28124738Y-39759853D01*
X28254454Y-39590803D01*
X28334195Y-39452687D01*
X28354298Y-39417868D01*
X28354300Y-39417864D01*
X28355049Y-39416565D01*
X28360991Y-39406276D01*
X28360999Y-39406260D01*
X28407788Y-39293300D01*
X28442538Y-39209407D01*
X28497688Y-39003585D01*
X28525500Y-38792326D01*
X28525500Y-38685785D01*
X28525500Y-38609836D01*
X28525500Y-27138394D01*
X28525500Y-27057919D01*
X28525500Y-27020138D01*
X28525993Y-27009108D01*
X28526040Y-27008581D01*
X28526041Y-27008581D01*
X28528473Y-26981386D01*
X28554051Y-26916373D01*
X28555171Y-26914931D01*
X28603587Y-26877318D01*
X28610690Y-26874226D01*
X28635983Y-26866305D01*
X28706699Y-26852240D01*
X28864211Y-26786997D01*
X28866775Y-26785283D01*
X28898628Y-26770042D01*
X28911625Y-26765973D01*
X28981483Y-26764729D01*
X29040925Y-26801451D01*
G37*
%TD.AperFunction*%
%TA.AperFunction,Conductor*%
G36*
X37151552Y-39692185D02*
G01*
X37197307Y-39744989D01*
X37207251Y-39814147D01*
X37204288Y-39828593D01*
X37195000Y-39863256D01*
X37195000Y-39981743D01*
X37204288Y-40016407D01*
X37202625Y-40086257D01*
X37163462Y-40144119D01*
X37099233Y-40171623D01*
X37084513Y-40172500D01*
X36205487Y-40172500D01*
X36138448Y-40152815D01*
X36092693Y-40100011D01*
X36082749Y-40030853D01*
X36085712Y-40016407D01*
X36095000Y-39981744D01*
X36095000Y-39863256D01*
X36085712Y-39828592D01*
X36087375Y-39758743D01*
X36126538Y-39700881D01*
X36190767Y-39673377D01*
X36205487Y-39672500D01*
X37084513Y-39672500D01*
X37151552Y-39692185D01*
G37*
%TD.AperFunction*%
%TD*%
%TA.AperFunction,Conductor*%
%TO.N,+5V*%
G36*
X33799920Y-59554394D02*
G01*
X33747259Y-59645606D01*
X33720000Y-59747339D01*
X33720000Y-59852661D01*
X33747259Y-59954394D01*
X33799920Y-60045606D01*
X33804314Y-60050000D01*
X31895686Y-60050000D01*
X31900080Y-60045606D01*
X31952741Y-59954394D01*
X31980000Y-59852661D01*
X31980000Y-59747339D01*
X31952741Y-59645606D01*
X31900080Y-59554394D01*
X31895686Y-59550000D01*
X33804314Y-59550000D01*
X33799920Y-59554394D01*
G37*
%TD.AperFunction*%
%TA.AperFunction,Conductor*%
G36*
X31913001Y-48019685D02*
G01*
X31958756Y-48072489D01*
X31967579Y-48099808D01*
X31978340Y-48153907D01*
X31978343Y-48153917D01*
X32034912Y-48290488D01*
X32034919Y-48290501D01*
X32117048Y-48413415D01*
X32117051Y-48413419D01*
X32221580Y-48517948D01*
X32221584Y-48517951D01*
X32344498Y-48600080D01*
X32344511Y-48600087D01*
X32481082Y-48656656D01*
X32481087Y-48656658D01*
X32481091Y-48656658D01*
X32481092Y-48656659D01*
X32626079Y-48685500D01*
X32626082Y-48685500D01*
X32773920Y-48685500D01*
X32871462Y-48666096D01*
X32918913Y-48656658D01*
X33055495Y-48600084D01*
X33178416Y-48517951D01*
X33282951Y-48413416D01*
X33365084Y-48290495D01*
X33421658Y-48153913D01*
X33427608Y-48124000D01*
X33432421Y-48099808D01*
X33464806Y-48037897D01*
X33525522Y-48003323D01*
X33554038Y-48000000D01*
X35230447Y-48000000D01*
X35297486Y-48019685D01*
X35343241Y-48072489D01*
X35353185Y-48141647D01*
X35352066Y-48148181D01*
X35349500Y-48161082D01*
X35349500Y-48308918D01*
X35349500Y-48308920D01*
X35349499Y-48308920D01*
X35378340Y-48453907D01*
X35378343Y-48453917D01*
X35433694Y-48587548D01*
X35441163Y-48657018D01*
X35433694Y-48682452D01*
X35378343Y-48816082D01*
X35378340Y-48816092D01*
X35349500Y-48961079D01*
X35349500Y-48961082D01*
X35349500Y-49108918D01*
X35349500Y-49108920D01*
X35349499Y-49108920D01*
X35378340Y-49253907D01*
X35378342Y-49253913D01*
X35432884Y-49385589D01*
X35440353Y-49455059D01*
X35432884Y-49480493D01*
X35431146Y-49484690D01*
X35378342Y-49612170D01*
X35378340Y-49612176D01*
X35349500Y-49757163D01*
X35349500Y-49757166D01*
X35349500Y-49905002D01*
X35349500Y-49905004D01*
X35349499Y-49905004D01*
X35378340Y-50049991D01*
X35378343Y-50050001D01*
X35434912Y-50186572D01*
X35434919Y-50186585D01*
X35517048Y-50309499D01*
X35517051Y-50309503D01*
X35621580Y-50414032D01*
X35621584Y-50414035D01*
X35744498Y-50496164D01*
X35744511Y-50496171D01*
X35881082Y-50552740D01*
X35881087Y-50552742D01*
X35881091Y-50552742D01*
X35881092Y-50552743D01*
X36026079Y-50581584D01*
X36026082Y-50581584D01*
X36173920Y-50581584D01*
X36271462Y-50562180D01*
X36318913Y-50552742D01*
X36452547Y-50497388D01*
X36522017Y-50489920D01*
X36547452Y-50497388D01*
X36681087Y-50552742D01*
X36681091Y-50552742D01*
X36681092Y-50552743D01*
X36826079Y-50581584D01*
X36826082Y-50581584D01*
X36973920Y-50581584D01*
X37071462Y-50562180D01*
X37118913Y-50552742D01*
X37255495Y-50496168D01*
X37378416Y-50414035D01*
X37482951Y-50309500D01*
X37565084Y-50186579D01*
X37621658Y-50049997D01*
X37650500Y-49905002D01*
X37650500Y-49757166D01*
X37650500Y-49757163D01*
X37621659Y-49612176D01*
X37621658Y-49612175D01*
X37621658Y-49612171D01*
X37567115Y-49480494D01*
X37559647Y-49411025D01*
X37567116Y-49385589D01*
X37577268Y-49361079D01*
X37621658Y-49253913D01*
X37650500Y-49108918D01*
X37650500Y-48961082D01*
X37650500Y-48961079D01*
X37621659Y-48816092D01*
X37621658Y-48816091D01*
X37621658Y-48816087D01*
X37566304Y-48682452D01*
X37558836Y-48612983D01*
X37566305Y-48587547D01*
X37581236Y-48551500D01*
X37621658Y-48453913D01*
X37650500Y-48308918D01*
X37650500Y-48161082D01*
X37647936Y-48148192D01*
X37654162Y-48078603D01*
X37697024Y-48023424D01*
X37762913Y-48000178D01*
X37769553Y-48000000D01*
X39873156Y-48000000D01*
X39940195Y-48019685D01*
X39985950Y-48072489D01*
X39987717Y-48076548D01*
X40033694Y-48187548D01*
X40041163Y-48257017D01*
X40033694Y-48282452D01*
X39978343Y-48416082D01*
X39978340Y-48416092D01*
X39949500Y-48561079D01*
X39949500Y-48561082D01*
X39949500Y-48708918D01*
X39949500Y-48708920D01*
X39949499Y-48708920D01*
X39978340Y-48853907D01*
X39978343Y-48853917D01*
X40033694Y-48987548D01*
X40041163Y-49057018D01*
X40033694Y-49082452D01*
X39978343Y-49216082D01*
X39978340Y-49216092D01*
X39949500Y-49361079D01*
X39949500Y-49361082D01*
X39949500Y-49508918D01*
X39949500Y-49508920D01*
X39949499Y-49508920D01*
X39978340Y-49653907D01*
X39978342Y-49653913D01*
X40021109Y-49757163D01*
X40032884Y-49785589D01*
X40040353Y-49855059D01*
X40032884Y-49880495D01*
X39978342Y-50012170D01*
X39978340Y-50012176D01*
X39949500Y-50157163D01*
X39949500Y-50157166D01*
X39949500Y-50305002D01*
X39949500Y-50305004D01*
X39949499Y-50305004D01*
X39978340Y-50449991D01*
X39978343Y-50450001D01*
X40034912Y-50586572D01*
X40034919Y-50586585D01*
X40117048Y-50709499D01*
X40117051Y-50709503D01*
X40221580Y-50814032D01*
X40221584Y-50814035D01*
X40344498Y-50896164D01*
X40344511Y-50896171D01*
X40481082Y-50952740D01*
X40481087Y-50952742D01*
X40481091Y-50952742D01*
X40481092Y-50952743D01*
X40626079Y-50981584D01*
X40626082Y-50981584D01*
X40773920Y-50981584D01*
X40871462Y-50962180D01*
X40918913Y-50952742D01*
X41052547Y-50897388D01*
X41122017Y-50889920D01*
X41147452Y-50897388D01*
X41281087Y-50952742D01*
X41281091Y-50952742D01*
X41281092Y-50952743D01*
X41426079Y-50981584D01*
X41426082Y-50981584D01*
X41573920Y-50981584D01*
X41671462Y-50962180D01*
X41718913Y-50952742D01*
X41855495Y-50896168D01*
X41978416Y-50814035D01*
X42082951Y-50709500D01*
X42165084Y-50586579D01*
X42221658Y-50449997D01*
X42249605Y-50309503D01*
X42250500Y-50305004D01*
X42250500Y-50157163D01*
X42221659Y-50012176D01*
X42221658Y-50012175D01*
X42221658Y-50012171D01*
X42167115Y-49880494D01*
X42159647Y-49811025D01*
X42167116Y-49785589D01*
X42178889Y-49757166D01*
X42221658Y-49653913D01*
X42250500Y-49508918D01*
X42250500Y-49361082D01*
X42250500Y-49361079D01*
X42221659Y-49216092D01*
X42221658Y-49216091D01*
X42221658Y-49216087D01*
X42166304Y-49082452D01*
X42158836Y-49012983D01*
X42166305Y-48987547D01*
X42177268Y-48961079D01*
X42221658Y-48853913D01*
X42250500Y-48708918D01*
X42250500Y-48561082D01*
X42250500Y-48561079D01*
X42221659Y-48416092D01*
X42221658Y-48416091D01*
X42221658Y-48416087D01*
X42166304Y-48282452D01*
X42158836Y-48212983D01*
X42166305Y-48187547D01*
X42212283Y-48076547D01*
X42256124Y-48022144D01*
X42322418Y-48000079D01*
X42326844Y-48000000D01*
X42993907Y-48000000D01*
X43006061Y-48000597D01*
X43182941Y-48018018D01*
X43206769Y-48022757D01*
X43370713Y-48072489D01*
X43370997Y-48072575D01*
X43393452Y-48081876D01*
X43433953Y-48103524D01*
X43483797Y-48152485D01*
X43499500Y-48212882D01*
X43499500Y-61495933D01*
X43499235Y-61504043D01*
X43482925Y-61752883D01*
X43480807Y-61768964D01*
X43432954Y-62009535D01*
X43428756Y-62025202D01*
X43349909Y-62257479D01*
X43343702Y-62272465D01*
X43235212Y-62492460D01*
X43227102Y-62506506D01*
X43090825Y-62710460D01*
X43080951Y-62723329D01*
X42919218Y-62907749D01*
X42907749Y-62919218D01*
X42723329Y-63080951D01*
X42710460Y-63090825D01*
X42506506Y-63227102D01*
X42492460Y-63235212D01*
X42272465Y-63343702D01*
X42257479Y-63349909D01*
X42025202Y-63428756D01*
X42009535Y-63432954D01*
X41768964Y-63480807D01*
X41752883Y-63482925D01*
X41504043Y-63499235D01*
X41495933Y-63499500D01*
X32113840Y-63499500D01*
X32061479Y-63486385D01*
X32061122Y-63487247D01*
X32055495Y-63484916D01*
X31918913Y-63428342D01*
X31918907Y-63428340D01*
X31773920Y-63399500D01*
X31773918Y-63399500D01*
X31626082Y-63399500D01*
X31626080Y-63399500D01*
X31475113Y-63429530D01*
X31474602Y-63426962D01*
X31425313Y-63427384D01*
X31424887Y-63429530D01*
X31273920Y-63399500D01*
X31273918Y-63399500D01*
X31126082Y-63399500D01*
X31126080Y-63399500D01*
X30975113Y-63429530D01*
X30974602Y-63426962D01*
X30925313Y-63427384D01*
X30924887Y-63429530D01*
X30773920Y-63399500D01*
X30773918Y-63399500D01*
X30626082Y-63399500D01*
X30626080Y-63399500D01*
X30475113Y-63429530D01*
X30474602Y-63426962D01*
X30425313Y-63427384D01*
X30424887Y-63429530D01*
X30273920Y-63399500D01*
X30273918Y-63399500D01*
X30126082Y-63399500D01*
X30126080Y-63399500D01*
X29975113Y-63429530D01*
X29974602Y-63426962D01*
X29925313Y-63427384D01*
X29924887Y-63429530D01*
X29773920Y-63399500D01*
X29773918Y-63399500D01*
X29626082Y-63399500D01*
X29626080Y-63399500D01*
X29475113Y-63429530D01*
X29474602Y-63426962D01*
X29425313Y-63427384D01*
X29424887Y-63429530D01*
X29273920Y-63399500D01*
X29273918Y-63399500D01*
X29126082Y-63399500D01*
X29126080Y-63399500D01*
X28975113Y-63429530D01*
X28974602Y-63426962D01*
X28925313Y-63427384D01*
X28924887Y-63429530D01*
X28773920Y-63399500D01*
X28773918Y-63399500D01*
X28626082Y-63399500D01*
X28626080Y-63399500D01*
X28475113Y-63429530D01*
X28474602Y-63426962D01*
X28425313Y-63427384D01*
X28424887Y-63429530D01*
X28273920Y-63399500D01*
X28273918Y-63399500D01*
X28126082Y-63399500D01*
X28126080Y-63399500D01*
X27975113Y-63429530D01*
X27974602Y-63426962D01*
X27925313Y-63427384D01*
X27924887Y-63429530D01*
X27773920Y-63399500D01*
X27773918Y-63399500D01*
X27626082Y-63399500D01*
X27626080Y-63399500D01*
X27475113Y-63429530D01*
X27474602Y-63426962D01*
X27425313Y-63427384D01*
X27424887Y-63429530D01*
X27273920Y-63399500D01*
X27273918Y-63399500D01*
X27126082Y-63399500D01*
X27126080Y-63399500D01*
X26975113Y-63429530D01*
X26974602Y-63426962D01*
X26925313Y-63427384D01*
X26924887Y-63429530D01*
X26773920Y-63399500D01*
X26773918Y-63399500D01*
X26626082Y-63399500D01*
X26626080Y-63399500D01*
X26475113Y-63429530D01*
X26474602Y-63426962D01*
X26425313Y-63427384D01*
X26424887Y-63429530D01*
X26273920Y-63399500D01*
X26273918Y-63399500D01*
X26126082Y-63399500D01*
X26126080Y-63399500D01*
X25975113Y-63429530D01*
X25974602Y-63426962D01*
X25925313Y-63427384D01*
X25924887Y-63429530D01*
X25773920Y-63399500D01*
X25773918Y-63399500D01*
X25626082Y-63399500D01*
X25626080Y-63399500D01*
X25475113Y-63429530D01*
X25474602Y-63426962D01*
X25425313Y-63427384D01*
X25424887Y-63429530D01*
X25273920Y-63399500D01*
X25273918Y-63399500D01*
X25126082Y-63399500D01*
X25126080Y-63399500D01*
X24975113Y-63429530D01*
X24974602Y-63426962D01*
X24925313Y-63427384D01*
X24924887Y-63429530D01*
X24773920Y-63399500D01*
X24773918Y-63399500D01*
X24626082Y-63399500D01*
X24626080Y-63399500D01*
X24481092Y-63428340D01*
X24481086Y-63428342D01*
X24338878Y-63487247D01*
X24338520Y-63486385D01*
X24286160Y-63499500D01*
X23000000Y-63499500D01*
X23000000Y-59181947D01*
X30080000Y-59181947D01*
X30080000Y-59550000D01*
X31264314Y-59550000D01*
X31259920Y-59554394D01*
X31207259Y-59645606D01*
X31180000Y-59747339D01*
X31180000Y-59852661D01*
X31207259Y-59954394D01*
X31259920Y-60045606D01*
X31264314Y-60050000D01*
X30080000Y-60050000D01*
X30080000Y-60418052D01*
X30116934Y-60651247D01*
X30189897Y-60875802D01*
X30297085Y-61086171D01*
X30435866Y-61277186D01*
X30602813Y-61444133D01*
X30793828Y-61582914D01*
X31004195Y-61690102D01*
X31228744Y-61763063D01*
X31228750Y-61763065D01*
X31330000Y-61779101D01*
X31330000Y-60115686D01*
X31334394Y-60120080D01*
X31425606Y-60172741D01*
X31527339Y-60200000D01*
X31632661Y-60200000D01*
X31734394Y-60172741D01*
X31825606Y-60120080D01*
X31830000Y-60115686D01*
X31830000Y-61779100D01*
X31931249Y-61763065D01*
X31931255Y-61763063D01*
X32155804Y-61690102D01*
X32366171Y-61582914D01*
X32557186Y-61444133D01*
X32724139Y-61277180D01*
X32749681Y-61242024D01*
X32805010Y-61199358D01*
X32874623Y-61193377D01*
X32936419Y-61225982D01*
X32950319Y-61242024D01*
X32975860Y-61277180D01*
X33142813Y-61444133D01*
X33333828Y-61582914D01*
X33544195Y-61690102D01*
X33768744Y-61763063D01*
X33768750Y-61763065D01*
X33870000Y-61779101D01*
X33870000Y-60115686D01*
X33874394Y-60120080D01*
X33965606Y-60172741D01*
X34067339Y-60200000D01*
X34172661Y-60200000D01*
X34274394Y-60172741D01*
X34365606Y-60120080D01*
X34370000Y-60115686D01*
X34370000Y-61779100D01*
X34471249Y-61763065D01*
X34471255Y-61763063D01*
X34695804Y-61690102D01*
X34906171Y-61582914D01*
X35097186Y-61444133D01*
X35143997Y-61397322D01*
X35205320Y-61363836D01*
X35275011Y-61368820D01*
X35330945Y-61410691D01*
X35337217Y-61419904D01*
X35352162Y-61444133D01*
X35367288Y-61468656D01*
X35491344Y-61592712D01*
X35640666Y-61684814D01*
X35807203Y-61739999D01*
X35909991Y-61750500D01*
X37410008Y-61750499D01*
X37512797Y-61739999D01*
X37679334Y-61684814D01*
X37828656Y-61592712D01*
X37842319Y-61579049D01*
X37903642Y-61545564D01*
X37973334Y-61550548D01*
X38017681Y-61579049D01*
X38031344Y-61592712D01*
X38180666Y-61684814D01*
X38347203Y-61739999D01*
X38449991Y-61750500D01*
X39950008Y-61750499D01*
X40052797Y-61739999D01*
X40219334Y-61684814D01*
X40267542Y-61655079D01*
X40334931Y-61636639D01*
X40401595Y-61657561D01*
X40435739Y-61691727D01*
X40517048Y-61813416D01*
X40621580Y-61917948D01*
X40621584Y-61917951D01*
X40744498Y-62000080D01*
X40744511Y-62000087D01*
X40805145Y-62025202D01*
X40881087Y-62056658D01*
X40881091Y-62056658D01*
X40881092Y-62056659D01*
X41026079Y-62085500D01*
X41026082Y-62085500D01*
X41173920Y-62085500D01*
X41271462Y-62066096D01*
X41318913Y-62056658D01*
X41452547Y-62001304D01*
X41522017Y-61993836D01*
X41547452Y-62001304D01*
X41681087Y-62056658D01*
X41681091Y-62056658D01*
X41681092Y-62056659D01*
X41826079Y-62085500D01*
X41826082Y-62085500D01*
X41973920Y-62085500D01*
X42071462Y-62066096D01*
X42118913Y-62056658D01*
X42255495Y-62000084D01*
X42378416Y-61917951D01*
X42482951Y-61813416D01*
X42565084Y-61690495D01*
X42621658Y-61553913D01*
X42643495Y-61444133D01*
X42650500Y-61408920D01*
X42650500Y-61261079D01*
X42621659Y-61116092D01*
X42621658Y-61116091D01*
X42621658Y-61116087D01*
X42567115Y-60984410D01*
X42559647Y-60914941D01*
X42567116Y-60889505D01*
X42572792Y-60875802D01*
X42621658Y-60757829D01*
X42650500Y-60612834D01*
X42650500Y-60464998D01*
X42650500Y-60464995D01*
X42621659Y-60320008D01*
X42621658Y-60320007D01*
X42621658Y-60320003D01*
X42565084Y-60183421D01*
X42565083Y-60183420D01*
X42564683Y-60182453D01*
X42557214Y-60112983D01*
X42564683Y-60087547D01*
X42580235Y-60050000D01*
X42621658Y-59949997D01*
X42650500Y-59805002D01*
X42650500Y-59657166D01*
X42650500Y-59657163D01*
X42621659Y-59512176D01*
X42621658Y-59512175D01*
X42621658Y-59512171D01*
X42566304Y-59378536D01*
X42558836Y-59309067D01*
X42566305Y-59283631D01*
X42621658Y-59149997D01*
X42650500Y-59005002D01*
X42650500Y-58857166D01*
X42650500Y-58857163D01*
X42621659Y-58712176D01*
X42621658Y-58712175D01*
X42621658Y-58712171D01*
X42567115Y-58580494D01*
X42559647Y-58511025D01*
X42567116Y-58485589D01*
X42599825Y-58406622D01*
X42621658Y-58353913D01*
X42644707Y-58238040D01*
X42650500Y-58208920D01*
X42650500Y-58061079D01*
X42621659Y-57916092D01*
X42621658Y-57916091D01*
X42621658Y-57916087D01*
X42619094Y-57909897D01*
X42565087Y-57779511D01*
X42565080Y-57779498D01*
X42482951Y-57656584D01*
X42482948Y-57656580D01*
X42378419Y-57552051D01*
X42378415Y-57552048D01*
X42255496Y-57469916D01*
X42251133Y-57467584D01*
X42201289Y-57418621D01*
X42185829Y-57350483D01*
X42209661Y-57284804D01*
X42221899Y-57270551D01*
X42282951Y-57209500D01*
X42365084Y-57086579D01*
X42421658Y-56949997D01*
X42450500Y-56805002D01*
X42450500Y-56657166D01*
X42450500Y-56657163D01*
X42421659Y-56512176D01*
X42421658Y-56512175D01*
X42421658Y-56512171D01*
X42367115Y-56380494D01*
X42359647Y-56311025D01*
X42367116Y-56285589D01*
X42387268Y-56236937D01*
X42421658Y-56153913D01*
X42441322Y-56055059D01*
X42450500Y-56008920D01*
X42450500Y-55861079D01*
X42421659Y-55716092D01*
X42421658Y-55716091D01*
X42421658Y-55716087D01*
X42366304Y-55582452D01*
X42358836Y-55512983D01*
X42366305Y-55487547D01*
X42370068Y-55478462D01*
X42421658Y-55353913D01*
X42440932Y-55257018D01*
X42450500Y-55208920D01*
X42450500Y-55061079D01*
X42421659Y-54916092D01*
X42421658Y-54916091D01*
X42421658Y-54916087D01*
X42366304Y-54782452D01*
X42358836Y-54712983D01*
X42366305Y-54687547D01*
X42374688Y-54667309D01*
X42421658Y-54553913D01*
X42436459Y-54479505D01*
X42450500Y-54408920D01*
X42450500Y-54261079D01*
X42421659Y-54116092D01*
X42421658Y-54116091D01*
X42421658Y-54116087D01*
X42410196Y-54088416D01*
X42365087Y-53979511D01*
X42365080Y-53979498D01*
X42282951Y-53856584D01*
X42282948Y-53856580D01*
X42178419Y-53752051D01*
X42178415Y-53752048D01*
X42055501Y-53669919D01*
X42055488Y-53669912D01*
X41918917Y-53613343D01*
X41918907Y-53613340D01*
X41773920Y-53584500D01*
X41773918Y-53584500D01*
X41626082Y-53584500D01*
X41626080Y-53584500D01*
X41481092Y-53613340D01*
X41481082Y-53613343D01*
X41347452Y-53668694D01*
X41277982Y-53676163D01*
X41252548Y-53668694D01*
X41118917Y-53613343D01*
X41118907Y-53613340D01*
X40973920Y-53584500D01*
X40973918Y-53584500D01*
X40970932Y-53584500D01*
X40969424Y-53584057D01*
X40967858Y-53583903D01*
X40967887Y-53583605D01*
X40903893Y-53564815D01*
X40858138Y-53512011D01*
X40848194Y-53442853D01*
X40871163Y-53386865D01*
X40877793Y-53377882D01*
X40900219Y-53313790D01*
X40922646Y-53249701D01*
X40922646Y-53249699D01*
X40925500Y-53219269D01*
X40925500Y-51710730D01*
X40922646Y-51680300D01*
X40922646Y-51680298D01*
X40877793Y-51552119D01*
X40877792Y-51552117D01*
X40825310Y-51481006D01*
X40797150Y-51442850D01*
X40687882Y-51362207D01*
X40687880Y-51362206D01*
X40559700Y-51317353D01*
X40529270Y-51314500D01*
X40529266Y-51314500D01*
X39020734Y-51314500D01*
X39020730Y-51314500D01*
X38990300Y-51317353D01*
X38990298Y-51317353D01*
X38862119Y-51362206D01*
X38862117Y-51362207D01*
X38752850Y-51442850D01*
X38676762Y-51545945D01*
X38621114Y-51588196D01*
X38551458Y-51593654D01*
X38504107Y-51572629D01*
X38377997Y-51481006D01*
X38377996Y-51481005D01*
X38377994Y-51481004D01*
X38311028Y-51446883D01*
X38216639Y-51398788D01*
X38216636Y-51398787D01*
X38044410Y-51342829D01*
X37865551Y-51314500D01*
X37865546Y-51314500D01*
X37684454Y-51314500D01*
X37684449Y-51314500D01*
X37505589Y-51342829D01*
X37333363Y-51398787D01*
X37333360Y-51398788D01*
X37172002Y-51481006D01*
X37025505Y-51587441D01*
X37025500Y-51587445D01*
X36897445Y-51715500D01*
X36875318Y-51745956D01*
X36819987Y-51788621D01*
X36750374Y-51794600D01*
X36688579Y-51761994D01*
X36674682Y-51745956D01*
X36652554Y-51715500D01*
X36524499Y-51587445D01*
X36524494Y-51587441D01*
X36377997Y-51481006D01*
X36377996Y-51481005D01*
X36377994Y-51481004D01*
X36311028Y-51446883D01*
X36216639Y-51398788D01*
X36216636Y-51398787D01*
X36044410Y-51342829D01*
X35865551Y-51314500D01*
X35865546Y-51314500D01*
X35684454Y-51314500D01*
X35684449Y-51314500D01*
X35550711Y-51335682D01*
X35481417Y-51326727D01*
X35427966Y-51281731D01*
X35407326Y-51214980D01*
X35416753Y-51165755D01*
X35421656Y-51153918D01*
X35421656Y-51153917D01*
X35421658Y-51153913D01*
X35450500Y-51008918D01*
X35450500Y-50861082D01*
X35450500Y-50861079D01*
X35421659Y-50716092D01*
X35421658Y-50716091D01*
X35421658Y-50716087D01*
X35410735Y-50689717D01*
X35365087Y-50579511D01*
X35365080Y-50579498D01*
X35282951Y-50456584D01*
X35282948Y-50456580D01*
X35178419Y-50352051D01*
X35178415Y-50352048D01*
X35055501Y-50269919D01*
X35055488Y-50269912D01*
X34918917Y-50213343D01*
X34918907Y-50213340D01*
X34773920Y-50184500D01*
X34773918Y-50184500D01*
X34626082Y-50184500D01*
X34626080Y-50184500D01*
X34481092Y-50213340D01*
X34481082Y-50213343D01*
X34344511Y-50269912D01*
X34344498Y-50269919D01*
X34221584Y-50352048D01*
X34221580Y-50352051D01*
X34117051Y-50456580D01*
X34117048Y-50456584D01*
X34034919Y-50579498D01*
X34034912Y-50579511D01*
X33978343Y-50716082D01*
X33978340Y-50716092D01*
X33949500Y-50861079D01*
X33949500Y-50861082D01*
X33949500Y-51008918D01*
X33949500Y-51008920D01*
X33949499Y-51008920D01*
X33978339Y-51153903D01*
X33978521Y-51154501D01*
X33978523Y-51154829D01*
X33979530Y-51159887D01*
X33978570Y-51160077D01*
X33979146Y-51224368D01*
X33941900Y-51283482D01*
X33878606Y-51313075D01*
X33859861Y-51314500D01*
X33684449Y-51314500D01*
X33505589Y-51342829D01*
X33333363Y-51398787D01*
X33333360Y-51398788D01*
X33172002Y-51481006D01*
X33025505Y-51587441D01*
X33025500Y-51587445D01*
X32897445Y-51715500D01*
X32897441Y-51715505D01*
X32791006Y-51862002D01*
X32708788Y-52023360D01*
X32708787Y-52023363D01*
X32652829Y-52195589D01*
X32624500Y-52374448D01*
X32624500Y-52555551D01*
X32652829Y-52734410D01*
X32708787Y-52906636D01*
X32708788Y-52906639D01*
X32791006Y-53067997D01*
X32897441Y-53214494D01*
X32897445Y-53214499D01*
X33025500Y-53342554D01*
X33025505Y-53342558D01*
X33116843Y-53408918D01*
X33172006Y-53448996D01*
X33277484Y-53502740D01*
X33333360Y-53531211D01*
X33333363Y-53531212D01*
X33403213Y-53553907D01*
X33505591Y-53587171D01*
X33588429Y-53600291D01*
X33684449Y-53615500D01*
X33684454Y-53615500D01*
X33865551Y-53615500D01*
X33952259Y-53601765D01*
X34044409Y-53587171D01*
X34216639Y-53531211D01*
X34377994Y-53448996D01*
X34524501Y-53342553D01*
X34652553Y-53214501D01*
X34674681Y-53184043D01*
X34730011Y-53141378D01*
X34799624Y-53135399D01*
X34861420Y-53168004D01*
X34875319Y-53184044D01*
X34897447Y-53214501D01*
X35025500Y-53342554D01*
X35025505Y-53342558D01*
X35116843Y-53408918D01*
X35172006Y-53448996D01*
X35277484Y-53502740D01*
X35333360Y-53531211D01*
X35333363Y-53531212D01*
X35403213Y-53553907D01*
X35505591Y-53587171D01*
X35588429Y-53600291D01*
X35684449Y-53615500D01*
X35684454Y-53615500D01*
X35865551Y-53615500D01*
X35952259Y-53601765D01*
X36044409Y-53587171D01*
X36216639Y-53531211D01*
X36377994Y-53448996D01*
X36524501Y-53342553D01*
X36652553Y-53214501D01*
X36674681Y-53184043D01*
X36730011Y-53141378D01*
X36799624Y-53135399D01*
X36861420Y-53168004D01*
X36875319Y-53184044D01*
X36897447Y-53214501D01*
X37025500Y-53342554D01*
X37025505Y-53342558D01*
X37116843Y-53408918D01*
X37172006Y-53448996D01*
X37277484Y-53502740D01*
X37333360Y-53531211D01*
X37333363Y-53531212D01*
X37403213Y-53553907D01*
X37505591Y-53587171D01*
X37588429Y-53600291D01*
X37684449Y-53615500D01*
X37684454Y-53615500D01*
X37865551Y-53615500D01*
X37952259Y-53601765D01*
X38044409Y-53587171D01*
X38216639Y-53531211D01*
X38377994Y-53448996D01*
X38504110Y-53357367D01*
X38569912Y-53333889D01*
X38637966Y-53349714D01*
X38676762Y-53384054D01*
X38752848Y-53487148D01*
X38752849Y-53487148D01*
X38752850Y-53487150D01*
X38862118Y-53567793D01*
X38904845Y-53582744D01*
X38990299Y-53612646D01*
X39020730Y-53615500D01*
X40258770Y-53615500D01*
X40325809Y-53635185D01*
X40371564Y-53687989D01*
X40381508Y-53757147D01*
X40352483Y-53820703D01*
X40346451Y-53827181D01*
X40317051Y-53856580D01*
X40317048Y-53856584D01*
X40234919Y-53979498D01*
X40234912Y-53979511D01*
X40178343Y-54116082D01*
X40178340Y-54116092D01*
X40149500Y-54261079D01*
X40149500Y-54261082D01*
X40149500Y-54408918D01*
X40149500Y-54408920D01*
X40149499Y-54408920D01*
X40178340Y-54553907D01*
X40178343Y-54553917D01*
X40233694Y-54687548D01*
X40241163Y-54757018D01*
X40233694Y-54782452D01*
X40178343Y-54916082D01*
X40178340Y-54916092D01*
X40149500Y-55061079D01*
X40149500Y-55061082D01*
X40149500Y-55208918D01*
X40149500Y-55208920D01*
X40149499Y-55208920D01*
X40178340Y-55353907D01*
X40178343Y-55353917D01*
X40233694Y-55487548D01*
X40241163Y-55557018D01*
X40233694Y-55582452D01*
X40178343Y-55716082D01*
X40178340Y-55716092D01*
X40149500Y-55861079D01*
X40149500Y-55861082D01*
X40149500Y-56008918D01*
X40149500Y-56008920D01*
X40149499Y-56008920D01*
X40178340Y-56153907D01*
X40178342Y-56153913D01*
X40232884Y-56285589D01*
X40240353Y-56355059D01*
X40232884Y-56380495D01*
X40178342Y-56512170D01*
X40178340Y-56512176D01*
X40149500Y-56657163D01*
X40149500Y-56657166D01*
X40149500Y-56805002D01*
X40149500Y-56805004D01*
X40149499Y-56805004D01*
X40178340Y-56949991D01*
X40178343Y-56950001D01*
X40234912Y-57086572D01*
X40234919Y-57086585D01*
X40317048Y-57209499D01*
X40317051Y-57209503D01*
X40421580Y-57314032D01*
X40421584Y-57314035D01*
X40544505Y-57396168D01*
X40544508Y-57396169D01*
X40548862Y-57398497D01*
X40598708Y-57447458D01*
X40614170Y-57515595D01*
X40590341Y-57581275D01*
X40578094Y-57595538D01*
X40517048Y-57656584D01*
X40434919Y-57779498D01*
X40434914Y-57779508D01*
X40402005Y-57858958D01*
X40358164Y-57913361D01*
X40291869Y-57935426D01*
X40224170Y-57918147D01*
X40222355Y-57917048D01*
X40219346Y-57915192D01*
X40219336Y-57915187D01*
X40219334Y-57915186D01*
X40052797Y-57860001D01*
X40052795Y-57860000D01*
X39950010Y-57849500D01*
X38449998Y-57849500D01*
X38449981Y-57849501D01*
X38347203Y-57860000D01*
X38347200Y-57860001D01*
X38180668Y-57915185D01*
X38180663Y-57915187D01*
X38031342Y-58007289D01*
X38017681Y-58020951D01*
X37956358Y-58054436D01*
X37886666Y-58049452D01*
X37842319Y-58020951D01*
X37828657Y-58007289D01*
X37828656Y-58007288D01*
X37735888Y-57950069D01*
X37679336Y-57915187D01*
X37679331Y-57915185D01*
X37677862Y-57914698D01*
X37512797Y-57860001D01*
X37512795Y-57860000D01*
X37410010Y-57849500D01*
X35909998Y-57849500D01*
X35909981Y-57849501D01*
X35807203Y-57860000D01*
X35807200Y-57860001D01*
X35640668Y-57915185D01*
X35640663Y-57915187D01*
X35491342Y-58007289D01*
X35367289Y-58131342D01*
X35337217Y-58180096D01*
X35285268Y-58226819D01*
X35216305Y-58238040D01*
X35152224Y-58210196D01*
X35143998Y-58202678D01*
X35097186Y-58155866D01*
X34906171Y-58017085D01*
X34695802Y-57909897D01*
X34471247Y-57836934D01*
X34370000Y-57820897D01*
X34370000Y-59484314D01*
X34365606Y-59479920D01*
X34274394Y-59427259D01*
X34172661Y-59400000D01*
X34067339Y-59400000D01*
X33965606Y-59427259D01*
X33874394Y-59479920D01*
X33870000Y-59484314D01*
X33870000Y-57820897D01*
X33768752Y-57836934D01*
X33544197Y-57909897D01*
X33333828Y-58017085D01*
X33142813Y-58155866D01*
X32975866Y-58322813D01*
X32975861Y-58322819D01*
X32950318Y-58357977D01*
X32894988Y-58400643D01*
X32825375Y-58406622D01*
X32763580Y-58374016D01*
X32749682Y-58357977D01*
X32724138Y-58322819D01*
X32724133Y-58322813D01*
X32557186Y-58155866D01*
X32366171Y-58017085D01*
X32155802Y-57909897D01*
X31931247Y-57836934D01*
X31830000Y-57820897D01*
X31830000Y-59484314D01*
X31825606Y-59479920D01*
X31734394Y-59427259D01*
X31632661Y-59400000D01*
X31527339Y-59400000D01*
X31425606Y-59427259D01*
X31334394Y-59479920D01*
X31330000Y-59484314D01*
X31330000Y-57820897D01*
X31228752Y-57836934D01*
X31004197Y-57909897D01*
X30793828Y-58017085D01*
X30602813Y-58155866D01*
X30435866Y-58322813D01*
X30297085Y-58513828D01*
X30189897Y-58724197D01*
X30116934Y-58948752D01*
X30080000Y-59181947D01*
X23000000Y-59181947D01*
X23000000Y-56270346D01*
X23078416Y-56217951D01*
X23182951Y-56113416D01*
X23265084Y-55990495D01*
X23321658Y-55853913D01*
X23349074Y-55716087D01*
X23350500Y-55708920D01*
X23350500Y-55602442D01*
X23370185Y-55535403D01*
X23422989Y-55489648D01*
X23492147Y-55479704D01*
X23538909Y-55497623D01*
X23539130Y-55497211D01*
X23542415Y-55498967D01*
X23543394Y-55499342D01*
X23544500Y-55500081D01*
X23544511Y-55500087D01*
X23662408Y-55548921D01*
X23681087Y-55556658D01*
X23681091Y-55556658D01*
X23681092Y-55556659D01*
X23826079Y-55585500D01*
X23826082Y-55585500D01*
X23973920Y-55585500D01*
X24071462Y-55566096D01*
X24118913Y-55556658D01*
X24255495Y-55500084D01*
X24378416Y-55417951D01*
X24482951Y-55313416D01*
X24565084Y-55190495D01*
X24621658Y-55053913D01*
X24649074Y-54916087D01*
X24650500Y-54908920D01*
X24949499Y-54908920D01*
X24978340Y-55053907D01*
X24978343Y-55053917D01*
X25034912Y-55190488D01*
X25034919Y-55190501D01*
X25117048Y-55313415D01*
X25117051Y-55313419D01*
X25221580Y-55417948D01*
X25221584Y-55417951D01*
X25344498Y-55500080D01*
X25344511Y-55500087D01*
X25462408Y-55548921D01*
X25481087Y-55556658D01*
X25481091Y-55556658D01*
X25481092Y-55556659D01*
X25626079Y-55585500D01*
X25626082Y-55585500D01*
X25773920Y-55585500D01*
X25871462Y-55566096D01*
X25918913Y-55556658D01*
X26055495Y-55500084D01*
X26056038Y-55499721D01*
X26056606Y-55499342D01*
X26057274Y-55499132D01*
X26060870Y-55497211D01*
X26061234Y-55497892D01*
X26123282Y-55478462D01*
X26190663Y-55496944D01*
X26237355Y-55548921D01*
X26249500Y-55602442D01*
X26249500Y-55708918D01*
X26249500Y-55708920D01*
X26249499Y-55708920D01*
X26278340Y-55853907D01*
X26278343Y-55853917D01*
X26334912Y-55990488D01*
X26334919Y-55990501D01*
X26417048Y-56113415D01*
X26417051Y-56113419D01*
X26521580Y-56217948D01*
X26521584Y-56217951D01*
X26644498Y-56300080D01*
X26644511Y-56300087D01*
X26781082Y-56356656D01*
X26781087Y-56356658D01*
X26781091Y-56356658D01*
X26781092Y-56356659D01*
X26926079Y-56385500D01*
X26926082Y-56385500D01*
X27073920Y-56385500D01*
X27171462Y-56366096D01*
X27218913Y-56356658D01*
X27355495Y-56300084D01*
X27478416Y-56217951D01*
X27582951Y-56113416D01*
X27665084Y-55990495D01*
X27721658Y-55853913D01*
X27749074Y-55716087D01*
X27750500Y-55708920D01*
X27750500Y-55561079D01*
X27738090Y-55498692D01*
X27744317Y-55429100D01*
X27787180Y-55373923D01*
X27853069Y-55350678D01*
X27859707Y-55350500D01*
X28154053Y-55350500D01*
X28154060Y-55350500D01*
X28459544Y-55310282D01*
X28757164Y-55230535D01*
X29041830Y-55112622D01*
X29308670Y-54958562D01*
X29373365Y-54908920D01*
X35649499Y-54908920D01*
X35678340Y-55053907D01*
X35678343Y-55053917D01*
X35733694Y-55187548D01*
X35741163Y-55257018D01*
X35733694Y-55282452D01*
X35678343Y-55416082D01*
X35678340Y-55416092D01*
X35649500Y-55561079D01*
X35649500Y-55561082D01*
X35649500Y-55708918D01*
X35649500Y-55708920D01*
X35649499Y-55708920D01*
X35678340Y-55853907D01*
X35678342Y-55853913D01*
X35732884Y-55985589D01*
X35740353Y-56055059D01*
X35732884Y-56080495D01*
X35678342Y-56212170D01*
X35678340Y-56212176D01*
X35649500Y-56357163D01*
X35649500Y-56357166D01*
X35649500Y-56505002D01*
X35649500Y-56505004D01*
X35649499Y-56505004D01*
X35678340Y-56649991D01*
X35678343Y-56650001D01*
X35734912Y-56786572D01*
X35734919Y-56786585D01*
X35817048Y-56909499D01*
X35817051Y-56909503D01*
X35921580Y-57014032D01*
X35921584Y-57014035D01*
X36044498Y-57096164D01*
X36044511Y-57096171D01*
X36181082Y-57152740D01*
X36181087Y-57152742D01*
X36181091Y-57152742D01*
X36181092Y-57152743D01*
X36326079Y-57181584D01*
X36326082Y-57181584D01*
X36473920Y-57181584D01*
X36571462Y-57162180D01*
X36618913Y-57152742D01*
X36752547Y-57097388D01*
X36822017Y-57089920D01*
X36847452Y-57097388D01*
X36981087Y-57152742D01*
X36981091Y-57152742D01*
X36981092Y-57152743D01*
X37126079Y-57181584D01*
X37126082Y-57181584D01*
X37273920Y-57181584D01*
X37371462Y-57162180D01*
X37418913Y-57152742D01*
X37555495Y-57096168D01*
X37678416Y-57014035D01*
X37782951Y-56909500D01*
X37865084Y-56786579D01*
X37921658Y-56649997D01*
X37949074Y-56512171D01*
X37950500Y-56505004D01*
X37950500Y-56357163D01*
X37921659Y-56212176D01*
X37921658Y-56212175D01*
X37921658Y-56212171D01*
X37867115Y-56080494D01*
X37859647Y-56011025D01*
X37867116Y-55985589D01*
X37921658Y-55853913D01*
X37949074Y-55716087D01*
X37950500Y-55708920D01*
X37950500Y-55561079D01*
X37921659Y-55416092D01*
X37921658Y-55416091D01*
X37921658Y-55416087D01*
X37866304Y-55282452D01*
X37858836Y-55212983D01*
X37866305Y-55187547D01*
X37921658Y-55053913D01*
X37949074Y-54916087D01*
X37950500Y-54908920D01*
X37950500Y-54761079D01*
X37921659Y-54616092D01*
X37921658Y-54616091D01*
X37921658Y-54616087D01*
X37921656Y-54616082D01*
X37865087Y-54479511D01*
X37865080Y-54479498D01*
X37782951Y-54356584D01*
X37782948Y-54356580D01*
X37678419Y-54252051D01*
X37678415Y-54252048D01*
X37555501Y-54169919D01*
X37555488Y-54169912D01*
X37418917Y-54113343D01*
X37418907Y-54113340D01*
X37273920Y-54084500D01*
X37273918Y-54084500D01*
X37126082Y-54084500D01*
X37126080Y-54084500D01*
X36981092Y-54113340D01*
X36981082Y-54113343D01*
X36847452Y-54168694D01*
X36777982Y-54176163D01*
X36752548Y-54168694D01*
X36618917Y-54113343D01*
X36618907Y-54113340D01*
X36473920Y-54084500D01*
X36473918Y-54084500D01*
X36326082Y-54084500D01*
X36326080Y-54084500D01*
X36181092Y-54113340D01*
X36181082Y-54113343D01*
X36044511Y-54169912D01*
X36044498Y-54169919D01*
X35921584Y-54252048D01*
X35921580Y-54252051D01*
X35817051Y-54356580D01*
X35817048Y-54356584D01*
X35734919Y-54479498D01*
X35734912Y-54479511D01*
X35678343Y-54616082D01*
X35678340Y-54616092D01*
X35649500Y-54761079D01*
X35649500Y-54761082D01*
X35649500Y-54908918D01*
X35649500Y-54908920D01*
X35649499Y-54908920D01*
X29373365Y-54908920D01*
X29553117Y-54770991D01*
X29589108Y-54735000D01*
X29656800Y-54667309D01*
X29770986Y-54553122D01*
X29770991Y-54553117D01*
X29958562Y-54308670D01*
X30112622Y-54041830D01*
X30230535Y-53757164D01*
X30310282Y-53459544D01*
X30350500Y-53154060D01*
X30350500Y-52845940D01*
X30310282Y-52540456D01*
X30230535Y-52242836D01*
X30112622Y-51958170D01*
X30112620Y-51958167D01*
X30112618Y-51958162D01*
X30036359Y-51826079D01*
X29958562Y-51691330D01*
X29770991Y-51446883D01*
X29770986Y-51446877D01*
X29553122Y-51229013D01*
X29553115Y-51229007D01*
X29308674Y-51041441D01*
X29308673Y-51041440D01*
X29308670Y-51041438D01*
X29155044Y-50952742D01*
X29041837Y-50887381D01*
X29041826Y-50887376D01*
X28757162Y-50769464D01*
X28459542Y-50689717D01*
X28154069Y-50649501D01*
X28154066Y-50649500D01*
X28154060Y-50649500D01*
X27845940Y-50649500D01*
X27845934Y-50649500D01*
X27845930Y-50649501D01*
X27540457Y-50689717D01*
X27242837Y-50769464D01*
X26958173Y-50887376D01*
X26958162Y-50887381D01*
X26691325Y-51041441D01*
X26446884Y-51229007D01*
X26446877Y-51229013D01*
X26229013Y-51446877D01*
X26229007Y-51446884D01*
X26041441Y-51691325D01*
X25887381Y-51958162D01*
X25887376Y-51958173D01*
X25769464Y-52242837D01*
X25689717Y-52540457D01*
X25649501Y-52845930D01*
X25649500Y-52845946D01*
X25649500Y-53154053D01*
X25649501Y-53154069D01*
X25689717Y-53459542D01*
X25769464Y-53757162D01*
X25834034Y-53913047D01*
X25841503Y-53982517D01*
X25810228Y-54044996D01*
X25750139Y-54080648D01*
X25719473Y-54084500D01*
X25626080Y-54084500D01*
X25481092Y-54113340D01*
X25481082Y-54113343D01*
X25344511Y-54169912D01*
X25344498Y-54169919D01*
X25221584Y-54252048D01*
X25221580Y-54252051D01*
X25117051Y-54356580D01*
X25117048Y-54356584D01*
X25034919Y-54479498D01*
X25034912Y-54479511D01*
X24978343Y-54616082D01*
X24978340Y-54616092D01*
X24949500Y-54761079D01*
X24949500Y-54761082D01*
X24949500Y-54908918D01*
X24949500Y-54908920D01*
X24949499Y-54908920D01*
X24650500Y-54908920D01*
X24650500Y-54761079D01*
X24621659Y-54616092D01*
X24621658Y-54616091D01*
X24621658Y-54616087D01*
X24621656Y-54616082D01*
X24565087Y-54479511D01*
X24565080Y-54479498D01*
X24482951Y-54356584D01*
X24482948Y-54356580D01*
X24402793Y-54276425D01*
X24369308Y-54215102D01*
X24374292Y-54145410D01*
X24416164Y-54089477D01*
X24466283Y-54067127D01*
X24518913Y-54056658D01*
X24655495Y-54000084D01*
X24778416Y-53917951D01*
X24882951Y-53813416D01*
X24965084Y-53690495D01*
X24971021Y-53676163D01*
X24997042Y-53613342D01*
X25021658Y-53553913D01*
X25042528Y-53448995D01*
X25050500Y-53408920D01*
X25050500Y-53261079D01*
X25021659Y-53116092D01*
X25021658Y-53116091D01*
X25021658Y-53116087D01*
X24979767Y-53014952D01*
X24972298Y-52945483D01*
X24979767Y-52920048D01*
X25002369Y-52865478D01*
X25021658Y-52818913D01*
X25050500Y-52673918D01*
X25050500Y-52526082D01*
X25050500Y-52526079D01*
X25021659Y-52381092D01*
X25021658Y-52381091D01*
X25021658Y-52381087D01*
X24987014Y-52297450D01*
X24979546Y-52227984D01*
X24987013Y-52202552D01*
X25021658Y-52118913D01*
X25050500Y-51973918D01*
X25050500Y-51826082D01*
X25050500Y-51826079D01*
X25021659Y-51681092D01*
X25021658Y-51681091D01*
X25021658Y-51681087D01*
X24987014Y-51597450D01*
X24979546Y-51527984D01*
X24987013Y-51502552D01*
X25021658Y-51418913D01*
X25032938Y-51362206D01*
X25050500Y-51273920D01*
X25050500Y-51126079D01*
X25021659Y-50981092D01*
X25021658Y-50981091D01*
X25021658Y-50981087D01*
X25009916Y-50952740D01*
X24965087Y-50844511D01*
X24965080Y-50844498D01*
X24882951Y-50721584D01*
X24882948Y-50721580D01*
X24778419Y-50617051D01*
X24778415Y-50617048D01*
X24655501Y-50534919D01*
X24655488Y-50534912D01*
X24518917Y-50478343D01*
X24518907Y-50478340D01*
X24373920Y-50449500D01*
X24373918Y-50449500D01*
X24226082Y-50449500D01*
X24226080Y-50449500D01*
X24081092Y-50478340D01*
X24081082Y-50478343D01*
X23947452Y-50533694D01*
X23877982Y-50541163D01*
X23852548Y-50533694D01*
X23718917Y-50478343D01*
X23718907Y-50478340D01*
X23573920Y-50449500D01*
X23573918Y-50449500D01*
X23426082Y-50449500D01*
X23426080Y-50449500D01*
X23281092Y-50478340D01*
X23281082Y-50478343D01*
X23171452Y-50523753D01*
X23101982Y-50531222D01*
X23039503Y-50499946D01*
X23003852Y-50439857D01*
X23000000Y-50409192D01*
X23000000Y-49601173D01*
X23019685Y-49534134D01*
X23072489Y-49488379D01*
X23141647Y-49478435D01*
X23198312Y-49501907D01*
X23290410Y-49570852D01*
X23290413Y-49570854D01*
X23425120Y-49621096D01*
X23425127Y-49621098D01*
X23484655Y-49627499D01*
X23484672Y-49627500D01*
X23982500Y-49627500D01*
X23982500Y-48802777D01*
X24058806Y-48846833D01*
X24173256Y-48877500D01*
X24291744Y-48877500D01*
X24406194Y-48846833D01*
X24482500Y-48802777D01*
X24482500Y-49627500D01*
X24980328Y-49627500D01*
X24980344Y-49627499D01*
X25039872Y-49621098D01*
X25039879Y-49621096D01*
X25174586Y-49570854D01*
X25174593Y-49570850D01*
X25289687Y-49484690D01*
X25289690Y-49484687D01*
X25375850Y-49369593D01*
X25375854Y-49369586D01*
X25426096Y-49234879D01*
X25426098Y-49234872D01*
X25432499Y-49175344D01*
X25432500Y-49175327D01*
X25432500Y-48677500D01*
X24607778Y-48677500D01*
X24651833Y-48601194D01*
X24682500Y-48486744D01*
X24682500Y-48368256D01*
X24651833Y-48253806D01*
X24607778Y-48177500D01*
X25432500Y-48177500D01*
X25432500Y-48124000D01*
X25452185Y-48056961D01*
X25504989Y-48011206D01*
X25556500Y-48000000D01*
X31845962Y-48000000D01*
X31913001Y-48019685D01*
G37*
%TD.AperFunction*%
%TD*%
%TA.AperFunction,NonConductor*%
G36*
X31500000Y-17600000D02*
G01*
X28304875Y-17600000D01*
X28295146Y-17599618D01*
X28075075Y-17582298D01*
X28055857Y-17579254D01*
X27845964Y-17528863D01*
X27827458Y-17522850D01*
X27628028Y-17440243D01*
X27610691Y-17431409D01*
X27426644Y-17318624D01*
X27410903Y-17307187D01*
X27246761Y-17166997D01*
X27233002Y-17153238D01*
X27092812Y-16989096D01*
X27081375Y-16973355D01*
X26968590Y-16789308D01*
X26959756Y-16771971D01*
X26944364Y-16734813D01*
X26877147Y-16572534D01*
X26871138Y-16554042D01*
X26820744Y-16344137D01*
X26817701Y-16324923D01*
X26800382Y-16104852D01*
X26800000Y-16095124D01*
X26800000Y-13504875D01*
X26800382Y-13495147D01*
X26817701Y-13275076D01*
X26820743Y-13255864D01*
X26871139Y-13045953D01*
X26877145Y-13027468D01*
X26959757Y-12828024D01*
X26968590Y-12810691D01*
X27081381Y-12626633D01*
X27092803Y-12610912D01*
X27149979Y-12543967D01*
X27208487Y-12505775D01*
X27244269Y-12500500D01*
X31500000Y-12500500D01*
X31500000Y-17600000D01*
G37*
%TD.AperFunction*%
%TA.AperFunction,Conductor*%
%TO.N,GND*%
G36*
X18000000Y-22000000D02*
G01*
X15500000Y-22000000D01*
X15500000Y-20800000D01*
X18000000Y-20800000D01*
X18000000Y-22000000D01*
G37*
%TD.AperFunction*%
%TD*%
M02*
