%TF.GenerationSoftware,KiCad,Pcbnew,10.0.6*%
%TF.CreationDate,2026-09-26T23:15:02+10:00*%
%TF.ProjectId,aioair-v2,61696f61-6972-42d7-9632-2e6b69636164,v1.0.0*%
%TF.SameCoordinates,Original*%
%TF.FileFunction,Legend,Top*%
%TF.FilePolarity,Positive*%
%FSLAX46Y46*%
G04 Gerber Fmt 4.6, Leading zero omitted, Abs format (unit mm)*
G04 Created by KiCad (PCBNEW 10.0.6) date 2026-09-26 23:15:02*
%MOMM*%
%LPD*%
G01*
G04 APERTURE LIST*
%ADD10C,0.250000*%
%ADD11C,0.150000*%
%ADD12C,0.100000*%
%ADD13C,0.255000*%
%ADD14C,0.400000*%
%ADD15C,0.205000*%
G04 APERTURE END LIST*
D10*
G36*
X20179332Y-23721491D02*
G01*
X20239360Y-23781519D01*
X20271771Y-23846342D01*
X20312331Y-24008579D01*
X20312331Y-24120658D01*
X20271771Y-24282894D01*
X20239361Y-24347715D01*
X20179331Y-24407746D01*
X20083715Y-24439619D01*
X19990903Y-24439619D01*
X19990903Y-23689619D01*
X20083715Y-23689619D01*
X20179332Y-23721491D01*
G37*
G36*
X18315667Y-23714969D02*
G01*
X18334599Y-23733902D01*
X18359950Y-23784603D01*
X18359950Y-23868443D01*
X18334599Y-23919144D01*
X18315667Y-23938077D01*
X18264966Y-23963428D01*
X18038522Y-23963428D01*
X18038522Y-23689619D01*
X18264966Y-23689619D01*
X18315667Y-23714969D01*
G37*
G36*
X20687331Y-24814619D02*
G01*
X17663522Y-24814619D01*
X17663522Y-23564619D01*
X17788522Y-23564619D01*
X17788522Y-24564619D01*
X17790924Y-24589005D01*
X17809588Y-24634065D01*
X17844076Y-24668553D01*
X17889136Y-24687217D01*
X17937908Y-24687217D01*
X17982968Y-24668553D01*
X18017456Y-24634065D01*
X18036120Y-24589005D01*
X18038522Y-24564619D01*
X18038522Y-24213428D01*
X18086535Y-24213428D01*
X18382546Y-24636302D01*
X18398498Y-24654902D01*
X18439629Y-24681114D01*
X18487660Y-24689590D01*
X18535278Y-24679040D01*
X18575233Y-24651071D01*
X18601445Y-24609941D01*
X18609921Y-24561909D01*
X18599371Y-24514292D01*
X18587354Y-24492936D01*
X18374142Y-24188347D01*
X18445613Y-24152613D01*
X18456111Y-24146003D01*
X18459158Y-24144742D01*
X18462589Y-24141926D01*
X18466351Y-24139558D01*
X18468514Y-24137063D01*
X18478100Y-24129197D01*
X18525719Y-24081579D01*
X18533588Y-24071990D01*
X18536080Y-24069829D01*
X18538445Y-24066071D01*
X18541264Y-24062637D01*
X18542527Y-24059586D01*
X18549134Y-24049092D01*
X18596753Y-23953854D01*
X18605511Y-23930968D01*
X18605829Y-23926487D01*
X18607548Y-23922338D01*
X18609950Y-23897952D01*
X18609950Y-23755095D01*
X18607548Y-23730709D01*
X18605829Y-23726559D01*
X18605511Y-23722079D01*
X18596753Y-23699193D01*
X18549134Y-23603955D01*
X18542527Y-23593460D01*
X18541264Y-23590410D01*
X18538445Y-23586975D01*
X18536080Y-23583218D01*
X18533588Y-23581056D01*
X18525719Y-23571468D01*
X18518740Y-23564489D01*
X18693284Y-23564489D01*
X18702749Y-23612334D01*
X18714278Y-23633956D01*
X19001386Y-24064619D01*
X18714278Y-24495282D01*
X18702749Y-24516904D01*
X18693284Y-24564749D01*
X18702849Y-24612576D01*
X18729989Y-24653100D01*
X18770569Y-24680154D01*
X18818414Y-24689619D01*
X18866241Y-24680054D01*
X18906765Y-24652914D01*
X18922290Y-24633956D01*
X19151617Y-24289965D01*
X19380944Y-24633956D01*
X19396469Y-24652914D01*
X19436993Y-24680054D01*
X19484820Y-24689619D01*
X19532665Y-24680154D01*
X19573245Y-24653100D01*
X19600385Y-24612576D01*
X19609950Y-24564749D01*
X19600485Y-24516904D01*
X19588956Y-24495281D01*
X19301848Y-24064619D01*
X19588956Y-23633957D01*
X19600485Y-23612334D01*
X19609924Y-23564619D01*
X19740903Y-23564619D01*
X19740903Y-24564619D01*
X19743305Y-24589005D01*
X19761969Y-24634065D01*
X19796457Y-24668553D01*
X19841517Y-24687217D01*
X19865903Y-24689619D01*
X20103998Y-24689619D01*
X20116341Y-24688403D01*
X20119632Y-24688637D01*
X20123961Y-24687652D01*
X20128384Y-24687217D01*
X20131435Y-24685953D01*
X20143526Y-24683204D01*
X20286383Y-24635586D01*
X20308758Y-24625595D01*
X20312150Y-24622652D01*
X20316302Y-24620933D01*
X20335244Y-24605388D01*
X20430482Y-24510149D01*
X20438350Y-24500560D01*
X20440842Y-24498400D01*
X20443206Y-24494643D01*
X20446027Y-24491207D01*
X20447291Y-24488155D01*
X20453896Y-24477663D01*
X20501515Y-24382425D01*
X20502198Y-24380639D01*
X20502735Y-24379915D01*
X20506390Y-24369685D01*
X20510273Y-24359539D01*
X20510336Y-24358639D01*
X20510980Y-24356840D01*
X20558599Y-24166364D01*
X20559224Y-24162134D01*
X20559929Y-24160433D01*
X20560833Y-24151253D01*
X20562183Y-24142124D01*
X20561911Y-24140301D01*
X20562331Y-24136047D01*
X20562331Y-23993190D01*
X20561911Y-23988935D01*
X20562183Y-23987113D01*
X20560833Y-23977983D01*
X20559929Y-23968804D01*
X20559224Y-23967102D01*
X20558599Y-23962873D01*
X20510980Y-23772397D01*
X20510336Y-23770597D01*
X20510273Y-23769698D01*
X20506390Y-23759551D01*
X20502735Y-23749322D01*
X20502198Y-23748597D01*
X20501515Y-23746812D01*
X20453896Y-23651574D01*
X20447288Y-23641077D01*
X20446026Y-23638030D01*
X20443209Y-23634598D01*
X20440842Y-23630837D01*
X20438347Y-23628673D01*
X20430481Y-23619088D01*
X20335243Y-23523850D01*
X20316301Y-23508305D01*
X20312151Y-23506586D01*
X20308758Y-23503643D01*
X20286383Y-23493652D01*
X20143526Y-23446034D01*
X20131435Y-23443284D01*
X20128384Y-23442021D01*
X20123961Y-23441585D01*
X20119632Y-23440601D01*
X20116341Y-23440834D01*
X20103998Y-23439619D01*
X19865903Y-23439619D01*
X19841517Y-23442021D01*
X19796457Y-23460685D01*
X19761969Y-23495173D01*
X19743305Y-23540233D01*
X19740903Y-23564619D01*
X19609924Y-23564619D01*
X19609950Y-23564489D01*
X19600385Y-23516662D01*
X19573245Y-23476138D01*
X19532665Y-23449084D01*
X19484820Y-23439619D01*
X19436993Y-23449184D01*
X19396469Y-23476324D01*
X19380944Y-23495282D01*
X19151617Y-23839272D01*
X18922290Y-23495282D01*
X18906765Y-23476324D01*
X18866241Y-23449184D01*
X18818414Y-23439619D01*
X18770569Y-23449084D01*
X18729989Y-23476138D01*
X18702849Y-23516662D01*
X18693284Y-23564489D01*
X18518740Y-23564489D01*
X18478100Y-23523850D01*
X18468514Y-23515983D01*
X18466351Y-23513489D01*
X18462589Y-23511120D01*
X18459158Y-23508305D01*
X18456111Y-23507043D01*
X18445613Y-23500434D01*
X18350376Y-23452816D01*
X18327490Y-23444058D01*
X18323008Y-23443739D01*
X18318860Y-23442021D01*
X18294474Y-23439619D01*
X17913522Y-23439619D01*
X17889136Y-23442021D01*
X17844076Y-23460685D01*
X17809588Y-23495173D01*
X17790924Y-23540233D01*
X17788522Y-23564619D01*
X17663522Y-23564619D01*
X17663522Y-23314619D01*
X20687331Y-23314619D01*
X20687331Y-24814619D01*
G37*
G36*
X19658730Y-19639619D02*
G01*
X17636487Y-19639619D01*
X17636487Y-18877875D01*
X17761487Y-18877875D01*
X17763305Y-18883900D01*
X17763305Y-18890196D01*
X17770296Y-18907075D01*
X17775575Y-18924569D01*
X17779562Y-18929442D01*
X17781970Y-18935255D01*
X17794885Y-18948170D01*
X17806460Y-18962317D01*
X17812008Y-18965293D01*
X17816457Y-18969742D01*
X17833335Y-18976733D01*
X17849439Y-18985372D01*
X17855700Y-18985998D01*
X17861516Y-18988407D01*
X17879789Y-18988407D01*
X17897969Y-18990225D01*
X17903995Y-18988407D01*
X17910290Y-18988407D01*
X17927169Y-18981415D01*
X17944663Y-18976137D01*
X17949536Y-18972149D01*
X17955349Y-18969742D01*
X17974291Y-18954197D01*
X18007567Y-18920921D01*
X18058269Y-18895571D01*
X18237347Y-18895571D01*
X18288048Y-18920921D01*
X18306980Y-18939854D01*
X18332331Y-18990555D01*
X18332331Y-19169633D01*
X18306979Y-19220336D01*
X18288048Y-19239268D01*
X18237347Y-19264619D01*
X18058269Y-19264619D01*
X18007567Y-19239268D01*
X17974292Y-19205993D01*
X17955350Y-19190447D01*
X17910291Y-19171782D01*
X17861518Y-19171782D01*
X17816458Y-19190446D01*
X17781970Y-19224933D01*
X17763305Y-19269992D01*
X17763305Y-19318765D01*
X17781969Y-19363825D01*
X17797514Y-19382767D01*
X17845133Y-19430387D01*
X17854721Y-19438256D01*
X17856883Y-19440749D01*
X17860637Y-19443112D01*
X17864074Y-19445933D01*
X17867127Y-19447197D01*
X17877620Y-19453803D01*
X17972858Y-19501422D01*
X17995744Y-19510180D01*
X18000224Y-19510498D01*
X18004374Y-19512217D01*
X18028760Y-19514619D01*
X18266855Y-19514619D01*
X18291241Y-19512217D01*
X18295389Y-19510498D01*
X18299871Y-19510180D01*
X18322757Y-19501422D01*
X18417994Y-19453804D01*
X18428490Y-19447196D01*
X18431540Y-19445933D01*
X18434973Y-19443114D01*
X18438732Y-19440749D01*
X18440894Y-19438255D01*
X18450482Y-19430387D01*
X18498101Y-19382768D01*
X18505968Y-19373180D01*
X18508461Y-19371019D01*
X18510827Y-19367259D01*
X18513646Y-19363825D01*
X18514908Y-19360776D01*
X18521515Y-19350282D01*
X18569134Y-19255044D01*
X18577892Y-19232158D01*
X18578210Y-19227677D01*
X18579929Y-19223528D01*
X18582331Y-19199142D01*
X18582331Y-18961047D01*
X18579929Y-18936661D01*
X18578210Y-18932511D01*
X18577892Y-18928031D01*
X18569134Y-18905145D01*
X18521515Y-18809907D01*
X18514908Y-18799412D01*
X18513645Y-18796362D01*
X18510826Y-18792927D01*
X18508461Y-18789170D01*
X18505969Y-18787008D01*
X18498100Y-18777420D01*
X18450481Y-18729802D01*
X18440895Y-18721935D01*
X18438732Y-18719441D01*
X18434970Y-18717072D01*
X18431539Y-18714257D01*
X18428492Y-18712995D01*
X18417994Y-18706386D01*
X18322757Y-18658768D01*
X18299871Y-18650010D01*
X18295389Y-18649691D01*
X18291241Y-18647973D01*
X18266855Y-18645571D01*
X18033551Y-18645571D01*
X18046646Y-18514619D01*
X18409712Y-18514619D01*
X18434098Y-18512217D01*
X18479158Y-18493553D01*
X18513646Y-18459065D01*
X18532310Y-18414005D01*
X18532310Y-18405253D01*
X18619028Y-18405253D01*
X18624461Y-18429147D01*
X18957793Y-19429147D01*
X18967784Y-19451522D01*
X18973634Y-19458268D01*
X18977630Y-19466259D01*
X18989470Y-19476527D01*
X18999739Y-19488368D01*
X19007730Y-19492363D01*
X19014476Y-19498214D01*
X19029341Y-19503169D01*
X19043363Y-19510180D01*
X19052273Y-19510813D01*
X19060745Y-19513637D01*
X19076378Y-19512526D01*
X19092013Y-19513637D01*
X19100484Y-19510813D01*
X19109394Y-19510180D01*
X19123414Y-19503169D01*
X19138282Y-19498214D01*
X19145027Y-19492363D01*
X19153019Y-19488368D01*
X19163290Y-19476524D01*
X19175128Y-19466258D01*
X19179122Y-19458269D01*
X19184974Y-19451522D01*
X19194964Y-19429147D01*
X19528297Y-18429148D01*
X19533730Y-18405254D01*
X19530273Y-18356604D01*
X19508461Y-18312980D01*
X19471615Y-18281024D01*
X19425346Y-18265601D01*
X19376696Y-18269058D01*
X19333072Y-18290870D01*
X19301117Y-18327716D01*
X19291126Y-18350091D01*
X19076378Y-18994334D01*
X18861631Y-18350091D01*
X18851641Y-18327716D01*
X18819686Y-18290870D01*
X18776061Y-18269058D01*
X18727412Y-18265601D01*
X18681143Y-18281024D01*
X18644297Y-18312979D01*
X18622485Y-18356604D01*
X18619028Y-18405253D01*
X18532310Y-18405253D01*
X18532310Y-18365233D01*
X18513646Y-18320173D01*
X18479158Y-18285685D01*
X18434098Y-18267021D01*
X18409712Y-18264619D01*
X17933522Y-18264619D01*
X17924501Y-18265507D01*
X17921456Y-18265203D01*
X17918481Y-18266100D01*
X17909136Y-18267021D01*
X17892254Y-18274013D01*
X17874762Y-18279291D01*
X17869890Y-18283276D01*
X17864076Y-18285685D01*
X17851155Y-18298605D01*
X17837014Y-18310176D01*
X17834038Y-18315722D01*
X17829588Y-18320173D01*
X17822595Y-18337055D01*
X17813959Y-18353155D01*
X17812112Y-18362362D01*
X17810924Y-18365233D01*
X17810924Y-18368292D01*
X17809142Y-18377181D01*
X17761523Y-18853371D01*
X17761487Y-18877875D01*
X17636487Y-18877875D01*
X17636487Y-18139619D01*
X19658730Y-18139619D01*
X19658730Y-19639619D01*
G37*
G36*
X20324570Y-21221491D02*
G01*
X20384598Y-21281519D01*
X20417009Y-21346342D01*
X20457569Y-21508579D01*
X20457569Y-21620658D01*
X20417009Y-21782894D01*
X20384599Y-21847715D01*
X20324569Y-21907746D01*
X20228953Y-21939619D01*
X20136141Y-21939619D01*
X20136141Y-21189619D01*
X20228953Y-21189619D01*
X20324570Y-21221491D01*
G37*
G36*
X20832569Y-22314619D02*
G01*
X17665903Y-22314619D01*
X17665903Y-21493190D01*
X17790903Y-21493190D01*
X17790903Y-21636047D01*
X17791322Y-21640301D01*
X17791051Y-21642123D01*
X17792400Y-21651251D01*
X17793305Y-21660433D01*
X17794009Y-21662134D01*
X17794635Y-21666364D01*
X17842254Y-21856840D01*
X17842897Y-21858639D01*
X17842961Y-21859539D01*
X17846843Y-21869685D01*
X17850499Y-21879915D01*
X17851035Y-21880639D01*
X17851719Y-21882425D01*
X17899337Y-21977662D01*
X17905943Y-21988156D01*
X17907207Y-21991207D01*
X17910027Y-21994643D01*
X17912392Y-21998400D01*
X17914883Y-22000560D01*
X17922752Y-22010149D01*
X18017990Y-22105388D01*
X18036932Y-22120933D01*
X18041083Y-22122652D01*
X18044476Y-22125595D01*
X18066851Y-22135585D01*
X18209707Y-22183204D01*
X18221800Y-22185953D01*
X18224850Y-22187217D01*
X18229271Y-22187652D01*
X18233601Y-22188637D01*
X18236892Y-22188403D01*
X18249236Y-22189619D01*
X18344474Y-22189619D01*
X18356817Y-22188403D01*
X18360108Y-22188637D01*
X18364437Y-22187652D01*
X18368860Y-22187217D01*
X18371911Y-22185953D01*
X18384002Y-22183204D01*
X18526859Y-22135586D01*
X18549234Y-22125595D01*
X18552626Y-22122652D01*
X18556778Y-22120933D01*
X18575720Y-22105387D01*
X18623339Y-22057768D01*
X18638879Y-22038830D01*
X18638884Y-22038826D01*
X18657548Y-21993766D01*
X18659950Y-21969380D01*
X18659950Y-21636047D01*
X18657548Y-21611661D01*
X18638884Y-21566601D01*
X18604396Y-21532113D01*
X18559336Y-21513449D01*
X18534950Y-21511047D01*
X18344474Y-21511047D01*
X18320088Y-21513449D01*
X18275028Y-21532113D01*
X18240540Y-21566601D01*
X18221876Y-21611661D01*
X18221876Y-21660433D01*
X18240540Y-21705493D01*
X18275028Y-21739981D01*
X18320088Y-21758645D01*
X18344474Y-21761047D01*
X18409950Y-21761047D01*
X18409950Y-21911032D01*
X18324191Y-21939619D01*
X18269522Y-21939619D01*
X18173903Y-21907746D01*
X18113872Y-21847715D01*
X18081462Y-21782896D01*
X18040903Y-21620658D01*
X18040903Y-21508579D01*
X18081462Y-21346341D01*
X18113873Y-21281520D01*
X18173901Y-21221491D01*
X18269522Y-21189619D01*
X18362585Y-21189619D01*
X18431429Y-21224041D01*
X18454315Y-21232799D01*
X18502964Y-21236256D01*
X18549235Y-21220833D01*
X18586080Y-21188877D01*
X18607891Y-21145254D01*
X18611349Y-21096604D01*
X18600688Y-21064619D01*
X18838522Y-21064619D01*
X18838522Y-22064619D01*
X18840924Y-22089005D01*
X18859588Y-22134065D01*
X18894076Y-22168553D01*
X18939136Y-22187217D01*
X18987908Y-22187217D01*
X19032968Y-22168553D01*
X19067456Y-22134065D01*
X19086120Y-22089005D01*
X19088522Y-22064619D01*
X19088522Y-21535313D01*
X19426420Y-22126636D01*
X19430066Y-22131773D01*
X19431016Y-22134065D01*
X19433350Y-22136399D01*
X19440604Y-22146618D01*
X19453748Y-22156797D01*
X19465504Y-22168553D01*
X19472864Y-22171601D01*
X19479165Y-22176481D01*
X19495206Y-22180855D01*
X19510564Y-22187217D01*
X19518531Y-22187217D01*
X19526220Y-22189314D01*
X19542715Y-22187217D01*
X19559336Y-22187217D01*
X19566696Y-22184168D01*
X19574603Y-22183163D01*
X19589037Y-22174914D01*
X19604396Y-22168553D01*
X19610030Y-22162918D01*
X19616949Y-22158965D01*
X19627128Y-22145820D01*
X19638884Y-22134065D01*
X19641932Y-22126704D01*
X19646812Y-22120404D01*
X19651187Y-22104361D01*
X19657548Y-22089005D01*
X19658776Y-22076535D01*
X19659645Y-22073350D01*
X19659332Y-22070890D01*
X19659950Y-22064619D01*
X19659950Y-21064619D01*
X19886141Y-21064619D01*
X19886141Y-22064619D01*
X19888543Y-22089005D01*
X19907207Y-22134065D01*
X19941695Y-22168553D01*
X19986755Y-22187217D01*
X20011141Y-22189619D01*
X20249236Y-22189619D01*
X20261579Y-22188403D01*
X20264870Y-22188637D01*
X20269199Y-22187652D01*
X20273622Y-22187217D01*
X20276673Y-22185953D01*
X20288764Y-22183204D01*
X20431621Y-22135586D01*
X20453996Y-22125595D01*
X20457388Y-22122652D01*
X20461540Y-22120933D01*
X20480482Y-22105388D01*
X20575720Y-22010149D01*
X20583588Y-22000560D01*
X20586080Y-21998400D01*
X20588444Y-21994643D01*
X20591265Y-21991207D01*
X20592529Y-21988155D01*
X20599134Y-21977663D01*
X20646753Y-21882425D01*
X20647436Y-21880639D01*
X20647973Y-21879915D01*
X20651628Y-21869685D01*
X20655511Y-21859539D01*
X20655574Y-21858639D01*
X20656218Y-21856840D01*
X20703837Y-21666364D01*
X20704462Y-21662134D01*
X20705167Y-21660433D01*
X20706071Y-21651253D01*
X20707421Y-21642124D01*
X20707149Y-21640301D01*
X20707569Y-21636047D01*
X20707569Y-21493190D01*
X20707149Y-21488935D01*
X20707421Y-21487113D01*
X20706071Y-21477983D01*
X20705167Y-21468804D01*
X20704462Y-21467102D01*
X20703837Y-21462873D01*
X20656218Y-21272397D01*
X20655574Y-21270597D01*
X20655511Y-21269698D01*
X20651628Y-21259551D01*
X20647973Y-21249322D01*
X20647436Y-21248597D01*
X20646753Y-21246812D01*
X20599134Y-21151574D01*
X20592526Y-21141077D01*
X20591264Y-21138030D01*
X20588447Y-21134598D01*
X20586080Y-21130837D01*
X20583585Y-21128673D01*
X20575719Y-21119088D01*
X20480481Y-21023850D01*
X20461539Y-21008305D01*
X20457389Y-21006586D01*
X20453996Y-21003643D01*
X20431621Y-20993652D01*
X20288764Y-20946034D01*
X20276673Y-20943284D01*
X20273622Y-20942021D01*
X20269199Y-20941585D01*
X20264870Y-20940601D01*
X20261579Y-20940834D01*
X20249236Y-20939619D01*
X20011141Y-20939619D01*
X19986755Y-20942021D01*
X19941695Y-20960685D01*
X19907207Y-20995173D01*
X19888543Y-21040233D01*
X19886141Y-21064619D01*
X19659950Y-21064619D01*
X19657548Y-21040233D01*
X19638884Y-20995173D01*
X19604396Y-20960685D01*
X19559336Y-20942021D01*
X19510564Y-20942021D01*
X19465504Y-20960685D01*
X19431016Y-20995173D01*
X19412352Y-21040233D01*
X19409950Y-21064619D01*
X19409950Y-21593923D01*
X19072052Y-21002602D01*
X19068405Y-20997464D01*
X19067456Y-20995173D01*
X19065121Y-20992838D01*
X19057868Y-20982620D01*
X19044723Y-20972440D01*
X19032968Y-20960685D01*
X19025607Y-20957636D01*
X19019307Y-20952757D01*
X19003265Y-20948382D01*
X18987908Y-20942021D01*
X18979941Y-20942021D01*
X18972252Y-20939924D01*
X18955757Y-20942021D01*
X18939136Y-20942021D01*
X18931775Y-20945069D01*
X18923869Y-20946075D01*
X18909434Y-20954323D01*
X18894076Y-20960685D01*
X18888441Y-20966319D01*
X18881523Y-20970273D01*
X18871343Y-20983417D01*
X18859588Y-20995173D01*
X18856539Y-21002533D01*
X18851660Y-21008834D01*
X18847285Y-21024875D01*
X18840924Y-21040233D01*
X18839695Y-21052704D01*
X18838827Y-21055889D01*
X18839139Y-21058348D01*
X18838522Y-21064619D01*
X18600688Y-21064619D01*
X18595926Y-21050334D01*
X18563970Y-21013489D01*
X18543232Y-21000434D01*
X18447995Y-20952816D01*
X18425109Y-20944058D01*
X18420627Y-20943739D01*
X18416479Y-20942021D01*
X18392093Y-20939619D01*
X18249236Y-20939619D01*
X18236892Y-20940834D01*
X18233601Y-20940601D01*
X18229271Y-20941585D01*
X18224850Y-20942021D01*
X18221800Y-20943284D01*
X18209707Y-20946034D01*
X18066851Y-20993653D01*
X18044476Y-21003643D01*
X18041082Y-21006586D01*
X18036933Y-21008305D01*
X18017991Y-21023850D01*
X17922753Y-21119088D01*
X17914886Y-21128673D01*
X17912392Y-21130837D01*
X17910023Y-21134598D01*
X17907208Y-21138030D01*
X17905946Y-21141076D01*
X17899337Y-21151575D01*
X17851719Y-21246812D01*
X17851035Y-21248597D01*
X17850499Y-21249322D01*
X17846843Y-21259551D01*
X17842961Y-21269698D01*
X17842897Y-21270597D01*
X17842254Y-21272397D01*
X17794635Y-21462873D01*
X17794009Y-21467102D01*
X17793305Y-21468804D01*
X17792400Y-21477985D01*
X17791051Y-21487114D01*
X17791322Y-21488935D01*
X17790903Y-21493190D01*
X17665903Y-21493190D01*
X17665903Y-20814619D01*
X20832569Y-20814619D01*
X20832569Y-22314619D01*
G37*
G36*
X20041237Y-26221491D02*
G01*
X20101265Y-26281519D01*
X20133676Y-26346342D01*
X20174236Y-26508579D01*
X20174236Y-26620658D01*
X20133676Y-26782894D01*
X20101266Y-26847715D01*
X20041236Y-26907746D01*
X19945620Y-26939619D01*
X19852808Y-26939619D01*
X19852808Y-26189619D01*
X19945620Y-26189619D01*
X20041237Y-26221491D01*
G37*
G36*
X20549236Y-27314619D02*
G01*
X17623067Y-27314619D01*
X17623067Y-26040233D01*
X17748067Y-26040233D01*
X17748067Y-26089005D01*
X17766731Y-26134065D01*
X17801219Y-26168553D01*
X17846279Y-26187217D01*
X17870665Y-26189619D01*
X18031379Y-26189619D01*
X18031379Y-27064619D01*
X18033781Y-27089005D01*
X18052445Y-27134065D01*
X18086933Y-27168553D01*
X18131993Y-27187217D01*
X18180765Y-27187217D01*
X18225825Y-27168553D01*
X18260313Y-27134065D01*
X18278977Y-27089005D01*
X18281379Y-27064619D01*
X18281379Y-26189619D01*
X18442093Y-26189619D01*
X18466479Y-26187217D01*
X18511539Y-26168553D01*
X18546027Y-26134065D01*
X18561542Y-26096606D01*
X18564654Y-26112334D01*
X18576183Y-26133956D01*
X18863291Y-26564619D01*
X18576183Y-26995282D01*
X18564654Y-27016904D01*
X18555189Y-27064749D01*
X18564754Y-27112576D01*
X18591894Y-27153100D01*
X18632474Y-27180154D01*
X18680319Y-27189619D01*
X18728146Y-27180054D01*
X18768670Y-27152914D01*
X18784195Y-27133956D01*
X19013522Y-26789965D01*
X19242849Y-27133956D01*
X19258374Y-27152914D01*
X19298898Y-27180054D01*
X19346725Y-27189619D01*
X19394570Y-27180154D01*
X19435150Y-27153100D01*
X19462290Y-27112576D01*
X19471855Y-27064749D01*
X19462390Y-27016904D01*
X19450861Y-26995281D01*
X19163753Y-26564619D01*
X19450861Y-26133957D01*
X19462390Y-26112334D01*
X19471829Y-26064619D01*
X19602808Y-26064619D01*
X19602808Y-27064619D01*
X19605210Y-27089005D01*
X19623874Y-27134065D01*
X19658362Y-27168553D01*
X19703422Y-27187217D01*
X19727808Y-27189619D01*
X19965903Y-27189619D01*
X19978246Y-27188403D01*
X19981537Y-27188637D01*
X19985866Y-27187652D01*
X19990289Y-27187217D01*
X19993340Y-27185953D01*
X20005431Y-27183204D01*
X20148288Y-27135586D01*
X20170663Y-27125595D01*
X20174055Y-27122652D01*
X20178207Y-27120933D01*
X20197149Y-27105388D01*
X20292387Y-27010149D01*
X20300255Y-27000560D01*
X20302747Y-26998400D01*
X20305111Y-26994643D01*
X20307932Y-26991207D01*
X20309196Y-26988155D01*
X20315801Y-26977663D01*
X20363420Y-26882425D01*
X20364103Y-26880639D01*
X20364640Y-26879915D01*
X20368295Y-26869685D01*
X20372178Y-26859539D01*
X20372241Y-26858639D01*
X20372885Y-26856840D01*
X20420504Y-26666364D01*
X20421129Y-26662134D01*
X20421834Y-26660433D01*
X20422738Y-26651253D01*
X20424088Y-26642124D01*
X20423816Y-26640301D01*
X20424236Y-26636047D01*
X20424236Y-26493190D01*
X20423816Y-26488935D01*
X20424088Y-26487113D01*
X20422738Y-26477983D01*
X20421834Y-26468804D01*
X20421129Y-26467102D01*
X20420504Y-26462873D01*
X20372885Y-26272397D01*
X20372241Y-26270597D01*
X20372178Y-26269698D01*
X20368295Y-26259551D01*
X20364640Y-26249322D01*
X20364103Y-26248597D01*
X20363420Y-26246812D01*
X20315801Y-26151574D01*
X20309193Y-26141077D01*
X20307931Y-26138030D01*
X20305114Y-26134598D01*
X20302747Y-26130837D01*
X20300252Y-26128673D01*
X20292386Y-26119088D01*
X20197148Y-26023850D01*
X20178206Y-26008305D01*
X20174056Y-26006586D01*
X20170663Y-26003643D01*
X20148288Y-25993652D01*
X20005431Y-25946034D01*
X19993340Y-25943284D01*
X19990289Y-25942021D01*
X19985866Y-25941585D01*
X19981537Y-25940601D01*
X19978246Y-25940834D01*
X19965903Y-25939619D01*
X19727808Y-25939619D01*
X19703422Y-25942021D01*
X19658362Y-25960685D01*
X19623874Y-25995173D01*
X19605210Y-26040233D01*
X19602808Y-26064619D01*
X19471829Y-26064619D01*
X19471855Y-26064489D01*
X19462290Y-26016662D01*
X19435150Y-25976138D01*
X19394570Y-25949084D01*
X19346725Y-25939619D01*
X19298898Y-25949184D01*
X19258374Y-25976324D01*
X19242849Y-25995282D01*
X19013522Y-26339272D01*
X18784195Y-25995282D01*
X18768670Y-25976324D01*
X18728146Y-25949184D01*
X18680319Y-25939619D01*
X18632474Y-25949084D01*
X18591894Y-25976138D01*
X18564754Y-26016662D01*
X18561554Y-26032660D01*
X18546027Y-25995173D01*
X18511539Y-25960685D01*
X18466479Y-25942021D01*
X18442093Y-25939619D01*
X17870665Y-25939619D01*
X17846279Y-25942021D01*
X17801219Y-25960685D01*
X17766731Y-25995173D01*
X17748067Y-26040233D01*
X17623067Y-26040233D01*
X17623067Y-25814619D01*
X20549236Y-25814619D01*
X20549236Y-27314619D01*
G37*
G36*
X33927776Y-63214619D02*
G01*
X31905533Y-63214619D01*
X31905533Y-62452875D01*
X32030533Y-62452875D01*
X32032351Y-62458900D01*
X32032351Y-62465196D01*
X32039342Y-62482075D01*
X32044621Y-62499569D01*
X32048608Y-62504442D01*
X32051016Y-62510255D01*
X32063931Y-62523170D01*
X32075506Y-62537317D01*
X32081054Y-62540293D01*
X32085503Y-62544742D01*
X32102381Y-62551733D01*
X32118485Y-62560372D01*
X32124746Y-62560998D01*
X32130562Y-62563407D01*
X32148835Y-62563407D01*
X32167015Y-62565225D01*
X32173041Y-62563407D01*
X32179336Y-62563407D01*
X32196215Y-62556415D01*
X32213709Y-62551137D01*
X32218582Y-62547149D01*
X32224395Y-62544742D01*
X32243337Y-62529197D01*
X32276613Y-62495921D01*
X32327315Y-62470571D01*
X32506393Y-62470571D01*
X32557094Y-62495921D01*
X32576026Y-62514854D01*
X32601377Y-62565555D01*
X32601377Y-62744633D01*
X32576025Y-62795336D01*
X32557094Y-62814268D01*
X32506393Y-62839619D01*
X32327315Y-62839619D01*
X32276613Y-62814268D01*
X32243338Y-62780993D01*
X32224396Y-62765447D01*
X32179337Y-62746782D01*
X32130564Y-62746782D01*
X32085504Y-62765446D01*
X32051016Y-62799933D01*
X32032351Y-62844992D01*
X32032351Y-62893765D01*
X32051015Y-62938825D01*
X32066560Y-62957767D01*
X32114179Y-63005387D01*
X32123767Y-63013256D01*
X32125929Y-63015749D01*
X32129683Y-63018112D01*
X32133120Y-63020933D01*
X32136173Y-63022197D01*
X32146666Y-63028803D01*
X32241904Y-63076422D01*
X32264790Y-63085180D01*
X32269270Y-63085498D01*
X32273420Y-63087217D01*
X32297806Y-63089619D01*
X32535901Y-63089619D01*
X32560287Y-63087217D01*
X32564435Y-63085498D01*
X32568917Y-63085180D01*
X32591803Y-63076422D01*
X32687040Y-63028804D01*
X32697536Y-63022196D01*
X32700586Y-63020933D01*
X32704019Y-63018114D01*
X32707778Y-63015749D01*
X32709940Y-63013255D01*
X32719528Y-63005387D01*
X32767147Y-62957768D01*
X32775014Y-62948180D01*
X32777507Y-62946019D01*
X32779873Y-62942259D01*
X32782692Y-62938825D01*
X32783954Y-62935776D01*
X32790561Y-62925282D01*
X32838180Y-62830044D01*
X32846938Y-62807158D01*
X32847256Y-62802677D01*
X32848975Y-62798528D01*
X32851377Y-62774142D01*
X32851377Y-62536047D01*
X32848975Y-62511661D01*
X32847256Y-62507511D01*
X32846938Y-62503031D01*
X32838180Y-62480145D01*
X32790561Y-62384907D01*
X32783954Y-62374412D01*
X32782691Y-62371362D01*
X32779872Y-62367927D01*
X32777507Y-62364170D01*
X32775015Y-62362008D01*
X32767146Y-62352420D01*
X32719527Y-62304802D01*
X32709941Y-62296935D01*
X32707778Y-62294441D01*
X32704016Y-62292072D01*
X32700585Y-62289257D01*
X32697538Y-62287995D01*
X32687040Y-62281386D01*
X32591803Y-62233768D01*
X32568917Y-62225010D01*
X32564435Y-62224691D01*
X32560287Y-62222973D01*
X32535901Y-62220571D01*
X32302597Y-62220571D01*
X32315692Y-62089619D01*
X32678758Y-62089619D01*
X32703144Y-62087217D01*
X32748204Y-62068553D01*
X32782692Y-62034065D01*
X32801356Y-61989005D01*
X32801356Y-61980253D01*
X32888074Y-61980253D01*
X32893507Y-62004147D01*
X33226839Y-63004147D01*
X33236830Y-63026522D01*
X33242680Y-63033268D01*
X33246676Y-63041259D01*
X33258516Y-63051527D01*
X33268785Y-63063368D01*
X33276776Y-63067363D01*
X33283522Y-63073214D01*
X33298387Y-63078169D01*
X33312409Y-63085180D01*
X33321319Y-63085813D01*
X33329791Y-63088637D01*
X33345424Y-63087526D01*
X33361059Y-63088637D01*
X33369530Y-63085813D01*
X33378440Y-63085180D01*
X33392460Y-63078169D01*
X33407328Y-63073214D01*
X33414073Y-63067363D01*
X33422065Y-63063368D01*
X33432336Y-63051524D01*
X33444174Y-63041258D01*
X33448168Y-63033269D01*
X33454020Y-63026522D01*
X33464010Y-63004147D01*
X33797343Y-62004148D01*
X33802776Y-61980254D01*
X33799319Y-61931604D01*
X33777507Y-61887980D01*
X33740661Y-61856024D01*
X33694392Y-61840601D01*
X33645742Y-61844058D01*
X33602118Y-61865870D01*
X33570163Y-61902716D01*
X33560172Y-61925091D01*
X33345424Y-62569334D01*
X33130677Y-61925091D01*
X33120687Y-61902716D01*
X33088732Y-61865870D01*
X33045107Y-61844058D01*
X32996458Y-61840601D01*
X32950189Y-61856024D01*
X32913343Y-61887979D01*
X32891531Y-61931604D01*
X32888074Y-61980253D01*
X32801356Y-61980253D01*
X32801356Y-61940233D01*
X32782692Y-61895173D01*
X32748204Y-61860685D01*
X32703144Y-61842021D01*
X32678758Y-61839619D01*
X32202568Y-61839619D01*
X32193547Y-61840507D01*
X32190502Y-61840203D01*
X32187527Y-61841100D01*
X32178182Y-61842021D01*
X32161300Y-61849013D01*
X32143808Y-61854291D01*
X32138936Y-61858276D01*
X32133122Y-61860685D01*
X32120201Y-61873605D01*
X32106060Y-61885176D01*
X32103084Y-61890722D01*
X32098634Y-61895173D01*
X32091641Y-61912055D01*
X32083005Y-61928155D01*
X32081158Y-61937362D01*
X32079970Y-61940233D01*
X32079970Y-61943292D01*
X32078188Y-61952181D01*
X32030569Y-62428371D01*
X32030533Y-62452875D01*
X31905533Y-62452875D01*
X31905533Y-61714619D01*
X33927776Y-61714619D01*
X33927776Y-63214619D01*
G37*
G36*
X38963616Y-62221491D02*
G01*
X39023644Y-62281519D01*
X39056055Y-62346342D01*
X39096615Y-62508579D01*
X39096615Y-62620658D01*
X39056055Y-62782894D01*
X39023645Y-62847715D01*
X38963615Y-62907746D01*
X38867999Y-62939619D01*
X38775187Y-62939619D01*
X38775187Y-62189619D01*
X38867999Y-62189619D01*
X38963616Y-62221491D01*
G37*
G36*
X39471615Y-63314619D02*
G01*
X36304949Y-63314619D01*
X36304949Y-62493190D01*
X36429949Y-62493190D01*
X36429949Y-62636047D01*
X36430368Y-62640301D01*
X36430097Y-62642123D01*
X36431446Y-62651251D01*
X36432351Y-62660433D01*
X36433055Y-62662134D01*
X36433681Y-62666364D01*
X36481300Y-62856840D01*
X36481943Y-62858639D01*
X36482007Y-62859539D01*
X36485889Y-62869685D01*
X36489545Y-62879915D01*
X36490081Y-62880639D01*
X36490765Y-62882425D01*
X36538383Y-62977662D01*
X36544989Y-62988156D01*
X36546253Y-62991207D01*
X36549073Y-62994643D01*
X36551438Y-62998400D01*
X36553929Y-63000560D01*
X36561798Y-63010149D01*
X36657036Y-63105388D01*
X36675978Y-63120933D01*
X36680129Y-63122652D01*
X36683522Y-63125595D01*
X36705897Y-63135585D01*
X36848753Y-63183204D01*
X36860846Y-63185953D01*
X36863896Y-63187217D01*
X36868317Y-63187652D01*
X36872647Y-63188637D01*
X36875938Y-63188403D01*
X36888282Y-63189619D01*
X36983520Y-63189619D01*
X36995863Y-63188403D01*
X36999154Y-63188637D01*
X37003483Y-63187652D01*
X37007906Y-63187217D01*
X37010957Y-63185953D01*
X37023048Y-63183204D01*
X37165905Y-63135586D01*
X37188280Y-63125595D01*
X37191672Y-63122652D01*
X37195824Y-63120933D01*
X37214766Y-63105387D01*
X37262385Y-63057768D01*
X37277925Y-63038830D01*
X37277930Y-63038826D01*
X37296594Y-62993766D01*
X37298996Y-62969380D01*
X37298996Y-62636047D01*
X37296594Y-62611661D01*
X37277930Y-62566601D01*
X37243442Y-62532113D01*
X37198382Y-62513449D01*
X37173996Y-62511047D01*
X36983520Y-62511047D01*
X36959134Y-62513449D01*
X36914074Y-62532113D01*
X36879586Y-62566601D01*
X36860922Y-62611661D01*
X36860922Y-62660433D01*
X36879586Y-62705493D01*
X36914074Y-62739981D01*
X36959134Y-62758645D01*
X36983520Y-62761047D01*
X37048996Y-62761047D01*
X37048996Y-62911032D01*
X36963237Y-62939619D01*
X36908568Y-62939619D01*
X36812949Y-62907746D01*
X36752918Y-62847715D01*
X36720508Y-62782896D01*
X36679949Y-62620658D01*
X36679949Y-62508579D01*
X36720508Y-62346341D01*
X36752919Y-62281520D01*
X36812947Y-62221491D01*
X36908568Y-62189619D01*
X37001631Y-62189619D01*
X37070475Y-62224041D01*
X37093361Y-62232799D01*
X37142010Y-62236256D01*
X37188281Y-62220833D01*
X37225126Y-62188877D01*
X37246937Y-62145254D01*
X37250395Y-62096604D01*
X37239734Y-62064619D01*
X37477568Y-62064619D01*
X37477568Y-63064619D01*
X37479970Y-63089005D01*
X37498634Y-63134065D01*
X37533122Y-63168553D01*
X37578182Y-63187217D01*
X37626954Y-63187217D01*
X37672014Y-63168553D01*
X37706502Y-63134065D01*
X37725166Y-63089005D01*
X37727568Y-63064619D01*
X37727568Y-62535313D01*
X38065466Y-63126636D01*
X38069112Y-63131773D01*
X38070062Y-63134065D01*
X38072396Y-63136399D01*
X38079650Y-63146618D01*
X38092794Y-63156797D01*
X38104550Y-63168553D01*
X38111910Y-63171601D01*
X38118211Y-63176481D01*
X38134252Y-63180855D01*
X38149610Y-63187217D01*
X38157577Y-63187217D01*
X38165266Y-63189314D01*
X38181761Y-63187217D01*
X38198382Y-63187217D01*
X38205742Y-63184168D01*
X38213649Y-63183163D01*
X38228083Y-63174914D01*
X38243442Y-63168553D01*
X38249076Y-63162918D01*
X38255995Y-63158965D01*
X38266174Y-63145820D01*
X38277930Y-63134065D01*
X38280978Y-63126704D01*
X38285858Y-63120404D01*
X38290233Y-63104361D01*
X38296594Y-63089005D01*
X38297822Y-63076535D01*
X38298691Y-63073350D01*
X38298378Y-63070890D01*
X38298996Y-63064619D01*
X38298996Y-62064619D01*
X38525187Y-62064619D01*
X38525187Y-63064619D01*
X38527589Y-63089005D01*
X38546253Y-63134065D01*
X38580741Y-63168553D01*
X38625801Y-63187217D01*
X38650187Y-63189619D01*
X38888282Y-63189619D01*
X38900625Y-63188403D01*
X38903916Y-63188637D01*
X38908245Y-63187652D01*
X38912668Y-63187217D01*
X38915719Y-63185953D01*
X38927810Y-63183204D01*
X39070667Y-63135586D01*
X39093042Y-63125595D01*
X39096434Y-63122652D01*
X39100586Y-63120933D01*
X39119528Y-63105388D01*
X39214766Y-63010149D01*
X39222634Y-63000560D01*
X39225126Y-62998400D01*
X39227490Y-62994643D01*
X39230311Y-62991207D01*
X39231575Y-62988155D01*
X39238180Y-62977663D01*
X39285799Y-62882425D01*
X39286482Y-62880639D01*
X39287019Y-62879915D01*
X39290674Y-62869685D01*
X39294557Y-62859539D01*
X39294620Y-62858639D01*
X39295264Y-62856840D01*
X39342883Y-62666364D01*
X39343508Y-62662134D01*
X39344213Y-62660433D01*
X39345117Y-62651253D01*
X39346467Y-62642124D01*
X39346195Y-62640301D01*
X39346615Y-62636047D01*
X39346615Y-62493190D01*
X39346195Y-62488935D01*
X39346467Y-62487113D01*
X39345117Y-62477983D01*
X39344213Y-62468804D01*
X39343508Y-62467102D01*
X39342883Y-62462873D01*
X39295264Y-62272397D01*
X39294620Y-62270597D01*
X39294557Y-62269698D01*
X39290674Y-62259551D01*
X39287019Y-62249322D01*
X39286482Y-62248597D01*
X39285799Y-62246812D01*
X39238180Y-62151574D01*
X39231572Y-62141077D01*
X39230310Y-62138030D01*
X39227493Y-62134598D01*
X39225126Y-62130837D01*
X39222631Y-62128673D01*
X39214765Y-62119088D01*
X39119527Y-62023850D01*
X39100585Y-62008305D01*
X39096435Y-62006586D01*
X39093042Y-62003643D01*
X39070667Y-61993652D01*
X38927810Y-61946034D01*
X38915719Y-61943284D01*
X38912668Y-61942021D01*
X38908245Y-61941585D01*
X38903916Y-61940601D01*
X38900625Y-61940834D01*
X38888282Y-61939619D01*
X38650187Y-61939619D01*
X38625801Y-61942021D01*
X38580741Y-61960685D01*
X38546253Y-61995173D01*
X38527589Y-62040233D01*
X38525187Y-62064619D01*
X38298996Y-62064619D01*
X38296594Y-62040233D01*
X38277930Y-61995173D01*
X38243442Y-61960685D01*
X38198382Y-61942021D01*
X38149610Y-61942021D01*
X38104550Y-61960685D01*
X38070062Y-61995173D01*
X38051398Y-62040233D01*
X38048996Y-62064619D01*
X38048996Y-62593923D01*
X37711098Y-62002602D01*
X37707451Y-61997464D01*
X37706502Y-61995173D01*
X37704167Y-61992838D01*
X37696914Y-61982620D01*
X37683769Y-61972440D01*
X37672014Y-61960685D01*
X37664653Y-61957636D01*
X37658353Y-61952757D01*
X37642311Y-61948382D01*
X37626954Y-61942021D01*
X37618987Y-61942021D01*
X37611298Y-61939924D01*
X37594803Y-61942021D01*
X37578182Y-61942021D01*
X37570821Y-61945069D01*
X37562915Y-61946075D01*
X37548480Y-61954323D01*
X37533122Y-61960685D01*
X37527487Y-61966319D01*
X37520569Y-61970273D01*
X37510389Y-61983417D01*
X37498634Y-61995173D01*
X37495585Y-62002533D01*
X37490706Y-62008834D01*
X37486331Y-62024875D01*
X37479970Y-62040233D01*
X37478741Y-62052704D01*
X37477873Y-62055889D01*
X37478185Y-62058348D01*
X37477568Y-62064619D01*
X37239734Y-62064619D01*
X37234972Y-62050334D01*
X37203016Y-62013489D01*
X37182278Y-62000434D01*
X37087041Y-61952816D01*
X37064155Y-61944058D01*
X37059673Y-61943739D01*
X37055525Y-61942021D01*
X37031139Y-61939619D01*
X36888282Y-61939619D01*
X36875938Y-61940834D01*
X36872647Y-61940601D01*
X36868317Y-61941585D01*
X36863896Y-61942021D01*
X36860846Y-61943284D01*
X36848753Y-61946034D01*
X36705897Y-61993653D01*
X36683522Y-62003643D01*
X36680128Y-62006586D01*
X36675979Y-62008305D01*
X36657037Y-62023850D01*
X36561799Y-62119088D01*
X36553932Y-62128673D01*
X36551438Y-62130837D01*
X36549069Y-62134598D01*
X36546254Y-62138030D01*
X36544992Y-62141076D01*
X36538383Y-62151575D01*
X36490765Y-62246812D01*
X36490081Y-62248597D01*
X36489545Y-62249322D01*
X36485889Y-62259551D01*
X36482007Y-62269698D01*
X36481943Y-62270597D01*
X36481300Y-62272397D01*
X36433681Y-62462873D01*
X36433055Y-62467102D01*
X36432351Y-62468804D01*
X36431446Y-62477985D01*
X36430097Y-62487114D01*
X36430368Y-62488935D01*
X36429949Y-62493190D01*
X36304949Y-62493190D01*
X36304949Y-61814619D01*
X39471615Y-61814619D01*
X39471615Y-63314619D01*
G37*
D11*
X34982214Y-42262212D02*
X34934595Y-42309832D01*
X34934595Y-42309832D02*
X34791738Y-42357451D01*
X34791738Y-42357451D02*
X34696500Y-42357451D01*
X34696500Y-42357451D02*
X34553643Y-42309832D01*
X34553643Y-42309832D02*
X34458405Y-42214593D01*
X34458405Y-42214593D02*
X34410786Y-42119355D01*
X34410786Y-42119355D02*
X34363167Y-41928879D01*
X34363167Y-41928879D02*
X34363167Y-41786022D01*
X34363167Y-41786022D02*
X34410786Y-41595546D01*
X34410786Y-41595546D02*
X34458405Y-41500308D01*
X34458405Y-41500308D02*
X34553643Y-41405070D01*
X34553643Y-41405070D02*
X34696500Y-41357451D01*
X34696500Y-41357451D02*
X34791738Y-41357451D01*
X34791738Y-41357451D02*
X34934595Y-41405070D01*
X34934595Y-41405070D02*
X34982214Y-41452689D01*
X35934595Y-42357451D02*
X35363167Y-42357451D01*
X35648881Y-42357451D02*
X35648881Y-41357451D01*
X35648881Y-41357451D02*
X35553643Y-41500308D01*
X35553643Y-41500308D02*
X35458405Y-41595546D01*
X35458405Y-41595546D02*
X35363167Y-41643165D01*
X36267929Y-41357451D02*
X36886976Y-41357451D01*
X36886976Y-41357451D02*
X36553643Y-41738403D01*
X36553643Y-41738403D02*
X36696500Y-41738403D01*
X36696500Y-41738403D02*
X36791738Y-41786022D01*
X36791738Y-41786022D02*
X36839357Y-41833641D01*
X36839357Y-41833641D02*
X36886976Y-41928879D01*
X36886976Y-41928879D02*
X36886976Y-42166974D01*
X36886976Y-42166974D02*
X36839357Y-42262212D01*
X36839357Y-42262212D02*
X36791738Y-42309832D01*
X36791738Y-42309832D02*
X36696500Y-42357451D01*
X36696500Y-42357451D02*
X36410786Y-42357451D01*
X36410786Y-42357451D02*
X36315548Y-42309832D01*
X36315548Y-42309832D02*
X36267929Y-42262212D01*
D12*
X23678095Y-68997419D02*
X23678095Y-69806942D01*
X23678095Y-69806942D02*
X23725714Y-69902180D01*
X23725714Y-69902180D02*
X23773333Y-69949800D01*
X23773333Y-69949800D02*
X23868571Y-69997419D01*
X23868571Y-69997419D02*
X24059047Y-69997419D01*
X24059047Y-69997419D02*
X24154285Y-69949800D01*
X24154285Y-69949800D02*
X24201904Y-69902180D01*
X24201904Y-69902180D02*
X24249523Y-69806942D01*
X24249523Y-69806942D02*
X24249523Y-68997419D01*
X25154285Y-69330752D02*
X25154285Y-69997419D01*
X24916190Y-68949800D02*
X24678095Y-69664085D01*
X24678095Y-69664085D02*
X25297142Y-69664085D01*
D11*
X29682020Y-44867929D02*
X29729640Y-44915548D01*
X29729640Y-44915548D02*
X29777259Y-45058405D01*
X29777259Y-45058405D02*
X29777259Y-45153643D01*
X29777259Y-45153643D02*
X29729640Y-45296500D01*
X29729640Y-45296500D02*
X29634401Y-45391738D01*
X29634401Y-45391738D02*
X29539163Y-45439357D01*
X29539163Y-45439357D02*
X29348687Y-45486976D01*
X29348687Y-45486976D02*
X29205830Y-45486976D01*
X29205830Y-45486976D02*
X29015354Y-45439357D01*
X29015354Y-45439357D02*
X28920116Y-45391738D01*
X28920116Y-45391738D02*
X28824878Y-45296500D01*
X28824878Y-45296500D02*
X28777259Y-45153643D01*
X28777259Y-45153643D02*
X28777259Y-45058405D01*
X28777259Y-45058405D02*
X28824878Y-44915548D01*
X28824878Y-44915548D02*
X28872497Y-44867929D01*
X29777259Y-43915548D02*
X29777259Y-44486976D01*
X29777259Y-44201262D02*
X28777259Y-44201262D01*
X28777259Y-44201262D02*
X28920116Y-44296500D01*
X28920116Y-44296500D02*
X29015354Y-44391738D01*
X29015354Y-44391738D02*
X29062973Y-44486976D01*
X28777259Y-43296500D02*
X28777259Y-43201262D01*
X28777259Y-43201262D02*
X28824878Y-43106024D01*
X28824878Y-43106024D02*
X28872497Y-43058405D01*
X28872497Y-43058405D02*
X28967735Y-43010786D01*
X28967735Y-43010786D02*
X29158211Y-42963167D01*
X29158211Y-42963167D02*
X29396306Y-42963167D01*
X29396306Y-42963167D02*
X29586782Y-43010786D01*
X29586782Y-43010786D02*
X29682020Y-43058405D01*
X29682020Y-43058405D02*
X29729640Y-43106024D01*
X29729640Y-43106024D02*
X29777259Y-43201262D01*
X29777259Y-43201262D02*
X29777259Y-43296500D01*
X29777259Y-43296500D02*
X29729640Y-43391738D01*
X29729640Y-43391738D02*
X29682020Y-43439357D01*
X29682020Y-43439357D02*
X29586782Y-43486976D01*
X29586782Y-43486976D02*
X29396306Y-43534595D01*
X29396306Y-43534595D02*
X29158211Y-43534595D01*
X29158211Y-43534595D02*
X28967735Y-43486976D01*
X28967735Y-43486976D02*
X28872497Y-43439357D01*
X28872497Y-43439357D02*
X28824878Y-43391738D01*
X28824878Y-43391738D02*
X28777259Y-43296500D01*
X26082212Y-53839154D02*
X26129832Y-53886773D01*
X26129832Y-53886773D02*
X26177451Y-54029630D01*
X26177451Y-54029630D02*
X26177451Y-54124868D01*
X26177451Y-54124868D02*
X26129832Y-54267725D01*
X26129832Y-54267725D02*
X26034593Y-54362963D01*
X26034593Y-54362963D02*
X25939355Y-54410582D01*
X25939355Y-54410582D02*
X25748879Y-54458201D01*
X25748879Y-54458201D02*
X25606022Y-54458201D01*
X25606022Y-54458201D02*
X25415546Y-54410582D01*
X25415546Y-54410582D02*
X25320308Y-54362963D01*
X25320308Y-54362963D02*
X25225070Y-54267725D01*
X25225070Y-54267725D02*
X25177451Y-54124868D01*
X25177451Y-54124868D02*
X25177451Y-54029630D01*
X25177451Y-54029630D02*
X25225070Y-53886773D01*
X25225070Y-53886773D02*
X25272689Y-53839154D01*
X25177451Y-52982011D02*
X25177451Y-53172487D01*
X25177451Y-53172487D02*
X25225070Y-53267725D01*
X25225070Y-53267725D02*
X25272689Y-53315344D01*
X25272689Y-53315344D02*
X25415546Y-53410582D01*
X25415546Y-53410582D02*
X25606022Y-53458201D01*
X25606022Y-53458201D02*
X25986974Y-53458201D01*
X25986974Y-53458201D02*
X26082212Y-53410582D01*
X26082212Y-53410582D02*
X26129832Y-53362963D01*
X26129832Y-53362963D02*
X26177451Y-53267725D01*
X26177451Y-53267725D02*
X26177451Y-53077249D01*
X26177451Y-53077249D02*
X26129832Y-52982011D01*
X26129832Y-52982011D02*
X26082212Y-52934392D01*
X26082212Y-52934392D02*
X25986974Y-52886773D01*
X25986974Y-52886773D02*
X25748879Y-52886773D01*
X25748879Y-52886773D02*
X25653641Y-52934392D01*
X25653641Y-52934392D02*
X25606022Y-52982011D01*
X25606022Y-52982011D02*
X25558403Y-53077249D01*
X25558403Y-53077249D02*
X25558403Y-53267725D01*
X25558403Y-53267725D02*
X25606022Y-53362963D01*
X25606022Y-53362963D02*
X25653641Y-53410582D01*
X25653641Y-53410582D02*
X25748879Y-53458201D01*
X35895869Y-48562116D02*
X35848250Y-48609736D01*
X35848250Y-48609736D02*
X35705393Y-48657355D01*
X35705393Y-48657355D02*
X35610155Y-48657355D01*
X35610155Y-48657355D02*
X35467298Y-48609736D01*
X35467298Y-48609736D02*
X35372060Y-48514497D01*
X35372060Y-48514497D02*
X35324441Y-48419259D01*
X35324441Y-48419259D02*
X35276822Y-48228783D01*
X35276822Y-48228783D02*
X35276822Y-48085926D01*
X35276822Y-48085926D02*
X35324441Y-47895450D01*
X35324441Y-47895450D02*
X35372060Y-47800212D01*
X35372060Y-47800212D02*
X35467298Y-47704974D01*
X35467298Y-47704974D02*
X35610155Y-47657355D01*
X35610155Y-47657355D02*
X35705393Y-47657355D01*
X35705393Y-47657355D02*
X35848250Y-47704974D01*
X35848250Y-47704974D02*
X35895869Y-47752593D01*
X36372060Y-48657355D02*
X36562536Y-48657355D01*
X36562536Y-48657355D02*
X36657774Y-48609736D01*
X36657774Y-48609736D02*
X36705393Y-48562116D01*
X36705393Y-48562116D02*
X36800631Y-48419259D01*
X36800631Y-48419259D02*
X36848250Y-48228783D01*
X36848250Y-48228783D02*
X36848250Y-47847831D01*
X36848250Y-47847831D02*
X36800631Y-47752593D01*
X36800631Y-47752593D02*
X36753012Y-47704974D01*
X36753012Y-47704974D02*
X36657774Y-47657355D01*
X36657774Y-47657355D02*
X36467298Y-47657355D01*
X36467298Y-47657355D02*
X36372060Y-47704974D01*
X36372060Y-47704974D02*
X36324441Y-47752593D01*
X36324441Y-47752593D02*
X36276822Y-47847831D01*
X36276822Y-47847831D02*
X36276822Y-48085926D01*
X36276822Y-48085926D02*
X36324441Y-48181164D01*
X36324441Y-48181164D02*
X36372060Y-48228783D01*
X36372060Y-48228783D02*
X36467298Y-48276402D01*
X36467298Y-48276402D02*
X36657774Y-48276402D01*
X36657774Y-48276402D02*
X36753012Y-48228783D01*
X36753012Y-48228783D02*
X36800631Y-48181164D01*
X36800631Y-48181164D02*
X36848250Y-48085926D01*
X26361905Y-73883569D02*
X26361905Y-74693092D01*
X26361905Y-74693092D02*
X26409524Y-74788330D01*
X26409524Y-74788330D02*
X26457143Y-74835950D01*
X26457143Y-74835950D02*
X26552381Y-74883569D01*
X26552381Y-74883569D02*
X26742857Y-74883569D01*
X26742857Y-74883569D02*
X26838095Y-74835950D01*
X26838095Y-74835950D02*
X26885714Y-74788330D01*
X26885714Y-74788330D02*
X26933333Y-74693092D01*
X26933333Y-74693092D02*
X26933333Y-73883569D01*
X27361905Y-74835950D02*
X27504762Y-74883569D01*
X27504762Y-74883569D02*
X27742857Y-74883569D01*
X27742857Y-74883569D02*
X27838095Y-74835950D01*
X27838095Y-74835950D02*
X27885714Y-74788330D01*
X27885714Y-74788330D02*
X27933333Y-74693092D01*
X27933333Y-74693092D02*
X27933333Y-74597854D01*
X27933333Y-74597854D02*
X27885714Y-74502616D01*
X27885714Y-74502616D02*
X27838095Y-74454997D01*
X27838095Y-74454997D02*
X27742857Y-74407378D01*
X27742857Y-74407378D02*
X27552381Y-74359759D01*
X27552381Y-74359759D02*
X27457143Y-74312140D01*
X27457143Y-74312140D02*
X27409524Y-74264521D01*
X27409524Y-74264521D02*
X27361905Y-74169283D01*
X27361905Y-74169283D02*
X27361905Y-74074045D01*
X27361905Y-74074045D02*
X27409524Y-73978807D01*
X27409524Y-73978807D02*
X27457143Y-73931188D01*
X27457143Y-73931188D02*
X27552381Y-73883569D01*
X27552381Y-73883569D02*
X27790476Y-73883569D01*
X27790476Y-73883569D02*
X27933333Y-73931188D01*
X28695238Y-74359759D02*
X28838095Y-74407378D01*
X28838095Y-74407378D02*
X28885714Y-74454997D01*
X28885714Y-74454997D02*
X28933333Y-74550235D01*
X28933333Y-74550235D02*
X28933333Y-74693092D01*
X28933333Y-74693092D02*
X28885714Y-74788330D01*
X28885714Y-74788330D02*
X28838095Y-74835950D01*
X28838095Y-74835950D02*
X28742857Y-74883569D01*
X28742857Y-74883569D02*
X28361905Y-74883569D01*
X28361905Y-74883569D02*
X28361905Y-73883569D01*
X28361905Y-73883569D02*
X28695238Y-73883569D01*
X28695238Y-73883569D02*
X28790476Y-73931188D01*
X28790476Y-73931188D02*
X28838095Y-73978807D01*
X28838095Y-73978807D02*
X28885714Y-74074045D01*
X28885714Y-74074045D02*
X28885714Y-74169283D01*
X28885714Y-74169283D02*
X28838095Y-74264521D01*
X28838095Y-74264521D02*
X28790476Y-74312140D01*
X28790476Y-74312140D02*
X28695238Y-74359759D01*
X28695238Y-74359759D02*
X28361905Y-74359759D01*
X29885714Y-74883569D02*
X29314286Y-74883569D01*
X29600000Y-74883569D02*
X29600000Y-73883569D01*
X29600000Y-73883569D02*
X29504762Y-74026426D01*
X29504762Y-74026426D02*
X29409524Y-74121664D01*
X29409524Y-74121664D02*
X29314286Y-74169283D01*
X42234580Y-38812881D02*
X42282200Y-38860500D01*
X42282200Y-38860500D02*
X42329819Y-39003357D01*
X42329819Y-39003357D02*
X42329819Y-39098595D01*
X42329819Y-39098595D02*
X42282200Y-39241452D01*
X42282200Y-39241452D02*
X42186961Y-39336690D01*
X42186961Y-39336690D02*
X42091723Y-39384309D01*
X42091723Y-39384309D02*
X41901247Y-39431928D01*
X41901247Y-39431928D02*
X41758390Y-39431928D01*
X41758390Y-39431928D02*
X41567914Y-39384309D01*
X41567914Y-39384309D02*
X41472676Y-39336690D01*
X41472676Y-39336690D02*
X41377438Y-39241452D01*
X41377438Y-39241452D02*
X41329819Y-39098595D01*
X41329819Y-39098595D02*
X41329819Y-39003357D01*
X41329819Y-39003357D02*
X41377438Y-38860500D01*
X41377438Y-38860500D02*
X41425057Y-38812881D01*
X42329819Y-37860500D02*
X42329819Y-38431928D01*
X42329819Y-38146214D02*
X41329819Y-38146214D01*
X41329819Y-38146214D02*
X41472676Y-38241452D01*
X41472676Y-38241452D02*
X41567914Y-38336690D01*
X41567914Y-38336690D02*
X41615533Y-38431928D01*
X42329819Y-37384309D02*
X42329819Y-37193833D01*
X42329819Y-37193833D02*
X42282200Y-37098595D01*
X42282200Y-37098595D02*
X42234580Y-37050976D01*
X42234580Y-37050976D02*
X42091723Y-36955738D01*
X42091723Y-36955738D02*
X41901247Y-36908119D01*
X41901247Y-36908119D02*
X41520295Y-36908119D01*
X41520295Y-36908119D02*
X41425057Y-36955738D01*
X41425057Y-36955738D02*
X41377438Y-37003357D01*
X41377438Y-37003357D02*
X41329819Y-37098595D01*
X41329819Y-37098595D02*
X41329819Y-37289071D01*
X41329819Y-37289071D02*
X41377438Y-37384309D01*
X41377438Y-37384309D02*
X41425057Y-37431928D01*
X41425057Y-37431928D02*
X41520295Y-37479547D01*
X41520295Y-37479547D02*
X41758390Y-37479547D01*
X41758390Y-37479547D02*
X41853628Y-37431928D01*
X41853628Y-37431928D02*
X41901247Y-37384309D01*
X41901247Y-37384309D02*
X41948866Y-37289071D01*
X41948866Y-37289071D02*
X41948866Y-37098595D01*
X41948866Y-37098595D02*
X41901247Y-37003357D01*
X41901247Y-37003357D02*
X41853628Y-36955738D01*
X41853628Y-36955738D02*
X41758390Y-36908119D01*
X34852262Y-50237140D02*
X34804643Y-50284760D01*
X34804643Y-50284760D02*
X34661786Y-50332379D01*
X34661786Y-50332379D02*
X34566548Y-50332379D01*
X34566548Y-50332379D02*
X34423691Y-50284760D01*
X34423691Y-50284760D02*
X34328453Y-50189521D01*
X34328453Y-50189521D02*
X34280834Y-50094283D01*
X34280834Y-50094283D02*
X34233215Y-49903807D01*
X34233215Y-49903807D02*
X34233215Y-49760950D01*
X34233215Y-49760950D02*
X34280834Y-49570474D01*
X34280834Y-49570474D02*
X34328453Y-49475236D01*
X34328453Y-49475236D02*
X34423691Y-49379998D01*
X34423691Y-49379998D02*
X34566548Y-49332379D01*
X34566548Y-49332379D02*
X34661786Y-49332379D01*
X34661786Y-49332379D02*
X34804643Y-49379998D01*
X34804643Y-49379998D02*
X34852262Y-49427617D01*
X35804643Y-50332379D02*
X35233215Y-50332379D01*
X35518929Y-50332379D02*
X35518929Y-49332379D01*
X35518929Y-49332379D02*
X35423691Y-49475236D01*
X35423691Y-49475236D02*
X35328453Y-49570474D01*
X35328453Y-49570474D02*
X35233215Y-49618093D01*
X36137977Y-49332379D02*
X36804643Y-49332379D01*
X36804643Y-49332379D02*
X36376072Y-50332379D01*
X42379819Y-25066666D02*
X41903628Y-25399999D01*
X42379819Y-25638094D02*
X41379819Y-25638094D01*
X41379819Y-25638094D02*
X41379819Y-25257142D01*
X41379819Y-25257142D02*
X41427438Y-25161904D01*
X41427438Y-25161904D02*
X41475057Y-25114285D01*
X41475057Y-25114285D02*
X41570295Y-25066666D01*
X41570295Y-25066666D02*
X41713152Y-25066666D01*
X41713152Y-25066666D02*
X41808390Y-25114285D01*
X41808390Y-25114285D02*
X41856009Y-25161904D01*
X41856009Y-25161904D02*
X41903628Y-25257142D01*
X41903628Y-25257142D02*
X41903628Y-25638094D01*
X42379819Y-24114285D02*
X42379819Y-24685713D01*
X42379819Y-24399999D02*
X41379819Y-24399999D01*
X41379819Y-24399999D02*
X41522676Y-24495237D01*
X41522676Y-24495237D02*
X41617914Y-24590475D01*
X41617914Y-24590475D02*
X41665533Y-24685713D01*
D12*
X40938095Y-59197419D02*
X40938095Y-60006942D01*
X40938095Y-60006942D02*
X40985714Y-60102180D01*
X40985714Y-60102180D02*
X41033333Y-60149800D01*
X41033333Y-60149800D02*
X41128571Y-60197419D01*
X41128571Y-60197419D02*
X41319047Y-60197419D01*
X41319047Y-60197419D02*
X41414285Y-60149800D01*
X41414285Y-60149800D02*
X41461904Y-60102180D01*
X41461904Y-60102180D02*
X41509523Y-60006942D01*
X41509523Y-60006942D02*
X41509523Y-59197419D01*
X41890476Y-59197419D02*
X42557142Y-59197419D01*
X42557142Y-59197419D02*
X42128571Y-60197419D01*
D11*
X18914604Y-44845297D02*
X18962224Y-44892916D01*
X18962224Y-44892916D02*
X19009843Y-45035773D01*
X19009843Y-45035773D02*
X19009843Y-45131011D01*
X19009843Y-45131011D02*
X18962224Y-45273868D01*
X18962224Y-45273868D02*
X18866985Y-45369106D01*
X18866985Y-45369106D02*
X18771747Y-45416725D01*
X18771747Y-45416725D02*
X18581271Y-45464344D01*
X18581271Y-45464344D02*
X18438414Y-45464344D01*
X18438414Y-45464344D02*
X18247938Y-45416725D01*
X18247938Y-45416725D02*
X18152700Y-45369106D01*
X18152700Y-45369106D02*
X18057462Y-45273868D01*
X18057462Y-45273868D02*
X18009843Y-45131011D01*
X18009843Y-45131011D02*
X18009843Y-45035773D01*
X18009843Y-45035773D02*
X18057462Y-44892916D01*
X18057462Y-44892916D02*
X18105081Y-44845297D01*
X19009843Y-43892916D02*
X19009843Y-44464344D01*
X19009843Y-44178630D02*
X18009843Y-44178630D01*
X18009843Y-44178630D02*
X18152700Y-44273868D01*
X18152700Y-44273868D02*
X18247938Y-44369106D01*
X18247938Y-44369106D02*
X18295557Y-44464344D01*
X18009843Y-42988154D02*
X18009843Y-43464344D01*
X18009843Y-43464344D02*
X18486033Y-43511963D01*
X18486033Y-43511963D02*
X18438414Y-43464344D01*
X18438414Y-43464344D02*
X18390795Y-43369106D01*
X18390795Y-43369106D02*
X18390795Y-43131011D01*
X18390795Y-43131011D02*
X18438414Y-43035773D01*
X18438414Y-43035773D02*
X18486033Y-42988154D01*
X18486033Y-42988154D02*
X18581271Y-42940535D01*
X18581271Y-42940535D02*
X18819366Y-42940535D01*
X18819366Y-42940535D02*
X18914604Y-42988154D01*
X18914604Y-42988154D02*
X18962224Y-43035773D01*
X18962224Y-43035773D02*
X19009843Y-43131011D01*
X19009843Y-43131011D02*
X19009843Y-43369106D01*
X19009843Y-43369106D02*
X18962224Y-43464344D01*
X18962224Y-43464344D02*
X18914604Y-43511963D01*
X34393333Y-66309819D02*
X34060000Y-65833628D01*
X33821905Y-66309819D02*
X33821905Y-65309819D01*
X33821905Y-65309819D02*
X34202857Y-65309819D01*
X34202857Y-65309819D02*
X34298095Y-65357438D01*
X34298095Y-65357438D02*
X34345714Y-65405057D01*
X34345714Y-65405057D02*
X34393333Y-65500295D01*
X34393333Y-65500295D02*
X34393333Y-65643152D01*
X34393333Y-65643152D02*
X34345714Y-65738390D01*
X34345714Y-65738390D02*
X34298095Y-65786009D01*
X34298095Y-65786009D02*
X34202857Y-65833628D01*
X34202857Y-65833628D02*
X33821905Y-65833628D01*
X34774286Y-65405057D02*
X34821905Y-65357438D01*
X34821905Y-65357438D02*
X34917143Y-65309819D01*
X34917143Y-65309819D02*
X35155238Y-65309819D01*
X35155238Y-65309819D02*
X35250476Y-65357438D01*
X35250476Y-65357438D02*
X35298095Y-65405057D01*
X35298095Y-65405057D02*
X35345714Y-65500295D01*
X35345714Y-65500295D02*
X35345714Y-65595533D01*
X35345714Y-65595533D02*
X35298095Y-65738390D01*
X35298095Y-65738390D02*
X34726667Y-66309819D01*
X34726667Y-66309819D02*
X35345714Y-66309819D01*
X27906996Y-44905393D02*
X27954616Y-44953012D01*
X27954616Y-44953012D02*
X28002235Y-45095869D01*
X28002235Y-45095869D02*
X28002235Y-45191107D01*
X28002235Y-45191107D02*
X27954616Y-45333964D01*
X27954616Y-45333964D02*
X27859377Y-45429202D01*
X27859377Y-45429202D02*
X27764139Y-45476821D01*
X27764139Y-45476821D02*
X27573663Y-45524440D01*
X27573663Y-45524440D02*
X27430806Y-45524440D01*
X27430806Y-45524440D02*
X27240330Y-45476821D01*
X27240330Y-45476821D02*
X27145092Y-45429202D01*
X27145092Y-45429202D02*
X27049854Y-45333964D01*
X27049854Y-45333964D02*
X27002235Y-45191107D01*
X27002235Y-45191107D02*
X27002235Y-45095869D01*
X27002235Y-45095869D02*
X27049854Y-44953012D01*
X27049854Y-44953012D02*
X27097473Y-44905393D01*
X28002235Y-43953012D02*
X28002235Y-44524440D01*
X28002235Y-44238726D02*
X27002235Y-44238726D01*
X27002235Y-44238726D02*
X27145092Y-44333964D01*
X27145092Y-44333964D02*
X27240330Y-44429202D01*
X27240330Y-44429202D02*
X27287949Y-44524440D01*
X28002235Y-43000631D02*
X28002235Y-43572059D01*
X28002235Y-43286345D02*
X27002235Y-43286345D01*
X27002235Y-43286345D02*
X27145092Y-43381583D01*
X27145092Y-43381583D02*
X27240330Y-43476821D01*
X27240330Y-43476821D02*
X27287949Y-43572059D01*
X34957142Y-44031972D02*
X34909523Y-44079592D01*
X34909523Y-44079592D02*
X34766666Y-44127211D01*
X34766666Y-44127211D02*
X34671428Y-44127211D01*
X34671428Y-44127211D02*
X34528571Y-44079592D01*
X34528571Y-44079592D02*
X34433333Y-43984353D01*
X34433333Y-43984353D02*
X34385714Y-43889115D01*
X34385714Y-43889115D02*
X34338095Y-43698639D01*
X34338095Y-43698639D02*
X34338095Y-43555782D01*
X34338095Y-43555782D02*
X34385714Y-43365306D01*
X34385714Y-43365306D02*
X34433333Y-43270068D01*
X34433333Y-43270068D02*
X34528571Y-43174830D01*
X34528571Y-43174830D02*
X34671428Y-43127211D01*
X34671428Y-43127211D02*
X34766666Y-43127211D01*
X34766666Y-43127211D02*
X34909523Y-43174830D01*
X34909523Y-43174830D02*
X34957142Y-43222449D01*
X35909523Y-44127211D02*
X35338095Y-44127211D01*
X35623809Y-44127211D02*
X35623809Y-43127211D01*
X35623809Y-43127211D02*
X35528571Y-43270068D01*
X35528571Y-43270068D02*
X35433333Y-43365306D01*
X35433333Y-43365306D02*
X35338095Y-43412925D01*
X36290476Y-43222449D02*
X36338095Y-43174830D01*
X36338095Y-43174830D02*
X36433333Y-43127211D01*
X36433333Y-43127211D02*
X36671428Y-43127211D01*
X36671428Y-43127211D02*
X36766666Y-43174830D01*
X36766666Y-43174830D02*
X36814285Y-43222449D01*
X36814285Y-43222449D02*
X36861904Y-43317687D01*
X36861904Y-43317687D02*
X36861904Y-43412925D01*
X36861904Y-43412925D02*
X36814285Y-43555782D01*
X36814285Y-43555782D02*
X36242857Y-44127211D01*
X36242857Y-44127211D02*
X36861904Y-44127211D01*
X22138095Y-34464819D02*
X22138095Y-35274342D01*
X22138095Y-35274342D02*
X22185714Y-35369580D01*
X22185714Y-35369580D02*
X22233333Y-35417200D01*
X22233333Y-35417200D02*
X22328571Y-35464819D01*
X22328571Y-35464819D02*
X22519047Y-35464819D01*
X22519047Y-35464819D02*
X22614285Y-35417200D01*
X22614285Y-35417200D02*
X22661904Y-35369580D01*
X22661904Y-35369580D02*
X22709523Y-35274342D01*
X22709523Y-35274342D02*
X22709523Y-34464819D01*
X23709523Y-35464819D02*
X23138095Y-35464819D01*
X23423809Y-35464819D02*
X23423809Y-34464819D01*
X23423809Y-34464819D02*
X23328571Y-34607676D01*
X23328571Y-34607676D02*
X23233333Y-34702914D01*
X23233333Y-34702914D02*
X23138095Y-34750533D01*
X24287188Y-53939154D02*
X24334808Y-53986773D01*
X24334808Y-53986773D02*
X24382427Y-54129630D01*
X24382427Y-54129630D02*
X24382427Y-54224868D01*
X24382427Y-54224868D02*
X24334808Y-54367725D01*
X24334808Y-54367725D02*
X24239569Y-54462963D01*
X24239569Y-54462963D02*
X24144331Y-54510582D01*
X24144331Y-54510582D02*
X23953855Y-54558201D01*
X23953855Y-54558201D02*
X23810998Y-54558201D01*
X23810998Y-54558201D02*
X23620522Y-54510582D01*
X23620522Y-54510582D02*
X23525284Y-54462963D01*
X23525284Y-54462963D02*
X23430046Y-54367725D01*
X23430046Y-54367725D02*
X23382427Y-54224868D01*
X23382427Y-54224868D02*
X23382427Y-54129630D01*
X23382427Y-54129630D02*
X23430046Y-53986773D01*
X23430046Y-53986773D02*
X23477665Y-53939154D01*
X23382427Y-53034392D02*
X23382427Y-53510582D01*
X23382427Y-53510582D02*
X23858617Y-53558201D01*
X23858617Y-53558201D02*
X23810998Y-53510582D01*
X23810998Y-53510582D02*
X23763379Y-53415344D01*
X23763379Y-53415344D02*
X23763379Y-53177249D01*
X23763379Y-53177249D02*
X23810998Y-53082011D01*
X23810998Y-53082011D02*
X23858617Y-53034392D01*
X23858617Y-53034392D02*
X23953855Y-52986773D01*
X23953855Y-52986773D02*
X24191950Y-52986773D01*
X24191950Y-52986773D02*
X24287188Y-53034392D01*
X24287188Y-53034392D02*
X24334808Y-53082011D01*
X24334808Y-53082011D02*
X24382427Y-53177249D01*
X24382427Y-53177249D02*
X24382427Y-53415344D01*
X24382427Y-53415344D02*
X24334808Y-53510582D01*
X24334808Y-53510582D02*
X24287188Y-53558201D01*
X22514892Y-51211642D02*
X22562512Y-51259261D01*
X22562512Y-51259261D02*
X22610131Y-51402118D01*
X22610131Y-51402118D02*
X22610131Y-51497356D01*
X22610131Y-51497356D02*
X22562512Y-51640213D01*
X22562512Y-51640213D02*
X22467273Y-51735451D01*
X22467273Y-51735451D02*
X22372035Y-51783070D01*
X22372035Y-51783070D02*
X22181559Y-51830689D01*
X22181559Y-51830689D02*
X22038702Y-51830689D01*
X22038702Y-51830689D02*
X21848226Y-51783070D01*
X21848226Y-51783070D02*
X21752988Y-51735451D01*
X21752988Y-51735451D02*
X21657750Y-51640213D01*
X21657750Y-51640213D02*
X21610131Y-51497356D01*
X21610131Y-51497356D02*
X21610131Y-51402118D01*
X21610131Y-51402118D02*
X21657750Y-51259261D01*
X21657750Y-51259261D02*
X21705369Y-51211642D01*
X21610131Y-50878308D02*
X21610131Y-50211642D01*
X21610131Y-50211642D02*
X22610131Y-50640213D01*
X13674819Y-23429404D02*
X14484342Y-23429404D01*
X14484342Y-23429404D02*
X14579580Y-23381785D01*
X14579580Y-23381785D02*
X14627200Y-23334166D01*
X14627200Y-23334166D02*
X14674819Y-23238928D01*
X14674819Y-23238928D02*
X14674819Y-23048452D01*
X14674819Y-23048452D02*
X14627200Y-22953214D01*
X14627200Y-22953214D02*
X14579580Y-22905595D01*
X14579580Y-22905595D02*
X14484342Y-22857976D01*
X14484342Y-22857976D02*
X13674819Y-22857976D01*
X13674819Y-22477023D02*
X13674819Y-21857976D01*
X13674819Y-21857976D02*
X14055771Y-22191309D01*
X14055771Y-22191309D02*
X14055771Y-22048452D01*
X14055771Y-22048452D02*
X14103390Y-21953214D01*
X14103390Y-21953214D02*
X14151009Y-21905595D01*
X14151009Y-21905595D02*
X14246247Y-21857976D01*
X14246247Y-21857976D02*
X14484342Y-21857976D01*
X14484342Y-21857976D02*
X14579580Y-21905595D01*
X14579580Y-21905595D02*
X14627200Y-21953214D01*
X14627200Y-21953214D02*
X14674819Y-22048452D01*
X14674819Y-22048452D02*
X14674819Y-22334166D01*
X14674819Y-22334166D02*
X14627200Y-22429404D01*
X14627200Y-22429404D02*
X14579580Y-22477023D01*
X35119678Y-55037236D02*
X35072059Y-55084856D01*
X35072059Y-55084856D02*
X34929202Y-55132475D01*
X34929202Y-55132475D02*
X34833964Y-55132475D01*
X34833964Y-55132475D02*
X34691107Y-55084856D01*
X34691107Y-55084856D02*
X34595869Y-54989617D01*
X34595869Y-54989617D02*
X34548250Y-54894379D01*
X34548250Y-54894379D02*
X34500631Y-54703903D01*
X34500631Y-54703903D02*
X34500631Y-54561046D01*
X34500631Y-54561046D02*
X34548250Y-54370570D01*
X34548250Y-54370570D02*
X34595869Y-54275332D01*
X34595869Y-54275332D02*
X34691107Y-54180094D01*
X34691107Y-54180094D02*
X34833964Y-54132475D01*
X34833964Y-54132475D02*
X34929202Y-54132475D01*
X34929202Y-54132475D02*
X35072059Y-54180094D01*
X35072059Y-54180094D02*
X35119678Y-54227713D01*
X36072059Y-55132475D02*
X35500631Y-55132475D01*
X35786345Y-55132475D02*
X35786345Y-54132475D01*
X35786345Y-54132475D02*
X35691107Y-54275332D01*
X35691107Y-54275332D02*
X35595869Y-54370570D01*
X35595869Y-54370570D02*
X35500631Y-54418189D01*
X36929202Y-54465808D02*
X36929202Y-55132475D01*
X36691107Y-54084856D02*
X36453012Y-54799141D01*
X36453012Y-54799141D02*
X37072059Y-54799141D01*
X23806996Y-51194178D02*
X23854616Y-51241797D01*
X23854616Y-51241797D02*
X23902235Y-51384654D01*
X23902235Y-51384654D02*
X23902235Y-51479892D01*
X23902235Y-51479892D02*
X23854616Y-51622749D01*
X23854616Y-51622749D02*
X23759377Y-51717987D01*
X23759377Y-51717987D02*
X23664139Y-51765606D01*
X23664139Y-51765606D02*
X23473663Y-51813225D01*
X23473663Y-51813225D02*
X23330806Y-51813225D01*
X23330806Y-51813225D02*
X23140330Y-51765606D01*
X23140330Y-51765606D02*
X23045092Y-51717987D01*
X23045092Y-51717987D02*
X22949854Y-51622749D01*
X22949854Y-51622749D02*
X22902235Y-51479892D01*
X22902235Y-51479892D02*
X22902235Y-51384654D01*
X22902235Y-51384654D02*
X22949854Y-51241797D01*
X22949854Y-51241797D02*
X22997473Y-51194178D01*
X23235568Y-50337035D02*
X23902235Y-50337035D01*
X22854616Y-50575130D02*
X23568901Y-50813225D01*
X23568901Y-50813225D02*
X23568901Y-50194178D01*
X20584556Y-44840417D02*
X20632176Y-44888036D01*
X20632176Y-44888036D02*
X20679795Y-45030893D01*
X20679795Y-45030893D02*
X20679795Y-45126131D01*
X20679795Y-45126131D02*
X20632176Y-45268988D01*
X20632176Y-45268988D02*
X20536937Y-45364226D01*
X20536937Y-45364226D02*
X20441699Y-45411845D01*
X20441699Y-45411845D02*
X20251223Y-45459464D01*
X20251223Y-45459464D02*
X20108366Y-45459464D01*
X20108366Y-45459464D02*
X19917890Y-45411845D01*
X19917890Y-45411845D02*
X19822652Y-45364226D01*
X19822652Y-45364226D02*
X19727414Y-45268988D01*
X19727414Y-45268988D02*
X19679795Y-45126131D01*
X19679795Y-45126131D02*
X19679795Y-45030893D01*
X19679795Y-45030893D02*
X19727414Y-44888036D01*
X19727414Y-44888036D02*
X19775033Y-44840417D01*
X20679795Y-43888036D02*
X20679795Y-44459464D01*
X20679795Y-44173750D02*
X19679795Y-44173750D01*
X19679795Y-44173750D02*
X19822652Y-44268988D01*
X19822652Y-44268988D02*
X19917890Y-44364226D01*
X19917890Y-44364226D02*
X19965509Y-44459464D01*
X19679795Y-43030893D02*
X19679795Y-43221369D01*
X19679795Y-43221369D02*
X19727414Y-43316607D01*
X19727414Y-43316607D02*
X19775033Y-43364226D01*
X19775033Y-43364226D02*
X19917890Y-43459464D01*
X19917890Y-43459464D02*
X20108366Y-43507083D01*
X20108366Y-43507083D02*
X20489318Y-43507083D01*
X20489318Y-43507083D02*
X20584556Y-43459464D01*
X20584556Y-43459464D02*
X20632176Y-43411845D01*
X20632176Y-43411845D02*
X20679795Y-43316607D01*
X20679795Y-43316607D02*
X20679795Y-43126131D01*
X20679795Y-43126131D02*
X20632176Y-43030893D01*
X20632176Y-43030893D02*
X20584556Y-42983274D01*
X20584556Y-42983274D02*
X20489318Y-42935655D01*
X20489318Y-42935655D02*
X20251223Y-42935655D01*
X20251223Y-42935655D02*
X20155985Y-42983274D01*
X20155985Y-42983274D02*
X20108366Y-43030893D01*
X20108366Y-43030893D02*
X20060747Y-43126131D01*
X20060747Y-43126131D02*
X20060747Y-43316607D01*
X20060747Y-43316607D02*
X20108366Y-43411845D01*
X20108366Y-43411845D02*
X20155985Y-43459464D01*
X20155985Y-43459464D02*
X20251223Y-43507083D01*
X14566667Y-13467200D02*
X14709524Y-13514819D01*
X14709524Y-13514819D02*
X14947619Y-13514819D01*
X14947619Y-13514819D02*
X15042857Y-13467200D01*
X15042857Y-13467200D02*
X15090476Y-13419580D01*
X15090476Y-13419580D02*
X15138095Y-13324342D01*
X15138095Y-13324342D02*
X15138095Y-13229104D01*
X15138095Y-13229104D02*
X15090476Y-13133866D01*
X15090476Y-13133866D02*
X15042857Y-13086247D01*
X15042857Y-13086247D02*
X14947619Y-13038628D01*
X14947619Y-13038628D02*
X14757143Y-12991009D01*
X14757143Y-12991009D02*
X14661905Y-12943390D01*
X14661905Y-12943390D02*
X14614286Y-12895771D01*
X14614286Y-12895771D02*
X14566667Y-12800533D01*
X14566667Y-12800533D02*
X14566667Y-12705295D01*
X14566667Y-12705295D02*
X14614286Y-12610057D01*
X14614286Y-12610057D02*
X14661905Y-12562438D01*
X14661905Y-12562438D02*
X14757143Y-12514819D01*
X14757143Y-12514819D02*
X14995238Y-12514819D01*
X14995238Y-12514819D02*
X15138095Y-12562438D01*
X15471429Y-12514819D02*
X15709524Y-13514819D01*
X15709524Y-13514819D02*
X15900000Y-12800533D01*
X15900000Y-12800533D02*
X16090476Y-13514819D01*
X16090476Y-13514819D02*
X16328572Y-12514819D01*
X17233333Y-13514819D02*
X16661905Y-13514819D01*
X16947619Y-13514819D02*
X16947619Y-12514819D01*
X16947619Y-12514819D02*
X16852381Y-12657676D01*
X16852381Y-12657676D02*
X16757143Y-12752914D01*
X16757143Y-12752914D02*
X16661905Y-12800533D01*
X35152262Y-56812164D02*
X35104643Y-56859784D01*
X35104643Y-56859784D02*
X34961786Y-56907403D01*
X34961786Y-56907403D02*
X34866548Y-56907403D01*
X34866548Y-56907403D02*
X34723691Y-56859784D01*
X34723691Y-56859784D02*
X34628453Y-56764545D01*
X34628453Y-56764545D02*
X34580834Y-56669307D01*
X34580834Y-56669307D02*
X34533215Y-56478831D01*
X34533215Y-56478831D02*
X34533215Y-56335974D01*
X34533215Y-56335974D02*
X34580834Y-56145498D01*
X34580834Y-56145498D02*
X34628453Y-56050260D01*
X34628453Y-56050260D02*
X34723691Y-55955022D01*
X34723691Y-55955022D02*
X34866548Y-55907403D01*
X34866548Y-55907403D02*
X34961786Y-55907403D01*
X34961786Y-55907403D02*
X35104643Y-55955022D01*
X35104643Y-55955022D02*
X35152262Y-56002641D01*
X36104643Y-56907403D02*
X35533215Y-56907403D01*
X35818929Y-56907403D02*
X35818929Y-55907403D01*
X35818929Y-55907403D02*
X35723691Y-56050260D01*
X35723691Y-56050260D02*
X35628453Y-56145498D01*
X35628453Y-56145498D02*
X35533215Y-56193117D01*
X36676072Y-56335974D02*
X36580834Y-56288355D01*
X36580834Y-56288355D02*
X36533215Y-56240736D01*
X36533215Y-56240736D02*
X36485596Y-56145498D01*
X36485596Y-56145498D02*
X36485596Y-56097879D01*
X36485596Y-56097879D02*
X36533215Y-56002641D01*
X36533215Y-56002641D02*
X36580834Y-55955022D01*
X36580834Y-55955022D02*
X36676072Y-55907403D01*
X36676072Y-55907403D02*
X36866548Y-55907403D01*
X36866548Y-55907403D02*
X36961786Y-55955022D01*
X36961786Y-55955022D02*
X37009405Y-56002641D01*
X37009405Y-56002641D02*
X37057024Y-56097879D01*
X37057024Y-56097879D02*
X37057024Y-56145498D01*
X37057024Y-56145498D02*
X37009405Y-56240736D01*
X37009405Y-56240736D02*
X36961786Y-56288355D01*
X36961786Y-56288355D02*
X36866548Y-56335974D01*
X36866548Y-56335974D02*
X36676072Y-56335974D01*
X36676072Y-56335974D02*
X36580834Y-56383593D01*
X36580834Y-56383593D02*
X36533215Y-56431212D01*
X36533215Y-56431212D02*
X36485596Y-56526450D01*
X36485596Y-56526450D02*
X36485596Y-56716926D01*
X36485596Y-56716926D02*
X36533215Y-56812164D01*
X36533215Y-56812164D02*
X36580834Y-56859784D01*
X36580834Y-56859784D02*
X36676072Y-56907403D01*
X36676072Y-56907403D02*
X36866548Y-56907403D01*
X36866548Y-56907403D02*
X36961786Y-56859784D01*
X36961786Y-56859784D02*
X37009405Y-56812164D01*
X37009405Y-56812164D02*
X37057024Y-56716926D01*
X37057024Y-56716926D02*
X37057024Y-56526450D01*
X37057024Y-56526450D02*
X37009405Y-56431212D01*
X37009405Y-56431212D02*
X36961786Y-56383593D01*
X36961786Y-56383593D02*
X36866548Y-56335974D01*
X21129819Y-18306666D02*
X20653628Y-18639999D01*
X21129819Y-18878094D02*
X20129819Y-18878094D01*
X20129819Y-18878094D02*
X20129819Y-18497142D01*
X20129819Y-18497142D02*
X20177438Y-18401904D01*
X20177438Y-18401904D02*
X20225057Y-18354285D01*
X20225057Y-18354285D02*
X20320295Y-18306666D01*
X20320295Y-18306666D02*
X20463152Y-18306666D01*
X20463152Y-18306666D02*
X20558390Y-18354285D01*
X20558390Y-18354285D02*
X20606009Y-18401904D01*
X20606009Y-18401904D02*
X20653628Y-18497142D01*
X20653628Y-18497142D02*
X20653628Y-18878094D01*
X20463152Y-17449523D02*
X21129819Y-17449523D01*
X20082200Y-17687618D02*
X20796485Y-17925713D01*
X20796485Y-17925713D02*
X20796485Y-17306666D01*
X15288095Y-53832319D02*
X15288095Y-54641842D01*
X15288095Y-54641842D02*
X15335714Y-54737080D01*
X15335714Y-54737080D02*
X15383333Y-54784700D01*
X15383333Y-54784700D02*
X15478571Y-54832319D01*
X15478571Y-54832319D02*
X15669047Y-54832319D01*
X15669047Y-54832319D02*
X15764285Y-54784700D01*
X15764285Y-54784700D02*
X15811904Y-54737080D01*
X15811904Y-54737080D02*
X15859523Y-54641842D01*
X15859523Y-54641842D02*
X15859523Y-53832319D01*
X16288095Y-53927557D02*
X16335714Y-53879938D01*
X16335714Y-53879938D02*
X16430952Y-53832319D01*
X16430952Y-53832319D02*
X16669047Y-53832319D01*
X16669047Y-53832319D02*
X16764285Y-53879938D01*
X16764285Y-53879938D02*
X16811904Y-53927557D01*
X16811904Y-53927557D02*
X16859523Y-54022795D01*
X16859523Y-54022795D02*
X16859523Y-54118033D01*
X16859523Y-54118033D02*
X16811904Y-54260890D01*
X16811904Y-54260890D02*
X16240476Y-54832319D01*
X16240476Y-54832319D02*
X16859523Y-54832319D01*
X38822044Y-36056690D02*
X38869664Y-36104309D01*
X38869664Y-36104309D02*
X38917283Y-36247166D01*
X38917283Y-36247166D02*
X38917283Y-36342404D01*
X38917283Y-36342404D02*
X38869664Y-36485261D01*
X38869664Y-36485261D02*
X38774425Y-36580499D01*
X38774425Y-36580499D02*
X38679187Y-36628118D01*
X38679187Y-36628118D02*
X38488711Y-36675737D01*
X38488711Y-36675737D02*
X38345854Y-36675737D01*
X38345854Y-36675737D02*
X38155378Y-36628118D01*
X38155378Y-36628118D02*
X38060140Y-36580499D01*
X38060140Y-36580499D02*
X37964902Y-36485261D01*
X37964902Y-36485261D02*
X37917283Y-36342404D01*
X37917283Y-36342404D02*
X37917283Y-36247166D01*
X37917283Y-36247166D02*
X37964902Y-36104309D01*
X37964902Y-36104309D02*
X38012521Y-36056690D01*
X38012521Y-35675737D02*
X37964902Y-35628118D01*
X37964902Y-35628118D02*
X37917283Y-35532880D01*
X37917283Y-35532880D02*
X37917283Y-35294785D01*
X37917283Y-35294785D02*
X37964902Y-35199547D01*
X37964902Y-35199547D02*
X38012521Y-35151928D01*
X38012521Y-35151928D02*
X38107759Y-35104309D01*
X38107759Y-35104309D02*
X38202997Y-35104309D01*
X38202997Y-35104309D02*
X38345854Y-35151928D01*
X38345854Y-35151928D02*
X38917283Y-35723356D01*
X38917283Y-35723356D02*
X38917283Y-35104309D01*
X42264556Y-22929178D02*
X42312176Y-22976797D01*
X42312176Y-22976797D02*
X42359795Y-23119654D01*
X42359795Y-23119654D02*
X42359795Y-23214892D01*
X42359795Y-23214892D02*
X42312176Y-23357749D01*
X42312176Y-23357749D02*
X42216937Y-23452987D01*
X42216937Y-23452987D02*
X42121699Y-23500606D01*
X42121699Y-23500606D02*
X41931223Y-23548225D01*
X41931223Y-23548225D02*
X41788366Y-23548225D01*
X41788366Y-23548225D02*
X41597890Y-23500606D01*
X41597890Y-23500606D02*
X41502652Y-23452987D01*
X41502652Y-23452987D02*
X41407414Y-23357749D01*
X41407414Y-23357749D02*
X41359795Y-23214892D01*
X41359795Y-23214892D02*
X41359795Y-23119654D01*
X41359795Y-23119654D02*
X41407414Y-22976797D01*
X41407414Y-22976797D02*
X41455033Y-22929178D01*
X42359795Y-21976797D02*
X42359795Y-22548225D01*
X42359795Y-22262511D02*
X41359795Y-22262511D01*
X41359795Y-22262511D02*
X41502652Y-22357749D01*
X41502652Y-22357749D02*
X41597890Y-22452987D01*
X41597890Y-22452987D02*
X41645509Y-22548225D01*
X21713333Y-66339819D02*
X21380000Y-65863628D01*
X21141905Y-66339819D02*
X21141905Y-65339819D01*
X21141905Y-65339819D02*
X21522857Y-65339819D01*
X21522857Y-65339819D02*
X21618095Y-65387438D01*
X21618095Y-65387438D02*
X21665714Y-65435057D01*
X21665714Y-65435057D02*
X21713333Y-65530295D01*
X21713333Y-65530295D02*
X21713333Y-65673152D01*
X21713333Y-65673152D02*
X21665714Y-65768390D01*
X21665714Y-65768390D02*
X21618095Y-65816009D01*
X21618095Y-65816009D02*
X21522857Y-65863628D01*
X21522857Y-65863628D02*
X21141905Y-65863628D01*
X22046667Y-65339819D02*
X22665714Y-65339819D01*
X22665714Y-65339819D02*
X22332381Y-65720771D01*
X22332381Y-65720771D02*
X22475238Y-65720771D01*
X22475238Y-65720771D02*
X22570476Y-65768390D01*
X22570476Y-65768390D02*
X22618095Y-65816009D01*
X22618095Y-65816009D02*
X22665714Y-65911247D01*
X22665714Y-65911247D02*
X22665714Y-66149342D01*
X22665714Y-66149342D02*
X22618095Y-66244580D01*
X22618095Y-66244580D02*
X22570476Y-66292200D01*
X22570476Y-66292200D02*
X22475238Y-66339819D01*
X22475238Y-66339819D02*
X22189524Y-66339819D01*
X22189524Y-66339819D02*
X22094286Y-66292200D01*
X22094286Y-66292200D02*
X22046667Y-66244580D01*
%TO.C,C13*%
D13*
X37535072Y-42312632D02*
X37535072Y-41512632D01*
X38645072Y-41202632D02*
X37845072Y-41202632D01*
X38645072Y-42622632D02*
X37845072Y-42622632D01*
X39205072Y-41202632D02*
X40005072Y-41202632D01*
X39205072Y-42622632D02*
X40005072Y-42622632D01*
X40315072Y-41512632D02*
X40315072Y-42312632D01*
X37535072Y-41512632D02*
G75*
G02*
X37845072Y-41202632I307308J2692D01*
G01*
X37845072Y-42622632D02*
G75*
G02*
X37535072Y-42312632I-2692J307308D01*
G01*
X40005072Y-41202632D02*
G75*
G02*
X40315072Y-41512632I2700J-307300D01*
G01*
X40315072Y-42312632D02*
G75*
G02*
X40005072Y-42622632I-307310J-2690D01*
G01*
%TO.C,C10*%
X28602440Y-47145072D02*
X28602440Y-46345072D01*
X28602440Y-47705072D02*
X28602440Y-48505072D01*
X28912440Y-46035072D02*
X29712440Y-46035072D01*
X29712440Y-48815072D02*
X28912440Y-48815072D01*
X30022440Y-47145072D02*
X30022440Y-46345072D01*
X30022440Y-47705072D02*
X30022440Y-48505072D01*
X28602440Y-46345072D02*
G75*
G02*
X28912440Y-46035072I307308J2692D01*
G01*
X28912440Y-48815072D02*
G75*
G02*
X28602440Y-48505072I-2690J307310D01*
G01*
X29712440Y-46035072D02*
G75*
G02*
X30022440Y-46345072I2692J-307308D01*
G01*
X30022440Y-48505072D02*
G75*
G02*
X29712440Y-48815072I-307300J-2700D01*
G01*
%TO.C,C6*%
X25002632Y-56192488D02*
X25002632Y-55392488D01*
X25002632Y-56752488D02*
X25002632Y-57552488D01*
X25312632Y-55082488D02*
X26112632Y-55082488D01*
X26112632Y-57862488D02*
X25312632Y-57862488D01*
X26422632Y-56192488D02*
X26422632Y-55392488D01*
X26422632Y-56752488D02*
X26422632Y-57552488D01*
X25002632Y-55392488D02*
G75*
G02*
X25312632Y-55082488I307308J2692D01*
G01*
X25312632Y-57862488D02*
G75*
G02*
X25002632Y-57552488I-2690J307310D01*
G01*
X26112632Y-55082488D02*
G75*
G02*
X26422632Y-55392488I2692J-307308D01*
G01*
X26422632Y-57552488D02*
G75*
G02*
X26112632Y-57862488I-307300J-2700D01*
G01*
%TO.C,C9*%
X37472536Y-48512536D02*
X37472536Y-47712536D01*
X38582536Y-47402536D02*
X37782536Y-47402536D01*
X38582536Y-48822536D02*
X37782536Y-48822536D01*
X39142536Y-47402536D02*
X39942536Y-47402536D01*
X39142536Y-48822536D02*
X39942536Y-48822536D01*
X40252536Y-47712536D02*
X40252536Y-48512536D01*
X37472536Y-47712536D02*
G75*
G02*
X37782536Y-47402536I307308J2692D01*
G01*
X37782536Y-48822536D02*
G75*
G02*
X37472536Y-48512536I-2692J307308D01*
G01*
X39942536Y-47402536D02*
G75*
G02*
X40252536Y-47712536I2700J-307300D01*
G01*
X40252536Y-48512536D02*
G75*
G02*
X39942536Y-48822536I-307310J-2690D01*
G01*
%TO.C,USB1*%
X23740000Y-72070000D02*
X23740000Y-74460000D01*
X23740000Y-76420000D02*
X23740000Y-78180000D01*
X23740000Y-78180000D02*
X32680000Y-78180000D01*
X24990000Y-72730000D02*
X24990000Y-78180000D01*
X25685000Y-72570000D02*
X27055000Y-72570000D01*
X25685000Y-73070000D02*
X25685000Y-72570000D01*
X27055000Y-72570000D02*
X27055000Y-73070000D01*
X27055000Y-73070000D02*
X25685000Y-73070000D01*
X28220000Y-71930000D02*
X28220000Y-78180000D01*
X29345000Y-72570000D02*
X30715000Y-72570000D01*
X29345000Y-73070000D02*
X29345000Y-72570000D01*
X30715000Y-72570000D02*
X30715000Y-73070000D01*
X30715000Y-73070000D02*
X29345000Y-73070000D01*
X31390000Y-72730000D02*
X31390000Y-78180000D01*
X32680000Y-74460000D02*
X32680000Y-72070000D01*
X32680000Y-78180000D02*
X32680000Y-76420000D01*
%TO.C,C19*%
X41155000Y-34890024D02*
X41155000Y-34090024D01*
X41155000Y-35450024D02*
X41155000Y-36250024D01*
X41465000Y-33780024D02*
X42265000Y-33780024D01*
X42265000Y-36560024D02*
X41465000Y-36560024D01*
X42575000Y-34890024D02*
X42575000Y-34090024D01*
X42575000Y-35450024D02*
X42575000Y-36250024D01*
X41155000Y-34090024D02*
G75*
G02*
X41465000Y-33780024I307308J2692D01*
G01*
X41465000Y-36560024D02*
G75*
G02*
X41155000Y-36250024I-2690J307310D01*
G01*
X42265000Y-33780024D02*
G75*
G02*
X42575000Y-34090024I2692J-307308D01*
G01*
X42575000Y-36250024D02*
G75*
G02*
X42265000Y-36560024I-307300J-2700D01*
G01*
%TO.C,C17*%
X37505120Y-50287560D02*
X37505120Y-49487560D01*
X38615120Y-49177560D02*
X37815120Y-49177560D01*
X38615120Y-50597560D02*
X37815120Y-50597560D01*
X39175120Y-49177560D02*
X39975120Y-49177560D01*
X39175120Y-50597560D02*
X39975120Y-50597560D01*
X40285120Y-49487560D02*
X40285120Y-50287560D01*
X37505120Y-49487560D02*
G75*
G02*
X37815120Y-49177560I307308J2692D01*
G01*
X37815120Y-50597560D02*
G75*
G02*
X37505120Y-50287560I-2692J307308D01*
G01*
X39975120Y-49177560D02*
G75*
G02*
X40285120Y-49487560I2700J-307300D01*
G01*
X40285120Y-50287560D02*
G75*
G02*
X39975120Y-50597560I-307310J-2690D01*
G01*
%TO.C,R1*%
D11*
X41205000Y-29715000D02*
X42525000Y-29715000D01*
X41205000Y-30675000D02*
X41205000Y-29715000D01*
X41205000Y-31525000D02*
X41205000Y-32485000D01*
X41205000Y-32485000D02*
X42525000Y-32485000D01*
X42525000Y-29715000D02*
X42525000Y-30675000D01*
X42525000Y-32485000D02*
X42525000Y-31525000D01*
%TO.C,C15*%
D13*
X17852488Y-47117560D02*
X17852488Y-46317560D01*
X17852488Y-47677560D02*
X17852488Y-48477560D01*
X18162488Y-46007560D02*
X18962488Y-46007560D01*
X18962488Y-48787560D02*
X18162488Y-48787560D01*
X19272488Y-47117560D02*
X19272488Y-46317560D01*
X19272488Y-47677560D02*
X19272488Y-48477560D01*
X17852488Y-46317560D02*
G75*
G02*
X18162488Y-46007560I307308J2692D01*
G01*
X18162488Y-48787560D02*
G75*
G02*
X17852488Y-48477560I-2690J307310D01*
G01*
X18962488Y-46007560D02*
G75*
G02*
X19272488Y-46317560I2692J-307308D01*
G01*
X19272488Y-48477560D02*
G75*
G02*
X18962488Y-48787560I-307300J-2700D01*
G01*
%TO.C,R2*%
D11*
X33935000Y-66655000D02*
X35255000Y-66655000D01*
X33935000Y-67615000D02*
X33935000Y-66655000D01*
X33935000Y-68465000D02*
X33935000Y-69425000D01*
X33935000Y-69425000D02*
X35255000Y-69425000D01*
X35255000Y-66655000D02*
X35255000Y-67615000D01*
X35255000Y-69425000D02*
X35255000Y-68465000D01*
%TO.C,C11*%
D13*
X26827416Y-47182536D02*
X26827416Y-46382536D01*
X26827416Y-47742536D02*
X26827416Y-48542536D01*
X27137416Y-46072536D02*
X27937416Y-46072536D01*
X27937416Y-48852536D02*
X27137416Y-48852536D01*
X28247416Y-47182536D02*
X28247416Y-46382536D01*
X28247416Y-47742536D02*
X28247416Y-48542536D01*
X26827416Y-46382536D02*
G75*
G02*
X27137416Y-46072536I307308J2692D01*
G01*
X27137416Y-48852536D02*
G75*
G02*
X26827416Y-48542536I-2690J307310D01*
G01*
X27937416Y-46072536D02*
G75*
G02*
X28247416Y-46382536I2692J-307308D01*
G01*
X28247416Y-48542536D02*
G75*
G02*
X27937416Y-48852536I-307300J-2700D01*
G01*
%TO.C,C12*%
X37510000Y-44062392D02*
X37510000Y-43262392D01*
X38620000Y-42952392D02*
X37820000Y-42952392D01*
X38620000Y-44372392D02*
X37820000Y-44372392D01*
X39180000Y-42952392D02*
X39980000Y-42952392D01*
X39180000Y-44372392D02*
X39980000Y-44372392D01*
X40290000Y-43262392D02*
X40290000Y-44062392D01*
X37510000Y-43262392D02*
G75*
G02*
X37820000Y-42952392I307310J2690D01*
G01*
X37820000Y-44372392D02*
G75*
G02*
X37510000Y-44062392I-2700J307300D01*
G01*
X39980000Y-42952392D02*
G75*
G02*
X40290000Y-43262392I2692J-307308D01*
G01*
X40290000Y-44062392D02*
G75*
G02*
X39980000Y-44372392I-307308J-2692D01*
G01*
%TO.C,U1*%
X22185000Y-14730000D02*
X22185000Y-15675000D01*
X22185000Y-33545000D02*
X22185000Y-34010000D01*
X22185000Y-34010000D02*
X40215000Y-34010000D01*
X24805000Y-14730000D02*
X22185000Y-14730000D01*
X40215000Y-14730000D02*
X37595000Y-14730000D01*
X40215000Y-15675000D02*
X40215000Y-14730000D01*
X40215000Y-34010000D02*
X40215000Y-33545000D01*
D14*
X41010000Y-33790000D02*
G75*
G02*
X40610000Y-33790000I-200000J0D01*
G01*
X40610000Y-33790000D02*
G75*
G02*
X41010000Y-33790000I200000J0D01*
G01*
%TO.C,C5*%
D13*
X23227608Y-56192488D02*
X23227608Y-55392488D01*
X23227608Y-56752488D02*
X23227608Y-57552488D01*
X23537608Y-55082488D02*
X24337608Y-55082488D01*
X24337608Y-57862488D02*
X23537608Y-57862488D01*
X24647608Y-56192488D02*
X24647608Y-55392488D01*
X24647608Y-56752488D02*
X24647608Y-57552488D01*
X23227608Y-55392488D02*
G75*
G02*
X23537608Y-55082488I307300J2700D01*
G01*
X23537608Y-57862488D02*
G75*
G02*
X23227608Y-57552488I-2692J307308D01*
G01*
X24337608Y-55082488D02*
G75*
G02*
X24647608Y-55392488I2690J-307310D01*
G01*
X24647608Y-57552488D02*
G75*
G02*
X24337608Y-57862488I-307308J-2692D01*
G01*
%TO.C,C7*%
X17877656Y-50764976D02*
X17877656Y-49964976D01*
X17877656Y-51324976D02*
X17877656Y-52124976D01*
X18187656Y-49654976D02*
X18987656Y-49654976D01*
X18987656Y-52434976D02*
X18187656Y-52434976D01*
X19297656Y-50764976D02*
X19297656Y-49964976D01*
X19297656Y-51324976D02*
X19297656Y-52124976D01*
X17877656Y-49964976D02*
G75*
G02*
X18187656Y-49654976I307300J2700D01*
G01*
X18187656Y-52434976D02*
G75*
G02*
X17877656Y-52124976I-2692J307308D01*
G01*
X18987656Y-49654976D02*
G75*
G02*
X19297656Y-49964976I2690J-307310D01*
G01*
X19297656Y-52124976D02*
G75*
G02*
X18987656Y-52434976I-307308J-2692D01*
G01*
%TO.C,U3*%
D15*
X14920000Y-17587500D02*
X14920000Y-25842500D01*
X14920000Y-17587500D02*
X17460000Y-17587500D01*
X14920000Y-27747500D02*
X14920000Y-25842500D01*
X17460000Y-17587500D02*
X17460000Y-27747500D01*
X17460000Y-27747500D02*
X14920000Y-27747500D01*
%TO.C,C14*%
D13*
X37672536Y-55087656D02*
X37672536Y-54287656D01*
X38782536Y-53977656D02*
X37982536Y-53977656D01*
X38782536Y-55397656D02*
X37982536Y-55397656D01*
X39342536Y-53977656D02*
X40142536Y-53977656D01*
X39342536Y-55397656D02*
X40142536Y-55397656D01*
X40452536Y-54287656D02*
X40452536Y-55087656D01*
X37672536Y-54287656D02*
G75*
G02*
X37982536Y-53977656I307308J2692D01*
G01*
X37982536Y-55397656D02*
G75*
G02*
X37672536Y-55087656I-2692J307308D01*
G01*
X40142536Y-53977656D02*
G75*
G02*
X40452536Y-54287656I2700J-307300D01*
G01*
X40452536Y-55087656D02*
G75*
G02*
X40142536Y-55397656I-307310J-2690D01*
G01*
%TO.C,C4*%
X19727416Y-50747512D02*
X19727416Y-49947512D01*
X19727416Y-51307512D02*
X19727416Y-52107512D01*
X20037416Y-49637512D02*
X20837416Y-49637512D01*
X20837416Y-52417512D02*
X20037416Y-52417512D01*
X21147416Y-50747512D02*
X21147416Y-49947512D01*
X21147416Y-51307512D02*
X21147416Y-52107512D01*
X19727416Y-49947512D02*
G75*
G02*
X20037416Y-49637512I307308J2692D01*
G01*
X20037416Y-52417512D02*
G75*
G02*
X19727416Y-52107512I-2690J307310D01*
G01*
X20837416Y-49637512D02*
G75*
G02*
X21147416Y-49947512I2692J-307308D01*
G01*
X21147416Y-52107512D02*
G75*
G02*
X20837416Y-52417512I-307300J-2700D01*
G01*
%TO.C,C16*%
X19602536Y-47122440D02*
X19602536Y-46322440D01*
X19602536Y-47682440D02*
X19602536Y-48482440D01*
X19912536Y-46012440D02*
X20712536Y-46012440D01*
X20712536Y-48792440D02*
X19912536Y-48792440D01*
X21022536Y-47122440D02*
X21022536Y-46322440D01*
X21022536Y-47682440D02*
X21022536Y-48482440D01*
X19602536Y-46322440D02*
G75*
G02*
X19912536Y-46012440I307300J2700D01*
G01*
X19912536Y-48792440D02*
G75*
G02*
X19602536Y-48482440I-2692J307308D01*
G01*
X20712536Y-46012440D02*
G75*
G02*
X21022536Y-46322440I2690J-307310D01*
G01*
X21022536Y-48482440D02*
G75*
G02*
X20712536Y-48792440I-307308J-2692D01*
G01*
%TO.C,SW1*%
D11*
X14575000Y-13760000D02*
X18625000Y-13760000D01*
X14575000Y-14190000D02*
X14575000Y-13760000D01*
X14575000Y-16840000D02*
X14575000Y-16410000D01*
X14575000Y-16840000D02*
X18625000Y-16840000D01*
X18625000Y-13760000D02*
X18625000Y-14190000D01*
X18625000Y-16840000D02*
X18625000Y-16410000D01*
D13*
X17500000Y-15300000D02*
G75*
G02*
X15700000Y-15300000I-900000J0D01*
G01*
X15700000Y-15300000D02*
G75*
G02*
X17500000Y-15300000I900000J0D01*
G01*
%TO.C,C18*%
X37705120Y-56862584D02*
X37705120Y-56062584D01*
X38815120Y-55752584D02*
X38015120Y-55752584D01*
X38815120Y-57172584D02*
X38015120Y-57172584D01*
X39375120Y-55752584D02*
X40175120Y-55752584D01*
X39375120Y-57172584D02*
X40175120Y-57172584D01*
X40485120Y-56062584D02*
X40485120Y-56862584D01*
X37705120Y-56062584D02*
G75*
G02*
X38015120Y-55752584I307308J2692D01*
G01*
X38015120Y-57172584D02*
G75*
G02*
X37705120Y-56862584I-2692J307308D01*
G01*
X40175120Y-55752584D02*
G75*
G02*
X40485120Y-56062584I2700J-307300D01*
G01*
X40485120Y-56862584D02*
G75*
G02*
X40175120Y-57172584I-307310J-2690D01*
G01*
%TO.C,R4*%
D11*
X19975000Y-14155000D02*
X19975000Y-15115000D01*
X19975000Y-16925000D02*
X19975000Y-15965000D01*
X21295000Y-14155000D02*
X19975000Y-14155000D01*
X21295000Y-15115000D02*
X21295000Y-14155000D01*
X21295000Y-15965000D02*
X21295000Y-16925000D01*
X21295000Y-16925000D02*
X19975000Y-16925000D01*
%TO.C,U2*%
D13*
X15377500Y-55250000D02*
X15377500Y-58850000D01*
X15377500Y-55250000D02*
X22477500Y-55250000D01*
X15377500Y-58850000D02*
X22477500Y-58850000D01*
X22477500Y-55250000D02*
X22477500Y-58850000D01*
%TO.C,C2*%
X39342464Y-35610024D02*
X39342464Y-34810024D01*
X39342464Y-36170024D02*
X39342464Y-36970024D01*
X39652464Y-34500024D02*
X40452464Y-34500024D01*
X40452464Y-37280024D02*
X39652464Y-37280024D01*
X40762464Y-35610024D02*
X40762464Y-34810024D01*
X40762464Y-36170024D02*
X40762464Y-36970024D01*
X39342464Y-34810024D02*
G75*
G02*
X39652464Y-34500024I307308J2692D01*
G01*
X39652464Y-37280024D02*
G75*
G02*
X39342464Y-36970024I-2690J307310D01*
G01*
X40452464Y-34500024D02*
G75*
G02*
X40762464Y-34810024I2692J-307308D01*
G01*
X40762464Y-36970024D02*
G75*
G02*
X40452464Y-37280024I-307300J-2700D01*
G01*
%TO.C,C1*%
X41184976Y-27782512D02*
X41184976Y-26982512D01*
X41184976Y-28342512D02*
X41184976Y-29142512D01*
X41494976Y-26672512D02*
X42294976Y-26672512D01*
X42294976Y-29452512D02*
X41494976Y-29452512D01*
X42604976Y-27782512D02*
X42604976Y-26982512D01*
X42604976Y-28342512D02*
X42604976Y-29142512D01*
X41184976Y-26982512D02*
G75*
G02*
X41494976Y-26672512I307308J2692D01*
G01*
X41494976Y-29452512D02*
G75*
G02*
X41184976Y-29142512I-2690J307310D01*
G01*
X42294976Y-26672512D02*
G75*
G02*
X42604976Y-26982512I2692J-307308D01*
G01*
X42604976Y-29142512D02*
G75*
G02*
X42294976Y-29452512I-307300J-2700D01*
G01*
%TO.C,R3*%
D11*
X21165000Y-66675000D02*
X22485000Y-66675000D01*
X21165000Y-67635000D02*
X21165000Y-66675000D01*
X21165000Y-68485000D02*
X21165000Y-69445000D01*
X21165000Y-69445000D02*
X22485000Y-69445000D01*
X22485000Y-66675000D02*
X22485000Y-67635000D01*
X22485000Y-69445000D02*
X22485000Y-68485000D01*
%TD*%
M02*
