M48
; DRILL file KiCad 10.0.6 date 2026-09-26T23:14:34
; FORMAT={-:-/ absolute / metric / decimal}
; #@! TF.CreationDate,2026-09-26T23:14:34+10:00
; #@! TF.GenerationSoftware,Kicad,Pcbnew,10.0.6
; #@! TF.FileFunction,Plated,1,4,PTH
FMAT,2
METRIC
; #@! TA.AperFunction,Plated,PTH,ViaDrill
T1C0.300
; #@! TA.AperFunction,Plated,PTH,ComponentDrill
T2C0.800
; #@! TA.AperFunction,Plated,PTH,ComponentDrill
T3C0.815
; #@! TA.AperFunction,Plated,PTH,ComponentDrill
T4C0.900
; #@! TA.AperFunction,Plated,PTH,ComponentDrill
T5C1.100
; #@! TA.AperFunction,Plated,PTH,ComponentDrill
T6C2.200
%
G90
G05
T1
X12.8Y-15.3
X14.4Y-58.135
X14.4Y-58.835
X14.4Y-59.539
X14.4Y-60.339
X14.4Y-61.135
X14.4Y-61.935
X15.2Y-58.135
X15.2Y-58.835
X15.2Y-59.539
X15.2Y-60.339
X15.2Y-61.135
X15.2Y-61.935
X15.3Y-50.035
X15.9Y-58.135
X15.9Y-61.935
X16.1Y-50.035
X16.6Y-15.3
X16.7Y-58.135
X16.7Y-61.935
X16.9Y-50.035
X17.5Y-61.935
X17.85Y-25.6
X18.05Y-20.65
X18.05Y-21.45
X18.05Y-22.25
X18.1Y-49.235
X18.3Y-61.935
X18.304Y-44.635
X18.304Y-45.435
X18.9Y-49.235
X19.104Y-44.635
X19.104Y-45.435
X19.6Y-22.0
X19.7Y-49.235
X19.75Y-18.55
X19.904Y-44.635
X19.904Y-45.435
X20.05Y-23.35
X20.5Y-49.235
X20.7Y-44.635
X20.7Y-45.435
X20.8Y-24.9
X21.2Y-52.635
X21.2Y-53.335
X21.3Y-49.235
X21.7Y-54.839
X21.7Y-55.635
X21.9Y-14.835
X21.9Y-51.2
X21.9Y-51.9
X21.9Y-52.6
X21.9Y-53.335
X22.6Y-54.839
X22.6Y-55.635
X22.7Y-14.835
X22.7Y-51.2
X22.7Y-51.9
X22.7Y-52.6
X22.7Y-53.335
X23.2Y-58.735
X23.2Y-59.435
X23.2Y-60.135
X23.2Y-60.835
X23.5Y-14.835
X23.5Y-51.2
X23.5Y-51.9
X23.5Y-52.6
X23.5Y-53.335
X23.9Y-54.835
X24.0Y-58.735
X24.0Y-59.435
X24.0Y-60.135
X24.0Y-60.835
X24.3Y-51.2
X24.3Y-51.9
X24.3Y-52.6
X24.3Y-53.335
X24.7Y-64.15
X24.7Y-64.65
X24.8Y-58.735
X24.8Y-59.435
X24.8Y-60.135
X24.8Y-60.835
X24.9Y-27.935
X25.2Y-64.15
X25.2Y-64.65
X25.6Y-58.735
X25.6Y-59.435
X25.6Y-60.135
X25.6Y-60.835
X25.7Y-54.835
X25.7Y-64.15
X25.7Y-64.65
X26.2Y-64.15
X26.2Y-64.65
X26.4Y-58.735
X26.4Y-59.435
X26.4Y-60.135
X26.4Y-60.835
X26.7Y-64.15
X26.7Y-64.65
X27.0Y-54.839
X27.0Y-55.635
X27.05Y-21.55
X27.2Y-64.15
X27.2Y-64.65
X27.4Y-49.335
X27.4Y-50.135
X27.55Y-19.55
X27.7Y-64.15
X27.7Y-64.65
X27.9Y-40.5
X28.1Y-49.335
X28.1Y-50.135
X28.2Y-64.15
X28.2Y-64.65
X28.7Y-64.15
X28.7Y-64.65
X28.8Y-23.135
X28.8Y-33.135
X28.8Y-37.035
X28.8Y-49.335
X28.8Y-50.135
X29.2Y-64.15
X29.2Y-64.65
X29.5Y-49.335
X29.5Y-50.135
X29.7Y-64.15
X29.7Y-64.15
X29.7Y-64.65
X29.7Y-64.65
X30.2Y-64.15
X30.2Y-64.65
X30.6Y-31.235
X30.7Y-64.15
X30.7Y-64.65
X31.2Y-64.15
X31.2Y-64.65
X31.7Y-64.15
X31.7Y-64.65
X32.5Y-33.335
X32.7Y-34.935
X32.7Y-37.935
X32.7Y-41.935
X32.7Y-42.935
X32.7Y-43.935
X32.7Y-47.935
X34.7Y-50.935
X34.8Y-21.5
X35.4Y-32.435
X35.4Y-33.235
X35.4Y-33.935
X36.1Y-48.235
X36.1Y-49.035
X36.1Y-49.831
X36.2Y-32.435
X36.2Y-33.235
X36.2Y-33.935
X36.3Y-42.135
X36.3Y-42.935
X36.3Y-43.731
X36.4Y-54.835
X36.4Y-55.635
X36.4Y-56.431
X36.9Y-32.435
X36.9Y-33.235
X36.9Y-48.235
X36.9Y-49.035
X36.9Y-49.831
X37.1Y-42.135
X37.1Y-42.935
X37.1Y-43.731
X37.2Y-54.835
X37.2Y-55.635
X37.2Y-56.431
X37.4Y-37.835
X37.6Y-34.535
X37.6Y-35.335
X37.6Y-36.135
X37.6Y-36.931
X37.7Y-32.435
X37.7Y-33.235
X38.2Y-37.835
X38.4Y-34.535
X38.4Y-35.335
X38.4Y-36.135
X38.4Y-36.931
X39.0Y-37.835
X39.8Y-37.835
X40.6Y-37.835
X40.7Y-47.835
X40.7Y-48.635
X40.7Y-49.435
X40.7Y-50.231
X40.8Y-41.635
X40.8Y-42.435
X40.8Y-43.235
X40.8Y-44.031
X40.9Y-54.335
X40.9Y-55.135
X40.9Y-55.935
X40.9Y-56.731
X41.1Y-58.135
X41.1Y-58.931
X41.1Y-59.731
X41.1Y-60.539
X41.1Y-61.335
X41.4Y-25.435
X41.4Y-26.135
X41.4Y-33.135
X41.4Y-37.035
X41.4Y-37.835
X41.4Y-38.631
X41.5Y-47.835
X41.5Y-48.635
X41.5Y-49.435
X41.5Y-50.231
X41.6Y-41.635
X41.6Y-42.435
X41.6Y-43.235
X41.6Y-44.031
X41.7Y-54.335
X41.7Y-55.135
X41.7Y-55.935
X41.7Y-56.731
X41.9Y-58.135
X41.9Y-58.931
X41.9Y-59.731
X41.9Y-60.539
X41.9Y-61.335
X42.2Y-25.435
X42.2Y-26.135
X42.2Y-33.135
X42.2Y-37.035
X42.2Y-37.835
X42.2Y-38.631
T2
X24.44Y-67.3
X26.98Y-67.3
X29.52Y-67.3
X31.58Y-59.8
X32.06Y-67.3
X34.12Y-59.8
X36.66Y-59.8
X39.2Y-59.8
T3
X33.775Y-52.465
X35.775Y-52.465
X37.775Y-52.465
X39.775Y-52.465
T4
X24.232Y-40.427
X24.232Y-42.427
X24.232Y-44.427
X24.232Y-46.427
X24.232Y-48.427
X31.645Y-39.922
X31.645Y-46.012
X33.645Y-39.922
X33.645Y-46.012
X35.645Y-39.922
X35.645Y-46.012
X37.645Y-39.922
X37.645Y-46.012
X39.645Y-39.922
X39.645Y-46.012
T5
X16.19Y-18.857
X16.19Y-21.397
X16.19Y-23.938
X16.19Y-26.477
X16.2Y-29.88
X16.2Y-32.42
X16.2Y-34.96
X16.2Y-37.5
X16.2Y-40.69
X16.2Y-43.23
X16.2Y-45.77
X16.2Y-48.31
T6
X28.0Y-53.0
M30
